<svg preserveAspectRatio="none" width="100%" height="100%" overflow="visible" style="display: block;" viewBox="0 0 20 14.7144" fill="none" xmlns="http://www.w3.org/2000/svg">
<path id="Vector" d="M0 7.35762C0 6.0449 0.258789 4.74487 0.761151 3.53207C1.26354 2.31925 1.99973 1.21662 2.92801 0.288382C3.31281 -0.0961404 3.93681 -0.0961142 4.32162 0.288382C4.70649 0.673268 4.7065 1.29823 4.32162 1.68309C3.57651 2.42824 2.98481 3.31307 2.58153 4.28662C2.17835 5.26015 1.97107 6.3039 1.97107 7.35762C1.97111 8.41141 2.17826 9.45505 2.58153 10.4286C2.98485 11.4023 3.57639 12.287 4.32162 13.0322C4.7065 13.417 4.70649 14.0409 4.32162 14.4258C3.93675 14.8106 3.31289 14.8106 2.92801 14.4258C1.99984 13.4976 1.26352 12.3958 0.761151 11.1832C0.258797 9.97043 3.34974e-05 8.67029 0 7.35762ZM18.0289 7.35762C18.0289 6.3038 17.8206 5.26023 17.4174 4.28662C17.0141 3.31313 16.4234 2.42821 15.6784 1.68309C15.2935 1.29823 15.2935 0.673268 15.6784 0.288382C16.0633 -0.0960189 16.6872 -0.0962354 17.072 0.288382C18.0003 1.21662 18.7365 2.31925 19.2388 3.53207C19.7412 4.74484 20 6.04493 20 7.35762C20 8.67029 19.7412 9.97043 19.2388 11.1832C18.7365 12.3958 18.0001 13.4976 17.072 14.4258C16.6872 14.8106 16.0633 14.8105 15.6784 14.4258C15.2935 14.0409 15.2935 13.417 15.6784 13.0322C16.4235 12.287 17.0141 11.4021 17.4174 10.4286C17.8207 9.45503 18.0289 8.41144 18.0289 7.35762ZM4.50861 7.35762C4.50861 5.90165 5.08733 4.50456 6.1167 3.47487C6.50151 3.09031 7.12548 3.09027 7.51031 3.47487C7.8952 3.85965 7.895 4.48354 7.51031 4.86848C6.85046 5.52854 6.47968 6.42431 6.47968 7.35762C6.47975 8.29077 6.85062 9.18568 7.51031 9.84566C7.89506 10.2305 7.89505 10.8544 7.51031 11.2393C7.12539 11.6241 6.50152 11.6242 6.1167 11.2393C5.08739 10.2096 4.50867 8.81351 4.50861 7.35762ZM13.5225 7.35762C13.5225 6.42431 13.1517 5.52854 12.4919 4.86848C12.1071 4.48355 12.107 3.85969 12.4919 3.47487C12.8768 3.09035 13.5007 3.09023 13.8855 3.47487C14.9149 4.50456 15.4936 5.90165 15.4936 7.35762C15.4935 8.81347 14.9148 10.2097 13.8855 11.2393C13.5007 11.6242 12.8768 11.6241 12.4919 11.2393C12.107 10.8544 12.1071 10.2306 12.4919 9.84566C13.1515 9.18569 13.5225 8.29071 13.5225 7.35762ZM9.01721 7.36862V7.35762C9.01721 6.81349 9.45868 6.37235 10.0027 6.37209C10.547 6.37209 10.9883 6.81333 10.9883 7.35762V7.36862C10.9883 7.91292 10.547 8.35416 10.0027 8.35416C9.45868 8.3539 9.01721 7.91276 9.01721 7.36862Z" fill="currentColor"/>
</svg>
