<svg preserveAspectRatio="none" width="100%" height="100%" overflow="visible" style="display: block;" viewBox="0 0 20 17.9756" fill="none" xmlns="http://www.w3.org/2000/svg">
<path id="Vector" d="M11.9749 0.00144218C12.362 -0.0206085 12.7187 0.212015 12.855 0.575018L15.6774 8.10172H19.1139C19.6033 8.10172 20 8.49843 20 8.98779C20 9.47716 19.6033 9.87387 19.1139 9.87387H15.0633C14.6941 9.87387 14.3634 9.64496 14.2336 9.29931L12.1944 3.86121L8.83406 17.3037C8.73998 17.68 8.41237 17.9521 8.02512 17.9741C7.63798 17.9962 7.28126 17.7636 7.14498 17.4006L4.32259 9.87387H0.886076C0.39671 9.87387 0 9.47716 0 8.98779C0 8.49843 0.39671 8.10172 0.886076 8.10172H4.93671C5.30595 8.10172 5.63664 8.33063 5.76642 8.67628L7.80459 14.1134L11.1659 0.671933L11.2114 0.535461C11.3425 0.23121 11.6361 0.0207473 11.9749 0.00144218Z" fill="currentColor"/>
</svg>
