<svg preserveAspectRatio="none" width="100%" height="100%" overflow="visible" style="display: block;" viewBox="0 0 20 20" fill="none" xmlns="http://www.w3.org/2000/svg">
<path id="Vector" d="M18.0282 3.23944C18.0282 2.90325 17.8951 2.58037 17.6574 2.34265C17.4196 2.10493 17.0968 1.97183 16.7606 1.97183H5.49296C5.15677 1.97183 4.83389 2.10493 4.59617 2.34265C4.35845 2.58037 4.22535 2.90325 4.22535 3.23944V4.50704H4.3662C4.9107 4.50704 5.35211 4.94845 5.35211 5.49296C5.35211 6.03746 4.9107 6.47887 4.3662 6.47887H4.22535V9.01408H4.3662C4.9107 9.01408 5.35211 9.45549 5.35211 10C5.35211 10.5445 4.9107 10.9859 4.3662 10.9859H4.22535V13.5211H4.3662C4.9107 13.5211 5.35211 13.9625 5.35211 14.507C5.35211 15.0515 4.9107 15.493 4.3662 15.493H4.22535V16.7606C4.22535 17.0968 4.35845 17.4196 4.59617 17.6574C4.83389 17.8951 5.15677 18.0282 5.49296 18.0282H16.7606C17.0968 18.0282 17.4196 17.8951 17.6574 17.6574C17.8951 17.4196 18.0282 17.0968 18.0282 16.7606V3.23944ZM14.507 13.5211C15.0515 13.5211 15.493 13.9625 15.493 14.507C15.493 15.0515 15.0515 15.493 14.507 15.493H7.74648C7.20197 15.493 6.76056 15.0515 6.76056 14.507C6.76056 13.9625 7.20197 13.5211 7.74648 13.5211H14.507ZM12.3944 8.87324C12.3944 8.53705 12.2613 8.21417 12.0235 7.97645C11.7858 7.73873 11.463 7.60563 11.1268 7.60563C10.7906 7.60563 10.4677 7.73873 10.23 7.97645C9.99225 8.21418 9.85916 8.53705 9.85916 8.87324C9.85916 9.20943 9.99225 9.5323 10.23 9.77003C10.4677 10.0077 10.7906 10.1408 11.1268 10.1408C11.463 10.1408 11.7858 10.0077 12.0235 9.77003C12.2613 9.5323 12.3944 9.20943 12.3944 8.87324ZM14.3662 8.87324C14.3662 9.73239 14.0252 10.5567 13.4177 11.1642C12.8102 11.7717 11.9859 12.1127 11.1268 12.1127C10.2676 12.1127 9.44334 11.7717 8.83583 11.1642C8.22832 10.5567 7.88732 9.73239 7.88732 8.87324C7.88732 8.01409 8.22832 7.18982 8.83583 6.58231C9.44334 5.9748 10.2676 5.6338 11.1268 5.6338C11.9859 5.6338 12.8102 5.9748 13.4177 6.58231C14.0252 7.18982 14.3662 8.01409 14.3662 8.87324ZM20 16.7606C20 17.6197 19.659 18.444 19.0515 19.0515C18.444 19.659 17.6197 20 16.7606 20H5.49296C4.63381 20 3.80954 19.659 3.20202 19.0515C2.59451 18.444 2.25352 17.6197 2.25352 16.7606V15.493H0.985916C0.441409 15.493 0 15.0515 0 14.507C0 13.9625 0.441409 13.5211 0.985916 13.5211H2.25352V10.9859H0.985916C0.441409 10.9859 0 10.5445 0 10C0 9.45549 0.441409 9.01408 0.985916 9.01408H2.25352V6.47887H0.985916C0.441409 6.47887 0 6.03746 0 5.49296C0 4.94845 0.441409 4.50704 0.985916 4.50704H2.25352V3.23944C2.25352 2.38028 2.59451 1.55602 3.20202 0.948504C3.80954 0.340991 4.63381 0 5.49296 0H16.7606C17.6197 2.84581e-07 18.444 0.340992 19.0515 0.948504C19.659 1.55602 20 2.38028 20 3.23944V16.7606Z" fill="currentColor"/>
</svg>
