<svg preserveAspectRatio="none" width="100%" height="100%" overflow="visible" style="display: block;" viewBox="0 0 20 20" fill="none" xmlns="http://www.w3.org/2000/svg">
<path id="Vector" d="M4.50704 7.74648C4.50704 7.41029 4.37395 7.08741 4.13622 6.84969C3.8985 6.61197 3.57563 6.47887 3.23944 6.47887C2.90325 6.47887 2.58037 6.61197 2.34265 6.84969C2.10493 7.08741 1.97183 7.41029 1.97183 7.74648C1.97183 8.08267 2.10493 8.40554 2.34265 8.64327C2.58037 8.88099 2.90325 9.01408 3.23944 9.01408C3.57563 9.01408 3.8985 8.88099 4.13622 8.64327C4.37395 8.40554 4.50704 8.08267 4.50704 7.74648ZM11.2676 14.507C11.2676 14.1709 11.1345 13.848 10.8968 13.6103C10.6591 13.3725 10.3362 13.2394 10 13.2394C9.66381 13.2394 9.34094 13.3725 9.10321 13.6103C8.86549 13.848 8.73239 14.1709 8.73239 14.507C8.73239 14.8432 8.86549 15.1661 9.10321 15.4038C9.34094 15.6416 9.66381 15.7746 10 15.7746C10.3362 15.7746 10.6591 15.6416 10.8968 15.4038C11.1345 15.1661 11.2676 14.8432 11.2676 14.507ZM18.0282 4.3662C18.0282 4.03001 17.8951 3.70713 17.6574 3.46941C17.4196 3.23169 17.0968 3.09859 16.7606 3.09859C16.4244 3.09859 16.1015 3.23169 15.8638 3.46941C15.6261 3.70713 15.493 4.03001 15.493 4.3662C15.493 4.70239 15.6261 5.02526 15.8638 5.26298C16.1015 5.50071 16.4244 5.6338 16.7606 5.6338C17.0968 5.6338 17.4196 5.50071 17.6574 5.26298C17.8951 5.02526 18.0282 4.70239 18.0282 4.3662ZM13.2394 14.507C13.2394 15.3662 12.8984 16.1905 12.2909 16.798C11.9224 17.1665 11.4732 17.4344 10.9859 17.5902V19.0141C10.9859 19.5586 10.5445 20 10 20C9.45549 20 9.01408 19.5586 9.01408 19.0141V17.5902C8.52676 17.4344 8.07757 17.1665 7.70907 16.798C7.10156 16.1905 6.76056 15.3662 6.76056 14.507C6.76056 13.6479 7.10156 12.8236 7.70907 12.2161C8.07765 11.8475 8.52664 11.5786 9.01408 11.4228V0.985916C9.01408 0.441409 9.45549 0 10 0C10.5445 2.90371e-07 10.9859 0.44141 10.9859 0.985916V11.4228C11.4734 11.5786 11.9224 11.8475 12.2909 12.2161C12.8984 12.8236 13.2394 13.6479 13.2394 14.507ZM6.47887 7.74648C6.47887 8.60563 6.13788 9.4299 5.53037 10.0374C5.16187 10.4059 4.71268 10.6738 4.22535 10.8297V19.0141C4.22535 19.5586 3.78394 20 3.23944 20C2.69493 20 2.25352 19.5586 2.25352 19.0141V10.8297C1.7662 10.6738 1.317 10.4059 0.948504 10.0374C0.340991 9.4299 0 8.60563 0 7.74648C0 6.88733 0.340991 6.06306 0.948504 5.45555C1.31708 5.08697 1.76607 4.81802 2.25352 4.66219V0.985916C2.25352 0.441409 2.69493 0 3.23944 0C3.78394 7.25927e-08 4.22535 0.441409 4.22535 0.985916V4.66219C4.7128 4.81802 5.16179 5.08697 5.53037 5.45555C6.13788 6.06306 6.47887 6.88733 6.47887 7.74648ZM20 4.3662C20 5.22535 19.659 6.04962 19.0515 6.65713C18.683 7.02563 18.2338 7.29354 17.7465 7.44938V19.0141C17.7465 19.5586 17.3051 20 16.7606 20C16.2161 20 15.7746 19.5586 15.7746 19.0141V7.44938C15.2873 7.29354 14.8381 7.02563 14.4696 6.65713C13.8621 6.04962 13.5211 5.22535 13.5211 4.3662C13.5211 3.50704 13.8621 2.68278 14.4696 2.07526C14.8382 1.70668 15.2872 1.43774 15.7746 1.28191V0.985916C15.7746 0.441409 16.2161 0 16.7606 0C17.3051 5.80741e-07 17.7465 0.44141 17.7465 0.985916V1.28191C18.2339 1.43774 18.6829 1.70668 19.0515 2.07526C19.659 2.68278 20 3.50705 20 4.3662Z" fill="currentColor"/>
</svg>
