<svg preserveAspectRatio="none" width="100%" height="100%" overflow="visible" style="display: block;" viewBox="0 0 20 20" fill="none" xmlns="http://www.w3.org/2000/svg">
<path id="Vector" d="M15.6338 13.5211C16.493 13.5211 17.3172 13.8621 17.9247 14.4696C18.2933 14.8382 18.5623 15.2872 18.7181 15.7746H19.0141C19.5586 15.7746 20 16.2161 20 16.7606C20 17.3051 19.5586 17.7465 19.0141 17.7465H18.7181C18.5623 18.2339 18.2933 18.6829 17.9247 19.0515C17.3172 19.659 16.493 20 15.6338 20C14.7747 20 13.9504 19.659 13.3429 19.0515C12.9743 18.6829 12.7053 18.2339 12.5495 17.7465H0.985916C0.441409 17.7465 0 17.3051 0 16.7606C0 16.2161 0.441409 15.7746 0.985916 15.7746H12.5495C12.7053 15.2872 12.9743 14.8382 13.3429 14.4696C13.9504 13.8621 14.7747 13.5211 15.6338 13.5211ZM15.6338 15.493C15.2976 15.493 14.9747 15.6261 14.737 15.8638C14.4993 16.1015 14.3662 16.4244 14.3662 16.7606C14.3662 17.0968 14.4993 17.4196 14.737 17.6574C14.9747 17.8951 15.2976 18.0282 15.6338 18.0282C15.97 18.0282 16.2929 17.8951 16.5306 17.6574C16.7683 17.4196 16.9014 17.0968 16.9014 16.7606C16.9014 16.4244 16.7683 16.1015 16.5306 15.8638C16.2929 15.6261 15.97 15.493 15.6338 15.493ZM5.49296 6.76056C6.35211 6.76056 7.17638 7.10156 7.78389 7.70907C8.15247 8.07765 8.42141 8.52664 8.57725 9.01408H19.0141C19.5586 9.01409 20 9.45549 20 10C20 10.5445 19.5586 10.9859 19.0141 10.9859H8.57725C8.42141 11.4734 8.15247 11.9224 7.78389 12.2909C7.17638 12.8984 6.35211 13.2394 5.49296 13.2394C4.63381 13.2394 3.80954 12.8984 3.20202 12.2909C2.83344 11.9224 2.5645 11.4734 2.40867 10.9859H0.985916C0.441409 10.9859 0 10.5445 0 10C0 9.45549 0.441409 9.01408 0.985916 9.01408H2.40867C2.5645 8.52664 2.83344 8.07765 3.20202 7.70907C3.80954 7.10156 4.63381 6.76056 5.49296 6.76056ZM5.49296 8.73239C5.15677 8.73239 4.83389 8.86549 4.59617 9.10321C4.35845 9.34094 4.22535 9.66381 4.22535 10C4.22535 10.3362 4.35845 10.6591 4.59617 10.8968C4.83389 11.1345 5.15677 11.2676 5.49296 11.2676C5.82915 11.2676 6.15202 11.1345 6.38974 10.8968C6.62747 10.6591 6.76056 10.3362 6.76056 10C6.76056 9.66381 6.62747 9.34094 6.38974 9.10321C6.15202 8.86549 5.82915 8.73239 5.49296 8.73239ZM12.2535 0C13.1127 2.84581e-07 13.9369 0.340992 14.5445 0.948504C14.913 1.31708 15.182 1.76607 15.3378 2.25352H19.0141C19.5586 2.25352 20 2.69493 20 3.23944C20 3.78394 19.5586 4.22535 19.0141 4.22535H15.3378C15.182 4.7128 14.913 5.16179 14.5445 5.53037C13.9369 6.13788 13.1127 6.47887 12.2535 6.47887C11.3944 6.47887 10.5701 6.13788 9.96259 5.53037C9.59401 5.16179 9.32507 4.7128 9.16923 4.22535H0.985916C0.441409 4.22535 0 3.78394 0 3.23944C0 2.69493 0.441409 2.25352 0.985916 2.25352H9.16923C9.32507 1.76607 9.59401 1.31708 9.96259 0.948504C10.5701 0.340992 11.3944 0 12.2535 0ZM12.2535 1.97183C11.9173 1.97183 11.5945 2.10493 11.3567 2.34265C11.119 2.58037 10.9859 2.90325 10.9859 3.23944C10.9859 3.57563 11.119 3.8985 11.3567 4.13622C11.5945 4.37395 11.9173 4.50704 12.2535 4.50704C12.5897 4.50704 12.9126 4.37395 13.1503 4.13622C13.388 3.8985 13.5211 3.57563 13.5211 3.23944C13.5211 2.90325 13.388 2.58037 13.1503 2.34265C12.9126 2.10493 12.5897 1.97183 12.2535 1.97183Z" fill="currentColor"/>
</svg>
