<svg preserveAspectRatio="none" width="100%" height="100%" overflow="visible" style="display: block;" viewBox="0 0 20 20" fill="none" xmlns="http://www.w3.org/2000/svg">
<path id="Vector" d="M18.0282 17.3239C18.0282 17.1372 17.9545 16.9576 17.8224 16.8255C17.6903 16.6934 17.5107 16.6197 17.3239 16.6197C17.1372 16.6197 16.9576 16.6934 16.8255 16.8255C16.6934 16.9576 16.6197 17.1372 16.6197 17.3239C16.6197 17.5107 16.6934 17.6903 16.8255 17.8224C16.9576 17.9545 17.1372 18.0282 17.3239 18.0282C17.5107 18.0282 17.6903 17.9545 17.8224 17.8224C17.9545 17.6903 18.0282 17.5107 18.0282 17.3239ZM10.1408 13.9437C10.1408 12.8604 9.71076 11.8212 8.94476 11.0552C8.17877 10.2892 7.13962 9.85916 6.05634 9.85916C4.97306 9.85916 3.93391 10.2892 3.16791 11.0552C2.40192 11.8212 1.97183 12.8604 1.97183 13.9437C1.97183 15.0269 2.40192 16.0661 3.16791 16.8321C3.93391 17.5981 4.97306 18.0282 6.05634 18.0282C7.13962 18.0282 8.17877 17.5981 8.94476 16.8321C9.71076 16.0661 10.1408 15.0269 10.1408 13.9437ZM3.38028 2.67606C3.38028 2.58358 3.36176 2.49191 3.32636 2.40647C3.29098 2.3211 3.23986 2.24294 3.17452 2.1776C3.10917 2.11225 3.03101 2.06114 2.94564 2.02575C2.8602 1.99036 2.76854 1.97183 2.67606 1.97183C2.58358 1.97183 2.49191 1.99036 2.40647 2.02575C2.3211 2.06114 2.24294 2.11225 2.1776 2.1776C2.11225 2.24294 2.06114 2.3211 2.02575 2.40647C1.99036 2.49191 1.97183 2.58358 1.97183 2.67606C1.97183 2.76854 1.99036 2.8602 2.02575 2.94564C2.06114 3.03101 2.11225 3.10917 2.1776 3.17452C2.24294 3.23986 2.3211 3.29098 2.40647 3.32636C2.49191 3.36176 2.58358 3.38028 2.67606 3.38028C2.76854 3.38028 2.8602 3.36175 2.94564 3.32636C3.03101 3.29098 3.10917 3.23986 3.17452 3.17452C3.23986 3.10917 3.29098 3.03101 3.32636 2.94564C3.36176 2.8602 3.38028 2.76854 3.38028 2.67606ZM18.0282 2.67606C18.0282 2.48929 17.9545 2.30967 17.8224 2.1776C17.6903 2.04553 17.5107 1.97183 17.3239 1.97183C17.1372 1.97183 16.9576 2.04553 16.8255 2.1776C16.6934 2.30967 16.6197 2.48929 16.6197 2.67606C16.6197 2.8524 16.6871 3.02077 16.8057 3.15031C16.8132 3.1574 16.8214 3.16384 16.8288 3.17121C16.8358 3.17822 16.8418 3.18606 16.8486 3.19322C16.9783 3.31243 17.1471 3.38028 17.3239 3.38028C17.5107 3.38028 17.6903 3.30658 17.8224 3.17452C17.9545 3.04245 18.0282 2.86283 18.0282 2.67606ZM20 2.67606C20 3.38579 19.7184 4.06681 19.2165 4.56866C18.7147 5.07052 18.0337 5.35211 17.3239 5.35211C16.9549 5.35211 16.5943 5.27465 16.2621 5.13094L10.9771 10.4159C11.7099 11.4381 12.1127 12.6697 12.1127 13.9437C12.1127 14.2031 12.0937 14.4605 12.061 14.715L15.2267 15.6646C15.2906 15.5838 15.3577 15.5049 15.4313 15.4313C15.9332 14.9295 16.6142 14.6479 17.3239 14.6479C18.0337 14.6479 18.7147 14.9295 19.2165 15.4313C19.7184 15.9332 20 16.6142 20 17.3239C20 18.0337 19.7184 18.7147 19.2165 19.2165C18.7147 19.7184 18.0337 20 17.3239 20C16.6142 20 15.9332 19.7184 15.4313 19.2165C14.9837 18.7689 14.7126 18.1787 14.6589 17.5528L11.4943 16.6043C11.2032 17.1993 10.8161 17.749 10.3389 18.2262C9.20313 19.362 7.66258 20 6.05634 20C4.4501 20 2.90955 19.362 1.77377 18.2262C0.637984 17.0904 0 15.5499 0 13.9437C0 12.3374 0.637984 10.7969 1.77377 9.66109C2.2512 9.18366 2.80042 8.79464 3.39569 8.50352L2.44608 5.34001C2.17353 5.31648 1.90521 5.25358 1.65163 5.14855C1.32705 5.01407 1.03188 4.81709 0.783451 4.56866C0.535018 4.32023 0.338047 4.02506 0.203565 3.70048C0.0690806 3.37581 0 3.02748 0 2.67606C0 2.32463 0.0690806 1.9763 0.203565 1.65163C0.338047 1.32705 0.535018 1.03188 0.783451 0.783451C1.03188 0.535018 1.32705 0.338047 1.65163 0.203565C1.9763 0.0690805 2.32463 0 2.67606 0C3.02748 1.76375e-08 3.37581 0.0690805 3.70048 0.203565C4.02506 0.338047 4.32023 0.535018 4.56866 0.783451C4.81709 1.03188 5.01407 1.32705 5.14855 1.65163C5.28303 1.9763 5.35211 2.32463 5.35211 2.67606C5.35211 3.02748 5.28303 3.37581 5.14855 3.70048C5.01407 4.02506 4.81709 4.32023 4.56866 4.56866C4.49525 4.64208 4.41538 4.70807 4.33429 4.77223L5.28389 7.93794C5.53875 7.90517 5.79661 7.88732 6.05634 7.88732C7.32981 7.88732 8.56108 8.28958 9.58297 9.02179L14.868 3.7368C14.7246 3.40492 14.6479 3.04456 14.6479 2.67606C14.6479 1.96632 14.9295 1.28531 15.4313 0.783451C15.9332 0.281593 16.6142 0 17.3239 0C18.0337 2.8458e-07 18.7147 0.281593 19.2165 0.783451C19.7184 1.28531 20 1.96632 20 2.67606Z" fill="currentColor"/>
</svg>
