<svg preserveAspectRatio="none" width="100%" height="100%" overflow="visible" style="display: block;" viewBox="0 0 18.1609 20" fill="none" xmlns="http://www.w3.org/2000/svg">
<path id="Vector" d="M0 6.52119C0 5.48875 0.561218 4.54168 1.46103 4.03736L7.66792 0.378053L7.68768 0.366379C8.12347 0.126102 8.61335 0 9.11099 0C9.60847 3.15226e-05 10.0977 0.12622 10.5334 0.366379C10.5402 0.370118 10.5474 0.37412 10.5541 0.378053L16.761 4.03736C16.8111 4.06689 16.856 4.10236 16.8974 4.14062C17.6875 4.66976 18.1653 5.56268 18.1609 6.52209V13.2202C18.1608 14.2438 17.608 15.1831 16.7205 15.6906L16.7214 15.6915L10.5145 19.6175C10.5005 19.6263 10.486 19.6346 10.4714 19.6426C10.0451 19.8766 9.56681 20 9.08046 20C8.59411 20 8.11581 19.8766 7.68948 19.6426C7.67495 19.6346 7.66038 19.6263 7.64637 19.6175L1.43948 15.6915V15.6906C1.01122 15.4464 0.652712 15.0965 0.400503 14.6722C0.139515 14.2332 0.00102646 13.7318 0 13.2211V6.52119ZM9.08944 12.8736C9.53381 12.8736 9.89404 13.2338 9.89404 13.6782C9.89383 14.1224 9.53368 14.4828 9.08944 14.4828H9.08046C8.63622 14.4828 8.27607 14.1224 8.27586 13.6782C8.27586 13.2338 8.63609 12.8736 9.08046 12.8736H9.08944ZM8.27586 10V6.32184C8.27586 5.87747 8.63609 5.51724 9.08046 5.51724C9.52483 5.51724 9.88506 5.87747 9.88506 6.32184V10C9.88485 10.4442 9.5247 10.8046 9.08046 10.8046C8.63622 10.8046 8.27607 10.4442 8.27586 10ZM1.6092 13.2184L1.62087 13.3836C1.64328 13.5478 1.69823 13.7063 1.78341 13.8497C1.89699 14.0407 2.05983 14.1983 2.25485 14.305C2.26989 14.3132 2.28526 14.3218 2.29975 14.331L8.47073 18.2355C8.65804 18.3368 8.8674 18.3908 9.08046 18.3908C9.29326 18.3908 9.50216 18.3366 9.6893 18.2355L15.8612 14.331C15.8751 14.3222 15.8898 14.3138 15.9043 14.3059C16.3065 14.0846 16.5516 13.6677 16.5517 13.2202V6.5167C16.5544 6.06752 16.3144 5.65209 15.924 5.43014C15.8762 5.40293 15.8331 5.37011 15.7929 5.33495L9.75665 1.77532C9.55891 1.66634 9.33677 1.60923 9.11099 1.6092C8.88647 1.6092 8.66494 1.66486 8.46803 1.77263L2.2782 5.42385C2.27122 5.42796 2.26374 5.43162 2.25665 5.43552C1.85383 5.65701 1.6092 6.07386 1.6092 6.52119V13.2184Z" fill="currentColor"/>
</svg>
