<svg preserveAspectRatio="none" width="100%" height="100%" overflow="visible" style="display: block;" viewBox="0 0 20 17.5447" fill="none" xmlns="http://www.w3.org/2000/svg">
<path id="Vector" d="M10 0C10.441 0 10.8748 0.114034 11.2591 0.330489C11.6433 0.546949 11.9654 0.858568 12.194 1.23574L12.1958 1.23933L19.6506 13.6875L19.6578 13.6991C19.8812 14.0867 19.9988 14.5261 20 14.9735C20.0011 15.4211 19.8858 15.8617 19.6641 16.2505C19.4425 16.6394 19.1221 16.9628 18.7364 17.1899C18.3507 17.417 17.9123 17.5395 17.4647 17.5447H2.53616C2.08839 17.5396 1.64949 17.4171 1.26359 17.1899C0.877814 16.9628 0.558435 16.6386 0.336786 16.2496C0.115088 15.8606 -0.00127171 15.4204 1.0483e-05 14.9726C0.00130957 14.5248 0.120061 14.0851 0.343971 13.6973L0.350257 13.6866L7.80153 1.24562C7.80341 1.24242 7.80499 1.23892 7.80692 1.23574C8.03545 0.858573 8.35758 0.546947 8.74181 0.330489C9.12592 0.114113 9.55914 7.49021e-05 10 0ZM10 1.60934C9.83585 1.60941 9.67423 1.6518 9.53121 1.73237C9.38815 1.81301 9.26876 1.92959 9.18366 2.07005L1.73687 14.5011L1.73777 14.502C1.65439 14.6464 1.60986 14.8103 1.60935 14.9771C1.60887 15.1439 1.65249 15.3081 1.73508 15.4531C1.81763 15.5979 1.93632 15.7187 2.07994 15.8033C2.2237 15.8879 2.38731 15.9334 2.55412 15.9353H17.4468C17.6134 15.9334 17.7765 15.8878 17.9201 15.8033C18.0638 15.7187 18.1832 15.5979 18.2658 15.4531C18.3483 15.3083 18.391 15.1445 18.3907 14.978C18.3902 14.8113 18.3464 14.6473 18.2631 14.5029V14.502L10.8172 2.07005L10.7472 1.96946C10.6709 1.87373 10.577 1.79287 10.4697 1.73237C10.3265 1.65173 10.1643 1.60934 10 1.60934ZM10.0099 12.2604C10.4541 12.2606 10.8145 12.6209 10.8145 13.0651C10.8145 13.5094 10.4542 13.8696 10.0099 13.8698H10C9.5558 13.8695 9.19533 13.5094 9.19533 13.0651C9.19543 12.6209 9.55585 12.2607 10 12.2604H10.0099ZM9.19533 10.3062V6.62774C9.19543 6.18356 9.55585 5.82331 10 5.82307C10.4443 5.82307 10.8046 6.18342 10.8047 6.62774V10.3062C10.8047 10.7506 10.4444 11.1109 10 11.1109C9.5558 11.1107 9.19533 10.7505 9.19533 10.3062Z" fill="currentColor"/>
</svg>
