<svg preserveAspectRatio="none" width="100%" height="100%" overflow="visible" style="display: block;" viewBox="0 0 20 15.493" fill="none" xmlns="http://www.w3.org/2000/svg">
<path id="Vector" d="M16.7606 13.5211C17.3051 13.5211 17.7465 13.9625 17.7465 14.507C17.7465 15.0515 17.3051 15.493 16.7606 15.493H0.985916C0.441409 15.493 0 15.0515 0 14.507C0 13.9625 0.441409 13.5211 0.985916 13.5211H16.7606ZM12.2535 6.76056C12.798 6.76056 13.2394 7.20197 13.2394 7.74648C13.2394 8.29098 12.798 8.73239 12.2535 8.73239H0.985916C0.441409 8.73239 0 8.29099 0 7.74648C0 7.20197 0.441409 6.76056 0.985916 6.76056H12.2535ZM19.0141 0C19.5586 5.80742e-07 20 0.44141 20 0.985916C20 1.53042 19.5586 1.97183 19.0141 1.97183H0.985916C0.441409 1.97183 0 1.53042 0 0.985916C0 0.441409 0.441409 0 0.985916 0H19.0141Z" fill="currentColor"/>
</svg>
