<svg preserveAspectRatio="none" width="100%" height="100%" overflow="visible" style="display: block;" viewBox="0 0 20 19.9995" fill="none" xmlns="http://www.w3.org/2000/svg">
<path id="Vector" d="M18.0282 19.0136V0.985892C18.0282 0.441399 18.4696 0 19.0141 0C19.5586 5.80728e-07 20 0.441399 20 0.985892V19.0136C20 19.5581 19.5586 19.9995 19.0141 19.9995C18.4696 19.9995 18.0282 19.5581 18.0282 19.0136ZM4.7957 4.79522C5.18071 4.41021 5.80589 4.41021 6.19091 4.79522C6.57592 5.18024 6.57592 5.80542 6.19091 6.19043L3.36747 9.01387H12.2537C12.7982 9.01387 13.2396 9.45527 13.2396 9.99976C13.2396 10.5443 12.7982 10.9857 12.2537 10.9857H3.36747L6.19091 13.8091C6.57592 14.1941 6.57592 14.8193 6.19091 15.2043C5.80589 15.5893 5.18071 15.5893 4.7957 15.2043L0.288761 10.6974C-0.0962537 10.3124 -0.0962536 9.68717 0.288761 9.30216L4.7957 4.79522Z" fill="currentColor"/>
</svg>
