<svg preserveAspectRatio="none" width="100%" height="100%" overflow="visible" style="display: block;" viewBox="0 0 20 20" fill="none" xmlns="http://www.w3.org/2000/svg">
<path id="Vector" d="M19.0141 18.0282C19.5586 18.0282 20 18.4696 20 19.0141C20 19.5586 19.5586 20 19.0141 20H0.985916C0.441409 20 0 19.5586 0 19.0141C0 18.4696 0.441409 18.0282 0.985916 18.0282H19.0141ZM9.01408 0.985916C9.01408 0.441409 9.45549 0 10 0C10.5445 2.90371e-07 10.9859 0.44141 10.9859 0.985916V9.87236L13.8094 7.04886C14.1944 6.66383 14.8196 6.66383 15.2047 7.04886C15.5897 7.43388 15.5897 8.05908 15.2047 8.4441L10.6976 12.9511C10.5127 13.136 10.2615 13.2394 10 13.2394C9.73852 13.2394 9.48727 13.136 9.30238 12.9511L4.79533 8.4441C4.41031 8.05908 4.41031 7.43388 4.79533 7.04886C5.18036 6.66383 5.80556 6.66383 6.19058 7.04886L9.01408 9.87236V0.985916Z" fill="currentColor"/>
</svg>
