<svg preserveAspectRatio="none" width="100%" height="100%" overflow="visible" style="display: block;" viewBox="0 0 9.87427 20" fill="none" xmlns="http://www.w3.org/2000/svg">
<path id="Vector" d="M4.93714 0C5.17214 6.39404e-08 5.39794 0.0929266 5.56411 0.259098L9.61475 4.30973C9.96078 4.65577 9.96078 5.21765 9.61475 5.56369C9.26871 5.90972 8.70683 5.90972 8.36079 5.56369L5.82321 3.02611V16.9739L8.36079 14.4363C8.70683 14.0903 9.26871 14.0903 9.61475 14.4363C9.96078 14.7823 9.96078 15.3442 9.61475 15.6903L5.56411 19.7409C5.39794 19.9071 5.17214 20 4.93714 20C4.70213 20 4.47633 19.9071 4.31016 19.7409L0.259526 15.6903C-0.0865086 15.3442 -0.0865086 14.7823 0.259526 14.4363C0.60556 14.0903 1.16745 14.0903 1.51348 14.4363L4.05106 16.9739V3.02611L1.51348 5.56369C1.16745 5.90972 0.60556 5.90972 0.259526 5.56369C-0.0865084 5.21765 -0.0865085 4.65577 0.259526 4.30973L4.31016 0.259098L4.37543 0.200752C4.53312 0.0714923 4.73145 0 4.93714 0Z" fill="currentColor"/>
</svg>
