<svg preserveAspectRatio="none" width="100%" height="100%" overflow="visible" style="display: block;" viewBox="0 0 20 20" fill="none" xmlns="http://www.w3.org/2000/svg">
<path id="Vector" d="M7.04886 11.5559C7.43388 11.1709 8.05908 11.1709 8.4441 11.5559C8.82913 11.9409 8.82913 12.5661 8.4441 12.9511L3.36708 18.0282H5.49296C6.03746 18.0282 6.47887 18.4696 6.47887 19.0141C6.47887 19.5586 6.03746 20 5.49296 20H0.985916C0.441409 20 0 19.5586 0 19.0141V14.507C0 13.9625 0.441409 13.5211 0.985916 13.5211C1.53042 13.5211 1.97183 13.9625 1.97183 14.507V16.6329L7.04886 11.5559ZM20 5.49296C20 6.03746 19.5586 6.47887 19.0141 6.47887C18.4696 6.47887 18.0282 6.03746 18.0282 5.49296V3.36708L12.9511 8.4441C12.5661 8.82913 11.9409 8.82913 11.5559 8.4441C11.1709 8.05908 11.1709 7.43388 11.5559 7.04886L16.6329 1.97183H14.507C13.9625 1.97183 13.5211 1.53042 13.5211 0.985916C13.5211 0.441409 13.9625 0 14.507 0H19.0141C19.5586 5.80742e-07 20 0.44141 20 0.985916V5.49296Z" fill="currentColor"/>
</svg>
