<svg preserveAspectRatio="none" width="100%" height="100%" overflow="visible" style="display: block;" viewBox="0 0 20 19.9995" fill="none" xmlns="http://www.w3.org/2000/svg">
<path id="Vector" d="M0 19.0136V0.985892C0 0.441399 0.441399 0 0.985892 0C1.53039 0 1.97178 0.441399 1.97178 0.985892V19.0136C1.97178 19.5581 1.53039 19.9995 0.985892 19.9995C0.441399 19.9995 0 19.5581 0 19.0136ZM13.8091 4.79522C14.1941 4.41021 14.8193 4.41021 15.2043 4.79522L19.7112 9.30216C20.0963 9.68717 20.0963 10.3124 19.7112 10.6974L15.2043 15.2043C14.8193 15.5893 14.1941 15.5893 13.8091 15.2043C13.4241 14.8193 13.4241 14.1941 13.8091 13.8091L16.6325 10.9857H7.74629C7.2018 10.9857 6.7604 10.5443 6.7604 9.99976C6.7604 9.45527 7.2018 9.01387 7.74629 9.01387H16.6325L13.8091 6.19043C13.4241 5.80542 13.4241 5.18024 13.8091 4.79522Z" fill="currentColor"/>
</svg>
