<svg preserveAspectRatio="none" width="100%" height="100%" overflow="visible" style="display: block;" viewBox="0 0 20 17.9752" fill="none" xmlns="http://www.w3.org/2000/svg">
<path id="Vector" d="M8.10109 8.98758C8.10109 7.87973 7.66118 6.81709 6.87782 6.03372C6.09446 5.25036 5.03181 4.81045 3.92397 4.81045H0.886057C0.396701 4.81045 0 4.41375 0 3.92439C0 3.43504 0.396701 3.03834 0.886057 3.03834H3.92397C5.5018 3.03834 7.01506 3.66508 8.13076 4.78078C9.24646 5.89648 9.87321 7.40974 9.87321 8.98758C9.87321 10.0954 10.3131 11.1581 11.0965 11.9414C11.8798 12.7248 12.9425 13.1647 14.0503 13.1647H16.9735L15.4486 11.6398C15.1026 11.2938 15.1026 10.7319 15.4486 10.3859C15.7947 10.0399 16.3565 10.0399 16.7026 10.3859L19.7405 13.4238C20.0865 13.7698 20.0865 14.3317 19.7405 14.6777L16.7026 17.7156C16.3565 18.0617 15.7947 18.0617 15.4486 17.7156C15.1026 17.3696 15.1026 16.8077 15.4486 16.4617L16.9735 14.9368H14.0503C12.4725 14.9368 10.9592 14.3101 9.84354 13.1944C8.72784 12.0787 8.10109 10.5654 8.10109 8.98758ZM6.42985 12.3301C6.82101 12.0361 7.37593 12.115 7.66993 12.5061C7.96385 12.8973 7.88504 13.4522 7.49391 13.7462C6.46455 14.5199 5.21166 14.937 3.92397 14.9358V14.9368H0.886057C0.396701 14.9368 0 14.5401 0 14.0508C0 13.5614 0.396701 13.1647 0.886057 13.1647H3.92496C4.82829 13.1657 5.70776 12.8728 6.42985 12.3301ZM15.4486 0.25952C15.7947 -0.0865067 16.3565 -0.0865067 16.7026 0.25952L19.7405 3.29743C20.0865 3.64346 20.0865 4.20533 19.7405 4.55136L16.7026 7.58927C16.3565 7.93529 15.7947 7.93529 15.4486 7.58927C15.1026 7.24324 15.1026 6.68137 15.4486 6.33534L16.9735 4.81045H14.0493C13.1463 4.80912 12.2671 5.10222 11.5454 5.64508C11.1545 5.93922 10.5986 5.86091 10.3044 5.47005C10.0102 5.07907 10.0885 4.52321 10.4794 4.22898C11.5086 3.45468 12.7624 3.03672 14.0503 3.03834H16.9735L15.4486 1.51345C15.1026 1.16742 15.1026 0.605547 15.4486 0.25952Z" fill="currentColor"/>
</svg>
