<svg preserveAspectRatio="none" width="100%" height="100%" overflow="visible" style="display: block;" viewBox="0 0 20 17.9747" fill="none" xmlns="http://www.w3.org/2000/svg">
<path id="Vector" d="M18.2278 2.91139C18.2278 2.60925 18.1082 2.31907 17.8946 2.10542C17.6809 1.89177 17.3908 1.77215 17.0886 1.77215H2.91139C2.60925 1.77215 2.31907 1.89177 2.10542 2.10542C1.89177 2.31907 1.77215 2.60925 1.77215 2.91139V15.0633C1.77215 15.3654 1.89177 15.6556 2.10542 15.8693C2.31907 16.0829 2.60925 16.2025 2.91139 16.2025H17.0886C17.3908 16.2025 17.6809 16.0829 17.8946 15.8693C18.1082 15.6556 18.2278 15.3654 18.2278 15.0633V2.91139ZM15.0633 12.1519C15.5527 12.1519 15.9494 12.5486 15.9494 13.038C15.9494 13.5273 15.5527 13.9241 15.0633 13.9241H4.93671C4.44734 13.9241 4.05063 13.5273 4.05063 13.038C4.05063 12.5486 4.44734 12.1519 4.93671 12.1519H15.0633ZM15.0633 8.10127C15.5527 8.10127 15.9494 8.49798 15.9494 8.98734C15.9494 9.47671 15.5527 9.87342 15.0633 9.87342H4.93671C4.44734 9.87342 4.05063 9.47671 4.05063 8.98734C4.05063 8.49798 4.44734 8.10127 4.93671 8.10127H15.0633ZM15.0633 4.05063C15.5527 4.05063 15.9494 4.44734 15.9494 4.93671C15.9494 5.42608 15.5527 5.82278 15.0633 5.82278H4.93671C4.44734 5.82278 4.05063 5.42608 4.05063 4.93671C4.05063 4.44734 4.44734 4.05063 4.93671 4.05063H15.0633ZM20 15.0633C20 15.8354 19.6935 16.5762 19.1475 17.1222C18.6016 17.6682 17.8608 17.9747 17.0886 17.9747H2.91139C2.13924 17.9747 1.39844 17.6682 0.852453 17.1222C0.306461 16.5762 0 15.8354 0 15.0633V2.91139C0 2.13924 0.30646 1.39844 0.852453 0.852453C1.39844 0.30646 2.13924 0 2.91139 0H17.0886C17.8608 0 18.6016 0.306461 19.1475 0.852453C19.6935 1.39844 20 2.13924 20 2.91139V15.0633Z" fill="currentColor"/>
</svg>
