<svg preserveAspectRatio="none" width="100%" height="100%" overflow="visible" style="display: block;" viewBox="0 0 20 20" fill="none" xmlns="http://www.w3.org/2000/svg">
<path id="Vector" d="M0.259514 0.259514C0.605534 -0.0865049 1.1674 -0.0865048 1.51342 0.259514L18.4935 17.2396C18.5334 17.2728 18.5703 17.3099 18.6043 17.3504L19.7405 18.4866C20.0865 18.8326 20.0865 19.3945 19.7405 19.7405C19.3945 20.0865 18.8326 20.0865 18.4866 19.7405L17.6727 18.9266C17.4809 18.9659 17.2853 18.9861 17.0883 18.986V18.987H2.9117C2.13958 18.987 1.39881 18.6805 0.852844 18.1345C0.306875 17.5886 0.000427445 16.8478 0.000427445 16.0757V3.92431C0.000271521 3.36977 0.1583 2.82658 0.456302 2.35891C0.53982 2.22785 0.634723 2.10525 0.737144 1.99006L0.259514 1.51342C-0.0865048 1.1674 -0.0865048 0.605534 0.259514 0.259514ZM18.2275 15.0631V3.92431C18.2275 3.62218 18.1079 3.33201 17.8942 3.11837C17.6806 2.90473 17.3904 2.78512 17.0883 2.78512H5.94954C5.46019 2.78512 5.0635 2.38843 5.0635 1.89908C5.0635 1.40974 5.46019 1.01304 5.94954 1.01304H17.0883C17.8604 1.01304 18.6012 1.31949 19.1472 1.86546C19.6931 2.41143 19.9996 3.15219 19.9996 3.92431V15.0631C19.9996 15.5524 19.6029 15.9491 19.1135 15.9491C18.6242 15.9491 18.2275 15.5524 18.2275 15.0631ZM15.0631 9.11396C15.5524 9.11396 15.9491 9.51066 15.9491 10C15.9491 10.4893 15.5524 10.886 15.0631 10.886H14.0505C13.5611 10.886 13.1644 10.4893 13.1644 10C13.1644 9.51066 13.5611 9.11396 14.0505 9.11396H15.0631ZM15.0631 5.0635C15.5524 5.0635 15.9491 5.46019 15.9491 5.94954C15.9491 6.43889 15.5524 6.83558 15.0631 6.83558H10C9.51066 6.83558 9.11396 6.43889 9.11396 5.94954C9.11396 5.46019 9.51066 5.0635 10 5.0635H15.0631ZM1.7725 16.0757C1.7725 16.3778 1.89212 16.668 2.10576 16.8816C2.3194 17.0953 2.60956 17.2149 2.9117 17.2149H15.961L13.6826 14.9365H4.93693C4.44758 14.9365 4.05089 14.5398 4.05089 14.0505C4.05089 13.5611 4.44758 13.1644 4.93693 13.1644H11.9105L9.63214 10.886H4.93693C4.44758 10.886 4.05089 10.4893 4.05089 10C4.05089 9.51066 4.44758 9.11396 4.93693 9.11396H7.86006L5.58168 6.83558H4.93693C4.44758 6.83558 4.05089 6.43889 4.05089 5.94954C4.05089 5.76652 4.10612 5.59629 4.2012 5.4551L1.99599 3.24989C1.98098 3.2703 1.96418 3.28975 1.9505 3.3112C1.83392 3.49422 1.77242 3.70732 1.7725 3.92431V16.0757Z" fill="currentColor"/>
</svg>
