<svg preserveAspectRatio="none" width="100%" height="100%" overflow="visible" style="display: block;" viewBox="0 0 19.2913 20" fill="none" xmlns="http://www.w3.org/2000/svg">
<path id="Vector" d="M14.8651 7.00098C14.8651 5.61684 14.3153 4.28928 13.3366 3.31055C12.3579 2.33192 11.0302 1.78207 9.64617 1.78207C8.26216 1.78216 6.9344 2.3319 5.95574 3.31055C4.97711 4.28927 4.42726 5.61692 4.42726 7.00098C4.42726 8.38504 4.97711 9.71269 5.95574 10.6914C6.9344 11.6701 8.26216 12.2198 9.64617 12.2199C11.0302 12.2199 12.3579 11.67 13.3366 10.6914C14.3153 9.71268 14.8651 8.38512 14.8651 7.00098ZM14.8492 11.6839C14.7674 11.7748 14.6835 11.8645 14.5966 11.9514C13.6319 12.916 12.4144 13.5677 11.1001 13.8468L13.0472 17.221L13.9373 15.422L14.0049 15.3067C14.1812 15.0537 14.4794 14.9075 14.7935 14.9278L16.7963 15.0561L14.8492 11.6839ZM2.49503 15.0571L4.49687 14.9278L4.63112 14.9288C4.93831 14.9551 5.21463 15.14 5.35409 15.422L6.24215 17.22L8.19029 13.8468C6.87687 13.5674 5.65984 12.9155 4.69576 11.9514C4.60848 11.8641 4.52433 11.7742 4.44218 11.6829L2.49503 15.0571ZM16.6472 7.00098C16.6472 8.06145 16.405 9.0962 15.954 10.0341L19.1721 15.607C19.3364 15.8915 19.3305 16.2438 19.1572 16.5229C18.9838 16.8021 18.6706 16.9627 18.3427 16.9416L15.2718 16.7437L13.9074 19.5033C13.7618 19.7979 13.4661 19.9889 13.1377 19.9995C12.8092 20.0101 12.5015 19.8386 12.3372 19.554L9.64518 14.891L6.95418 19.553C6.7899 19.8376 6.48202 20.0091 6.15364 19.9985C5.8252 19.988 5.52957 19.7969 5.38393 19.5023L4.01854 16.7437L0.948648 16.9426C0.620695 16.9638 0.307632 16.803 0.134187 16.5239C-0.0391681 16.2448 -0.0449989 15.8926 0.11927 15.608L3.33733 10.0331C2.88681 9.09559 2.64519 8.0609 2.64519 7.00098C2.64519 5.14429 3.38293 3.36349 4.69576 2.05057C6.00862 0.737715 7.78952 9.25829e-05 9.64617 0C11.5029 0 13.2837 0.737742 14.5966 2.05057C15.9095 3.36351 16.6472 5.14421 16.6472 7.00098Z" fill="currentColor"/>
</svg>
