<svg preserveAspectRatio="none" width="100%" height="100%" overflow="visible" style="display: block;" viewBox="0 0 20 20" fill="none" xmlns="http://www.w3.org/2000/svg">
<path id="Vector" d="M18.2278 10C18.2278 9.37284 18.1533 8.7499 18.0123 8.14181L15.536 9.10206L14.0289 13.8558L15.7318 15.8989C15.7601 15.8715 15.79 15.8457 15.8178 15.8178C16.5819 15.0538 17.1884 14.147 17.6019 13.1487C18.0153 12.1505 18.2278 11.0805 18.2278 10ZM5.67939 16.9996C6.05288 17.2301 6.44387 17.4331 6.85127 17.6019C7.8495 18.0153 8.91952 18.2278 10 18.2278C11.0805 18.2278 12.1505 18.0153 13.1487 17.6019C13.5612 17.431 13.9568 17.2249 14.3345 16.9907L12.6226 14.9367H7.47033L5.67939 16.9996ZM6.21737 8.77176L7.61076 13.1646H12.3892L13.7816 8.77176L10 6.03046L6.21737 8.77176ZM9.11392 1.82061C8.3376 1.90471 7.57548 2.09817 6.85127 2.39814C5.85302 2.81163 4.94619 3.41813 4.18216 4.18216C3.51717 4.84715 2.97107 5.62005 2.56824 6.46756L5.05044 7.4288L9.11392 4.48477V1.82061ZM10.8861 4.48477L14.9486 7.4288L17.4308 6.46756C17.028 5.6202 16.4827 4.84705 15.8178 4.18216C15.0538 3.41813 14.147 2.81163 13.1487 2.39814C12.4245 2.09817 11.6624 1.90471 10.8861 1.82061V4.48477ZM1.77215 10C1.77215 11.0805 1.98467 12.1505 2.39814 13.1487C2.81163 14.147 3.41813 15.0538 4.18216 15.8178C4.21366 15.8493 4.24709 15.8788 4.27907 15.9098L5.99486 13.933L4.46301 9.10206L1.98675 8.14181C1.84576 8.74983 1.77215 9.37291 1.77215 10ZM20 10C20 11.3132 19.7411 12.6139 19.2385 13.8271C18.736 15.0403 17.9993 16.1423 17.0708 17.0708C16.1423 17.9993 15.0403 18.736 13.8271 19.2385C12.6139 19.7411 11.3132 20 10 20C8.68678 20 7.38612 19.7411 6.17286 19.2385C4.95975 18.736 3.85769 17.9993 2.92919 17.0708C2.0007 16.1423 1.26402 15.0403 0.761472 13.8271C0.258924 12.6139 0 11.3132 0 10C0 8.92458 0.176415 7.85877 0.515229 6.84138C0.52449 6.77447 0.541173 6.70734 0.566653 6.64161C0.58481 6.59482 0.607113 6.55087 0.631922 6.5091C0.673793 6.39674 0.71551 6.28382 0.761472 6.17286C1.26402 4.95975 2.0007 3.85769 2.92919 2.92919C3.85769 2.0007 4.95975 1.26402 6.17286 0.761472C7.38612 0.258924 8.68678 0 10 0C11.3132 0 12.6139 0.258924 13.8271 0.761472C15.0403 1.26402 16.1423 2.0007 17.0708 2.92919C17.9993 3.85769 18.736 4.95975 19.2385 6.17286C19.2845 6.28382 19.3262 6.39674 19.3681 6.5091C19.3929 6.55087 19.4152 6.59482 19.4333 6.64161C19.4588 6.70734 19.4755 6.77447 19.4848 6.84138C19.8236 7.85877 20 8.92458 20 10Z" fill="currentColor"/>
</svg>
