<svg preserveAspectRatio="none" width="100%" height="100%" overflow="visible" style="display: block;" viewBox="0 0 20 20" fill="none" xmlns="http://www.w3.org/2000/svg">
<path id="Vector" d="M12.1518 15.9491H7.84819V16.0757C7.84819 16.6464 8.07457 17.194 8.47811 17.5976C8.88165 18.0011 9.42931 18.2275 10 18.2275C10.5707 18.2275 11.1183 18.0011 11.5219 17.5976C11.9254 17.194 12.1518 16.6464 12.1518 16.0757V15.9491ZM5.40368 6.65758C5.05398 7.39294 4.85091 8.19302 4.81035 9.0131V12.0252C4.81035 12.0608 4.80869 12.0967 4.80442 12.132C4.71622 12.8603 4.46441 13.558 4.07264 14.177H12.9231L5.40368 6.65758ZM15.1897 12.0252V9.01606C15.1348 7.8964 14.7781 6.81222 14.1563 5.87933C13.5319 4.94281 12.664 4.19383 11.6465 3.71269C11.3367 3.56623 11.1392 3.25432 11.1392 2.9117C11.1392 2.60956 11.0196 2.3194 10.8059 2.10576C10.5923 1.89212 10.3021 1.7725 10 1.7725C9.69787 1.7725 9.4077 1.89212 9.19406 2.10576C8.98042 2.3194 8.86081 2.60956 8.86081 2.9117C8.86081 3.25416 8.66304 3.56614 8.35351 3.71269C8.15146 3.80837 7.95903 3.91175 7.776 4.02419C7.35908 4.28013 6.81379 4.14935 6.5577 3.73247C6.30183 3.31562 6.43174 2.7703 6.84843 2.51417C6.94547 2.45455 7.04485 2.39898 7.14411 2.34408C7.25557 1.78331 7.53092 1.26307 7.94115 0.852844C8.48712 0.306875 9.22788 0.000427475 10 0.000427475C10.7721 0.000427475 11.5129 0.306875 12.0589 0.852844C12.4686 1.26256 12.7432 1.78213 12.8549 2.3421C13.9688 2.95824 14.9219 3.83317 15.6307 4.89638C16.4333 6.10042 16.8929 7.50039 16.9607 8.94585C16.9614 8.95969 16.9617 8.97354 16.9617 8.98739V12.0252C16.9617 12.5146 16.565 12.9113 16.0757 12.9113C15.5863 12.9113 15.1897 12.5146 15.1897 12.0252ZM13.9239 16.0757C13.9239 17.1164 13.5107 18.1146 12.7748 18.8505C12.0389 19.5864 11.0407 19.9996 10 19.9996C8.95932 19.9996 7.96107 19.5864 7.2252 18.8505C6.48933 18.1146 6.07612 17.1164 6.07612 16.0757V15.9491H1.89908C1.49668 15.9491 1.14523 15.6777 1.04271 15.2885C0.940295 14.8996 1.11204 14.4901 1.46199 14.2917C1.89302 14.0477 2.26112 13.7061 2.53592 13.294C2.8032 12.893 2.97427 12.4362 3.03827 11.959V8.98739C3.03827 8.97354 3.03861 8.95968 3.03926 8.94585C3.09884 7.67559 3.46094 6.44154 4.09143 5.34533L0.259515 1.51342C-0.0865048 1.1674 -0.0865048 0.605534 0.259515 0.259515C0.605534 -0.0865048 1.1674 -0.0865048 1.51342 0.259515L19.7405 18.4866C20.0865 18.8326 20.0865 19.3945 19.7405 19.7405C19.3945 20.0865 18.8326 20.0865 18.4866 19.7405L14.6952 15.9491H13.9239V16.0757Z" fill="currentColor"/>
</svg>
