<svg preserveAspectRatio="none" width="100%" height="100%" overflow="visible" style="display: block;" viewBox="0 0 18.987 20" fill="none" xmlns="http://www.w3.org/2000/svg">
<path id="Vector" d="M17.4736 14.436C17.8196 14.09 18.3815 14.09 18.7275 14.436C19.0736 14.782 19.0736 15.3439 18.7275 15.6899L14.677 19.7405C14.331 20.0865 13.7691 20.0865 13.4231 19.7405L11.3978 17.7152C11.0518 17.3692 11.0518 16.8073 11.3978 16.4613C11.7438 16.1153 12.3057 16.1153 12.6517 16.4613L14.05 17.8596L17.4736 14.436ZM5.06287 16.0756V15.949H0.885742C0.483332 15.949 0.13188 15.6776 0.0293515 15.2884C-0.0730642 14.8994 0.0986844 14.4899 0.448646 14.2916C0.87968 14.0475 1.24779 13.7059 1.5226 13.2938C1.78988 12.8929 1.96095 12.436 2.02496 11.9588V8.98715C2.02496 8.9733 2.0253 8.95945 2.02595 8.94562C2.09379 7.50013 2.55337 6.10013 3.35602 4.89606C4.06469 3.83306 5.01731 2.95785 6.13088 2.34172C6.24259 1.78167 6.51816 1.26221 6.92794 0.852434C7.47392 0.306454 8.2147 0 8.98683 0C9.75897 0 10.4998 0.306454 11.0457 0.852434C11.4555 1.26216 11.7301 1.78174 11.8418 2.34172C12.9557 2.95787 13.9088 3.83282 14.6176 4.89606C15.4203 6.10013 15.8799 7.50013 15.9477 8.94562C15.9484 8.95945 15.9487 8.9733 15.9487 8.98715V11.9568C15.9611 12.0487 15.9746 12.1362 15.9932 12.2199C16.0993 12.6975 15.7984 13.1709 15.3208 13.277C14.8432 13.3831 14.37 13.082 14.2636 12.6046C14.2283 12.4454 14.2026 12.2879 14.1835 12.1338C14.1791 12.0977 14.1766 12.0614 14.1766 12.0251V9.01583C14.1217 7.89615 13.7651 6.81194 13.1432 5.87903C12.5188 4.94249 11.6509 4.1935 10.6334 3.71234C10.3236 3.56588 10.1261 3.25396 10.1261 2.91133C10.1261 2.60919 10.0064 2.31902 9.79279 2.10537C9.57915 1.89173 9.28897 1.77211 8.98683 1.77211C8.6847 1.77211 8.39452 1.89173 8.18088 2.10537C7.96723 2.31902 7.84762 2.60919 7.84762 2.91133C7.84762 3.25396 7.65006 3.56588 7.34031 3.71234C6.32276 4.1935 5.45483 4.94249 4.83048 5.87903C4.2086 6.81194 3.85196 7.89615 3.79707 9.01583V12.0251C3.79707 12.0606 3.79542 12.0965 3.79114 12.1319C3.70294 12.8602 3.45113 13.5578 3.05935 14.1769H8.48052C8.96987 14.1769 9.36657 14.5736 9.36657 15.063C9.36657 15.5523 8.96987 15.949 8.48052 15.949H6.83498V16.0756C6.83488 16.5845 7.01472 17.0774 7.34328 17.466C7.67183 17.8546 8.12806 18.1133 8.62984 18.1978C9.11233 18.2791 9.43791 18.7368 9.35668 19.2193C9.27537 19.7018 8.81766 20.0274 8.33515 19.9462C7.42029 19.7921 6.58952 19.3186 5.99046 18.6102C5.4287 17.9458 5.10489 17.1146 5.06682 16.2487L5.06287 16.0756Z" fill="currentColor"/>
</svg>
