<svg preserveAspectRatio="none" width="100%" height="100%" overflow="visible" style="display: block;" viewBox="0 0 17.9741 20" fill="none" xmlns="http://www.w3.org/2000/svg">
<path id="Vector" d="M11.1389 15.9494H6.83513V16.0759C6.83513 16.6467 7.06151 17.1943 7.46507 17.5979C7.86863 18.0015 8.41631 18.2278 8.98703 18.2278C9.55775 18.2278 10.1054 18.0015 10.509 17.5979C10.9125 17.1943 11.1389 16.6467 11.1389 16.0759V15.9494ZM8.98703 1.77215C8.68488 1.77215 8.3947 1.89177 8.18105 2.10542C7.9674 2.31907 7.84779 2.60925 7.84779 2.91139C7.84779 3.25403 7.65022 3.56595 7.34047 3.71242C6.32289 4.19358 5.45495 4.9426 4.83058 5.87915C4.20868 6.81208 3.85204 7.89631 3.79715 9.01602V12.0253C3.79715 12.0609 3.7955 12.0968 3.79122 12.1321C3.70302 12.8604 3.4512 13.5581 3.05942 14.1772H14.9146C14.5229 13.5581 14.271 12.8604 14.1828 12.1321C14.1786 12.0968 14.1769 12.0609 14.1769 12.0253V9.01602C14.122 7.89631 13.7654 6.81208 13.1435 5.87915C12.5191 4.9426 11.6512 4.19358 10.6336 3.71242C10.3238 3.56595 10.1263 3.25403 10.1263 2.91139C10.1263 2.60925 10.0066 2.31907 9.793 2.10542C9.57935 1.89177 9.28917 1.77215 8.98703 1.77215ZM12.9111 16.0759C12.9111 17.1167 12.4978 18.115 11.7619 18.8509C11.026 19.5868 10.0277 20 8.98703 20C7.9463 20 6.94801 19.5868 6.21211 18.8509C5.4762 18.115 5.06298 17.1167 5.06298 16.0759V15.9494H0.88576C0.483342 15.9494 0.131882 15.6779 0.0293522 15.2888C-0.0730658 14.8998 0.0986866 14.4902 0.448656 14.2919C0.879699 14.0478 1.24782 13.7062 1.52263 13.2941C1.78992 12.8932 1.96099 12.4363 2.025 11.9591V8.98734C2.025 8.97349 2.02534 8.95964 2.02599 8.94581C2.09384 7.50029 2.55342 6.10026 3.35609 4.89616C4.06477 3.83314 5.01742 2.95791 6.13101 2.34177C6.24272 1.7817 6.5183 1.26224 6.92809 0.852453C7.47408 0.306461 8.21488 0 8.98703 0C9.75918 1.27881e-07 10.5 0.306461 11.046 0.852453C11.4557 1.26219 11.7303 1.78178 11.842 2.34177C12.956 2.95794 13.9091 3.8329 14.618 4.89616C15.4206 6.10026 15.8802 7.50029 15.9481 8.94581C15.9487 8.95964 15.9491 8.97349 15.9491 8.98734V11.9591C16.0131 12.4363 16.1841 12.8932 16.4514 13.2941C16.7262 13.7062 17.0944 14.0478 17.5254 14.2919C17.8754 14.4902 18.0471 14.8998 17.9447 15.2888C17.8422 15.6779 17.4907 15.9494 17.0883 15.9494H12.9111V16.0759Z" fill="currentColor"/>
</svg>
