<svg preserveAspectRatio="none" width="100%" height="100%" overflow="visible" style="display: block;" viewBox="0 0 15.9491 20" fill="none" xmlns="http://www.w3.org/2000/svg">
<path id="Vector" d="M8.27022 0.364892C8.49595 0.0545186 8.89616 -0.0751662 9.26113 0.0434914C9.62611 0.162178 9.87327 0.502262 9.87327 0.886057V7.0886H15.0632C15.3962 7.0886 15.701 7.27549 15.8523 7.57219C16.0035 7.86911 15.976 8.22633 15.7801 8.49584L7.67885 19.6351C7.45312 19.9455 7.05291 20.0752 6.68794 19.9565C6.32296 19.8378 6.0758 19.4977 6.0758 19.1139V12.9114H0.885912C0.552824 12.9114 0.24807 12.7245 0.0967492 12.4278C-0.054451 12.1309 -0.0269667 11.7737 0.168941 11.5042L8.27022 0.364892ZM2.62642 11.1392H6.96187C7.45124 11.1392 7.84795 11.536 7.84795 12.0253V16.3885L13.3226 8.86076H8.9872C8.49783 8.86076 8.10112 8.46405 8.10112 7.97468V3.61055L2.62642 11.1392Z" fill="currentColor"/>
</svg>
