<svg preserveAspectRatio="none" width="100%" height="100%" overflow="visible" style="display: block;" viewBox="0 0 20 20" fill="none" xmlns="http://www.w3.org/2000/svg">
<path id="Vector" d="M0.259513 0.259512C0.605532 -0.0865039 1.1674 -0.0865039 1.51342 0.259512L19.7405 18.4866C20.0865 18.8326 20.0865 19.3945 19.7405 19.7405C19.3945 20.0865 18.8326 20.0865 18.4866 19.7405L16.9617 18.2156V19.1135C16.9617 19.4402 16.782 19.7405 16.494 19.8948C16.206 20.0489 15.8561 20.0324 15.5842 19.8512L10 16.1281L4.41578 19.8512C4.14393 20.0324 3.79403 20.0489 3.50601 19.8948C3.218 19.7405 3.03827 19.4402 3.03827 19.1135V4.93692C3.03827 4.73155 3.05154 4.52883 3.07585 4.32975L0.259513 1.51341C-0.0865034 1.16739 -0.0865053 0.60553 0.259513 0.259512ZM4.81035 17.4572L9.50853 14.3254L9.62422 14.2611C9.9018 14.131 10.2311 14.1519 10.4915 14.3254L15.1897 17.4572V16.4436L4.81035 6.06425V17.4572ZM15.1897 12.0252V4.93692C15.1897 4.09767 14.8565 3.29253 14.2631 2.69908C13.6696 2.10564 12.8645 1.7725 12.0252 1.7725H7.97279C7.32506 1.7715 6.69261 1.97037 6.16215 2.3421C5.76149 2.62279 5.20888 2.52606 4.92802 2.12553C4.64721 1.72481 4.7449 1.17225 5.14558 0.891407C5.9746 0.310449 6.96248 4.18134e-07 7.97477 0.00141351L12.0252 0.000424624C13.3345 0.000424624 14.5902 0.520398 15.516 1.44617C16.4418 2.37194 16.9617 3.62768 16.9617 4.93692V12.0252C16.9617 12.5146 16.565 12.9113 16.0757 12.9113C15.5863 12.9113 15.1897 12.5146 15.1897 12.0252Z" fill="currentColor"/>
</svg>
