<svg preserveAspectRatio="none" width="100%" height="100%" overflow="visible" style="display: block;" viewBox="0 0 13.9239 20" fill="none" xmlns="http://www.w3.org/2000/svg">
<path id="Vector" d="M12.1518 4.93667C12.1518 4.09739 11.8187 3.29222 11.2252 2.69875C10.6317 2.10529 9.82656 1.77214 8.98727 1.77214H4.93667C4.09738 1.77214 3.29222 2.10529 2.69875 2.69875C2.10529 3.29222 1.77214 4.09738 1.77214 4.93667V17.4573L6.47048 14.3254L6.58618 14.2612C6.86377 14.131 7.19309 14.152 7.45346 14.3254L12.1518 17.4573V4.93667ZM13.9239 19.1138C13.9239 19.4405 13.7442 19.7408 13.4562 19.895C13.1682 20.0492 12.8182 20.0326 12.5464 19.8515L6.96197 16.1282L1.37756 19.8515C1.1057 20.0326 0.755789 20.0492 0.467758 19.895C0.179737 19.7408 0 19.4405 0 19.1138V4.93667C0 3.62738 0.51999 2.3716 1.4458 1.4458C2.3716 0.51999 3.62738 0 4.93667 0H8.98727C10.2966 0 11.5523 0.519991 12.4781 1.4458C13.404 2.3716 13.9239 3.62738 13.9239 4.93667V19.1138Z" fill="currentColor"/>
</svg>
