<svg preserveAspectRatio="none" width="100%" height="100%" overflow="visible" style="display: block;" viewBox="0 0 19.9969 20" fill="none" xmlns="http://www.w3.org/2000/svg">
<path id="Vector" d="M4.50687 6.47939H1.97176V17.8874C1.97189 17.9244 1.98636 17.9602 2.01247 17.9864C2.03888 18.0128 2.07524 18.0282 2.1126 18.0282H4.36603C4.40338 18.0282 4.43975 18.0128 4.46616 17.9864C4.49227 17.9602 4.50674 17.9244 4.50687 17.8874V6.47939ZM14.4284 15.2599L15.1535 17.8929V17.894C15.1731 17.9651 15.2738 18.0545 15.4153 18.0216L17.8569 17.4275L17.9218 17.4077C17.9582 17.3932 17.9885 17.3676 18.0066 17.3328C18.0253 17.2968 18.0301 17.2554 18.0198 17.2162H18.0187L17.2837 14.5469L14.4284 15.2599ZM12.252 7.35414L13.9046 13.3585L16.761 12.6455L15.1073 6.64004L12.252 7.35414ZM13.5965 1.97692L11.1549 2.57109L11.09 2.5909C11.054 2.60545 11.0244 2.63221 11.0064 2.66682C10.9881 2.7021 10.9826 2.74271 10.9921 2.78125L11.7282 5.4517L14.5835 4.7387L13.8595 2.10676V2.10566C13.8398 2.03447 13.7384 1.9436 13.5965 1.97692ZM6.47863 17.8874C6.47876 17.9244 6.49323 17.9602 6.51934 17.9864C6.54575 18.0128 6.58211 18.0282 6.61947 18.0282H8.8729C8.91025 18.0282 8.94662 18.0128 8.97303 17.9864C8.99914 17.9602 9.01361 17.9244 9.01374 17.8874V15.4931H6.47863V17.8874ZM10.9855 17.8874C10.9854 18.4474 10.763 18.9845 10.3671 19.3805C9.97093 19.7767 9.43319 20 8.8729 20H6.61947C6.217 20 5.82772 19.8825 5.49275 19.671C5.15778 19.8825 4.76849 20 4.36603 20H2.1126C1.5523 20 1.01456 19.7767 0.618374 19.3805C0.222491 18.9845 0.000133102 18.4474 0 17.8874V2.11336C0 1.55318 0.222343 1.0153 0.618374 0.61914C1.01456 0.222952 1.5523 0.000765931 2.1126 0.000765931H4.36603C4.76847 0.000765931 5.15779 0.117142 5.49275 0.328658C5.82771 0.117142 6.21702 0.000765931 6.61947 0.000765931H8.8729C9.4332 0.000765931 9.97093 0.222952 10.3671 0.61914C10.4001 0.652159 10.429 0.688759 10.4595 0.72367C10.4611 0.723184 10.4624 0.721947 10.4639 0.721469L10.6136 0.675256C10.6327 0.669355 10.6524 0.663476 10.6719 0.658751L13.1322 0.0623833L13.1344 0.061283C14.2579 -0.208592 15.4434 0.433397 15.7597 1.58301L19.9233 16.7013L19.9255 16.7101C20.062 17.2243 20.0015 17.7708 19.7561 18.2428C19.5106 18.7148 19.0979 19.0782 18.5985 19.2617C18.5822 19.2677 18.5656 19.2731 18.549 19.2782L18.3994 19.3244C18.3802 19.3303 18.3605 19.3362 18.3411 19.3409L15.8808 19.9384H15.8786C14.8252 20.1914 13.7174 19.6428 13.3226 18.6257L13.2532 18.4167L10.9855 10.1819V17.8874ZM1.97176 4.50764H4.50687V2.11336C4.50687 2.07613 4.49241 2.03962 4.46616 2.01323C4.43975 1.98682 4.40338 1.97252 4.36603 1.97252H2.1126C2.07524 1.97252 2.03888 1.98682 2.01247 2.01323C1.98621 2.03962 1.97176 2.07613 1.97176 2.11336V4.50764ZM6.47863 13.5214H9.01374V2.11336C9.01374 2.07613 8.99928 2.03962 8.97303 2.01323C8.94662 1.98682 8.91025 1.97252 8.8729 1.97252H6.61947C6.58211 1.97252 6.54575 1.98682 6.51934 2.01323C6.50617 2.02647 6.4966 2.0425 6.48963 2.05945L6.47863 2.11336V13.5214Z" fill="currentColor"/>
</svg>
