<svg preserveAspectRatio="none" width="100%" height="100%" overflow="visible" style="display: block;" viewBox="0 0 20 16.158" fill="none" xmlns="http://www.w3.org/2000/svg">
<path id="Vector" d="M14.557 0C16.3123 0 18.0368 0.462309 19.557 1.33999C19.8311 1.49829 20 1.79087 20 2.1074V15.272C19.9999 15.5884 19.831 15.8811 19.557 16.0394C19.2829 16.1975 18.945 16.1975 18.6709 16.0394C17.4201 15.3172 16.0013 14.9367 14.557 14.9367C13.1127 14.9367 11.6938 15.3172 10.443 16.0394C10.169 16.1975 9.83104 16.1975 9.55696 16.0394C8.30617 15.3172 6.88733 14.9367 5.44304 14.9367C3.99875 14.9367 2.5799 15.3172 1.32911 16.0394C1.05503 16.1975 0.717118 16.1975 0.443038 16.0394C0.168968 15.8811 0.000101979 15.5884 0 15.272V2.1074C0 1.79087 0.168948 1.49829 0.443038 1.33999C1.96323 0.462309 3.68767 0 5.44304 0C7.03015 0 8.59156 0.378552 10 1.09968C11.4084 0.378552 12.9699 0 14.557 0ZM5.44304 1.77215C4.16673 1.77215 2.91031 2.06907 1.77215 2.63647V13.8637C2.93709 13.4039 4.1819 13.1646 5.44304 13.1646C6.70417 13.1646 7.94899 13.4039 9.11392 13.8637V2.63647C7.97577 2.06907 6.71935 1.77215 5.44304 1.77215ZM14.557 1.77215C13.2807 1.77215 12.0242 2.06907 10.8861 2.63647V13.8637C12.051 13.4039 13.2958 13.1646 14.557 13.1646C15.8181 13.1646 17.0629 13.4039 18.2278 13.8637V2.63647C17.0897 2.06907 15.8333 1.77215 14.557 1.77215Z" fill="currentColor"/>
</svg>
