<svg preserveAspectRatio="none" width="100%" height="100%" overflow="visible" style="display: block;" viewBox="0 0 20 20" fill="none" xmlns="http://www.w3.org/2000/svg">
<path id="Vector" d="M18.2278 2.91139C18.2278 2.60925 18.1082 2.31907 17.8946 2.10542C17.6809 1.89177 17.3908 1.77215 17.0886 1.77215H6.96203C6.65988 1.77215 6.3697 1.89177 6.15605 2.10542C5.9424 2.31907 5.82278 2.60925 5.82278 2.91139V13.038C5.82278 13.3401 5.9424 13.6303 6.15605 13.8439C6.3697 14.0576 6.65988 14.1772 6.96203 14.1772H17.0886C17.3908 14.1772 17.6809 14.0576 17.8946 13.8439C18.1082 13.6303 18.2278 13.3401 18.2278 13.038V2.91139ZM1.77215 17.0886C1.77215 17.3908 1.89177 17.6809 2.10542 17.8946C2.31907 18.1082 2.60925 18.2278 2.91139 18.2278H13.038C13.3401 18.2278 13.6303 18.1082 13.8439 17.8946C14.0576 17.6809 14.1772 17.3908 14.1772 17.0886V15.9494H6.96203C6.18988 15.9494 5.44908 15.6429 4.90309 15.0969C4.35709 14.5509 4.05063 13.8101 4.05063 13.038V5.82278H2.91139C2.60925 5.82278 2.31907 5.9424 2.10542 6.15605C1.89177 6.3697 1.77215 6.65988 1.77215 6.96203V17.0886ZM20 13.038C20 13.8101 19.6935 14.5509 19.1475 15.0969C18.6016 15.6429 17.8608 15.9494 17.0886 15.9494H15.9494V17.0886C15.9494 17.8608 15.6429 18.6016 15.0969 19.1475C14.5509 19.6935 13.8101 20 13.038 20H2.91139C2.13924 20 1.39844 19.6935 0.852453 19.1475C0.306461 18.6016 0 17.8608 0 17.0886V6.96203C0 6.18988 0.30646 5.44908 0.852453 4.90309C1.39844 4.35709 2.13924 4.05063 2.91139 4.05063H4.05063V2.91139C4.05063 2.13924 4.35709 1.39844 4.90309 0.852453C5.44908 0.30646 6.18988 0 6.96203 0H17.0886C17.8608 0 18.6016 0.306461 19.1475 0.852453C19.6935 1.39844 20 2.13924 20 2.91139V13.038Z" fill="currentColor"/>
</svg>
