<svg preserveAspectRatio="none" width="100%" height="100%" overflow="visible" style="display: block;" viewBox="0 0 20 20" fill="none" xmlns="http://www.w3.org/2000/svg">
<path id="Vector" d="M9.11392 4.43038C9.11392 3.72537 8.83416 3.04895 8.33564 2.55044C7.83713 2.05192 7.1607 1.77215 6.4557 1.77215C5.75069 1.77215 5.07427 2.05192 4.57575 2.55044C4.07724 3.04895 3.79747 3.72537 3.79747 4.43038V6.12144C4.00587 6.09136 4.21733 6.07595 4.43038 6.07595H4.93671C5.42608 6.07595 5.82278 6.47266 5.82278 6.96203C5.82278 7.45139 5.42608 7.8481 4.93671 7.8481H4.43038C3.72537 7.8481 3.04895 8.12787 2.55044 8.62638C2.05192 9.1249 1.77215 9.80132 1.77215 10.5063C1.77215 11.2113 2.05192 11.8878 2.55044 12.3863C3.04895 12.8848 3.72537 13.1646 4.43038 13.1646C4.91975 13.1646 5.31646 13.5613 5.31646 14.0506C5.31646 14.54 4.91975 14.9367 4.43038 14.9367C4.21728 14.9367 4.00592 14.9203 3.79747 14.8902V15.5696C3.79747 16.2746 4.07724 16.9511 4.57575 17.4496C5.07427 17.9481 5.75069 18.2278 6.4557 18.2278C7.1607 18.2278 7.83713 17.9481 8.33564 17.4496C8.83416 16.9511 9.11392 16.2746 9.11392 15.5696V14.557C9.11392 13.852 8.83416 13.1755 8.33564 12.677C7.83713 12.1785 7.1607 11.8987 6.4557 11.8987C5.96633 11.8987 5.56962 11.502 5.56962 11.0127C5.56962 10.5233 5.96633 10.1266 6.4557 10.1266C7.41983 10.1266 8.35155 10.4409 9.11392 11.0127V4.43038ZM10.8861 11.0127C11.6485 10.4409 12.5802 10.1266 13.5443 10.1266C14.0337 10.1266 14.4304 10.5233 14.4304 11.0127C14.4304 11.502 14.0337 11.8987 13.5443 11.8987C12.8393 11.8987 12.1629 12.1785 11.6644 12.677C11.1658 13.1755 10.8861 13.852 10.8861 14.557V15.5696C10.8861 16.2746 11.1658 16.9511 11.6644 17.4496C12.1629 17.9481 12.8393 18.2278 13.5443 18.2278C14.2493 18.2278 14.9257 17.9481 15.4242 17.4496C15.9228 16.9511 16.2025 16.2746 16.2025 15.5696V14.8902C15.9941 14.9203 15.7827 14.9367 15.5696 14.9367C15.0803 14.9367 14.6835 14.54 14.6835 14.0506C14.6835 13.5613 15.0803 13.1646 15.5696 13.1646C16.2746 13.1646 16.9511 12.8848 17.4496 12.3863C17.9481 11.8878 18.2278 11.2113 18.2278 10.5063C18.2278 9.80132 17.9481 9.1249 17.4496 8.62638C16.9511 8.12787 16.2746 7.8481 15.5696 7.8481H15.0633C14.5739 7.8481 14.1772 7.45139 14.1772 6.96203C14.1772 6.47266 14.5739 6.07595 15.0633 6.07595H15.5696C15.7827 6.07595 15.9941 6.09136 16.2025 6.12144V4.43038C16.2025 3.72537 15.9228 3.04895 15.4242 2.55044C14.9257 2.05192 14.2493 1.77215 13.5443 1.77215C12.8393 1.77215 12.1629 2.05192 11.6644 2.55044C11.1658 3.04895 10.8861 3.72537 10.8861 4.43038V11.0127ZM17.9747 6.78699C18.2351 6.95538 18.4799 7.15074 18.7025 7.37342C19.5334 8.20428 20 9.33132 20 10.5063C20 11.6813 19.5334 12.8084 18.7025 13.6392C18.48 13.8618 18.2349 14.0564 17.9747 14.2247V15.5696C17.9747 16.7446 17.5081 17.8717 16.6772 18.7025C15.8464 19.5334 14.7193 20 13.5443 20C12.3693 20 11.2423 19.5334 10.4114 18.7025C10.2619 18.553 10.1253 18.3931 10 18.2259C9.87468 18.3931 9.7381 18.553 9.58861 18.7025C8.75775 19.5334 7.63071 20 6.4557 20C5.28069 20 4.15364 19.5334 3.32278 18.7025C2.49193 17.8717 2.02532 16.7446 2.02532 15.5696V14.2247C1.76506 14.0564 1.52001 13.8618 1.29747 13.6392C0.466611 12.8084 0 11.6813 0 10.5063C0 9.33132 0.466611 8.20428 1.29747 7.37342C1.52014 7.15074 1.76489 6.95538 2.02532 6.78699V4.43038C2.02532 3.25537 2.49193 2.12833 3.32278 1.29747C4.15364 0.466611 5.28069 0 6.4557 0C7.63071 0 8.75775 0.466611 9.58861 1.29747C9.73791 1.44677 9.87481 1.60616 10 1.77314C10.1252 1.60616 10.2621 1.44677 10.4114 1.29747C11.2422 0.466611 12.3693 0 13.5443 0C14.7193 0 15.8464 0.466611 16.6772 1.29747C17.5081 2.12833 17.9747 3.25537 17.9747 4.43038V6.78699Z" fill="currentColor"/>
</svg>
