<svg preserveAspectRatio="none" width="100%" height="100%" overflow="visible" style="display: block;" viewBox="0 0 16.1446 20" fill="none" xmlns="http://www.w3.org/2000/svg">
<path id="Vector" d="M9.24887 5.3718C9.89457 5.09197 10.7861 4.75647 11.7432 4.82869C12.1415 4.85578 12.8813 5.01776 13.6615 5.37462C14.4492 5.73492 15.3554 6.32902 15.9977 7.27033C16.1321 7.4672 16.1769 7.71165 16.121 7.94334C16.0651 8.17504 15.9134 8.37247 15.7041 8.48645C15.4588 8.61983 15.0679 8.69469 14.4851 9.14345C13.9669 9.54249 13.5567 10.0845 13.5627 10.8481L13.5693 11.0297C13.6917 12.8568 15.3419 13.0875 15.5911 13.1787C15.9233 13.3005 16.1446 13.6164 16.1446 13.9703C16.1445 15.2922 15.3583 16.7761 14.472 17.8718C14.0146 18.4371 13.4912 18.9488 12.9546 19.327C12.4391 19.6903 11.8134 20 11.17 20C10.275 20 9.74715 19.8441 9.29499 19.7016C8.89804 19.5765 8.61386 19.4814 8.07229 19.4814C7.49923 19.4814 7.08814 19.5773 6.65004 19.6941C6.21106 19.8111 5.68212 19.9702 5.01035 19.9991C4.99844 19.9996 4.98652 20 4.97459 20C4.1358 20 3.41581 19.5327 2.85956 18.974C2.29097 18.4029 1.79109 17.637 1.37895 16.8091C0.558028 15.1598 0 13.0864 0 11.3761C3.35818e-05 9.98997 0.272327 8.40023 1.01845 7.12538C1.78982 5.8076 3.0784 4.82681 4.97459 4.82681C5.75908 4.82685 6.52128 5.17723 7.04819 5.42828C7.34414 5.56928 7.56691 5.68089 7.77485 5.76713C7.99018 5.85642 8.07074 5.86475 8.07229 5.86502C8.05832 5.86502 8.13677 5.85938 8.39703 5.75113C8.66636 5.6391 8.86801 5.53686 9.24887 5.3718ZM10.4819 0C10.7056 0 10.9205 0.0884482 11.0787 0.246611C11.2369 0.404775 11.3253 0.619697 11.3253 0.843374C11.3253 1.57831 11.0336 2.28341 10.5139 2.80309C9.99425 3.32277 9.28915 3.61446 8.55422 3.61446C8.33054 3.61446 8.11562 3.52601 7.95746 3.36785C7.79929 3.20968 7.71084 2.99476 7.71084 2.77108C7.71084 2.03615 8.00254 1.33105 8.52221 0.811371C9.04189 0.291691 9.74699 0 10.4819 0ZM1.68675 11.3761C1.68675 12.778 2.16157 14.5953 2.88968 16.058C3.252 16.7858 3.65549 17.382 4.05497 17.7833C4.45912 18.1893 4.76855 18.3079 4.96329 18.3123C5.4019 18.2904 5.73697 18.1925 6.21611 18.0648C6.70518 17.9344 7.28163 17.7946 8.07229 17.7946C8.88584 17.7946 9.37647 17.9588 9.80233 18.093C10.1729 18.2098 10.5164 18.3132 11.17 18.3133C11.301 18.3133 11.579 18.2339 11.9832 17.949C12.3664 17.6789 12.779 17.2829 13.1608 16.811C13.7613 16.0686 14.1958 15.2506 14.3712 14.5708C13.4581 14.1945 11.9009 13.1934 11.8759 10.866V10.8641C11.8632 9.37807 12.6998 8.38877 13.4554 7.80685C13.6033 7.69291 13.7622 7.58764 13.9175 7.49247C13.6181 7.25304 13.2886 7.0595 12.9593 6.90889C12.3382 6.62486 11.7978 6.52313 11.6293 6.51167H11.6209V6.51073C11.1022 6.47024 10.5364 6.65306 9.91999 6.92018C9.66869 7.02909 9.28669 7.20824 9.04462 7.30892C8.79346 7.41338 8.43215 7.55177 8.07229 7.55177C7.71959 7.55177 7.37805 7.42854 7.1282 7.32492C6.86691 7.21654 6.57114 7.06878 6.32248 6.9503C5.76035 6.68251 5.32529 6.5136 4.97459 6.51355C3.77103 6.51355 2.99382 7.0902 2.47459 7.97722C1.93034 8.90699 1.68678 10.1698 1.68675 11.3761Z" fill="currentColor"/>
</svg>
