<svg preserveAspectRatio="none" width="100%" height="100%" overflow="visible" style="display: block;" viewBox="0 0 20 19.999" fill="none" xmlns="http://www.w3.org/2000/svg">
<path id="Vector" d="M13.1645 7.97472C13.1645 7.63883 13.3545 7.33156 13.655 7.1816C13.9556 7.03171 14.3153 7.06469 14.5836 7.26665C15.6654 8.0808 16.9104 8.64265 18.2278 8.91816V6.57044C17.0891 6.24714 16.0466 5.63925 15.2037 4.7963C14.3607 3.95329 13.7519 2.91105 13.4286 1.77216H10.886V12.5317C10.886 13.1142 10.7375 13.6873 10.4539 14.1961C10.1702 14.7049 9.76075 15.1329 9.26518 15.4392C8.76961 15.7454 8.20356 15.9203 7.62158 15.9465C7.03971 15.9726 6.46038 15.849 5.93941 15.5885C5.41851 15.3279 4.97306 14.9383 4.6449 14.4572C4.31668 13.9759 4.11672 13.4185 4.0644 12.8383C4.01215 12.2582 4.10944 11.6744 4.34625 11.1423C4.51932 10.7534 4.76274 10.4016 5.06322 10.1039V7.36752C4.45022 7.65309 3.88968 8.04639 3.41072 8.53248C2.65974 9.29469 2.1381 10.2529 1.90656 11.2975C1.67503 12.3422 1.74276 13.4312 2.10138 14.4393C2.46007 15.4476 3.09545 16.3349 3.93485 16.9987C4.77413 17.6624 5.78367 18.0757 6.84725 18.1923C7.91095 18.3089 8.98631 18.1235 9.94952 17.6573C10.9127 17.1911 11.7257 16.4634 12.2943 15.5568C12.8628 14.6503 13.1642 13.6018 13.1645 12.5317V7.97472ZM14.9367 12.5317C14.9364 13.9348 14.5409 15.3097 13.7955 16.4983C13.05 17.6869 11.9847 18.6412 10.7219 19.2525C9.45895 19.8637 8.04911 20.1075 6.65441 19.9546C5.25977 19.8017 3.93665 19.2584 2.83615 18.3881C1.73564 17.5179 0.902367 16.3555 0.432066 15.0337C-0.0382277 13.7118 -0.126669 12.2836 0.176922 10.9138C0.48056 9.54417 1.16419 8.28771 2.14885 7.28841C3.13355 6.28913 4.37954 5.58686 5.74459 5.26308C6.00825 5.20055 6.28658 5.26216 6.49914 5.43021C6.71163 5.59822 6.83533 5.85454 6.83538 6.12543V10.5064C6.83538 10.7852 6.70437 11.0481 6.48134 11.2154C6.25709 11.3836 6.07917 11.6061 5.96512 11.8622C5.85114 12.1183 5.80453 12.3998 5.82964 12.6791C5.85483 12.9584 5.95047 13.2276 6.10852 13.4593C6.26655 13.691 6.48171 13.8778 6.73253 14.0032C6.98342 14.1287 7.26225 14.1879 7.54246 14.1753C7.8226 14.1627 8.09506 14.0785 8.33361 13.931C8.57206 13.7836 8.76868 13.5776 8.90521 13.3327C9.04177 13.0878 9.11387 12.8122 9.11387 12.5317V0.88608C9.11387 0.396712 9.51058 5.21931e-07 9.99995 0H14.1347L14.2929 0.013845C14.6542 0.0791736 14.9445 0.364847 15.0079 0.737741C15.188 1.80044 15.6945 2.78117 16.4567 3.54333C17.2188 4.30549 18.1996 4.81198 19.2623 4.99211C19.6882 5.06447 20 5.43322 20 5.86534V9.9506C20 10.2008 19.8937 10.4393 19.7083 10.6073C19.5229 10.775 19.2756 10.8563 19.0269 10.8317C17.5895 10.6891 16.2006 10.2633 14.9367 9.58668V12.5317Z" fill="currentColor"/>
</svg>
