<svg preserveAspectRatio="none" width="100%" height="100%" overflow="visible" style="display: block;" viewBox="0 0 12.9114 20" fill="none" xmlns="http://www.w3.org/2000/svg">
<path id="Vector" d="M7.08861 5.94937C7.08861 5.44579 7.2883 4.96249 7.64438 4.60641C8.00046 4.25033 8.48377 4.05063 8.98734 4.05063H11.1392V1.77215H8.98734C7.87948 1.77215 6.81681 2.21207 6.03343 2.99545C5.25005 3.77883 4.81013 4.8415 4.81013 5.94937V7.97468C4.81013 8.46405 4.41342 8.86076 3.92405 8.86076H1.77215V11.1392H3.92405C4.41342 11.1392 4.81013 11.536 4.81013 12.0253V18.2278H7.08861V12.0253C7.08861 11.536 7.48532 11.1392 7.97468 11.1392H10.3214L10.891 8.86076H7.97468C7.48532 8.86076 7.08861 8.46405 7.08861 7.97468V5.94937ZM8.86076 7.08861H12.0253C12.2982 7.08861 12.5556 7.21472 12.7235 7.42979C12.8913 7.64477 12.9508 7.9247 12.8847 8.18928L11.872 12.2399C11.7734 12.6344 11.4193 12.9114 11.0127 12.9114H8.86076V19.1139C8.86076 19.6033 8.46405 20 7.97468 20H3.92405C3.43468 20 3.03797 19.6033 3.03797 19.1139V12.9114H0.886076C0.39671 12.9114 0 12.5147 0 12.0253V7.97468C0 7.48532 0.39671 7.08861 0.886076 7.08861H3.03797V5.94937C3.03797 4.3715 3.66474 2.85821 4.78046 1.74248C5.89618 0.626761 7.40947 0 8.98734 0H12.0253C12.5147 0 12.9114 0.39671 12.9114 0.886076V4.93671C12.9114 5.42608 12.5147 5.82278 12.0253 5.82278H8.98734C8.95377 5.82278 8.92109 5.83564 8.89735 5.85938C8.87361 5.88311 8.86076 5.9158 8.86076 5.94937V7.08861Z" fill="currentColor"/>
</svg>
