<svg preserveAspectRatio="none" width="100%" height="100%" overflow="visible" style="display: block;" viewBox="0 0 20 13.5621" fill="none" xmlns="http://www.w3.org/2000/svg">
<path id="Vector" d="M7.19913 0.645454C8.46548 0.0469258 9.88726 -0.141347 11.266 0.105784C12.6446 0.352926 13.9123 1.02361 14.8919 2.02471C15.7298 2.88112 16.3202 3.94316 16.6097 5.0984C17.5003 5.28643 18.3136 5.75595 18.9246 6.44533C19.6762 7.29339 20.0604 8.40585 19.9923 9.53698C19.9588 10.0967 19.8153 10.6444 19.5702 11.1488C19.325 11.6535 18.9825 12.1054 18.5627 12.4778C18.143 12.8501 17.6536 13.1358 17.1233 13.3192C16.6083 13.4972 16.0644 13.5737 15.5205 13.5472V13.5481H5.65196C4.97816 13.5971 4.30105 13.517 3.6576 13.3102C2.99876 13.0984 2.38753 12.7586 1.8599 12.3108C1.33237 11.863 0.89815 11.3154 0.582113 10.6998C0.266202 10.0845 0.07469 9.41284 0.0181987 8.72344L0.00293347 8.46483C-0.0172565 7.86087 0.0668932 7.25729 0.251666 6.6806C0.462894 6.02151 0.801935 5.41009 1.24929 4.882C1.69669 4.35388 2.24388 3.91911 2.85932 3.60241C3.34881 3.35053 3.87399 3.17786 4.41547 3.08878C5.09558 2.03271 6.05849 1.1846 7.19913 0.645454ZM10.9822 1.68977C9.93292 1.50169 8.85075 1.64464 7.88696 2.10014C6.92315 2.55567 6.12514 3.3008 5.60436 4.23098C5.47362 4.4644 5.23525 4.61749 4.96861 4.63955C4.48959 4.67922 4.02305 4.81295 3.59564 5.03285C3.16809 5.25286 2.7876 5.55495 2.47679 5.92183C2.16612 6.28856 1.93122 6.71319 1.78447 7.17088C1.65606 7.57155 1.59715 7.99133 1.61117 8.41095L1.62194 8.59054V8.59144C1.66113 9.07057 1.79388 9.53765 2.01345 9.96531C2.23301 10.3929 2.53504 10.7731 2.90153 11.0842C3.26798 11.3952 3.69211 11.6312 4.14968 11.7783C4.60734 11.9254 5.09021 11.9809 5.56934 11.9417L5.63489 11.939H15.5205L15.5681 11.9399C15.9172 11.9608 16.2674 11.9132 16.598 11.7989C16.9286 11.6846 17.2334 11.5057 17.4951 11.2736C17.7566 11.0415 17.9699 10.7602 18.1227 10.4457C18.2756 10.1311 18.365 9.78914 18.3858 9.44L18.3885 9.17601C18.3647 8.56385 18.1303 7.97551 17.7204 7.513C17.252 6.98441 16.5927 6.66308 15.8877 6.62043C15.618 6.60416 15.3736 6.45396 15.2385 6.21995C15.1862 6.12932 15.1539 6.03056 15.1397 5.92991C14.9728 4.88083 14.4847 3.90922 13.7416 3.14984C12.9961 2.38796 12.0314 1.8779 10.9822 1.68977Z" fill="currentColor"/>
</svg>
