<svg preserveAspectRatio="none" width="100%" height="100%" overflow="visible" style="display: block;" viewBox="0 0 20 19.388" fill="none" xmlns="http://www.w3.org/2000/svg">
<path id="Vector" d="M14.7126 11.0859L12.6434 9.93011V14.9781C12.6434 15.2642 12.4917 15.529 12.2447 15.6732L10.3444 16.7823C10.5442 17.0574 10.801 17.2893 11.1006 17.4603C11.5923 17.7411 12.1669 17.8405 12.7243 17.7405C13.2817 17.6405 13.786 17.3477 14.1495 16.9134C14.5129 16.4792 14.7122 15.9314 14.7126 15.3652V11.0859ZM10.4459 12.5228C10.4099 12.5468 10.3726 12.5679 10.3336 12.5857L6.71355 14.6063C6.46387 14.7456 6.15877 14.7426 5.91248 14.5973L4.04991 13.499C3.90023 13.8198 3.82201 14.1719 3.8236 14.5309C3.82619 15.0973 4.02753 15.6454 4.39297 16.0782C4.7584 16.511 5.26468 16.8015 5.82268 16.899C6.37875 16.9962 6.95064 16.8945 7.44008 16.6135L11.0341 14.5156V12.195L10.4459 12.5228ZM3.67721 6.45282C2.97222 6.53749 2.32427 6.94584 1.92869 7.63108C1.61199 8.17989 1.52676 8.83219 1.69071 9.44426C1.83421 9.97987 2.15843 10.4465 2.60493 10.7671L2.8034 10.8955L2.80969 10.8991L6.33278 12.9763L8.36419 11.8421L7.78045 11.5071C7.77524 11.5043 7.77031 11.501 7.76518 11.4981L4.08134 9.3805C3.83174 9.23697 3.67728 8.97062 3.67721 8.6827V6.45282ZM11.6125 7.51163L15.9097 9.91125C16.1642 10.0534 16.3218 10.322 16.3219 10.6135V12.8721C17.027 12.7876 17.6747 12.3801 18.0704 11.6948C18.3872 11.146 18.4732 10.4938 18.3093 9.88161C18.1453 9.26942 17.7445 8.74736 17.1957 8.43035L17.193 8.42855L13.6331 6.35134L11.6125 7.51163ZM8.96499 9.03295V10.3315L10.0022 10.9279L11.0341 10.3522V9.03115L9.98518 8.44651L8.96499 9.03295ZM8.89943 1.9275C8.40766 1.64669 7.83223 1.5473 7.27484 1.64731C6.71759 1.74738 6.21301 2.04026 5.84962 2.47442C5.48619 2.90867 5.28683 3.45731 5.28654 4.02357V8.21661L7.35566 9.40654V4.40974C7.35576 4.12376 7.50833 3.85974 7.7553 3.71554L9.6547 2.60554C9.45498 2.33067 9.19875 2.09846 8.89943 1.9275ZM14.1773 2.48879C13.6205 2.39146 13.0462 2.4916 12.5563 2.77347L12.5572 2.77437L8.96499 4.87134V7.17666L13.2362 4.72406L13.3322 4.67646C13.5619 4.58252 13.8249 4.59967 14.0426 4.72675L15.9663 5.84933C16.1043 5.53908 16.178 5.2015 16.1764 4.85697C16.1738 4.2907 15.9722 3.74328 15.607 3.31051C15.2416 2.87769 14.7353 2.58633 14.1773 2.48879ZM16.3219 15.3661C16.3213 16.3094 15.9897 17.2227 15.3843 17.9462C14.7787 18.6698 13.9377 19.158 13.0089 19.3247C12.0801 19.4914 11.1217 19.3266 10.3022 18.8586C9.75581 18.5466 9.29503 18.1124 8.95062 17.5959L8.25372 18.0037L8.25013 18.0055C7.43263 18.4774 6.47501 18.6466 5.54518 18.4841C4.61545 18.3216 3.77243 17.8375 3.16352 17.1164C2.55463 16.3952 2.21867 15.4828 2.21428 14.5389C2.2113 13.8881 2.36581 13.2503 2.65971 12.6791L1.99246 12.2857V12.2848C1.07754 11.7541 0.409993 10.8828 0.136167 9.86096C-0.138228 8.83656 0.00560509 7.74487 0.535804 6.82642C1.22365 5.63497 2.40326 4.92589 3.67721 4.83632V4.02267L3.6817 3.84576C3.72084 2.96526 4.04792 2.12003 4.61569 1.44165C5.22137 0.718001 6.06221 0.229785 6.99105 0.0631319C7.91982 -0.103488 8.87748 0.0622554 9.69691 0.530123C10.2431 0.84203 10.7041 1.27567 11.0485 1.7919L11.7463 1.38507L11.7499 1.38238C12.5672 0.910713 13.5244 0.741328 14.4539 0.903715C15.3838 1.06624 16.2275 1.55107 16.8365 2.27236C17.4453 2.99359 17.7814 3.90597 17.7857 4.84979C17.7886 5.48348 17.64 6.10343 17.3609 6.66297L18.0013 7.03656L18.1701 7.13984C19.0015 7.67661 19.6065 8.50448 19.8638 9.46491C20.1382 10.4893 19.9944 11.581 19.4642 12.4995C18.7763 13.691 17.596 14.3983 16.3219 14.4878V15.3661Z" fill="currentColor"/>
</svg>
