<svg preserveAspectRatio="none" width="100%" height="100%" overflow="visible" style="display: block;" viewBox="0 0 17.9748 20" fill="none" xmlns="http://www.w3.org/2000/svg">
<path id="Vector" d="M13.1647 7.84801H4.81016V15.0633C4.81016 15.0968 4.82301 15.1295 4.84675 15.1532C4.87049 15.177 4.90317 15.1898 4.93674 15.1898H13.0381C13.0716 15.1898 13.1043 15.177 13.1281 15.1532C13.1518 15.1295 13.1647 15.0968 13.1647 15.0633V7.84801ZM0 14.0506V7.9746C0 7.48523 0.396713 7.08851 0.886082 7.08851C1.37545 7.08851 1.77216 7.48523 1.77216 7.9746V14.0506C1.77216 14.54 1.37545 14.9367 0.886082 14.9367C0.396713 14.9367 0 14.54 0 14.0506ZM16.2027 14.0506V7.9746C16.2027 7.48523 16.5994 7.08851 17.0887 7.08851C17.5781 7.08851 17.9748 7.48523 17.9748 7.9746V14.0506C17.9748 14.54 17.5781 14.9367 17.0887 14.9367C16.5994 14.9367 16.2027 14.54 16.2027 14.0506ZM8.98741 2.78468C7.87953 2.78468 6.81686 3.22461 6.03347 4.00799C5.46243 4.57903 5.07482 5.29873 4.90609 6.07585H13.0687C12.9 5.29873 12.5124 4.57903 11.9413 4.00799C11.158 3.22461 10.0953 2.78468 8.98741 2.78468ZM14.9368 15.0633C14.9368 15.5668 14.7371 16.0501 14.381 16.4062C14.025 16.7623 13.5416 16.962 13.0381 16.962H12.9115V19.1139C12.9115 19.6033 12.5148 20 12.0254 20C11.536 20 11.1393 19.6033 11.1393 19.1139V16.962H6.83549V19.1139C6.83549 19.6033 6.43878 20 5.94941 20C5.46004 20 5.06333 19.6033 5.06333 19.1139V16.962H4.93674C4.43317 16.962 3.94986 16.7623 3.59378 16.4062C3.23769 16.0501 3.038 15.5668 3.038 15.0633V6.96193C3.038 5.38405 3.66476 3.87075 4.78049 2.75502C4.8026 2.73291 4.82532 2.71147 4.84774 2.68975L4.14461 1.2825C3.92582 0.844923 4.10277 0.312777 4.54018 0.0938016C4.97776 -0.124985 5.5099 0.0519572 5.72888 0.489374L6.30938 1.65038C7.13252 1.23539 8.04831 1.01252 8.98741 1.01252C9.92621 1.01252 10.8415 1.23564 11.6644 1.65038L12.2459 0.489374C12.4649 0.0519574 12.9971 -0.124985 13.4346 0.0938016C13.872 0.312778 14.049 0.844924 13.8302 1.2825L13.1261 2.68975C13.1487 2.71163 13.172 2.73274 13.1943 2.75502C14.3101 3.87075 14.9368 5.38405 14.9368 6.96193V15.0633Z" fill="currentColor"/>
</svg>
