<svg preserveAspectRatio="none" width="100%" height="100%" overflow="visible" style="display: block;" viewBox="0 0 20 15.6781" fill="none" xmlns="http://www.w3.org/2000/svg">
<path id="Vector" d="M2.77108 0C3.23687 0 3.61446 0.377591 3.61446 0.843373C3.61446 1.22534 3.3603 1.54722 3.01205 1.65098L7.13573 12.6242L8.93449 8.63517L6.06269 1.68675H5.66265C5.19687 1.68675 4.81928 1.30916 4.81928 0.843373C4.81928 0.377591 5.19687 0 5.66265 0H8.07229C8.53807 0 8.91566 0.377591 8.91566 0.843373C8.91566 1.30916 8.53807 1.68675 8.07229 1.68675H7.8878L9.88611 6.52391L12.068 1.68675H11.9277C11.4619 1.68675 11.0843 1.30916 11.0843 0.843373C11.0843 0.377591 11.4619 0 11.9277 0H14.3373C14.8031 0 15.1807 0.377591 15.1807 0.843373C15.1807 1.30916 14.8031 1.68675 14.3373 1.68675H13.9185L10.7718 8.66529L12.4096 12.6261L16.9512 1.63874C16.6221 1.52384 16.3855 1.21173 16.3855 0.843373C16.3855 0.377591 16.7631 0 17.2289 0H19.1566C19.6224 0 20 0.377591 20 0.843373C20 1.30916 19.6224 1.68675 19.1566 1.68675H18.7566L13.189 15.1572C13.0585 15.4725 12.7509 15.6777 12.4096 15.6777C12.0684 15.6777 11.7607 15.4725 11.6303 15.1572L9.81928 10.7765L7.83415 15.1817C7.69376 15.4929 7.37908 15.6887 7.03784 15.6777C6.69672 15.6667 6.39559 15.4512 6.27541 15.1318L1.2227 1.68675H0.843374C0.377591 1.68675 0 1.30916 0 0.843373C0 0.377591 0.377591 0 0.843374 0H2.77108Z" fill="currentColor"/>
</svg>
