<svg preserveAspectRatio="none" width="100%" height="100%" overflow="visible" style="display: block;" viewBox="0 0 20 16.3218" fill="none" xmlns="http://www.w3.org/2000/svg">
<path id="Vector" d="M18.3908 4.48276C18.3908 3.72064 18.0883 2.98951 17.5494 2.45061C17.0105 1.91171 16.2794 1.6092 15.5172 1.6092H4.48276C3.72064 1.6092 2.98951 1.91171 2.45061 2.45061C1.91171 2.98951 1.6092 3.72064 1.6092 4.48276V11.8391C1.6092 12.6012 1.91171 13.3323 2.45061 13.8712C2.98951 14.4101 3.72064 14.7126 4.48276 14.7126H15.5172C16.2794 14.7126 17.0105 14.4101 17.5494 13.8712C18.0883 13.3323 18.3908 12.6012 18.3908 11.8391V4.48276ZM7.76491 4.70187C8.01708 4.55929 8.32647 4.56359 8.57489 4.71264L13.1726 7.47126C13.4149 7.61669 13.5632 7.87835 13.5632 8.16092C13.5632 8.44349 13.4149 8.70515 13.1726 8.85057L8.57489 11.6092C8.32647 11.7582 8.01708 11.7625 7.76491 11.62C7.51266 11.4771 7.35632 11.2094 7.35632 10.9195V5.4023C7.35632 5.11242 7.51266 4.84469 7.76491 4.70187ZM8.96552 9.49802L11.1952 8.16092L8.96552 6.82292V9.49802ZM20 11.8391C20 13.028 19.5278 14.1683 18.6871 15.009C17.8465 15.8497 16.7061 16.3218 15.5172 16.3218H4.48276C3.29386 16.3218 2.15354 15.8497 1.31286 15.009C0.472179 14.1683 0 13.028 0 11.8391V4.48276C0 3.29386 0.472179 2.15354 1.31286 1.31286C2.15354 0.472179 3.29386 0 4.48276 0H15.5172C16.7061 0 17.8465 0.472179 18.6871 1.31286C19.5278 2.15354 20 3.29386 20 4.48276V11.8391Z" fill="currentColor"/>
</svg>
