<svg preserveAspectRatio="none" width="100%" height="100%" overflow="visible" style="display: block;" viewBox="0 0 20 20" fill="none" xmlns="http://www.w3.org/2000/svg">
<path id="Vector" d="M5.79355 0.000475505C6.10757 0.000475505 6.40335 0.149983 6.58907 0.403185L11.5019 7.10291L18.3161 0.288754C18.7011 -0.0962512 19.3262 -0.0962515 19.7112 0.288754C20.0963 0.67376 20.0963 1.29893 19.7112 1.68393L12.6814 8.71155L19.8092 18.4305C20.0288 18.7301 20.0607 19.1279 19.8928 19.4593C19.7249 19.7906 19.3851 19.9995 19.0137 19.9995H14.2064C13.8924 19.9995 13.5966 19.85 13.4109 19.5968L8.49699 12.896L1.68393 19.7112C1.29893 20.0963 0.67376 20.0963 0.288754 19.7112C-0.0962512 19.3262 -0.0962515 18.7011 0.288754 18.3161L7.31747 11.2874L0.190827 1.5695C-0.0287778 1.26993 -0.0607006 0.872062 0.107205 0.540723C0.275152 0.20939 0.614871 0.000475505 0.986344 0.000475505H5.79355ZM14.706 18.0278H17.0672L10.6404 9.2628C10.6032 9.22016 10.5699 9.17551 10.5413 9.12856L5.29402 1.97221H2.93277L14.706 18.0278Z" fill="currentColor"/>
</svg>
