<svg preserveAspectRatio="none" width="100%" height="100%" overflow="visible" style="display: block;" viewBox="0 0 17.9399 20" fill="none" xmlns="http://www.w3.org/2000/svg">
<path id="Vector" d="M1.80468 0.0138593C2.01191 0.0411052 2.2125 0.108669 2.39469 0.21383L2.3937 0.21482L17.2172 8.74821C17.382 8.84324 17.5258 8.96958 17.6409 9.11944L17.7459 9.27684L17.83 9.44711C17.9023 9.6217 17.9399 9.80932 17.9399 9.99951C17.9399 10.2532 17.8728 10.5025 17.7459 10.7222C17.619 10.9417 17.4369 11.1241 17.2172 11.2508H17.2163L2.3937 19.7872L2.39271 19.7862C2.15046 19.9257 1.87636 20 1.59679 20C1.31667 20 1.04154 19.9262 0.798892 19.7862C0.556189 19.6461 0.353994 19.4447 0.21383 19.2021C0.0737442 18.9595 0.000126271 18.6843 4.61284e-07 18.4042V1.59679C-0.000213147 1.31547 0.0737647 1.04143 0.21284 0.799881L0.329654 0.62565C0.456794 0.459752 0.615774 0.320106 0.797902 0.21482C1.04055 0.0745647 1.31554 0.000138985 1.5958 0L1.80468 0.0138593ZM1.77399 16.8836L8.0592 9.99951L1.77399 3.11538V16.8836ZM4.50626 16.5223L10.738 12.9337L9.261 11.3161L4.50626 16.5223ZM10.4628 9.99951L12.313 12.0269L15.8343 9.99951L12.313 7.97208L10.4628 9.99951ZM9.261 8.68287L10.738 7.06529L4.50824 3.4777L9.261 8.68287Z" fill="currentColor"/>
</svg>
