<svg preserveAspectRatio="none" width="100%" height="100%" overflow="visible" style="display: block;" viewBox="0 0 19.9918 20" fill="none" xmlns="http://www.w3.org/2000/svg">
<path id="Vector" d="M18.0208 10.9899H10.9814V17.3275L16.1839 17.9787C16.3482 17.9174 16.5277 17.9005 16.7042 17.9325C17.3217 18.0448 18.0206 17.5155 18.0208 16.7622V10.9899ZM18.0208 3.13332C18.0205 2.52053 17.4388 1.90975 16.6162 1.97513L10.9814 2.68016V9.01889H18.0208V3.13332ZM1.97102 15.1849C1.97102 15.7509 2.4327 16.2763 3.11052 16.3442C3.11848 16.345 3.12678 16.3465 3.13472 16.3475L9.01039 17.0812V10.9899H1.97102V15.1849ZM1.97102 9.01889H9.01039V2.92654L3.13472 3.66128C3.1268 3.66226 3.11846 3.66268 3.11052 3.66348C2.43284 3.73141 1.97125 4.25698 1.97102 4.82277V9.01889ZM19.9918 16.7622C19.9917 18.5115 18.559 19.8948 16.9209 19.9167C16.7605 19.9865 16.5833 20.0148 16.4061 19.9926L2.89054 18.3032V18.301C1.3266 18.1328 0 16.8627 0 15.1849V4.82277C0.000224122 3.14115 1.33283 1.86669 2.90154 1.70345L16.4061 0.0162042C16.4196 0.0145248 16.4333 0.012929 16.4468 0.0118046C18.3238 -0.144492 19.9915 1.27017 19.9918 3.13332V16.7622Z" fill="currentColor"/>
</svg>
