<svg preserveAspectRatio="none" width="100%" height="100%" overflow="visible" style="display: block;" viewBox="0 0 20 20" fill="none" xmlns="http://www.w3.org/2000/svg">
<path id="Vector" d="M18.0282 5.49296C18.0282 4.5591 17.6575 3.6632 16.9971 3.00286C16.3368 2.34252 15.4409 1.97183 14.507 1.97183H5.49296C4.5591 1.97183 3.6632 2.34252 3.00286 3.00286C2.34252 3.6632 1.97183 4.5591 1.97183 5.49296V14.507C1.97183 15.4409 2.34252 16.3368 3.00286 16.9971C3.6632 17.6575 4.5591 18.0282 5.49296 18.0282H14.507C15.4409 18.0282 16.3368 17.6575 16.9971 16.9971C17.6575 16.3368 18.0282 15.4409 18.0282 14.507V5.49296ZM12.3944 10C12.3944 9.36497 12.1425 8.75559 11.6934 8.30656C11.2444 7.85753 10.635 7.60563 10 7.60563C9.36497 7.60563 8.75559 7.85753 8.30656 8.30656C7.85753 8.75559 7.60563 9.36497 7.60563 10C7.60563 10.635 7.85753 11.2444 8.30656 11.6934C8.75559 12.1425 9.36497 12.3944 10 12.3944C10.635 12.3944 11.2444 12.1425 11.6934 11.6934C12.1425 11.2444 12.3944 10.635 12.3944 10ZM14.0845 4.94058V4.92958C14.0845 4.38507 14.5259 3.94366 15.0704 3.94366C15.6149 3.94366 16.0563 4.38507 16.0563 4.92958V4.94058C16.0563 5.48509 15.6149 5.9265 15.0704 5.9265C14.5259 5.9265 14.0845 5.48509 14.0845 4.94058ZM14.3662 10C14.3662 11.158 13.9064 12.2688 13.0876 13.0876C12.2688 13.9064 11.158 14.3662 10 14.3662C8.84201 14.3662 7.73123 13.9064 6.91241 13.0876C6.09359 12.2688 5.6338 11.158 5.6338 10C5.6338 8.84201 6.09359 7.73123 6.91241 6.91241C7.73123 6.09359 8.84201 5.6338 10 5.6338C11.158 5.6338 12.2688 6.09359 13.0876 6.91241C13.9064 7.73123 14.3662 8.84201 14.3662 10ZM20 14.507C20 15.9639 19.4214 17.3612 18.3913 18.3913C17.3612 19.4214 15.9639 20 14.507 20H5.49296C4.03613 20 2.63884 19.4214 1.60871 18.3913C0.578585 17.3612 0 15.9639 0 14.507V5.49296C0 4.03613 0.578585 2.63884 1.60871 1.60871C2.63884 0.578585 4.03614 0 5.49296 0H14.507C15.9639 2.84581e-07 17.3612 0.578586 18.3913 1.60871C19.4214 2.63884 20 4.03613 20 5.49296V14.507Z" fill="currentColor"/>
</svg>
