<svg preserveAspectRatio="none" width="100%" height="100%" overflow="visible" style="display: block;" viewBox="0 0 20 18.9873" fill="none" xmlns="http://www.w3.org/2000/svg">
<path id="Vector" d="M18.2278 6.96203C18.2278 6.65988 18.1082 6.3697 17.8946 6.15605C17.6809 5.9424 17.3908 5.82278 17.0886 5.82278H2.91139C2.60925 5.82278 2.31907 5.9424 2.10542 6.15605C1.89177 6.3697 1.77215 6.65988 1.77215 6.96203V16.0759C1.77215 16.3781 1.89177 16.6683 2.10542 16.8819C2.31907 17.0956 2.60925 17.2152 2.91139 17.2152H17.0886C17.3908 17.2152 17.6809 17.0956 17.8946 16.8819C18.1082 16.6683 18.2278 16.3781 18.2278 16.0759V6.96203ZM13.1646 2.91139C13.1646 2.60925 13.0449 2.31907 12.8313 2.10542C12.6176 1.89177 12.3275 1.77215 12.0253 1.77215H7.97468C7.67254 1.77215 7.38236 1.89177 7.16871 2.10542C6.95506 2.31907 6.83544 2.60925 6.83544 2.91139V4.05063H13.1646V2.91139ZM14.9367 4.05063H17.0886C17.8608 4.05063 18.6016 4.35709 19.1475 4.90309C19.6935 5.44908 20 6.18988 20 6.96203V16.0759C20 16.8481 19.6935 17.5889 19.1475 18.1349C18.6016 18.6809 17.8608 18.9873 17.0886 18.9873H2.91139C2.13924 18.9873 1.39844 18.6809 0.852453 18.1349C0.306461 17.5889 0 16.8481 0 16.0759V6.96203C0 6.18988 0.30646 5.44908 0.852453 4.90309C1.39844 4.35709 2.13924 4.05063 2.91139 4.05063H5.06329V2.91139C5.06329 2.13924 5.36975 1.39844 5.91574 0.852453C6.46174 0.306461 7.20253 0 7.97468 0H12.0253C12.7975 0 13.5383 0.306461 14.0843 0.852453C14.6302 1.39844 14.9367 2.13924 14.9367 2.91139V4.05063Z" fill="currentColor"/>
</svg>
