<svg preserveAspectRatio="none" width="100%" height="100%" overflow="visible" style="display: block;" viewBox="0 0 20 17.3301" fill="none" xmlns="http://www.w3.org/2000/svg">
<path id="Vector" d="M10 0C11.9778 0 13.9112 0.586318 15.5557 1.6851C17.2001 2.78383 18.4815 4.34568 19.2384 6.17277C19.9953 8 20.1938 10.0112 19.808 11.951C19.4221 13.8907 18.4691 15.6721 17.0707 17.0705C16.7247 17.4165 16.1638 17.4166 15.8178 17.0705C15.4719 16.7245 15.4718 16.1636 15.8178 15.8176C16.9684 14.6669 17.752 13.2009 18.0695 11.6048C18.3869 10.0089 18.2245 8.35453 17.6017 6.85116C16.979 5.34775 15.9238 4.06265 14.5707 3.15858C13.2178 2.25464 11.6272 1.77213 10 1.77213C8.37284 1.77213 6.78224 2.25464 5.42926 3.15858C4.07622 4.06265 3.021 5.34775 2.39826 6.85116C1.77555 8.35453 1.61307 10.0089 1.9305 11.6048C2.24796 13.2009 3.03159 14.6669 4.18225 15.8176C4.52818 16.1636 4.52807 16.7245 4.18225 17.0705C3.83623 17.4166 3.27533 17.4165 2.9293 17.0705C1.53086 15.6721 0.577865 13.8907 0.192 11.951C-0.193837 10.0112 0.00474295 8 0.761611 6.17277C1.5185 4.34568 2.79994 2.78383 4.44431 1.6851C6.08877 0.586317 8.02223 7.63657e-07 10 0ZM10 4.05156C11.1766 4.05156 12.3266 4.40067 13.3049 5.05431C14.2832 5.70792 15.046 6.6365 15.4964 7.72338C15.9467 8.81036 16.065 10.0068 15.8356 11.1608C15.6062 12.3147 15.0395 13.3746 14.2078 14.2067C13.8618 14.5527 13.2999 14.5527 12.9539 14.2067C12.6082 13.8607 12.608 13.2997 12.9539 12.9537C13.5378 12.3696 13.9359 11.6258 14.0971 10.8157C14.2581 10.0054 14.1749 9.16498 13.8587 8.40177C13.5426 7.63883 13.0076 6.98666 12.321 6.52779C11.6341 6.06885 10.8261 5.82369 10 5.82369C9.17389 5.82369 8.36593 6.06885 7.67903 6.52779C6.9924 6.98666 6.45742 7.63883 6.14128 8.40177C5.82509 9.16498 5.74186 10.0054 5.90295 10.8157C6.06409 11.6258 6.46218 12.3696 7.04613 12.9537C7.39198 13.2997 7.3918 13.8607 7.04613 14.2067C6.70005 14.5527 6.13818 14.5527 5.79219 14.2067C4.96053 13.3746 4.39384 12.3147 4.16445 11.1608C3.93503 10.0068 4.05332 8.81036 4.50364 7.72338C4.95398 6.6365 5.71684 5.70792 6.69507 5.05431C7.67338 4.40067 8.82341 4.05156 10 4.05156ZM10.1266 9.99985C10.1266 9.9663 10.1137 9.93359 10.09 9.90986C10.0663 9.88612 10.0336 9.87327 10 9.87327C9.96643 9.87327 9.93375 9.88612 9.91001 9.90986C9.8863 9.93359 9.87342 9.9663 9.87342 9.99985C9.87344 10.0332 9.88658 10.0652 9.91001 10.0889C9.93375 10.1126 9.96643 10.1264 10 10.1264C10.0336 10.1264 10.0663 10.1126 10.09 10.0889C10.1134 10.0652 10.1266 10.0332 10.1266 9.99985ZM11.8987 9.99985C11.8987 10.5034 11.699 10.9867 11.3429 11.3428C10.9869 11.6988 10.5035 11.8986 10 11.8986C9.49645 11.8986 9.01314 11.6988 8.65706 11.3428C8.301 10.9867 8.10132 10.5034 8.1013 9.99985C8.1013 9.4963 8.30101 9.01298 8.65706 8.65691C9.01314 8.30084 9.49643 8.10114 10 8.10114C10.5036 8.10114 10.9869 8.30084 11.3429 8.65691C11.699 9.01298 11.8987 9.4963 11.8987 9.99985Z" fill="currentColor"/>
</svg>
