<svg preserveAspectRatio="none" width="100%" height="100%" overflow="visible" style="display: block;" viewBox="0 0 20 17.9747" fill="none" xmlns="http://www.w3.org/2000/svg">
<path id="Vector" d="M19.1139 15.1899C19.6033 15.1899 20 15.5866 20 16.0759C20 16.5653 19.6033 16.962 19.1139 16.962H13.038C12.5486 16.962 12.1519 16.5653 12.1519 16.0759C12.1519 15.5866 12.5486 15.1899 13.038 15.1899H19.1139ZM16.2025 2.91139C16.2025 2.60925 16.0829 2.31907 15.8693 2.10542C15.6556 1.89177 15.3654 1.77215 15.0633 1.77215H5.82278V4.05063H16.2025V2.91139ZM1.77215 4.05063H4.05063V1.77215H2.91139C2.60925 1.77215 2.31907 1.89177 2.10542 2.10542C1.89177 2.31907 1.77215 2.60925 1.77215 2.91139V4.05063ZM17.9747 12.0253C17.9747 12.5147 17.578 12.9114 17.0886 12.9114C16.5992 12.9114 16.2025 12.5147 16.2025 12.0253V5.82278H1.77215V15.0633C1.77215 15.3654 1.89177 15.6556 2.10542 15.8693C2.31907 16.0829 2.60925 16.2025 2.91139 16.2025H8.98734C9.47671 16.2025 9.87342 16.5992 9.87342 17.0886C9.87342 17.578 9.47671 17.9747 8.98734 17.9747H2.91139C2.13924 17.9747 1.39844 17.6682 0.852453 17.1222C0.306461 16.5762 0 15.8354 0 15.0633V2.91139C0 2.13924 0.30646 1.39844 0.852453 0.852453C1.39844 0.30646 2.13924 0 2.91139 0H15.0633C15.8354 0 16.5762 0.306461 17.1222 0.852453C17.6682 1.39844 17.9747 2.13924 17.9747 2.91139V12.0253Z" fill="currentColor"/>
</svg>
