<svg preserveAspectRatio="none" width="100%" height="100%" overflow="visible" style="display: block;" viewBox="0 0 20 20" fill="none" xmlns="http://www.w3.org/2000/svg">
<path id="Vector" d="M18.9941 0.00813426C19.2684 -0.0292473 19.5449 0.0635295 19.7407 0.259318C19.9365 0.455107 20.0292 0.731613 19.9919 1.00595C19.5749 4.05429 18.3423 6.93432 16.4249 9.34051C14.6704 11.542 12.4007 13.2701 9.82287 14.381C9.9443 15.2504 9.83472 16.1379 9.49752 16.9522C9.12388 17.8542 8.49074 18.6259 7.67891 19.1683C6.86717 19.7106 5.91287 20 4.93665 20H0.886066C0.396705 20 0 19.6033 0 19.1139V15.0633C0 14.0871 0.289409 13.1328 0.831676 12.3211C1.37412 11.5093 2.14577 10.8761 3.04783 10.5025C3.86171 10.1654 4.74894 10.055 5.61802 10.1761C6.72897 7.59849 8.45811 5.32945 10.6595 3.57514C13.0657 1.65772 15.9457 0.425091 18.9941 0.00813426ZM8.81715 8.07865C8.22806 8.90921 7.72187 9.79872 7.30708 10.7349C7.71601 10.9588 8.09426 11.2392 8.42752 11.5725C8.76046 11.9054 9.0403 12.2835 9.26414 12.6919C10.2004 12.2771 11.0897 11.771 11.9204 11.1819C11.1859 9.88557 10.1136 8.81286 8.81715 8.07865ZM18.017 1.982C15.738 2.48366 13.5976 3.49955 11.7641 4.96061C11.1058 5.48522 10.4941 6.06095 9.93462 6.68132C11.3198 7.51859 12.4802 8.67936 13.3177 10.0644C13.9381 9.50494 14.5148 8.89424 15.0394 8.23589C16.5006 6.40219 17.5154 4.26128 18.017 1.982ZM1.77213 18.2279H4.93665C5.56253 18.2279 6.17454 18.0426 6.69494 17.6948C7.2152 17.3472 7.62034 16.8528 7.85988 16.2748C8.09935 15.6966 8.16286 15.06 8.04085 14.4463C8.02735 14.3784 8.01023 14.3111 7.9924 14.2445C7.97902 14.2177 7.96663 14.1901 7.95581 14.1615C7.93267 14.1002 7.91644 14.0378 7.90735 13.9755C7.74984 13.5454 7.50122 13.1521 7.17456 12.8254C6.84761 12.4985 6.45408 12.2492 6.02347 12.0917C5.96161 12.0825 5.89943 12.0672 5.83854 12.0442C5.80921 12.0331 5.78092 12.0204 5.7535 12.0066C5.68762 11.989 5.6209 11.9725 5.55374 11.9591C4.93999 11.8371 4.30336 11.9007 3.72524 12.1401C3.14721 12.3797 2.65278 12.7848 2.30516 13.3051C1.95744 13.8255 1.77213 14.4375 1.77213 15.0633V18.2279Z" fill="currentColor"/>
</svg>
