<svg preserveAspectRatio="none" width="100%" height="100%" overflow="visible" style="display: block;" viewBox="0 0 20 20" fill="none" xmlns="http://www.w3.org/2000/svg">
<path id="Vector" d="M10 4.05063C11.2487 4.05063 12.4661 4.44394 13.479 5.17405C14.4918 5.90414 15.249 6.93465 15.6438 8.11907C16.0386 9.30357 16.0507 10.5824 15.6784 11.7741C15.3139 12.9409 14.5985 13.9657 13.6313 14.7112C13.4404 14.9065 13.2811 15.1293 13.1586 15.3718C13.1417 15.4173 13.1211 15.4608 13.0973 15.5024C13.0648 15.5764 13.035 15.6518 13.0093 15.7288C12.8774 16.1247 12.8404 16.5463 12.9015 16.9591C12.9078 17.002 12.9114 17.0452 12.9114 17.0886C12.9114 17.8608 12.6049 18.6016 12.0589 19.1475C11.5129 19.6935 10.7721 20 10 20C9.22785 20 8.48705 19.6935 7.94106 19.1475C7.39507 18.6016 7.08861 17.8608 7.08861 17.0886C7.08861 17.0452 7.09215 17.002 7.0985 16.9591C7.1596 16.5463 7.12265 16.1247 6.9907 15.7288C6.96498 15.6517 6.93423 15.5765 6.9017 15.5024C6.87792 15.4608 6.85728 15.4173 6.84039 15.3718C6.71786 15.1292 6.55874 14.9065 6.36768 14.7112C5.40079 13.9658 4.68607 12.9407 4.3216 11.7741C3.94932 10.5824 3.96144 9.30357 4.35621 8.11907C4.75102 6.93465 5.50822 5.90414 6.52097 5.17405C7.53394 4.44394 8.75133 4.05063 10 4.05063ZM8.85483 15.9494C8.90958 16.3367 8.91066 16.7301 8.86175 17.1203C8.86982 17.4109 8.98785 17.6884 9.19403 17.8946C9.40768 18.1082 9.69786 18.2278 10 18.2278C10.3021 18.2278 10.5923 18.1082 10.806 17.8946C11.0121 17.6884 11.1292 17.4109 11.1373 17.1203C11.0884 16.7301 11.0904 16.3366 11.1452 15.9494H8.85483ZM10 5.82278C9.12329 5.82278 8.26859 6.09834 7.55736 6.61096C6.84621 7.12353 6.31465 7.84719 6.03738 8.6788C5.76019 9.51038 5.75139 10.4083 6.01266 11.2451C6.24135 11.9772 6.66647 12.6307 7.23892 13.1349L7.49407 13.3416L7.58505 13.4207C7.81687 13.6502 8.02122 13.9046 8.1962 14.1772H11.8038C11.9788 13.9046 12.1831 13.6502 12.415 13.4207L12.5059 13.3416C13.2073 12.8155 13.7259 12.0819 13.9873 11.2451C14.2486 10.4083 14.2398 9.51038 13.9626 8.6788C13.6853 7.84719 13.1538 7.12353 12.4426 6.61096C11.7314 6.09834 10.8767 5.82278 10 5.82278ZM1.89873 9.11392C2.3881 9.11392 2.78481 9.51063 2.78481 10C2.78481 10.4894 2.3881 10.8861 1.89873 10.8861H0.886076C0.39671 10.8861 0 10.4894 0 10C0 9.51063 0.39671 9.11392 0.886076 9.11392H1.89873ZM19.1139 9.11392C19.6033 9.11392 20 9.51063 20 10C20 10.4894 19.6033 10.8861 19.1139 10.8861H18.1013C17.6119 10.8861 17.2152 10.4894 17.2152 10C17.2152 9.51063 17.6119 9.11392 18.1013 9.11392H19.1139ZM2.8926 2.8926C3.23864 2.54657 3.79954 2.54657 4.14557 2.8926L4.85463 3.60166C5.20037 3.94772 5.20056 4.50869 4.85463 4.85463C4.50869 5.20056 3.94772 5.20037 3.60166 4.85463L2.8926 4.14557C2.54657 3.79954 2.54657 3.23864 2.8926 2.8926ZM15.8544 2.8926C16.2005 2.54657 16.7614 2.54657 17.1074 2.8926C17.4534 3.23864 17.4534 3.79954 17.1074 4.14557L16.3983 4.85463C16.0523 5.20036 15.4913 5.20056 15.1454 4.85463C14.7994 4.50869 14.7996 3.94772 15.1454 3.60166L15.8544 2.8926ZM9.11392 1.89873V0.886076C9.11392 0.39671 9.51063 0 10 0C10.4894 0 10.8861 0.39671 10.8861 0.886076V1.89873C10.8861 2.3881 10.4894 2.78481 10 2.78481C9.51063 2.78481 9.11392 2.3881 9.11392 1.89873Z" fill="currentColor"/>
</svg>
