<svg preserveAspectRatio="none" width="100%" height="100%" overflow="visible" style="display: block;" viewBox="0 0 17.9747 20" fill="none" xmlns="http://www.w3.org/2000/svg">
<path id="Vector" d="M16.2025 9.87342H1.77215V17.0886C1.77215 17.3908 1.89177 17.6809 2.10542 17.8946C2.31907 18.1082 2.60925 18.2278 2.91139 18.2278H15.0633C15.3654 18.2278 15.6556 18.1082 15.8693 17.8946C16.0829 17.6809 16.2025 17.3908 16.2025 17.0886V9.87342ZM6.96203 12.1519C7.45139 12.1519 7.8481 12.5486 7.8481 13.038V15.0633C7.8481 15.5527 7.45139 15.9494 6.96203 15.9494H4.93671C4.44734 15.9494 4.05063 15.5527 4.05063 15.0633V13.038C4.05063 12.5486 4.44734 12.1519 4.93671 12.1519H6.96203ZM5.82278 14.1772H6.07595V13.9241H5.82278V14.1772ZM12.1519 4.93671V3.79747H5.82278V4.93671C5.82278 5.42608 5.42607 5.82278 4.93671 5.82278C4.44734 5.82278 4.05063 5.42608 4.05063 4.93671V3.79747H2.91139C2.60925 3.79747 2.31907 3.91709 2.10542 4.13074C1.89177 4.34438 1.77215 4.63456 1.77215 4.93671V8.10127H16.2025V4.93671C16.2025 4.63456 16.0829 4.34439 15.8693 4.13074C15.6556 3.91709 15.3654 3.79747 15.0633 3.79747H13.9241V4.93671C13.9241 5.42607 13.5273 5.82278 13.038 5.82278C12.5486 5.82278 12.1519 5.42608 12.1519 4.93671ZM17.9747 17.0886C17.9747 17.8608 17.6682 18.6016 17.1222 19.1475C16.5762 19.6935 15.8354 20 15.0633 20H2.91139C2.13924 20 1.39844 19.6935 0.852453 19.1475C0.306461 18.6016 0 17.8608 0 17.0886V4.93671C0 4.16456 0.306461 3.42376 0.852453 2.87777C1.39844 2.33178 2.13924 2.02532 2.91139 2.02532H4.05063V0.886076C4.05063 0.39671 4.44734 0 4.93671 0C5.42607 1.30483e-07 5.82278 0.39671 5.82278 0.886076V2.02532H12.1519V0.886076C12.1519 0.39671 12.5486 0 13.038 0C13.5273 5.21931e-07 13.9241 0.39671 13.9241 0.886076V2.02532H15.0633C15.8354 2.02532 16.5762 2.33178 17.1222 2.87777C17.6682 3.42376 17.9747 4.16456 17.9747 4.93671V17.0886Z" fill="currentColor"/>
</svg>
