<svg preserveAspectRatio="none" width="100%" height="100%" overflow="visible" style="display: block;" viewBox="0 0 19.0361 20" fill="none" xmlns="http://www.w3.org/2000/svg">
<path id="Vector" d="M14.4578 19.1566V17.1084H12.4096C11.9439 17.1084 11.5663 16.7308 11.5663 16.2651C11.5663 15.7993 11.9439 15.4217 12.4096 15.4217H14.4578V13.3735C14.4578 12.9077 14.8354 12.5301 15.3012 12.5301C15.767 12.5301 16.1446 12.9077 16.1446 13.3735V15.4217H18.1928C18.6586 15.4217 19.0361 15.7993 19.0361 16.2651C19.0361 16.7308 18.6586 17.1084 18.1928 17.1084H16.1446V19.1566C16.1446 19.6224 15.767 20 15.3012 20C14.8354 20 14.4578 19.6224 14.4578 19.1566ZM11.5663 4.6988V3.61446H5.54217V4.6988C5.54217 5.16458 5.16458 5.54217 4.6988 5.54217C4.23301 5.54217 3.85542 5.16458 3.85542 4.6988V3.61446H2.77108C2.4835 3.61446 2.20731 3.72831 2.00395 3.93166C1.8006 4.13502 1.68675 4.41121 1.68675 4.6988V7.71084H15.4217V4.6988C15.4217 4.41121 15.3078 4.13502 15.1045 3.93166C14.9011 3.72831 14.6249 3.61446 14.3373 3.61446H13.253V4.6988C13.253 5.16458 12.8754 5.54217 12.4096 5.54217C11.9439 5.54217 11.5663 5.16458 11.5663 4.6988ZM17.1084 9.51807C17.1084 9.98385 16.7308 10.3614 16.2651 10.3614C15.7993 10.3614 15.4217 9.98385 15.4217 9.51807V9.39759H1.68675V16.2651C1.68675 16.5526 1.8006 16.8288 2.00395 17.0322C2.20731 17.2355 2.4835 17.3494 2.77108 17.3494H9.03614C9.50193 17.3494 9.87952 17.727 9.87952 18.1928C9.87952 18.6586 9.50193 19.0361 9.03614 19.0361H2.77108C2.03615 19.0361 1.33105 18.7445 0.81137 18.2248C0.291692 17.7051 0 17 0 16.2651V4.6988C0 3.96386 0.291691 3.25876 0.81137 2.73908C1.33105 2.2194 2.03615 1.92771 2.77108 1.92771H3.85542V0.843374C3.85542 0.377591 4.23301 0 4.6988 0C5.16458 0 5.54217 0.377591 5.54217 0.843374V1.92771H11.5663V0.843374C11.5663 0.377591 11.9439 0 12.4096 0C12.8754 0 13.253 0.377591 13.253 0.843374V1.92771H14.3373C15.0723 1.92771 15.7774 2.2194 16.2971 2.73908C16.8167 3.25876 17.1084 3.96386 17.1084 4.6988V9.51807Z" fill="currentColor"/>
</svg>
