<svg preserveAspectRatio="none" width="100%" height="100%" overflow="visible" style="display: block;" viewBox="0 0 17.9747 20" fill="none" xmlns="http://www.w3.org/2000/svg">
<path id="Vector" d="M16.2025 9.87342H1.77215V17.0886C1.77215 17.3908 1.89177 17.6809 2.10542 17.8946C2.31907 18.1082 2.60925 18.2278 2.91139 18.2278H15.0633C15.3654 18.2278 15.6556 18.1082 15.8693 17.8946C16.0829 17.6809 16.2025 17.3908 16.2025 17.0886V9.87342ZM3.93888 14.1772C4.42825 14.1772 4.82496 14.5739 4.82496 15.0633C4.82496 15.5527 4.42825 15.9494 3.93888 15.9494H3.93394C3.44468 15.9492 3.04786 15.5526 3.04786 15.0633C3.04786 14.574 3.44468 14.1773 3.93394 14.1772H3.93888ZM6.97686 14.1772C7.46623 14.1772 7.86294 14.5739 7.86294 15.0633C7.86294 15.5527 7.46623 15.9494 6.97686 15.9494H6.97191C6.48266 15.9492 6.08584 15.5526 6.08584 15.0633C6.08584 14.574 6.48266 14.1773 6.97191 14.1772H6.97686ZM10.0198 14.1772C10.5091 14.1772 10.9059 14.5739 10.9059 15.0633C10.9059 15.5527 10.5091 15.9494 10.0198 15.9494H10.0148C9.52563 15.9492 9.12876 15.5525 9.12876 15.0633C9.12876 14.574 9.52563 14.1774 10.0148 14.1772H10.0198ZM3.93691 11.1392C4.42627 11.1392 4.82298 11.536 4.82298 12.0253C4.82298 12.5147 4.42627 12.9114 3.93691 12.9114H3.92405C3.43468 12.9114 3.03797 12.5147 3.03797 12.0253C3.03797 11.536 3.43468 11.1392 3.92405 11.1392H3.93691ZM6.97686 11.1392C7.46623 11.1392 7.86294 11.536 7.86294 12.0253C7.86294 12.5147 7.46623 12.9114 6.97686 12.9114H6.97191C6.48266 12.9113 6.08584 12.5146 6.08584 12.0253C6.08584 11.536 6.48266 11.1394 6.97191 11.1392H6.97686ZM10.0148 11.1392C10.5042 11.1392 10.9009 11.536 10.9009 12.0253C10.9009 12.5147 10.5042 12.9114 10.0148 12.9114H10.0099C9.52063 12.9113 9.12381 12.5146 9.12381 12.0253C9.12381 11.536 9.52063 11.1394 10.0099 11.1392H10.0148ZM13.0578 11.1392C13.5471 11.1392 13.9438 11.536 13.9438 12.0253C13.9438 12.5147 13.5471 12.9114 13.0578 12.9114H13.0528C12.5636 12.9112 12.1667 12.5146 12.1667 12.0253C12.1667 11.5361 12.5636 11.1394 13.0528 11.1392H13.0578ZM12.1519 4.93671V3.79747H5.82278V4.93671C5.82278 5.42608 5.42607 5.82278 4.93671 5.82278C4.44734 5.82278 4.05063 5.42608 4.05063 4.93671V3.79747H2.91139C2.60925 3.79747 2.31907 3.91709 2.10542 4.13074C1.89177 4.34438 1.77215 4.63456 1.77215 4.93671V8.10127H16.2025V4.93671C16.2025 4.63456 16.0829 4.34439 15.8693 4.13074C15.6556 3.91709 15.3654 3.79747 15.0633 3.79747H13.9241V4.93671C13.9241 5.42607 13.5273 5.82278 13.038 5.82278C12.5486 5.82278 12.1519 5.42608 12.1519 4.93671ZM17.9747 17.0886C17.9747 17.8608 17.6682 18.6016 17.1222 19.1475C16.5762 19.6935 15.8354 20 15.0633 20H2.91139C2.13924 20 1.39844 19.6935 0.852453 19.1475C0.306461 18.6016 0 17.8608 0 17.0886V4.93671C0 4.16456 0.306461 3.42376 0.852453 2.87777C1.39844 2.33178 2.13924 2.02532 2.91139 2.02532H4.05063V0.886076C4.05063 0.39671 4.44734 0 4.93671 0C5.42607 1.30483e-07 5.82278 0.39671 5.82278 0.886076V2.02532H12.1519V0.886076C12.1519 0.39671 12.5486 0 13.038 0C13.5273 5.21931e-07 13.9241 0.39671 13.9241 0.886076V2.02532H15.0633C15.8354 2.02532 16.5762 2.33178 17.1222 2.87777C17.6682 3.42376 17.9747 4.16456 17.9747 4.93671V17.0886Z" fill="currentColor"/>
</svg>
