<svg preserveAspectRatio="none" width="100%" height="100%" overflow="visible" style="display: block;" viewBox="0 0 19.0362 20" fill="none" xmlns="http://www.w3.org/2000/svg">
<path id="Vector" d="M16.3852 15.3009C16.3852 14.7577 16.1697 14.2364 15.7856 13.8523C15.4015 13.4682 14.8803 13.2527 14.3371 13.2527C13.7939 13.2527 13.2726 13.4682 12.8885 13.8523C12.5044 14.2364 12.2889 14.7577 12.2889 15.3009C12.2889 15.8441 12.5044 16.3654 12.8885 16.7495C13.2726 17.1336 13.7939 17.349 14.3371 17.349C14.8803 17.349 15.4015 17.1336 15.7856 16.7495C16.1697 16.3654 16.3852 15.8441 16.3852 15.3009ZM11.566 4.6987V3.61438H5.54206V4.6987C5.54206 5.16447 5.16447 5.54206 4.6987 5.54206C4.23293 5.54206 3.85534 5.16447 3.85534 4.6987V3.61438H2.77103C2.48345 3.61438 2.20726 3.72824 2.00391 3.93158C1.80056 4.13493 1.68671 4.41112 1.68671 4.6987V7.71069H15.4214V4.6987C15.4214 4.41112 15.3075 4.13493 15.1042 3.93158C14.9008 3.72824 14.6246 3.61438 14.3371 3.61438H13.2527V4.6987C13.2527 5.16447 12.8752 5.54206 12.4094 5.54206C11.9436 5.54206 11.566 5.16447 11.566 4.6987ZM18.0719 15.3009C18.0719 16.0051 17.871 16.6875 17.5043 17.2756L18.7892 18.5595C19.1185 18.8888 19.1185 19.4236 18.7892 19.753C18.4598 20.0823 17.925 20.0823 17.5957 19.753L16.3118 18.4682C15.7237 18.8348 15.0413 19.0358 14.3371 19.0358C13.3465 19.0358 12.3963 18.6425 11.6959 17.942C10.9955 17.2416 10.6022 16.2914 10.6022 15.3009C10.6022 14.3103 10.9955 13.3602 11.6959 12.6598C12.3963 11.9593 13.3465 11.566 14.3371 11.566C15.3276 11.566 16.2778 11.9593 16.9782 12.6598C17.6786 13.3602 18.0719 14.3103 18.0719 15.3009ZM17.1081 9.03596C17.1081 9.50173 16.7305 9.87932 16.2647 9.87932C15.9284 9.87932 15.6387 9.68217 15.5033 9.3974H1.68671V16.2647C1.68671 16.5523 1.80056 16.8285 2.00391 17.0318C2.20726 17.2352 2.48345 17.349 2.77103 17.349H8.07212C8.5379 17.349 8.91548 17.7266 8.91548 18.1924C8.91548 18.6582 8.5379 19.0358 8.07212 19.0358H2.77103C2.03611 19.0358 1.33102 18.7441 0.811354 18.2244C0.291686 17.7047 0 16.9997 0 16.2647V4.6987C0 3.96378 0.291685 3.25869 0.811354 2.73903C1.33102 2.21936 2.03611 1.92767 2.77103 1.92767H3.85534V0.843356C3.85534 0.377584 4.23293 0 4.6987 0C5.16447 0 5.54206 0.377584 5.54206 0.843356V1.92767H11.566V0.843356C11.566 0.377584 11.9436 0 12.4094 0C12.8752 0 13.2527 0.377584 13.2527 0.843356V1.92767H14.3371C15.072 1.92767 15.7771 2.21936 16.2967 2.73903C16.8164 3.25869 17.1081 3.96378 17.1081 4.6987V9.03596Z" fill="currentColor"/>
</svg>
