<svg preserveAspectRatio="none" width="100%" height="100%" overflow="visible" style="display: block;" viewBox="0 0 20 20" fill="none" xmlns="http://www.w3.org/2000/svg">
<path id="Vector" d="M18.3133 15.3012C18.3133 14.5024 17.9962 13.736 17.4313 13.1711C16.8664 12.6063 16.1 12.2892 15.3012 12.2892C14.5024 12.2892 13.736 12.6063 13.1711 13.1711C12.6063 13.736 12.2892 14.5024 12.2892 15.3012C12.2892 16.1 12.6063 16.8664 13.1711 17.4313C13.736 17.9962 14.5024 18.3133 15.3012 18.3133C16.1 18.3133 16.8664 17.9962 17.4313 17.4313C17.9962 16.8664 18.3133 16.1 18.3133 15.3012ZM14.4578 13.8517C14.4578 13.3859 14.8354 13.0083 15.3012 13.0083C15.767 13.0083 16.1446 13.3859 16.1446 13.8517V14.9511L16.8618 15.6683C17.1912 15.9977 17.1912 16.5325 16.8618 16.8618C16.5325 17.1912 15.9977 17.1912 15.6683 16.8618L14.7044 15.898C14.5463 15.7398 14.4578 15.5249 14.4578 15.3012V13.8517ZM11.5663 4.6988V3.61446H5.54217V4.6988C5.54217 5.16458 5.16458 5.54217 4.6988 5.54217C4.23301 5.54217 3.85542 5.16458 3.85542 4.6988V3.61446H2.77108C2.4835 3.61446 2.20731 3.72831 2.00395 3.93166C1.8006 4.13502 1.68675 4.41121 1.68675 4.6988V7.71084H15.4217V4.6988C15.4217 4.41121 15.3078 4.13502 15.1045 3.93166C14.9011 3.72831 14.6249 3.61446 14.3373 3.61446H13.253V4.6988C13.253 5.16458 12.8754 5.54217 12.4096 5.54217C11.9439 5.54217 11.5663 5.16458 11.5663 4.6988ZM20 15.3012C20 16.5474 19.5051 17.7427 18.6239 18.6239C17.7427 19.5051 16.5474 20 15.3012 20C14.055 20 12.8597 19.5051 11.9785 18.6239C11.0973 17.7427 10.6024 16.5474 10.6024 15.3012C10.6024 14.055 11.0973 12.8597 11.9785 11.9785C12.8597 11.0973 14.055 10.6024 15.3012 10.6024C16.5474 10.6024 17.7427 11.0973 18.6239 11.9785C19.5051 12.8597 20 14.055 20 15.3012ZM17.1084 8.55422C17.1084 9.02 16.7308 9.39759 16.2651 9.39759H1.68675V16.2651C1.68675 16.5526 1.8006 16.8288 2.00395 17.0322C2.20731 17.2355 2.4835 17.3494 2.77108 17.3494H9.32041C9.78619 17.3494 10.1638 17.727 10.1638 18.1928C10.1638 18.6586 9.78619 19.0361 9.32041 19.0361H2.77108C2.03615 19.0361 1.33105 18.7445 0.811371 18.2248C0.291692 17.7051 0 17 0 16.2651V4.6988C0 3.96386 0.291691 3.25876 0.811371 2.73908C1.33105 2.2194 2.03615 1.92771 2.77108 1.92771H3.85542V0.843374C3.85542 0.377591 4.23301 0 4.6988 0C5.16458 0 5.54217 0.377591 5.54217 0.843374V1.92771H11.5663V0.843374C11.5663 0.377591 11.9439 0 12.4096 0C12.8754 0 13.253 0.377591 13.253 0.843374V1.92771H14.3373C15.0723 1.92771 15.7774 2.2194 16.2971 2.73908C16.8167 3.25876 17.1084 3.96386 17.1084 4.6988V8.55422Z" fill="currentColor"/>
</svg>
