<svg preserveAspectRatio="none" width="100%" height="100%" overflow="visible" style="display: block;" viewBox="0 0 19.0364 20" fill="none" xmlns="http://www.w3.org/2000/svg">
<path id="Vector" d="M15.6682 10.849C15.9976 10.5196 16.5324 10.5196 16.8617 10.849L18.7894 12.7767C19.1188 13.106 19.1188 13.6408 18.7894 13.9702L16.8617 15.8979C16.5324 16.2272 15.9976 16.2272 15.6682 15.8979C15.3389 15.5685 15.3389 15.0337 15.6682 14.7044L16.1558 14.2168H15.3011C14.9692 14.2168 14.6424 14.2977 14.3486 14.4521C14.0547 14.6065 13.8027 14.8301 13.6144 15.1035C13.4261 15.3769 13.3065 15.6925 13.2671 16.0221C13.2277 16.3515 13.2693 16.6855 13.3875 16.9954C13.506 17.3055 13.6984 17.5826 13.9476 17.8021C14.1967 18.0214 14.4956 18.1774 14.8183 18.2557C15.1406 18.3339 15.4773 18.3326 15.799 18.252C16.1211 18.1712 16.4194 18.013 16.6669 17.7917C17.014 17.4813 17.5471 17.5105 17.8576 17.8576C18.1681 18.2047 18.1379 18.7377 17.7908 19.0483C17.3396 19.4518 16.7975 19.7405 16.2104 19.8879C15.6232 20.0352 15.0085 20.0373 14.4201 19.8945C13.8319 19.7517 13.2874 19.468 12.8331 19.068C12.3788 18.6679 12.0279 18.1633 11.8119 17.5978C11.5959 17.0323 11.5207 16.4227 11.5926 15.8216C11.6645 15.2205 11.8818 14.6458 12.2251 14.1471C12.5684 13.6485 13.0277 13.2409 13.5636 12.9593C14.0995 12.6776 14.6957 12.53 15.3011 12.5301H16.1558L15.6682 12.0425C15.3389 11.7131 15.3389 11.1783 15.6682 10.849ZM15.4216 7.59032V4.69877C15.4216 4.41119 15.3078 4.135 15.1044 3.93164C14.901 3.72829 14.6249 3.61444 14.3373 3.61444H13.2529V4.69877C13.2529 5.16455 12.8754 5.54214 12.4096 5.54214C11.9438 5.54214 11.5662 5.16455 11.5662 4.69877V3.61444H5.54214V4.69877C5.54214 5.16455 5.16455 5.54214 4.69877 5.54214C4.23299 5.54214 3.8554 5.16455 3.8554 4.69877V3.61444H2.77107C2.48349 3.61444 2.20729 3.72829 2.00394 3.93164C1.80059 4.13499 1.68674 4.41119 1.68674 4.69877V7.7108H12.4096C12.8754 7.7108 13.2529 8.08839 13.2529 8.55417C13.2529 9.01995 12.8754 9.39754 12.4096 9.39754H1.68674V16.265C1.68674 16.5526 1.80059 16.8287 2.00394 17.0321C2.20729 17.2355 2.48349 17.3493 2.77107 17.3493H9.0361C9.50188 17.3493 9.87947 17.7269 9.87947 18.1927C9.87947 18.6585 9.50188 19.036 9.0361 19.036H2.77107C2.03614 19.036 1.33104 18.7444 0.811366 18.2247C0.29169 17.705 0 16.9999 0 16.265V4.69877C0 3.96384 0.29169 3.25874 0.811366 2.73907C1.33104 2.21939 2.03614 1.9277 2.77107 1.9277H3.8554V0.843369C3.8554 0.377589 4.23299 0 4.69877 0C5.16455 0 5.54214 0.377589 5.54214 0.843369V1.9277H11.5662V0.843369C11.5662 0.377589 11.9438 0 12.4096 0C12.8754 0 13.2529 0.377589 13.2529 0.843369V1.9277H14.3373C15.0722 1.9277 15.7773 2.21939 16.297 2.73907C16.8167 3.25874 17.1083 3.96384 17.1083 4.69877V7.59032C17.1083 8.0561 16.7308 8.43369 16.265 8.43369C15.7992 8.43369 15.4216 8.0561 15.4216 7.59032Z" fill="currentColor"/>
</svg>
