<svg preserveAspectRatio="none" width="100%" height="100%" overflow="visible" style="display: block;" viewBox="0 0 20 19.0361" fill="none" xmlns="http://www.w3.org/2000/svg">
<path id="Vector" d="M15.4217 18.1928V16.1446H13.3735C12.9077 16.1446 12.5301 15.767 12.5301 15.3012C12.5301 14.8354 12.9077 14.4578 13.3735 14.4578H15.4217V12.4096C15.4217 11.9439 15.7993 11.5663 16.2651 11.5663C16.7308 11.5663 17.1084 11.9439 17.1084 12.4096V14.4578H19.1566C19.6224 14.4578 20 14.8354 20 15.3012C20 15.767 19.6224 16.1446 19.1566 16.1446H17.1084V18.1928C17.1084 18.6586 16.7308 19.0361 16.2651 19.0361C15.7993 19.0361 15.4217 18.6586 15.4217 18.1928ZM11.5663 9.51807C11.5663 8.97486 11.3508 8.45358 10.9667 8.06947C10.5826 7.68535 10.0613 7.46988 9.51807 7.46988C8.97486 7.46988 8.45358 7.68535 8.06947 8.06947C7.68535 8.45358 7.46988 8.97486 7.46988 9.51807C7.46988 10.0613 7.68536 10.5826 8.06947 10.9667C8.45358 11.3508 8.97486 11.5663 9.51807 11.5663C10.0613 11.5663 10.5826 11.3508 10.9667 10.9667C11.3508 10.5826 11.5663 10.0613 11.5663 9.51807ZM17.3494 9.03614V5.66265C17.3494 5.37507 17.2355 5.09887 17.0322 4.89552C16.8288 4.69217 16.5526 4.57831 16.2651 4.57831H15.3012C14.5663 4.57831 13.8612 4.28662 13.3415 3.76694C12.8218 3.24726 12.5301 2.54217 12.5301 1.80723C12.5301 1.77528 12.5179 1.74417 12.4953 1.72157C12.4727 1.69898 12.4416 1.68675 12.4096 1.68675H6.62651C6.59455 1.68675 6.56345 1.69898 6.54085 1.72157C6.51826 1.74417 6.50602 1.77528 6.50602 1.80723C6.50602 2.54217 6.21433 3.24726 5.69465 3.76694C5.17497 4.28662 4.46988 4.57831 3.73494 4.57831H2.77108C2.4835 4.57831 2.20731 4.69217 2.00395 4.89552C1.8006 5.09887 1.68675 5.37507 1.68675 5.66265V14.3373C1.68675 14.6249 1.8006 14.9011 2.00395 15.1045C2.20731 15.3078 2.4835 15.4217 2.77108 15.4217H9.51807C9.98385 15.4217 10.3614 15.7993 10.3614 16.2651C10.3614 16.7308 9.98385 17.1084 9.51807 17.1084H2.77108C2.03615 17.1084 1.33105 16.8167 0.811371 16.2971C0.291692 15.7774 0 15.0723 0 14.3373V5.66265C0 4.92771 0.291691 4.22262 0.811371 3.70294C1.33105 3.18326 2.03615 2.89157 2.77108 2.89157H3.73494C4.02252 2.89157 4.29872 2.77771 4.50207 2.57436C4.70542 2.37101 4.81928 2.09481 4.81928 1.80723C4.81928 1.32792 5.00935 0.867912 5.34827 0.528991C5.68719 0.19007 6.1472 0 6.62651 0H12.4096C12.8889 0 13.349 0.19007 13.6879 0.528991C14.0268 0.867912 14.2169 1.32792 14.2169 1.80723C14.2169 2.09481 14.3307 2.37101 14.5341 2.57436C14.7374 2.77771 15.0136 2.89157 15.3012 2.89157H16.2651C17 2.89157 17.7051 3.18326 18.2248 3.70294C18.7445 4.22262 19.0361 4.92771 19.0361 5.66265V9.03614C19.0361 9.50193 18.6586 9.87952 18.1928 9.87952C17.727 9.87952 17.3494 9.50193 17.3494 9.03614ZM13.253 9.51807C13.253 10.5086 12.8597 11.4588 12.1593 12.1593C11.4588 12.8597 10.5086 13.253 9.51807 13.253C8.52751 13.253 7.57732 12.8597 6.87688 12.1593C6.17645 11.4588 5.78313 10.5086 5.78313 9.51807C5.78313 8.5275 6.17645 7.57732 6.87688 6.87688C7.57732 6.17645 8.52751 5.78313 9.51807 5.78313C10.5086 5.78313 11.4588 6.17645 12.1593 6.87688C12.8597 7.57732 13.253 8.52751 13.253 9.51807Z" fill="currentColor"/>
</svg>
