<svg preserveAspectRatio="none" width="100%" height="100%" overflow="visible" style="display: block;" viewBox="0 0 20 19.0362" fill="none" xmlns="http://www.w3.org/2000/svg">
<path id="Vector" d="M15.4214 12.4094C15.4214 11.9436 15.799 11.566 16.2647 11.566C16.7305 11.566 17.1081 11.9436 17.1081 12.4094V16.1555L18.5595 14.7041C18.8888 14.3748 19.4236 14.3748 19.753 14.7041C20.0823 15.0335 20.0823 15.5683 19.753 15.8976L16.8615 18.7892C16.5321 19.1185 15.9973 19.1185 15.668 18.7892L12.7765 15.8976C12.4471 15.5683 12.4471 15.0335 12.7765 14.7041C13.1058 14.3748 13.6406 14.3748 13.97 14.7041L15.4214 16.1555V12.4094ZM11.566 9.51788C11.566 8.97467 11.3506 8.4534 10.9665 8.0693C10.5824 7.6852 10.0611 7.46973 9.51788 7.46973C8.97468 7.46973 8.4534 7.6852 8.0693 8.0693C7.6852 8.4534 7.46973 8.97467 7.46973 9.51788C7.46973 10.0611 7.6852 10.5824 8.0693 10.9665C8.4534 11.3506 8.97468 11.566 9.51788 11.566C10.0611 11.566 10.5824 11.3506 10.9665 10.9665C11.3506 10.5824 11.566 10.0611 11.566 9.51788ZM17.349 9.03596V5.66254C17.349 5.37496 17.2352 5.09877 17.0318 4.89542C16.8285 4.69207 16.5523 4.57822 16.2647 4.57822H15.3009C14.566 4.57822 13.8609 4.28653 13.3412 3.76687C12.8216 3.2472 12.5299 2.54211 12.5299 1.80719C12.5299 1.77524 12.5176 1.74413 12.495 1.72154C12.4724 1.69894 12.4413 1.68671 12.4094 1.68671H6.62637C6.59442 1.68671 6.56331 1.69894 6.54072 1.72154C6.51812 1.74413 6.50589 1.77524 6.50589 1.80719C6.50589 2.54211 6.21421 3.2472 5.69454 3.76687C5.17487 4.28653 4.46979 4.57822 3.73486 4.57822H2.77103C2.48345 4.57822 2.20726 4.69207 2.00391 4.89542C1.80056 5.09877 1.68671 5.37496 1.68671 5.66254V14.3371C1.68671 14.6246 1.80056 14.9008 2.00391 15.1042C2.20726 15.3075 2.48345 15.4214 2.77103 15.4214H9.51788C9.98365 15.4214 10.3612 15.799 10.3612 16.2647C10.3612 16.7305 9.98365 17.1081 9.51788 17.1081H2.77103C2.03611 17.1081 1.33102 16.8164 0.811354 16.2967C0.291686 15.7771 0 15.072 0 14.3371V5.66254C0 4.92761 0.291685 4.22253 0.811354 3.70286C1.33102 3.18319 2.03611 2.89151 2.77103 2.89151H3.73486C4.02244 2.89151 4.29863 2.77766 4.50198 2.57431C4.70533 2.37096 4.81918 2.09477 4.81918 1.80719C4.81918 1.32789 5.00925 0.867894 5.34816 0.52898C5.68707 0.190066 6.14707 0 6.62637 0H12.4094C12.8887 0 13.3487 0.190066 13.6876 0.52898C14.0265 0.867894 14.2166 1.32789 14.2166 1.80719C14.2166 2.09477 14.3304 2.37096 14.5338 2.57431C14.7371 2.77766 15.0133 2.89151 15.3009 2.89151H16.2647C16.9997 2.89151 17.7047 3.18319 18.2244 3.70286C18.7441 4.22253 19.0358 4.92761 19.0358 5.66254V9.03596C19.0358 9.50173 18.6582 9.87932 18.1924 9.87932C17.7266 9.87932 17.349 9.50173 17.349 9.03596ZM13.2527 9.51788C13.2527 10.5084 12.8594 11.4586 12.159 12.159C11.4586 12.8594 10.5084 13.2527 9.51788 13.2527C8.52733 13.2527 7.57717 12.8594 6.87674 12.159C6.17632 11.4586 5.78302 10.5084 5.78302 9.51788C5.78302 8.52733 6.17632 7.57717 6.87674 6.87674C7.57717 6.17632 8.52733 5.78301 9.51788 5.78301C10.5084 5.78301 11.4586 6.17632 12.159 6.87674C12.8594 7.57717 13.2527 8.52733 13.2527 9.51788Z" fill="currentColor"/>
</svg>
