<svg preserveAspectRatio="none" width="100%" height="100%" overflow="visible" style="display: block;" viewBox="0 0 20 17.9747" fill="none" xmlns="http://www.w3.org/2000/svg">
<path id="Vector" d="M13.1646 1.89873C13.1646 1.86516 13.1517 1.83248 13.128 1.80874C13.1042 1.785 13.0715 1.77215 13.038 1.77215H6.96203C6.92845 1.77215 6.89577 1.785 6.87203 1.80874C6.84829 1.83248 6.83544 1.86516 6.83544 1.89873C6.83544 2.67088 6.52898 3.41168 5.98299 3.95767C5.437 4.50367 4.6962 4.81013 3.92405 4.81013H2.91139C2.60925 4.81013 2.31907 4.92974 2.10542 5.14339C1.89177 5.35704 1.77215 5.64722 1.77215 5.94937V15.0633C1.77215 15.3654 1.89177 15.6556 2.10542 15.8693C2.31907 16.0829 2.60925 16.2025 2.91139 16.2025H17.0886C17.3908 16.2025 17.6809 16.0829 17.8946 15.8693C18.1082 15.6556 18.2278 15.3654 18.2278 15.0633V5.94937C18.2278 5.64722 18.1082 5.35704 17.8946 5.14339C17.6809 4.92974 17.3908 4.81013 17.0886 4.81013H16.0759C15.3038 4.81013 14.563 4.50367 14.017 3.95767C13.471 3.41168 13.1646 2.67088 13.1646 1.89873ZM12.1519 10C12.1519 9.42928 11.9255 8.8816 11.522 8.47805C11.1184 8.07449 10.5707 7.8481 10 7.8481C9.42928 7.8481 8.8816 8.07449 8.47805 8.47805C8.07449 8.8816 7.8481 9.42928 7.8481 10C7.8481 10.5707 8.07449 11.1184 8.47805 11.522C8.8816 11.9255 9.42928 12.1519 10 12.1519C10.5707 12.1519 11.1184 11.9255 11.522 11.522C11.9255 11.1184 12.1519 10.5707 12.1519 10ZM13.9241 10C13.9241 11.0407 13.5108 12.039 12.7749 12.7749C12.039 13.5108 11.0407 13.9241 10 13.9241C8.95928 13.9241 7.96098 13.5108 7.22508 12.7749C6.48918 12.039 6.07595 11.0407 6.07595 10C6.07595 8.95928 6.48918 7.96098 7.22508 7.22508C7.96098 6.48918 8.95928 6.07595 10 6.07595C11.0407 6.07595 12.039 6.48918 12.7749 7.22508C13.5108 7.96098 13.9241 8.95928 13.9241 10ZM14.9367 1.89873C14.9367 2.20088 15.0563 2.49106 15.27 2.70471C15.4836 2.91836 15.7738 3.03797 16.0759 3.03797H17.0886C17.8608 3.03797 18.6016 3.34444 19.1475 3.89043C19.6935 4.43642 20 5.17722 20 5.94937V15.0633C20 15.8354 19.6935 16.5762 19.1475 17.1222C18.6016 17.6682 17.8608 17.9747 17.0886 17.9747H2.91139C2.13924 17.9747 1.39844 17.6682 0.852453 17.1222C0.306461 16.5762 0 15.8354 0 15.0633V5.94937C0 5.17722 0.30646 4.43642 0.852453 3.89043C1.39844 3.34444 2.13924 3.03797 2.91139 3.03797H3.92405C4.2262 3.03797 4.51637 2.91836 4.73002 2.70471C4.94367 2.49106 5.06329 2.20088 5.06329 1.89873C5.06329 1.39516 5.26299 0.911857 5.61907 0.555775C5.97515 0.199694 6.45845 0 6.96203 0H13.038C13.5416 0 14.0249 0.199694 14.3809 0.555775C14.737 0.911857 14.9367 1.39516 14.9367 1.89873Z" fill="currentColor"/>
</svg>
