<svg preserveAspectRatio="none" width="100%" height="100%" overflow="visible" style="display: block;" viewBox="0 0 20 20" fill="none" xmlns="http://www.w3.org/2000/svg">
<path id="Vector" d="M18.2278 10C18.2278 8.91952 18.0153 7.8495 17.6019 6.85127C17.3018 6.12682 16.8989 5.45133 16.4092 4.84276L4.84276 16.4092C5.45133 16.8989 6.12682 17.3018 6.85127 17.6019C7.8495 18.0153 8.91952 18.2278 10 18.2278C11.0805 18.2278 12.1505 18.0153 13.1487 17.6019C14.147 17.1884 15.0538 16.5819 15.8178 15.8178C16.5819 15.0538 17.1884 14.147 17.6019 13.1487C18.0153 12.1505 18.2278 11.0805 18.2278 10ZM1.77215 10C1.77215 11.0805 1.98467 12.1505 2.39814 13.1487C2.69804 13.8728 3.1005 14.548 3.58979 15.1563L15.1563 3.58979C14.548 3.1005 13.8728 2.69804 13.1487 2.39814C12.1505 1.98467 11.0805 1.77215 10 1.77215C8.91952 1.77215 7.8495 1.98467 6.85127 2.39814C5.85302 2.81163 4.94619 3.41813 4.18216 4.18216C3.41813 4.94619 2.81163 5.85302 2.39814 6.85127C1.98467 7.8495 1.77215 8.91952 1.77215 10ZM20 10C20 11.3132 19.7411 12.6139 19.2385 13.8271C18.736 15.0403 17.9993 16.1423 17.0708 17.0708C16.1423 17.9993 15.0403 18.736 13.8271 19.2385C12.6139 19.7411 11.3132 20 10 20C8.68678 20 7.38612 19.7411 6.17286 19.2385C4.95975 18.736 3.85769 17.9993 2.92919 17.0708C2.0007 16.1423 1.26402 15.0403 0.761472 13.8271C0.258924 12.6139 0 11.3132 0 10C0 8.68678 0.258924 7.38612 0.761472 6.17286C1.26402 4.95975 2.0007 3.85769 2.92919 2.92919C3.85769 2.0007 4.95975 1.26402 6.17286 0.761472C7.38612 0.258924 8.68678 0 10 0C11.3132 0 12.6139 0.258924 13.8271 0.761472C15.0403 1.26402 16.1423 2.0007 17.0708 2.92919C17.9993 3.85769 18.736 4.95975 19.2385 6.17286C19.7411 7.38612 20 8.68678 20 10Z" fill="currentColor"/>
</svg>
