<svg preserveAspectRatio="none" width="100%" height="100%" overflow="visible" style="display: block;" viewBox="0 0 20 20" fill="none" xmlns="http://www.w3.org/2000/svg">
<path id="Vector" d="M0 16.7606V14.507C0 13.9625 0.441409 13.5211 0.985916 13.5211C1.53042 13.5211 1.97183 13.9625 1.97183 14.507V16.7606C1.97183 17.0968 2.10493 17.4196 2.34265 17.6574C2.58037 17.8951 2.90325 18.0282 3.23944 18.0282H5.49296C6.03746 18.0282 6.47887 18.4696 6.47887 19.0141C6.47887 19.5586 6.03746 20 5.49296 20H3.23944C2.38028 20 1.55602 19.659 0.948504 19.0515C0.340991 18.444 0 17.6197 0 16.7606ZM18.0282 16.7606V14.507C18.0282 13.9625 18.4696 13.5211 19.0141 13.5211C19.5586 13.5211 20 13.9625 20 14.507V16.7606C20 17.6197 19.659 18.444 19.0515 19.0515C18.444 19.659 17.6197 20 16.7606 20H14.507C13.9625 20 13.5211 19.5586 13.5211 19.0141C13.5211 18.4696 13.9625 18.0282 14.507 18.0282H16.7606C17.0968 18.0282 17.4196 17.8951 17.6574 17.6574C17.8951 17.4196 18.0282 17.0968 18.0282 16.7606ZM12.3944 10C12.3944 9.36497 12.1425 8.75559 11.6934 8.30656C11.2444 7.85753 10.635 7.60563 10 7.60563C9.36497 7.60563 8.75559 7.85753 8.30656 8.30656C7.85753 8.75559 7.60563 9.36497 7.60563 10C7.60563 10.635 7.85753 11.2444 8.30656 11.6934C8.75559 12.1425 9.36497 12.3944 10 12.3944C10.635 12.3944 11.2444 12.1425 11.6934 11.6934C12.1425 11.2444 12.3944 10.635 12.3944 10ZM0 5.49296V3.23944C0 2.38028 0.340991 1.55602 0.948504 0.948504C1.55602 0.340991 2.38028 0 3.23944 0H5.49296C6.03746 1.45185e-07 6.47887 0.44141 6.47887 0.985916C6.47887 1.53042 6.03746 1.97183 5.49296 1.97183H3.23944C2.90325 1.97183 2.58037 2.10493 2.34265 2.34265C2.10493 2.58037 1.97183 2.90325 1.97183 3.23944V5.49296C1.97183 6.03746 1.53042 6.47887 0.985916 6.47887C0.441409 6.47887 0 6.03746 0 5.49296ZM18.0282 5.49296V3.23944C18.0282 2.90325 17.8951 2.58037 17.6574 2.34265C17.4196 2.10493 17.0968 1.97183 16.7606 1.97183H14.507C13.9625 1.97183 13.5211 1.53042 13.5211 0.985916C13.5211 0.441409 13.9625 0 14.507 0H16.7606C17.6197 2.84581e-07 18.444 0.340992 19.0515 0.948504C19.659 1.55602 20 2.38028 20 3.23944V5.49296C20 6.03746 19.5586 6.47887 19.0141 6.47887C18.4696 6.47887 18.0282 6.03746 18.0282 5.49296ZM14.3662 10C14.3662 11.158 13.9064 12.2688 13.0876 13.0876C12.2688 13.9064 11.158 14.3662 10 14.3662C8.84201 14.3662 7.73123 13.9064 6.91241 13.0876C6.09359 12.2688 5.6338 11.158 5.6338 10C5.6338 8.84201 6.09359 7.73123 6.91241 6.91241C7.73123 6.09359 8.84201 5.6338 10 5.6338C11.158 5.6338 12.2688 6.09359 13.0876 6.91241C13.9064 7.73123 14.3662 8.84201 14.3662 10Z" fill="currentColor"/>
</svg>
