<svg preserveAspectRatio="none" width="100%" height="100%" overflow="visible" style="display: block;" viewBox="0 0 20 14.9367" fill="none" xmlns="http://www.w3.org/2000/svg">
<path id="Vector" d="M18.2278 7.97468C18.2278 7.67254 18.1082 7.38236 17.8946 7.16871C17.6809 6.95506 17.3908 6.83544 17.0886 6.83544H1.77215V11.1392H2.16475C2.3048 10.7012 2.54651 10.2976 2.87777 9.96638C3.42376 9.42038 4.16456 9.11392 4.93671 9.11392C5.70886 9.11392 6.44966 9.42038 6.99565 9.96638C7.3269 10.2976 7.56861 10.7012 7.70866 11.1392H12.2913C12.4314 10.7012 12.6731 10.2976 13.0044 9.96638C13.5503 9.42038 14.2911 9.11392 15.0633 9.11392C15.8354 9.11392 16.5762 9.42038 17.1222 9.96638C17.4535 10.2976 17.6952 10.7012 17.8352 11.1392H18.2278V7.97468ZM4.93671 10.8861C4.63456 10.8861 4.34439 11.0057 4.13074 11.2193C3.91709 11.433 3.79747 11.7232 3.79747 12.0253C3.79747 12.3275 3.91709 12.6176 4.13074 12.8313C4.34439 13.0449 4.63456 13.1646 4.93671 13.1646C5.23885 13.1646 5.52903 13.0449 5.74268 12.8313C5.95633 12.6176 6.07595 12.3275 6.07595 12.0253C6.07595 11.7232 5.95633 11.433 5.74268 11.2193C5.52903 11.0057 5.23885 10.8861 4.93671 10.8861ZM15.0633 10.8861C14.7611 10.8861 14.471 11.0057 14.2573 11.2193C14.0437 11.433 13.9241 11.7232 13.9241 12.0253C13.9241 12.3275 14.0437 12.6176 14.2573 12.8313C14.471 13.0449 14.7611 13.1646 15.0633 13.1646C15.3654 13.1646 15.6556 13.0449 15.8693 12.8313C16.0829 12.6176 16.2025 12.3275 16.2025 12.0253C16.2025 11.7232 16.0829 11.433 15.8693 11.2193C15.6556 11.0057 15.3654 10.8861 15.0633 10.8861ZM10.8861 5.06329H14.2316L11.5991 1.77215H10.8861V5.06329ZM2.19541 5.06329H9.11392V1.77215H3.51167L2.19541 5.06329ZM20 12.0253C20 12.5147 19.6033 12.9114 19.1139 12.9114H17.8352C17.6952 13.3495 17.4535 13.753 17.1222 14.0843C16.5762 14.6302 15.8354 14.9367 15.0633 14.9367C14.2911 14.9367 13.5503 14.6302 13.0044 14.0843C12.6731 13.753 12.4314 13.3495 12.2913 12.9114H7.70866C7.56861 13.3495 7.3269 13.753 6.99565 14.0843C6.44966 14.6302 5.70886 14.9367 4.93671 14.9367C4.16456 14.9367 3.42376 14.6302 2.87777 14.0843C2.54651 13.753 2.3048 13.3495 2.16475 12.9114H0.886076C0.39671 12.9114 0 12.5147 0 12.0253V5.94937C0 5.83664 0.0214257 5.72472 0.0632911 5.62006L2.08861 0.556764L2.14794 0.436116C2.30545 0.168715 2.59449 0 2.91139 0H12.0253C12.2945 0 12.5494 0.122088 12.7176 0.332278L16.5022 5.06329H17.0886C17.8608 5.06329 18.6016 5.36975 19.1475 5.91574C19.6935 6.46174 20 7.20253 20 7.97468V12.0253Z" fill="currentColor"/>
</svg>
