<svg preserveAspectRatio="none" width="100%" height="100%" overflow="visible" style="display: block;" viewBox="0 0 20 18.6494" fill="none" xmlns="http://www.w3.org/2000/svg">
<path id="Vector" d="M8.92127 0.0106801C9.16468 0.00926923 9.40617 0.0562758 9.63101 0.149521C9.85581 0.242805 10.0601 0.380149 10.231 0.553423C10.3993 0.72406 10.5322 0.926629 10.6223 1.14859L15.5186 12.9821H15.5167C15.7047 13.4303 15.7115 13.9337 15.5332 14.3861C15.3541 14.8406 15.0037 15.2068 14.5574 15.4055L14.5506 15.4085L7.45518 18.4999L7.4513 18.5018C7.2274 18.598 6.98623 18.6478 6.74253 18.6494C6.49879 18.6509 6.25697 18.6039 6.03182 18.5105C5.80669 18.4172 5.6029 18.2792 5.43179 18.1057C5.26312 17.9346 5.12964 17.7322 5.03954 17.5095V17.5105L0.14418 5.67695L0.145151 5.67598C-0.0426433 5.22788 -0.0486294 4.72424 0.129616 4.27203C0.309446 3.81596 0.660599 3.45157 1.10539 3.25354L1.11218 3.25063L8.20862 0.160201L8.21347 0.158259C8.43722 0.062356 8.67784 0.0121293 8.92127 0.0106801ZM8.89894 1.75736L1.81222 4.84196L1.81319 4.84293C1.78197 4.85683 1.7595 4.8813 1.74813 4.90993C1.73622 4.94017 1.73647 4.97417 1.74911 5.00411L1.75202 5.0109L6.64738 16.8454L6.65224 16.8561L6.67068 16.8842C6.67855 16.8922 6.68753 16.8993 6.69787 16.9037C6.7082 16.9079 6.71971 16.9095 6.73088 16.9095C6.74214 16.9094 6.75354 16.9071 6.76389 16.9027L13.8506 13.8142C13.8796 13.8008 13.903 13.7779 13.9147 13.7482C13.9266 13.7179 13.9264 13.684 13.9137 13.654L13.9108 13.6472L9.01448 1.81367L9.01059 1.80299C9.00644 1.79273 8.99991 1.78371 8.99215 1.77581C8.9843 1.76785 8.97527 1.76071 8.96496 1.75639C8.95464 1.7521 8.94312 1.75054 8.93195 1.75056C8.92067 1.75063 8.90931 1.75292 8.89894 1.75736ZM16.9595 2.51856C17.1471 2.07629 17.658 1.86979 18.1003 2.05737L18.844 2.36224L18.8644 2.37098C19.3193 2.56413 19.6793 2.93035 19.8645 3.3885C20.0496 3.84669 20.0448 4.35983 19.8519 4.81478L19.8509 4.81672L17.5663 10.1597C17.3774 10.6014 16.8662 10.8067 16.4245 10.6179C15.9829 10.4291 15.7776 9.91784 15.9662 9.47615L18.2489 4.13514C18.2617 4.10479 18.2632 4.07054 18.2508 4.03999C18.2387 4.01031 18.2159 3.98606 18.1867 3.97299C17.9386 3.87476 17.683 3.77067 17.4207 3.65939C16.9784 3.47172 16.7719 2.96082 16.9595 2.51856ZM13.9079 5.34393V1.86416C13.9079 1.8312 13.8953 1.79911 13.872 1.77581C13.8487 1.75253 13.8166 1.73988 13.7836 1.73988H12.7894C12.309 1.73983 11.9195 1.35036 11.9195 0.869942C11.9195 0.38952 12.309 5.48248e-05 12.7894 0H13.7836C14.278 0 14.7525 0.196089 15.1021 0.545655C15.4517 0.895254 15.6478 1.36976 15.6478 1.86416V5.34393C15.6478 5.82438 15.2583 6.21387 14.7778 6.21387C14.2974 6.21381 13.9079 5.82435 13.9079 5.34393Z" fill="currentColor"/>
</svg>
