<svg preserveAspectRatio="none" width="100%" height="100%" overflow="visible" style="display: block;" viewBox="0 0 20 13.9241" fill="none" xmlns="http://www.w3.org/2000/svg">
<path id="Vector" d="M18.2278 2.91139C18.2278 2.60925 18.1082 2.31907 17.8946 2.10542C17.6809 1.89177 17.3908 1.77215 17.0886 1.77215H2.91139C2.60925 1.77215 2.31907 1.89177 2.10542 2.10542C1.89177 2.31907 1.77215 2.60925 1.77215 2.91139V11.0127C1.77215 11.3148 1.89177 11.605 2.10542 11.8186C2.31907 12.0323 2.60925 12.1519 2.91139 12.1519H17.0886C17.3908 12.1519 17.6809 12.0323 17.8946 11.8186C18.1082 11.605 18.2278 11.3148 18.2278 11.0127V2.91139ZM12.1519 6.96203C12.1519 6.39131 11.9255 5.84363 11.522 5.44007C11.1184 5.03651 10.5707 4.81013 10 4.81013C9.42928 4.81013 8.8816 5.03651 8.47805 5.44007C8.07449 5.84363 7.8481 6.39131 7.8481 6.96203C7.8481 7.53274 8.07449 8.08042 8.47805 8.48398C8.8816 8.88754 9.42928 9.11392 10 9.11392C10.5707 9.11392 11.1184 8.88754 11.522 8.48398C11.9255 8.08042 12.1519 7.53274 12.1519 6.96203ZM3.93394 6.07595C4.42331 6.07595 4.82002 6.47266 4.82002 6.96203C4.82002 7.45139 4.42331 7.8481 3.93394 7.8481H3.92405C3.43468 7.8481 3.03797 7.45139 3.03797 6.96203C3.03797 6.47266 3.43468 6.07595 3.92405 6.07595H3.93394ZM16.0858 6.07595C16.5752 6.07595 16.9719 6.47266 16.9719 6.96203C16.9719 7.45139 16.5752 7.8481 16.0858 7.8481H16.0759C15.5866 7.8481 15.1899 7.45139 15.1899 6.96203C15.1899 6.47266 15.5866 6.07595 16.0759 6.07595H16.0858ZM13.9241 6.96203C13.9241 8.00275 13.5108 9.00104 12.7749 9.73695C12.039 10.4728 11.0407 10.8861 10 10.8861C8.95928 10.8861 7.96098 10.4728 7.22508 9.73695C6.48918 9.00104 6.07595 8.00275 6.07595 6.96203C6.07595 5.9213 6.48918 4.92301 7.22508 4.1871C7.96098 3.4512 8.95928 3.03797 10 3.03797C11.0407 3.03797 12.039 3.4512 12.7749 4.1871C13.5108 4.92301 13.9241 5.9213 13.9241 6.96203ZM20 11.0127C20 11.7848 19.6935 12.5256 19.1475 13.0716C18.6016 13.6176 17.8608 13.9241 17.0886 13.9241H2.91139C2.13924 13.9241 1.39844 13.6176 0.852453 13.0716C0.306461 12.5256 0 11.7848 0 11.0127V2.91139C0 2.13924 0.30646 1.39844 0.852453 0.852453C1.39844 0.30646 2.13924 0 2.91139 0H17.0886C17.8608 0 18.6016 0.306461 19.1475 0.852453C19.6935 1.39844 20 2.13924 20 2.91139V11.0127Z" fill="currentColor"/>
</svg>
