<svg preserveAspectRatio="none" width="100%" height="100%" overflow="visible" style="display: block;" viewBox="0 0 20 20" fill="none" xmlns="http://www.w3.org/2000/svg">
<path id="Vector" d="M4.50704 4.3662C4.50704 4.32884 4.49274 4.29248 4.46633 4.26607C4.43992 4.23965 4.40355 4.22535 4.3662 4.22535H2.11268C2.07532 4.22535 2.03896 4.23965 2.01254 4.26607C1.98613 4.29248 1.97183 4.32884 1.97183 4.3662V7.74648C1.97183 7.78383 1.98613 7.8202 2.01254 7.84661C2.03896 7.87303 2.07532 7.88732 2.11268 7.88732H4.3662C4.40355 7.88732 4.43992 7.87303 4.46633 7.84661C4.49274 7.8202 4.50704 7.78383 4.50704 7.74648V4.3662ZM11.2676 13.3803C11.2676 13.3429 11.2533 13.3066 11.2269 13.2802C11.2005 13.2537 11.1641 13.2394 11.1268 13.2394H8.87324C8.83589 13.2394 8.79952 13.2537 8.77311 13.2802C8.74669 13.3066 8.73239 13.3429 8.73239 13.3803V16.7606C8.73239 16.7979 8.74669 16.8343 8.77311 16.8607C8.79952 16.8871 8.83588 16.9014 8.87324 16.9014H11.1268C11.1641 16.9014 11.2005 16.8871 11.2269 16.8607C11.2533 16.8343 11.2676 16.7979 11.2676 16.7606V13.3803ZM18.0282 3.23944C18.0282 3.20208 18.0139 3.16572 17.9875 3.1393C17.961 3.11289 17.9247 3.09859 17.8873 3.09859H15.6338C15.5964 3.09859 15.5601 3.11289 15.5337 3.1393C15.5073 3.16572 15.493 3.20208 15.493 3.23944V7.74648C15.493 7.78384 15.5073 7.8202 15.5337 7.84661C15.5601 7.87302 15.5964 7.88732 15.6338 7.88732H17.8873C17.9247 7.88732 17.961 7.87302 17.9875 7.84661C18.0139 7.8202 18.0282 7.78384 18.0282 7.74648V3.23944ZM13.2394 16.7606C13.2394 17.3209 13.0172 17.8586 12.621 18.2548C12.2248 18.651 11.6871 18.8732 11.1268 18.8732H10.9859V19.0141C10.9859 19.5586 10.5445 20 10 20C9.45549 20 9.01408 19.5586 9.01408 19.0141V18.8732H8.87324C8.31293 18.8732 7.77517 18.651 7.37896 18.2548C6.98276 17.8586 6.76056 17.3209 6.76056 16.7606V13.3803C6.76056 12.82 6.98276 12.2822 7.37896 11.886C7.77516 11.4898 8.31292 11.2676 8.87324 11.2676H9.01408V0.985916C9.01408 0.441409 9.45549 0 10 0C10.5445 2.90371e-07 10.9859 0.44141 10.9859 0.985916V11.2676H11.1268C11.6871 11.2676 12.2248 11.4898 12.621 11.886C13.0172 12.2822 13.2394 12.82 13.2394 13.3803V16.7606ZM6.47887 7.74648C6.47887 8.3068 6.25668 8.84455 5.86048 9.24076C5.46427 9.63696 4.92651 9.85916 4.3662 9.85916H4.22535V19.0141C4.22535 19.5586 3.78394 20 3.23944 20C2.69493 20 2.25352 19.5586 2.25352 19.0141V9.85916H2.11268C1.55236 9.85916 1.0146 9.63696 0.618398 9.24076C0.222195 8.84455 0 8.3068 0 7.74648V4.3662C0 3.80588 0.222195 3.26812 0.618398 2.87192C1.0146 2.47572 1.55236 2.25352 2.11268 2.25352H2.25352V0.985916C2.25352 0.441409 2.69493 0 3.23944 0C3.78394 7.25927e-08 4.22535 0.441409 4.22535 0.985916V2.25352H4.3662C4.92651 2.25352 5.46427 2.47572 5.86048 2.87192C6.25668 3.26812 6.47887 3.80588 6.47887 4.3662V7.74648ZM20 7.74648C20 8.30679 19.7778 8.84455 19.3816 9.24076C18.9854 9.63696 18.4476 9.85915 17.8873 9.85916H17.7465V19.0141C17.7465 19.5586 17.3051 20 16.7606 20C16.2161 20 15.7746 19.5586 15.7746 19.0141V9.85916H15.6338C15.0735 9.85916 14.5357 9.63696 14.1395 9.24076C13.7433 8.84455 13.5211 8.30679 13.5211 7.74648V3.23944C13.5211 2.67912 13.7433 2.14136 14.1395 1.74516C14.5357 1.34896 15.0735 1.12676 15.6338 1.12676H15.7746V0.985916C15.7746 0.441409 16.2161 0 16.7606 0C17.3051 5.80741e-07 17.7465 0.44141 17.7465 0.985916V1.12676H17.8873C18.4476 1.12676 18.9854 1.34895 19.3816 1.74516C19.7778 2.14136 20 2.67912 20 3.23944V7.74648Z" fill="currentColor"/>
</svg>
