<svg preserveAspectRatio="none" width="100%" height="100%" overflow="visible" style="display: block;" viewBox="0 0 20 20" fill="none" xmlns="http://www.w3.org/2000/svg">
<path id="Vector" d="M6.07595 19.1139V15.0633C6.07595 14.5739 6.47266 14.1772 6.96203 14.1772C7.45139 14.1772 7.8481 14.5739 7.8481 15.0633V19.1139C7.8481 19.6033 7.45139 20 6.96203 20C6.47266 20 6.07595 19.6033 6.07595 19.1139ZM10.1266 19.1139V11.0127C10.1266 10.5233 10.5233 10.1266 11.0127 10.1266C11.502 10.1266 11.8987 10.5233 11.8987 11.0127V19.1139C11.8987 19.6033 11.502 20 11.0127 20C10.5233 20 10.1266 19.6033 10.1266 19.1139ZM14.1772 19.1139V12.0253C14.1772 11.536 14.5739 11.1392 15.0633 11.1392C15.5527 11.1392 15.9494 11.536 15.9494 12.0253V19.1139C15.9494 19.6033 15.5527 20 15.0633 20C14.5739 20 14.1772 19.6033 14.1772 19.1139ZM18.2278 19.1139V10C18.2278 9.51063 18.6246 9.11392 19.1139 9.11392C19.6033 9.11392 20 9.51063 20 10V19.1139C20 19.6033 19.6033 20 19.1139 20C18.6246 20 18.2278 19.6033 18.2278 19.1139ZM4.93671 0C6.24601 0 7.5018 0.519994 8.42761 1.44581C9.35342 2.37162 9.87342 3.62741 9.87342 4.93671C9.87342 6.24601 9.35342 7.5018 8.42761 8.42761C7.5018 9.35342 6.24601 9.87342 4.93671 9.87342C3.62741 9.87342 2.37162 9.35342 1.44581 8.42761C0.519994 7.5018 0 6.24601 0 4.93671C0 3.62741 0.519994 2.37162 1.44581 1.44581C2.37162 0.519994 3.62741 0 4.93671 0ZM5.82278 4.05063H7.97369C7.82604 3.54461 7.55408 3.07821 7.17464 2.69877C6.79521 2.31934 6.32881 2.04738 5.82278 1.89972V4.05063ZM1.77215 4.93671C1.77215 5.776 2.1053 6.58117 2.69877 7.17464C3.29224 7.76811 4.09742 8.10127 4.93671 8.10127C5.776 8.10127 6.58117 7.76811 7.17464 7.17464C7.55408 6.79521 7.82604 6.32881 7.97369 5.82278H4.93671C4.44734 5.82278 4.05063 5.42608 4.05063 4.93671V1.89972C3.54461 2.04738 3.07821 2.31934 2.69877 2.69877C2.1053 3.29224 1.77215 4.09742 1.77215 4.93671Z" fill="currentColor"/>
</svg>
