<svg preserveAspectRatio="none" width="100%" height="100%" overflow="visible" style="display: block;" viewBox="0 0 20 20" fill="none" xmlns="http://www.w3.org/2000/svg">
<path id="Vector" d="M0 0.886076C0 0.39671 0.39671 0 0.886076 0C1.37544 0 1.77215 0.39671 1.77215 0.886076V8.05578C2.68375 7.96174 3.3466 7.72538 3.86076 7.4288C4.53818 7.03798 5.02453 6.50909 5.51028 5.9019C5.96474 5.33383 6.49394 4.58488 7.15388 4.03481C7.87388 3.43481 8.76881 3.03797 10 3.03797C11.2312 3.03797 12.1261 3.43481 12.8461 4.03481C13.5061 4.58488 14.0353 5.33383 14.4897 5.9019C14.9755 6.50909 15.4618 7.03798 16.1392 7.4288C16.807 7.81398 17.7252 8.10127 19.1139 8.10127C19.6033 8.10127 20 8.49798 20 8.98734C20 9.47671 19.6033 9.87342 19.1139 9.87342C17.4648 9.87342 16.231 9.52772 15.2532 8.96361C14.2851 8.40507 13.6321 7.66808 13.1052 7.00949C12.5471 6.31185 12.19 5.79484 11.7108 5.39557C11.2917 5.04638 10.7939 4.81013 10 4.81013C9.20612 4.81013 8.70832 5.04638 8.28916 5.39557C7.81004 5.79484 7.45289 6.31185 6.89478 7.00949C6.36791 7.66808 5.71486 8.40507 4.74684 8.96361C3.95266 9.42179 2.98939 9.73504 1.77215 9.83683V18.2278H5.06329V14.0506C5.06329 13.5613 5.46 13.1646 5.94937 13.1646C6.43873 13.1646 6.83544 13.5613 6.83544 14.0506V18.2278H9.11392V11.0127C9.11392 10.5233 9.51063 10.1266 10 10.1266C10.4894 10.1266 10.8861 10.5233 10.8861 11.0127V18.2278H13.1646V14.0506C13.1646 13.5613 13.5613 13.1646 14.0506 13.1646C14.54 13.1646 14.9367 13.5613 14.9367 14.0506V18.2278H17.2152V16.0759C17.2152 15.5866 17.6119 15.1899 18.1013 15.1899C18.5906 15.1899 18.9873 15.5866 18.9873 16.0759V18.2278H19.1139C19.6033 18.2278 20 18.6246 20 19.1139C20 19.6033 19.6033 20 19.1139 20H0.886076C0.39671 20 0 19.6033 0 19.1139V0.886076Z" fill="currentColor"/>
</svg>
