<svg preserveAspectRatio="none" width="100%" height="100%" overflow="visible" style="display: block;" viewBox="0 0 20 16.6194" fill="none" xmlns="http://www.w3.org/2000/svg">
<path id="Vector" d="M19.0137 14.6477C19.5581 14.6477 19.9995 15.0891 19.9995 15.6336C19.9995 16.1781 19.5581 16.6194 19.0137 16.6194H0.986225C0.441742 16.6194 0.000350518 16.1781 0.000350518 15.6336C0.000350518 15.0891 0.441742 14.6477 0.986225 14.6477H19.0137ZM14.4518 0.00151135C14.7318 -0.0139963 15.0061 0.0904007 15.2044 0.288691L19.7112 4.79555C20.0963 5.18056 20.0963 5.80573 19.7112 6.19074C19.3262 6.57574 18.7011 6.57574 18.3161 6.19074L14.5882 2.4629L10.7702 7.23603C10.4797 7.59904 9.97451 7.7091 9.55872 7.5012L5.83088 5.63728L1.80705 11.6736C1.50509 12.1265 0.892385 12.2494 0.439373 11.9475C-0.0135802 11.6456 -0.136414 11.0329 0.165397 10.5799L4.67225 3.81958L4.72727 3.74475C5.01557 3.38903 5.51744 3.27665 5.9343 3.48508L9.72706 5.38091L13.7366 0.370114L13.807 0.291992C13.9778 0.119799 14.2072 0.0151768 14.4518 0.00151135Z" fill="currentColor"/>
</svg>
