<svg preserveAspectRatio="none" width="100%" height="100%" overflow="visible" style="display: block;" viewBox="0 0 20 20" fill="none" xmlns="http://www.w3.org/2000/svg">
<path id="Vector" d="M0 0.886076C0 0.39671 0.39671 0 0.886076 0C1.37544 0 1.77215 0.39671 1.77215 0.886076V3.03797H19.1139C19.6033 3.03797 20 3.43468 20 3.92405C20 4.41342 19.6033 4.81013 19.1139 4.81013H1.77215V5.08703C3.99903 5.20627 5.6757 5.77696 7.04608 6.61788C8.56683 7.5511 9.66077 8.79088 10.6626 9.91792C11.686 11.0692 12.6176 12.1081 13.8815 12.8837C15.1199 13.6436 16.7279 14.1772 19.1139 14.1772C19.6033 14.1772 20 14.5739 20 15.0633C20 15.5527 19.6033 15.9494 19.1139 15.9494C16.4367 15.9494 14.5004 15.3437 12.9539 14.3948C11.4332 13.4616 10.3392 12.2218 9.33742 11.0947C8.31405 9.94345 7.38236 8.90452 6.11847 8.12896C5.04 7.46719 3.68118 6.97661 1.77215 6.86116V18.2278H19.1139C19.6033 18.2278 20 18.6246 20 19.1139C20 19.6033 19.6033 20 19.1139 20H0.886076C0.39671 20 0 19.6033 0 19.1139V0.886076Z" fill="currentColor"/>
</svg>
