<svg preserveAspectRatio="none" width="100%" height="100%" overflow="visible" style="display: block;" viewBox="0 0 20 17.9747" fill="none" xmlns="http://www.w3.org/2000/svg">
<path id="Vector" d="M18.2278 5.94937C18.2278 5.91579 18.215 5.88311 18.1913 5.85938C18.1675 5.83564 18.1348 5.82278 18.1013 5.82278H14.0506C14.0171 5.82278 13.9844 5.83564 13.9606 5.85938C13.9369 5.88311 13.9241 5.9158 13.9241 5.94937V16.0759C13.9241 16.1095 13.9369 16.1422 13.9606 16.1659C13.9844 16.1897 14.0171 16.2025 14.0506 16.2025H18.1013C18.1348 16.2025 18.1675 16.1897 18.1913 16.1659C18.215 16.1422 18.2278 16.1095 18.2278 16.0759V5.94937ZM1.77215 16.0759C1.77215 16.1095 1.785 16.1422 1.80874 16.1659C1.83248 16.1897 1.86516 16.2025 1.89873 16.2025H5.94937C5.98294 16.2025 6.01562 16.1897 6.03936 16.1659C6.0631 16.1422 6.07595 16.1095 6.07595 16.0759V10C6.07595 9.96643 6.0631 9.93375 6.03936 9.91001C6.01562 9.88627 5.98294 9.87342 5.94937 9.87342H1.89873C1.86516 9.87342 1.83248 9.88627 1.80874 9.91001C1.785 9.93375 1.77215 9.96643 1.77215 10V16.0759ZM12.1519 1.89873C12.1519 1.86516 12.139 1.83248 12.1153 1.80874C12.0916 1.785 12.0589 1.77215 12.0253 1.77215H7.97468C7.94111 1.77215 7.90843 1.785 7.88469 1.80874C7.86095 1.83248 7.8481 1.86516 7.8481 1.89873V16.0759C7.8481 16.1095 7.86095 16.1422 7.88469 16.1659C7.90843 16.1897 7.94111 16.2025 7.97468 16.2025H12.0253C12.0589 16.2025 12.0916 16.1897 12.1153 16.1659C12.139 16.1422 12.1519 16.1095 12.1519 16.0759V1.89873ZM13.9241 4.05657C13.9661 4.05376 14.0082 4.05063 14.0506 4.05063H18.1013C18.6048 4.05063 19.0881 4.25033 19.4442 4.60641C19.8003 4.96249 20 5.44579 20 5.94937V16.0759C20 16.5795 19.8003 17.0628 19.4442 17.4189C19.0881 17.775 18.6048 17.9747 18.1013 17.9747H1.89873C1.39516 17.9747 0.911858 17.775 0.555775 17.4189C0.199693 17.0628 0 16.5795 0 16.0759V10C0 9.49642 0.199694 9.01312 0.555775 8.65704C0.911857 8.30096 1.39516 8.10127 1.89873 8.10127H5.94937C5.99177 8.10127 6.03391 8.10439 6.07595 8.1072V1.89873C6.07595 1.39516 6.27564 0.911857 6.63172 0.555775C6.98781 0.199694 7.47111 0 7.97468 0H12.0253C12.5289 0 13.0122 0.199694 13.3683 0.555775C13.7244 0.911857 13.9241 1.39516 13.9241 1.89873V4.05657Z" fill="currentColor"/>
</svg>
