<svg preserveAspectRatio="none" width="100%" height="100%" overflow="visible" style="display: block;" viewBox="0 0 17.8667 20" fill="none" xmlns="http://www.w3.org/2000/svg">
<path id="Vector" d="M16.2726 14.1393C16.637 13.7748 17.2289 13.7748 17.5934 14.1393C17.9578 14.5037 17.9578 15.0956 17.5934 15.4601L13.3268 19.7266C12.9623 20.0911 12.3705 20.0911 12.006 19.7266L9.87269 17.5934C9.50821 17.2289 9.50821 16.637 9.87269 16.2726C10.2372 15.9081 10.829 15.9081 11.1935 16.2726L12.6664 17.7454L16.2726 14.1393ZM12.7997 11.5997V3.0666C12.7997 2.74835 12.6737 2.4427 12.4487 2.21766C12.2236 1.99262 11.918 1.86662 11.5997 1.86662H3.0666C2.74834 1.86662 2.4427 1.99262 2.21766 2.21766C1.99262 2.4427 1.86662 2.74834 1.86662 3.0666V15.8663C1.86662 16.1846 1.99262 16.4902 2.21766 16.7152C2.4427 16.9403 2.74835 17.0663 3.0666 17.0663H5.85612C6.37146 17.0664 6.78943 17.4842 6.78943 17.9996C6.78943 18.515 6.37146 18.9328 5.85612 18.9329H3.0666C2.25328 18.9329 1.47299 18.6101 0.897896 18.035C0.322798 17.4599 0 16.6796 0 15.8663V3.0666C0 2.25329 0.322798 1.473 0.897896 0.897896C1.473 0.322798 2.25329 0 3.0666 0H11.5997C12.4131 0 13.1933 0.322798 13.7684 0.897896C14.3435 1.47299 14.6663 2.25329 14.6663 3.0666V11.5997C14.6663 12.1152 14.2485 12.5331 13.733 12.5331C13.2176 12.5331 12.7997 12.1152 12.7997 11.5997ZM7.33317 8.53314C7.84862 8.53314 8.26648 8.951 8.26648 9.46645C8.26648 9.98191 7.84862 10.3998 7.33317 10.3998H5.19988C4.68443 10.3998 4.26657 9.98191 4.26657 9.46645C4.26657 8.951 4.68443 8.53314 5.19988 8.53314H7.33317ZM9.46645 4.26657C9.98191 4.26657 10.3998 4.68443 10.3998 5.19988C10.3998 5.71534 9.98191 6.1332 9.46645 6.1332H5.19988C4.68443 6.1332 4.26657 5.71534 4.26657 5.19988C4.26657 4.68443 4.68443 4.26657 5.19988 4.26657H9.46645Z" fill="currentColor"/>
</svg>
