<svg preserveAspectRatio="none" width="100%" height="100%" overflow="visible" style="display: block;" viewBox="0 0 16.8 20" fill="none" xmlns="http://www.w3.org/2000/svg">
<path id="Vector" d="M13.8615 16.4896C13.8581 16.4779 13.8533 16.4667 13.8469 16.4563C13.8403 16.4457 13.832 16.4364 13.8229 16.4281L13.7927 16.4073L12.4469 15.7333H4.35312L3.00729 16.4073C2.98514 16.4184 2.96615 16.4352 2.95312 16.4563C2.94017 16.4772 2.93341 16.5014 2.93333 16.526V18.1333H13.8667V16.526L13.8615 16.4896ZM7.13333 7.68021C7.01678 7.97141 6.76143 8.18485 6.45417 8.24792C6.14691 8.31091 5.82804 8.21554 5.60625 7.99375L3.45312 5.84063L4.9125 13.8667H11.8875L13.3458 5.84063L11.1937 7.99375C10.972 8.21554 10.6531 8.31091 10.3458 8.24792C10.0386 8.18485 9.78322 7.97141 9.66667 7.68021L8.4 4.51354L7.13333 7.68021ZM15.7333 19.0667C15.7333 19.5821 15.3155 20 14.8 20H2C1.48453 20 1.06667 19.5821 1.06667 19.0667V16.525C1.06693 16.1538 1.17035 15.7896 1.36562 15.474C1.56082 15.1585 1.84008 14.9035 2.17187 14.7375L3.08854 14.2781L1.39687 4.97188C1.09386 4.87594 0.814323 4.71016 0.585417 4.48125C0.210344 4.10618 0 3.5971 0 3.06667C0 2.53623 0.210344 2.02716 0.585417 1.65208C0.960489 1.27701 1.46957 1.06667 2 1.06667C2.53043 1.06667 3.03951 1.27701 3.41458 1.65208C3.78966 2.02716 4 2.53623 4 3.06667C4 3.26846 3.96886 3.46691 3.91042 3.65625L5.925 5.67083L6.87604 3.29375C6.57032 2.93366 6.4 2.47588 6.4 2C6.4 1.46957 6.61034 0.960489 6.98542 0.585417C7.36049 0.210344 7.86957 0 8.4 0C8.93043 0 9.43951 0.210344 9.81458 0.585417C10.1897 0.960489 10.4 1.46957 10.4 2C10.4 2.4761 10.2289 2.93358 9.92292 3.29375L10.874 5.67083L12.8885 3.65625C12.8302 3.467 12.8 3.26835 12.8 3.06667C12.8 2.53624 13.0103 2.02716 13.3854 1.65208C13.7605 1.27701 14.2696 1.06667 14.8 1.06667C15.3304 1.06667 15.8395 1.27701 16.2146 1.65208C16.5897 2.02716 16.8 2.53624 16.8 3.06667C16.8 3.5971 16.5897 4.10618 16.2146 4.48125C15.9854 4.7104 15.7055 4.87599 15.4021 4.97188L13.7104 14.2781L14.6281 14.7375H14.6271C14.9592 14.9034 15.239 15.1583 15.4344 15.474C15.6296 15.7896 15.7331 16.1538 15.7333 16.525V19.0667Z" fill="currentColor"/>
</svg>
