<svg preserveAspectRatio="none" width="100%" height="100%" overflow="visible" style="display: block;" viewBox="0 0 20 18.4315" fill="none" xmlns="http://www.w3.org/2000/svg">
<path id="Vector" d="M8.2446 0.401984C8.78058 -0.133994 9.6509 -0.133994 10.1869 0.401984C10.7229 0.937962 10.7229 1.80828 10.1869 2.34426L3.31539 9.21574L10.1869 16.0872C10.7229 16.6232 10.7229 17.4935 10.1869 18.0295C9.6509 18.5655 8.78058 18.5655 8.2446 18.0295L0.401983 10.1869C-0.133994 9.6509 -0.133994 8.78058 0.401983 8.2446L8.2446 0.401984ZM17.6557 0.401984C18.1917 -0.133995 19.062 -0.133995 19.598 0.401984C20.134 0.937962 20.134 1.80828 19.598 2.34426L12.7265 9.21574L19.598 16.0872C20.134 16.6232 20.134 17.4935 19.598 18.0295C19.062 18.5655 18.1917 18.5655 17.6557 18.0295L9.81312 10.1869C9.27715 9.6509 9.27715 8.78058 9.81312 8.2446L17.6557 0.401984Z" fill="currentColor"/>
</svg>
