<svg preserveAspectRatio="none" width="100%" height="100%" overflow="visible" style="display: block;" viewBox="0 0 20 20" fill="none" xmlns="http://www.w3.org/2000/svg">
<path id="Vector" d="M18.2278 10C18.2278 8.91952 18.0153 7.8495 17.6019 6.85127C17.1884 5.85302 16.5819 4.94619 15.8178 4.18216C15.0538 3.41813 14.147 2.81163 13.1487 2.39814C12.1505 1.98467 11.0805 1.77215 10 1.77215C8.91952 1.77215 7.8495 1.98467 6.85127 2.39814C5.85302 2.81163 4.94619 3.41813 4.18216 4.18216C3.41813 4.94619 2.81163 5.85302 2.39814 6.85127C1.98467 7.8495 1.77215 8.91952 1.77215 10C1.77215 11.0805 1.98467 12.1505 2.39814 13.1487C2.81163 14.147 3.41813 15.0538 4.18216 15.8178C4.94619 16.5819 5.85302 17.1884 6.85127 17.6019C7.8495 18.0153 8.91952 18.2278 10 18.2278C11.0805 18.2278 12.1505 18.0153 13.1487 17.6019C14.147 17.1884 15.0538 16.5819 15.8178 15.8178C16.5819 15.0538 17.1884 14.147 17.6019 13.1487C18.0153 12.1505 18.2278 11.0805 18.2278 10ZM12.411 7.34771C12.757 7.00167 13.3189 7.00167 13.665 7.34771C14.011 7.69374 14.011 8.25563 13.665 8.60166L9.61432 12.6523C9.26829 12.9983 8.7064 12.9983 8.36036 12.6523L6.33505 10.627C5.98901 10.2809 5.98901 9.71906 6.33505 9.37302C6.68108 9.02699 7.24297 9.02699 7.589 9.37302L8.98734 10.7714L12.411 7.34771ZM20 10C20 11.3132 19.7411 12.6139 19.2385 13.8271C18.736 15.0403 17.9993 16.1423 17.0708 17.0708C16.1423 17.9993 15.0403 18.736 13.8271 19.2385C12.6139 19.7411 11.3132 20 10 20C8.68678 20 7.38612 19.7411 6.17286 19.2385C4.95975 18.736 3.85769 17.9993 2.92919 17.0708C2.0007 16.1423 1.26402 15.0403 0.761472 13.8271C0.258924 12.6139 0 11.3132 0 10C0 8.68678 0.258924 7.38612 0.761472 6.17286C1.26402 4.95975 2.0007 3.85769 2.92919 2.92919C3.85769 2.0007 4.95975 1.26402 6.17286 0.761472C7.38612 0.258924 8.68678 0 10 0C11.3132 0 12.6139 0.258924 13.8271 0.761472C15.0403 1.26402 16.1423 2.0007 17.0708 2.92919C17.9993 3.85769 18.736 4.95975 19.2385 6.17286C19.7411 7.38612 20 8.68678 20 10Z" fill="currentColor"/>
</svg>
