<svg preserveAspectRatio="none" width="100%" height="100%" overflow="visible" style="display: block;" viewBox="0 0 20 20" fill="none" xmlns="http://www.w3.org/2000/svg">
<path id="Vector" d="M10 0C11.3132 0 12.6139 0.258924 13.8271 0.761472C15.0403 1.26402 16.1423 2.0007 17.0708 2.92919C17.9993 3.85769 18.736 4.95975 19.2385 6.17286C19.7411 7.38612 20 8.68678 20 10C20 11.3132 19.7411 12.6139 19.2385 13.8271C18.736 15.0403 17.9993 16.1423 17.0708 17.0708C16.1423 17.9993 15.0403 18.736 13.8271 19.2385C12.6139 19.7411 11.3132 20 10 20C8.68678 20 7.38612 19.7411 6.17286 19.2385C4.95975 18.736 3.85769 17.9993 2.92919 17.0708C2.0007 16.1423 1.26402 15.0403 0.761472 13.8271C0.258924 12.6139 0 11.3132 0 10C0 8.68678 0.258924 7.38612 0.761472 6.17286C1.26402 4.95975 2.0007 3.85769 2.92919 2.92919C3.85769 2.0007 4.95975 1.26402 6.17286 0.761472C7.38612 0.258924 8.68678 0 10 0ZM10.8861 17.4565V18.1784C11.6624 18.0943 12.4246 17.9018 13.1487 17.6019C14.147 17.1884 15.0538 16.5819 15.8178 15.8178C16.5819 15.0538 17.1884 14.147 17.6019 13.1487C18.0004 12.1865 18.2101 11.1574 18.2249 10.1167L10.8861 17.4565ZM10.8861 12.3932V14.9486L17.949 7.88469C17.8556 7.53385 17.7414 7.18813 17.6019 6.85127C17.4893 6.57948 17.3606 6.31537 17.2201 6.05815L10.8861 12.3932ZM10.8861 7.32991V9.88528L16.1887 4.58169C16.0691 4.4451 15.9466 4.31087 15.8178 4.18216C15.5183 3.88259 15.196 3.60829 14.8556 3.35938L10.8861 7.32991ZM10.8861 4.82199L13.2595 2.44759C13.2224 2.43158 13.1861 2.41361 13.1487 2.39814C12.4245 2.09817 11.6624 1.90471 10.8861 1.82061V4.82199ZM1.77215 10C1.77215 11.0805 1.98467 12.1505 2.39814 13.1487C2.81163 14.147 3.41813 15.0538 4.18216 15.8178C4.94619 16.5819 5.85302 17.1884 6.85127 17.6019C7.57544 17.9018 8.33763 18.0943 9.11392 18.1784V1.82061C8.3376 1.90471 7.57548 2.09817 6.85127 2.39814C5.85302 2.81163 4.94619 3.41813 4.18216 4.18216C3.41813 4.94619 2.81163 5.85302 2.39814 6.85127C1.98467 7.8495 1.77215 8.91952 1.77215 10Z" fill="currentColor"/>
</svg>
