<svg preserveAspectRatio="none" width="100%" height="100%" overflow="visible" style="display: block;" viewBox="0 0 20 20" fill="none" xmlns="http://www.w3.org/2000/svg">
<path id="Vector" d="M18.2278 10C18.2278 7.81784 17.3609 5.72518 15.8178 4.18216C14.2748 2.63914 12.1822 1.77215 10 1.77215C8.91952 1.77215 7.8495 1.98467 6.85127 2.39814C5.85302 2.81163 4.94619 3.41813 4.18216 4.18216C3.41813 4.94619 2.81163 5.85302 2.39814 6.85127C1.98467 7.8495 1.77215 8.91952 1.77215 10C1.77215 11.0805 1.98467 12.1505 2.39814 13.1487C2.81163 14.147 3.41813 15.0538 4.18216 15.8178C4.94619 16.5819 5.85302 17.1884 6.85127 17.6019C7.8495 18.0153 8.91952 18.2278 10 18.2278C12.1822 18.2278 14.2748 17.3609 15.8178 15.8178C17.3609 14.2748 18.2278 12.1822 18.2278 10ZM9.37302 5.32239C9.71906 4.97636 10.2809 4.97636 10.627 5.32239L14.6776 9.37302C15.0236 9.71906 15.0236 10.2809 14.6776 10.627L10.627 14.6776C10.2809 15.0236 9.71906 15.0236 9.37302 14.6776C9.02699 14.3316 9.02699 13.7697 9.37302 13.4237L11.9106 10.8861H5.94937C5.46 10.8861 5.06329 10.4894 5.06329 10C5.06329 9.51063 5.46 9.11392 5.94937 9.11392H11.9106L9.37302 6.57635C9.02699 6.23031 9.02699 5.66842 9.37302 5.32239ZM20 10C20 12.6522 18.9462 15.1954 17.0708 17.0708C15.1954 18.9462 12.6522 20 10 20C8.68678 20 7.38612 19.7411 6.17286 19.2385C4.95975 18.736 3.85769 17.9993 2.92919 17.0708C2.0007 16.1423 1.26402 15.0403 0.761472 13.8271C0.258924 12.6139 0 11.3132 0 10C0 8.68678 0.258924 7.38612 0.761472 6.17286C1.26402 4.95975 2.0007 3.85769 2.92919 2.92919C3.85769 2.0007 4.95975 1.26402 6.17286 0.761472C7.38612 0.258924 8.68678 0 10 0C12.6522 6.03591e-08 15.1954 1.05383 17.0708 2.92919C18.9462 4.80456 20 7.34784 20 10Z" fill="currentColor"/>
</svg>
