<svg preserveAspectRatio="none" width="100%" height="100%" overflow="visible" style="display: block;" viewBox="0 0 20 20" fill="none" xmlns="http://www.w3.org/2000/svg">
<path id="Vector" d="M18.2278 10C18.2278 7.81784 17.3609 5.72518 15.8178 4.18216C14.2748 2.63914 12.1822 1.77215 10 1.77215C7.81784 1.77215 5.72518 2.63914 4.18216 4.18216C2.63914 5.72518 1.77215 7.81784 1.77215 10C1.77215 11.0805 1.98467 12.1505 2.39814 13.1487C2.81163 14.147 3.41813 15.0538 4.18216 15.8178C4.94619 16.5819 5.85302 17.1884 6.85127 17.6019C7.8495 18.0153 8.91952 18.2278 10 18.2278C11.0805 18.2278 12.1505 18.0153 13.1487 17.6019C14.147 17.1884 15.0538 16.5819 15.8178 15.8178C16.5819 15.0538 17.1884 14.147 17.6019 13.1487C18.0153 12.1505 18.2278 11.0805 18.2278 10ZM9.11392 14.0506V8.0894L6.57635 10.627C6.23031 10.973 5.66842 10.973 5.32239 10.627C4.97636 10.2809 4.97636 9.71906 5.32239 9.37302L9.37302 5.32239C9.71906 4.97636 10.2809 4.97636 10.627 5.32239L14.6776 9.37302C15.0236 9.71906 15.0236 10.2809 14.6776 10.627C14.3316 10.973 13.7697 10.973 13.4237 10.627L10.8861 8.0894V14.0506C10.8861 14.54 10.4894 14.9367 10 14.9367C9.51063 14.9367 9.11392 14.54 9.11392 14.0506ZM20 10C20 11.3132 19.7411 12.6139 19.2385 13.8271C18.736 15.0403 17.9993 16.1423 17.0708 17.0708C16.1423 17.9993 15.0403 18.736 13.8271 19.2385C12.6139 19.7411 11.3132 20 10 20C8.68678 20 7.38612 19.7411 6.17286 19.2385C4.95975 18.736 3.85769 17.9993 2.92919 17.0708C2.0007 16.1423 1.26402 15.0403 0.761472 13.8271C0.258924 12.6139 0 11.3132 0 10C6.03591e-08 7.34784 1.05383 4.80456 2.92919 2.92919C4.80456 1.05383 7.34784 0 10 0C12.6522 0 15.1954 1.05383 17.0708 2.92919C18.9462 4.80456 20 7.34784 20 10Z" fill="currentColor"/>
</svg>
