<svg preserveAspectRatio="none" width="100%" height="100%" overflow="visible" style="display: block;" viewBox="0 0 20 20" fill="none" xmlns="http://www.w3.org/2000/svg">
<path id="Vector" d="M9.3729 9.3729C9.61014 9.13566 9.96142 9.05332 10.2797 9.1593L19.3935 12.1972C19.7334 12.3105 19.9722 12.6172 19.9978 12.9745C20.0232 13.3318 19.8305 13.6696 19.5102 13.8299L15.7227 15.7227L13.8299 19.5102C13.6696 19.8305 13.3318 20.0232 12.9745 19.9978C12.6172 19.9722 12.3105 19.7334 12.1972 19.3935L9.1593 10.2797C9.05332 9.96142 9.13566 9.61014 9.3729 9.3729ZM5.12058 13.6262C5.46664 13.2805 6.0276 13.2803 6.37353 13.6262C6.71946 13.9721 6.71927 14.5331 6.37353 14.8792L4.14552 17.1072C3.79949 17.4532 3.2386 17.4532 2.89257 17.1072C2.54654 16.7611 2.54654 16.2003 2.89257 15.8542L5.12058 13.6262ZM13.202 16.8046L14.271 14.6665L14.3442 14.5449C14.4274 14.4294 14.538 14.3353 14.6665 14.271L16.8046 13.202L11.4002 11.4002L13.202 16.8046ZM3.924 9.11381C4.41336 9.11381 4.81006 9.51051 4.81006 9.99987C4.81006 10.4892 4.41336 10.8859 3.924 10.8859H0.886064C0.396705 10.8859 0 10.4892 0 9.99987C0 9.51051 0.396705 9.11381 0.886064 9.11381H3.924ZM2.89257 2.89257C3.2386 2.54654 3.79949 2.54654 4.14552 2.89257L6.37353 5.12058C6.71927 5.46664 6.71946 6.0276 6.37353 6.37353C6.0276 6.71946 5.46664 6.71927 5.12058 6.37353L2.89257 4.14552C2.54654 3.79949 2.54654 3.2386 2.89257 2.89257ZM15.8542 2.89257C16.2003 2.54654 16.7611 2.54654 17.1072 2.89257C17.4532 3.2386 17.4532 3.79949 17.1072 4.14552L14.8792 6.37353C14.5331 6.71927 13.9721 6.71946 13.6262 6.37353C13.2803 6.0276 13.2805 5.46664 13.6262 5.12058L15.8542 2.89257ZM9.11381 3.924V0.886064C9.11381 0.396705 9.51051 0 9.99987 0C10.4892 0 10.8859 0.396705 10.8859 0.886064V3.924C10.8859 4.41336 10.4892 4.81006 9.99987 4.81006C9.51051 4.81006 9.11381 4.41336 9.11381 3.924Z" fill="currentColor"/>
</svg>
