<svg preserveAspectRatio="none" width="100%" height="100%" overflow="visible" style="display: block;" viewBox="0 0 15.9494 20" fill="none" xmlns="http://www.w3.org/2000/svg">
<path id="Vector" d="M14.1772 4.93671C14.1772 4.63456 14.0576 4.34439 13.8439 4.13074C13.6303 3.91709 13.3401 3.79747 13.038 3.79747H11.7593C11.6192 4.23555 11.3775 4.63908 11.0463 4.97033C10.5003 5.51632 9.75949 5.82278 8.98734 5.82278H6.96203C6.18988 5.82278 5.44908 5.51632 4.90309 4.97033C4.57183 4.63908 4.33012 4.23555 4.19007 3.79747H2.91139C2.60925 3.79747 2.31907 3.91709 2.10542 4.13074C1.89177 4.34438 1.77215 4.63456 1.77215 4.93671V17.0886C1.77215 17.3908 1.89177 17.6809 2.10542 17.8946C2.31907 18.1082 2.60925 18.2278 2.91139 18.2278H13.038C13.3401 18.2278 13.6303 18.1082 13.8439 17.8946C14.0576 17.6809 14.1772 17.3908 14.1772 17.0886V4.93671ZM10.3857 9.37302C10.7317 9.02699 11.2936 9.02699 11.6396 9.37302C11.9857 9.71906 11.9857 10.2809 11.6396 10.627L7.589 14.6776C7.24297 15.0236 6.68108 15.0236 6.33505 14.6776L4.30973 12.6523C3.9637 12.3063 3.9637 11.7444 4.30973 11.3983C4.65577 11.0523 5.21765 11.0523 5.56369 11.3983L6.96203 12.7967L10.3857 9.37302ZM6.96203 1.77215C6.65988 1.77215 6.3697 1.89177 6.15605 2.10542C5.9424 2.31907 5.82278 2.60925 5.82278 2.91139C5.82278 3.21354 5.9424 3.50372 6.15605 3.71737C6.3697 3.93101 6.65988 4.05063 6.96203 4.05063H8.98734C9.28949 4.05063 9.57967 3.93101 9.79331 3.71737C10.007 3.50372 10.1266 3.21354 10.1266 2.91139C10.1266 2.60925 10.007 2.31907 9.79331 2.10542C9.57967 1.89177 9.28949 1.77215 8.98734 1.77215H6.96203ZM15.9494 17.0886C15.9494 17.8608 15.6429 18.6016 15.0969 19.1475C14.5509 19.6935 13.8101 20 13.038 20H2.91139C2.13924 20 1.39844 19.6935 0.852453 19.1475C0.306461 18.6016 0 17.8608 0 17.0886V4.93671C0 4.16456 0.30646 3.42376 0.852453 2.87777C1.39844 2.33178 2.13924 2.02532 2.91139 2.02532H4.19007C4.33012 1.58723 4.57183 1.18371 4.90309 0.852453C5.44908 0.306461 6.18988 0 6.96203 0H8.98734C9.75949 0 10.5003 0.306461 11.0463 0.852453C11.3775 1.18371 11.6192 1.58723 11.7593 2.02532H13.038C13.8101 2.02532 14.5509 2.33178 15.0969 2.87777C15.6429 3.42376 15.9494 4.16456 15.9494 4.93671V17.0886Z" fill="currentColor"/>
</svg>
