<svg preserveAspectRatio="none" width="100%" height="100%" overflow="visible" style="display: block;" viewBox="0 0 15.9494 20" fill="none" xmlns="http://www.w3.org/2000/svg">
<path id="Vector" d="M14.1772 4.93671C14.1772 4.63456 14.0576 4.34439 13.8439 4.13074C13.6303 3.91709 13.3401 3.79747 13.038 3.79747H11.7593C11.6192 4.23555 11.3775 4.63908 11.0463 4.97033C10.5003 5.51632 9.75949 5.82278 8.98734 5.82278H6.96203C6.18988 5.82278 5.44908 5.51632 4.90309 4.97033C4.57183 4.63908 4.33012 4.23555 4.19007 3.79747H2.91139C2.60925 3.79747 2.31907 3.91709 2.10542 4.13074C1.89177 4.34438 1.77215 4.63456 1.77215 4.93671V17.0886C1.77215 17.3908 1.89177 17.6809 2.10542 17.8946C2.31907 18.1082 2.60925 18.2278 2.91139 18.2278H13.038C13.3401 18.2278 13.6303 18.1082 13.8439 17.8946C14.0576 17.6809 14.1772 17.3908 14.1772 17.0886V4.93671ZM3.77077 10.626C3.77077 9.90018 4.052 9.20206 4.55498 8.6788L4.75178 8.49387C4.95745 8.319 5.18879 8.17585 5.43809 8.06962C5.77063 7.92796 6.12885 7.85502 6.49031 7.85502C6.85161 7.85505 7.20912 7.92806 7.54153 8.06962C7.69228 8.13384 7.83582 8.21294 7.97172 8.30301C8.10745 8.2131 8.25136 8.13474 8.4019 8.07061C8.73432 7.92906 9.09182 7.85602 9.45313 7.85601C9.81458 7.85601 10.1728 7.92895 10.5053 8.07061C10.7546 8.17685 10.986 8.31999 11.1917 8.49486L11.3884 8.68078L11.5665 8.88449C11.9569 9.37852 12.1717 9.99208 12.1717 10.627C12.1716 11.3525 11.891 12.0499 11.3884 12.5732L11.3835 12.5781L8.66297 15.3649C8.55926 15.4973 8.41909 15.601 8.25356 15.6576C7.92891 15.7687 7.5687 15.6825 7.32991 15.4361L4.55795 12.5752L4.55498 12.5722C4.05219 12.049 3.77081 11.3516 3.77077 10.626ZM6.96203 1.77215C6.65988 1.77215 6.3697 1.89177 6.15605 2.10542C5.9424 2.31907 5.82278 2.60925 5.82278 2.91139C5.82278 3.21354 5.9424 3.50372 6.15605 3.71737C6.3697 3.93101 6.65988 4.05063 6.96203 4.05063H8.98734C9.28949 4.05063 9.57967 3.93101 9.79331 3.71737C10.007 3.50372 10.1266 3.21354 10.1266 2.91139C10.1266 2.60925 10.007 2.31907 9.79331 2.10542C9.57967 1.89177 9.28949 1.77215 8.98734 1.77215H6.96203ZM5.54292 10.626C5.54296 10.8937 5.64721 11.1509 5.83267 11.3439H5.83169L7.96381 13.5443L10.1137 11.342C10.2971 11.1491 10.3995 10.8932 10.3995 10.627C10.3995 10.359 10.2954 10.1013 10.1098 9.90803V9.90704C10.0249 9.81891 9.92271 9.7493 9.81013 9.70135C9.69721 9.65325 9.57586 9.62816 9.45313 9.62816C9.33038 9.62817 9.20905 9.65324 9.09612 9.70135C8.98319 9.74946 8.88054 9.8195 8.79549 9.90803L8.79153 9.91199L8.60661 10.1028C8.43959 10.2744 8.21013 10.3711 7.97073 10.3708C7.73118 10.3705 7.50148 10.273 7.33485 10.1009L7.14992 9.91001L7.14695 9.90704C7.06198 9.81865 6.96011 9.74843 6.84731 9.70036C6.73443 9.65227 6.61301 9.6272 6.49031 9.62718C6.36761 9.62718 6.24619 9.65229 6.13331 9.70036C6.02037 9.74847 5.91772 9.81852 5.83267 9.90704C5.647 10.1002 5.54292 10.3581 5.54292 10.626ZM15.9494 17.0886C15.9494 17.8608 15.6429 18.6016 15.0969 19.1475C14.5509 19.6935 13.8101 20 13.038 20H2.91139C2.13924 20 1.39844 19.6935 0.852453 19.1475C0.306461 18.6016 0 17.8608 0 17.0886V4.93671C0 4.16456 0.30646 3.42376 0.852453 2.87777C1.39844 2.33178 2.13924 2.02532 2.91139 2.02532H4.19007C4.33012 1.58723 4.57183 1.18371 4.90309 0.852453C5.44908 0.306461 6.18988 0 6.96203 0H8.98734C9.75949 0 10.5003 0.306461 11.0463 0.852453C11.3775 1.18371 11.6192 1.58723 11.7593 2.02532H13.038C13.8101 2.02532 14.5509 2.33178 15.0969 2.87777C15.6429 3.42376 15.9494 4.16456 15.9494 4.93671V17.0886Z" fill="currentColor"/>
</svg>
