<svg preserveAspectRatio="none" width="100%" height="100%" overflow="visible" style="display: block;" viewBox="0 0 20 19.9997" fill="none" xmlns="http://www.w3.org/2000/svg">
<path id="Vector" d="M18.4867 14.4359C18.8326 14.0901 19.3936 14.0903 19.7397 14.4359C20.0857 14.7819 20.0857 15.3438 19.7397 15.6899L15.6891 19.7405C15.343 20.086 14.782 20.0863 14.4361 19.7405L12.4108 17.7152C12.0648 17.3691 12.0648 16.8072 12.4108 16.4612C12.7567 16.1154 13.3177 16.1156 13.6638 16.4612L15.0621 17.8595L18.4867 14.4359ZM8.94268 0.0560723C10.9357 -0.155792 12.9465 0.23567 14.714 1.18047C16.4815 2.12527 17.9246 3.57987 18.8556 5.35469C19.7864 7.12937 20.1628 9.14286 19.9355 11.1339C19.88 11.6201 19.4406 11.9696 18.9545 11.9142C18.4683 11.8587 18.1188 11.4193 18.1742 10.9332C18.3613 9.29479 18.0522 7.63776 17.2862 6.17747C16.5201 4.71716 15.3327 3.52033 13.8784 2.74296C12.4241 1.96571 10.7693 1.64402 9.12958 1.81832C7.49002 1.99272 5.94065 2.6554 4.68243 3.721C3.42414 4.78667 2.51461 6.20576 2.07268 7.79434C1.63077 9.38306 1.67687 11.0687 2.2042 12.6311C2.73157 14.1934 3.71637 15.5612 5.03053 16.5571C6.34475 17.5531 7.92784 18.1313 9.5746 18.2165C10.0633 18.2418 10.4395 18.6584 10.4142 19.1471C10.3889 19.6358 9.97134 20.011 9.48263 19.9857C7.48127 19.8821 5.55674 19.1797 3.95953 17.9693C2.36247 16.7589 1.16591 15.0965 0.525021 13.1978C-0.115892 11.2988 -0.171279 9.25056 0.365806 7.31966C0.902903 5.38889 2.00796 3.66437 3.53726 2.36915C5.06664 1.07389 6.94974 0.267952 8.94268 0.0560723ZM9.11376 4.93638C9.11376 4.44701 9.51047 4.05031 9.99983 4.05031C10.4891 4.05036 10.8859 4.44705 10.8859 4.93638V9.63274L13.6638 12.4106C14.0098 12.7566 14.0098 13.3185 13.6638 13.6646C13.3177 14.0101 12.7567 14.0104 12.4108 13.6646L9.37286 10.6266C9.20669 10.4604 9.11377 10.2346 9.11376 9.99963V4.93638Z" fill="currentColor"/>
</svg>
