<svg preserveAspectRatio="none" width="100%" height="100%" overflow="visible" style="display: block;" viewBox="0 0 20 20" fill="none" xmlns="http://www.w3.org/2000/svg">
<path id="Vector" d="M17.8262 0.37275C18.3232 -0.12425 19.1302 -0.12425 19.6272 0.37275C20.1243 0.869751 20.1243 1.67678 19.6272 2.17378L11.801 10L19.6272 17.8262C20.1243 18.3232 20.1243 19.1302 19.6272 19.6272C19.1302 20.1243 18.3232 20.1243 17.8262 19.6272L10 11.801L2.17378 19.6272C1.67678 20.1243 0.869751 20.1243 0.37275 19.6272C-0.12425 19.1302 -0.12425 18.3232 0.37275 17.8262L8.19897 10L0.37275 2.17378C-0.12425 1.67678 -0.12425 0.869751 0.37275 0.37275C0.869751 -0.12425 1.67678 -0.12425 2.17378 0.37275L10 8.19897L17.8262 0.37275Z" fill="currentColor"/>
</svg>
