<svg preserveAspectRatio="none" width="100%" height="100%" overflow="visible" style="display: block;" viewBox="0 0 20 18.1617" fill="none" xmlns="http://www.w3.org/2000/svg">
<path id="Vector" d="M1.15481 0.235661C1.46903 -0.0785537 1.97925 -0.0785537 2.29346 0.235661L18.8452 16.7874C19.1594 17.1016 19.1594 17.6118 18.8452 17.926C18.531 18.2402 18.0208 18.2402 17.7065 17.926L15.1868 15.4063H5.08531C2.30639 15.4018 0 13.2253 0 10.4754C0.00018974 7.93192 1.97536 5.87935 4.47288 5.58677C4.5491 5.37198 4.63927 5.16342 4.74228 4.96177L1.15481 1.37431C0.840598 1.0601 0.840598 0.549876 1.15481 0.235661ZM18.3908 11.395C18.3906 10.0638 17.3201 8.99471 16.0102 8.99464H15.0997C14.8556 8.99461 14.6247 8.88331 14.472 8.69292C14.3194 8.50253 14.261 8.2531 14.3139 8.01494C14.6032 6.71478 14.1148 5.34866 12.9696 4.43286L12.9687 4.43196C11.8162 3.50804 10.1853 3.20268 8.70061 3.6543L8.69971 3.6552C8.49749 3.71667 8.29945 3.79275 8.10973 3.8797C7.70584 4.06463 7.22803 3.88665 7.04292 3.48279C6.85814 3.07893 7.03604 2.60195 7.43983 2.41688C7.69118 2.30168 7.9563 2.1989 8.23186 2.11515L8.60453 2.01458C10.4758 1.56787 12.4906 1.98621 13.9754 3.17657H13.9745C15.298 4.23509 16.0373 5.77926 16.0013 7.38545H16.0102C18.2182 7.38551 19.9998 9.18445 20 11.395C20 12.4937 19.5597 13.4922 18.847 14.2164C18.5353 14.5332 18.0251 14.5371 17.7083 14.2254C17.3919 13.9138 17.3879 13.4044 17.6994 13.0877C18.1268 12.6533 18.3908 12.0561 18.3908 11.395ZM1.6092 10.4754C1.6092 12.279 3.13703 13.794 5.088 13.7971H13.5776L5.96713 6.18663C5.92957 6.29911 5.89788 6.41359 5.87195 6.52966C5.78982 6.89732 5.4638 7.15906 5.0871 7.15915C3.13726 7.15915 1.6094 8.67282 1.6092 10.4754Z" fill="currentColor"/>
</svg>
