<svg preserveAspectRatio="none" width="100%" height="100%" overflow="visible" style="display: block;" viewBox="0 0 20 13.5664" fill="none" xmlns="http://www.w3.org/2000/svg">
<path id="Vector" d="M0 8.63552C0.000134849 6.09137 1.97628 4.03869 4.47468 3.74687C5.05899 2.09728 6.4622 0.814331 8.23186 0.275247L8.60453 0.174672C10.4754 -0.271945 12.4898 0.145972 13.9745 1.33577C15.2981 2.39431 16.0374 3.93929 16.0013 5.54554H16.0102C18.2182 5.54561 19.9999 7.3445 20 9.55506C20 11.7667 18.2183 13.5663 16.0093 13.5664H5.0871C5.05586 13.5664 5.02493 13.5636 4.99461 13.5601C2.25579 13.5125 0 11.3548 0 8.63552ZM1.6092 8.63552C1.6092 10.4393 3.13725 11.9536 5.0871 11.9536C5.1092 11.9536 5.13101 11.9554 5.15266 11.9572H16.0093C17.3202 11.9571 18.3908 10.8873 18.3908 9.55506C18.3907 8.22387 17.3201 7.1548 16.0102 7.15474H15.0997C14.8556 7.15471 14.6247 7.0434 14.472 6.85301C14.3194 6.66263 14.261 6.41321 14.3139 6.17503C14.6032 4.87487 14.1148 3.50877 12.9696 2.59296L12.9687 2.59206C11.8882 1.72586 10.3875 1.40377 8.98078 1.73897L8.70061 1.8144C7.21793 2.26606 6.16361 3.38211 5.87195 4.68976C5.78983 5.0574 5.46381 5.31915 5.0871 5.31925C3.13723 5.31925 1.60934 6.83287 1.6092 8.63552Z" fill="currentColor"/>
</svg>
