<svg preserveAspectRatio="none" width="100%" height="100%" overflow="visible" style="display: block;" viewBox="0 0 20 16.2154" fill="none" xmlns="http://www.w3.org/2000/svg">
<path id="Vector" d="M8.84035 15.4183V9.14452L7.46853 10.5163C7.15728 10.8275 6.65262 10.8274 6.34135 10.5163C6.0301 10.2051 6.03017 9.70047 6.34135 9.38917L9.07433 6.6562L9.13482 6.60104C9.44791 6.34576 9.90969 6.36439 10.2015 6.6562L12.9345 9.38917C13.2456 9.70048 13.2457 10.2051 12.9345 10.5163C12.6232 10.8275 12.1186 10.8274 11.8073 10.5163L10.4346 9.14363V15.4183C10.4346 15.8585 10.0777 16.2154 9.63747 16.2154C9.19742 16.2152 8.84035 15.8584 8.84035 15.4183ZM0 8.58583C4.93386e-05 7.27552 0.544876 6.02613 1.50171 5.11089C2.3116 4.33635 3.36092 3.85494 4.47578 3.72572C4.89398 2.55131 5.73786 1.54955 6.85735 0.880654C7.50213 0.49541 8.2212 0.230242 8.97291 0.0977707C9.72457 -0.034676 10.4978 -0.0325149 11.2486 0.103998C11.9993 0.240546 12.7166 0.50973 13.3588 0.898447C14.0011 1.28721 14.5575 1.78928 14.9931 2.3797C15.429 2.97059 15.7354 3.63793 15.889 4.34402C15.9728 4.72915 16.0083 5.12056 15.9993 5.51123H16.0144C17.0713 5.51123 18.0854 5.93118 18.8328 6.67844C19.5802 7.42584 20 8.43984 20 9.49682C20 10.5539 19.5802 11.5678 18.8328 12.3152C18.0854 13.0626 17.0714 13.4824 16.0144 13.4824H15.1034C14.6634 13.4822 14.3063 13.1254 14.3063 12.6853C14.3064 12.2453 14.6634 11.8884 15.1034 11.8882H16.0144C16.6486 11.8882 17.2572 11.6364 17.7056 11.188C18.1541 10.7396 18.4058 10.131 18.4058 9.49682C18.4057 8.86266 18.154 8.25404 17.7056 7.80561C17.2572 7.35733 16.6485 7.10547 16.0144 7.10547H15.1034C14.8615 7.10534 14.6328 6.99544 14.4816 6.80655C14.3303 6.61758 14.2729 6.37015 14.3259 6.13398C14.4334 5.65502 14.4355 5.16241 14.3312 4.68298C14.2269 4.2033 14.0169 3.74204 13.7102 3.32627C13.4034 2.91036 13.0047 2.54766 12.5333 2.26227C12.0616 1.97678 11.5281 1.77518 10.963 1.67243C10.398 1.56969 9.81539 1.56829 9.24959 1.66799C8.68377 1.7677 8.14865 1.96588 7.67493 2.24892C6.71791 2.82073 6.07783 3.69511 5.86095 4.66074C5.77926 5.02465 5.45548 5.28348 5.08251 5.28348C4.14626 5.28359 3.25481 5.63959 2.60309 6.26298C1.95253 6.88525 1.59428 7.72178 1.59424 8.58583C1.59424 9.44986 1.95259 10.2864 2.60309 10.9087C3.25481 11.5321 4.14626 11.8881 5.08251 11.8882C5.52269 11.8882 5.87954 12.2451 5.87963 12.6853C5.87963 13.1255 5.52275 13.4824 5.08251 13.4824C3.7458 13.4823 2.45728 12.9747 1.50171 12.0608C0.544833 11.1455 0 9.8962 0 8.58583Z" fill="currentColor"/>
</svg>
