<svg preserveAspectRatio="none" width="100%" height="100%" overflow="visible" style="display: block;" viewBox="0 0 20 17.9737" fill="none" xmlns="http://www.w3.org/2000/svg">
<path id="Vector" d="M11.1659 0.671357C11.2846 0.1967 11.7652 -0.0919253 12.2398 0.0266061C12.7145 0.14527 13.0031 0.625872 12.8846 1.10053L8.83411 17.3024C8.71544 17.777 8.23484 18.0657 7.76018 17.9471C7.28553 17.8285 6.9969 17.3479 7.11543 16.8732L11.1659 0.671357ZM4.30997 4.30945C4.65599 3.96343 5.21786 3.96343 5.56388 4.30945C5.9099 4.65547 5.9099 5.21734 5.56388 5.56336L2.14037 8.98686L5.56388 12.4104C5.9099 12.7564 5.9099 13.3183 5.56388 13.6643C5.21786 14.0103 4.65599 14.0103 4.30997 13.6643L0.259514 9.61382C-0.0865049 9.2678 -0.0865048 8.70593 0.259514 8.35991L4.30997 4.30945ZM14.4361 4.30945C14.7821 3.96343 15.344 3.96343 15.69 4.30945L19.7405 8.35991C20.0865 8.70593 20.0865 9.2678 19.7405 9.61382L15.69 13.6643C15.344 14.0103 14.7821 14.0103 14.4361 13.6643C14.0901 13.3183 14.0901 12.7564 14.4361 12.4104L17.8596 8.98686L14.4361 5.56336C14.0901 5.21734 14.0901 4.65547 14.4361 4.30945Z" fill="currentColor"/>
</svg>
