<svg preserveAspectRatio="none" width="100%" height="100%" overflow="visible" style="display: block;" viewBox="0 0 20 20" fill="none" xmlns="http://www.w3.org/2000/svg">
<path id="Vector" d="M18.2278 10C18.2278 8.91952 18.0153 7.8495 17.6019 6.85127C17.1884 5.85302 16.5819 4.94619 15.8178 4.18216C15.0538 3.41813 14.147 2.81163 13.1487 2.39814C12.1505 1.98467 11.0805 1.77215 10 1.77215C8.91952 1.77215 7.8495 1.98467 6.85127 2.39814C5.85302 2.81163 4.94619 3.41813 4.18216 4.18216C3.41813 4.94619 2.81163 5.85302 2.39814 6.85127C1.98467 7.8495 1.77215 8.91952 1.77215 10C1.77215 11.0805 1.98467 12.1505 2.39814 13.1487C2.81163 14.147 3.41813 15.0538 4.18216 15.8178C4.94619 16.5819 5.85302 17.1884 6.85127 17.6019C7.8495 18.0153 8.91952 18.2278 10 18.2278C11.0805 18.2278 12.1505 18.0153 13.1487 17.6019C14.147 17.1884 15.0538 16.5819 15.8178 15.8178C16.5819 15.0538 17.1884 14.147 17.6019 13.1487C18.0153 12.1505 18.2278 11.0805 18.2278 10ZM12.1519 12.0253C12.1519 11.7232 12.0323 11.433 11.8186 11.2193C11.605 11.0057 11.3148 10.8861 11.0127 10.8861H10.8861V13.1646H11.0127C11.3148 13.1646 11.605 13.0449 11.8186 12.8313C12.0323 12.6176 12.1519 12.3275 12.1519 12.0253ZM13.9241 12.0253C13.9241 12.7975 13.6176 13.5383 13.0716 14.0843C12.5256 14.6302 11.7848 14.9367 11.0127 14.9367H10.8861V15.0633C10.8861 15.5527 10.4894 15.9494 10 15.9494C9.51063 15.9494 9.11392 15.5527 9.11392 15.0633V14.9367H8.98734V14.9357C8.46978 14.9478 7.95782 14.8234 7.50494 14.5718C7.04345 14.3154 6.66103 13.9374 6.39735 13.48C6.15315 13.0562 6.29807 12.515 6.72172 12.2706C7.14568 12.0262 7.68775 12.172 7.93216 12.5959C8.03534 12.7748 8.1858 12.9219 8.3663 13.0222C8.54686 13.1224 8.75126 13.1725 8.95767 13.1655C8.96757 13.1652 8.97744 13.1646 8.98734 13.1646H9.11392V10.8861H8.98734C8.21519 10.8861 7.47439 10.5796 6.9284 10.0336C6.38241 9.48763 6.07595 8.74683 6.07595 7.97468C6.07595 7.20253 6.38241 6.46174 6.9284 5.91574C7.47439 5.36975 8.21519 5.06329 8.98734 5.06329H9.11392V4.93671C9.11392 4.44734 9.51063 4.05063 10 4.05063C10.4894 4.05063 10.8861 4.44734 10.8861 4.93671V5.06329H11.0127V5.06428C11.5302 5.05215 12.0422 5.17661 12.4951 5.4282C12.9566 5.68462 13.339 6.06259 13.6027 6.51998C13.8469 6.9438 13.7019 7.48496 13.2783 7.72943C12.8543 7.97384 12.3122 7.82804 12.0678 7.40407C11.9647 7.22523 11.8142 7.07812 11.6337 6.97785C11.4531 6.87759 11.2487 6.8275 11.0423 6.83445C11.0324 6.83479 11.0226 6.83544 11.0127 6.83544H10.8861V9.11392H11.0127C11.7848 9.11392 12.5256 9.42038 13.0716 9.96638C13.6176 10.5124 13.9241 11.2532 13.9241 12.0253ZM20 10C20 11.3132 19.7411 12.6139 19.2385 13.8271C18.736 15.0403 17.9993 16.1423 17.0708 17.0708C16.1423 17.9993 15.0403 18.736 13.8271 19.2385C12.6139 19.7411 11.3132 20 10 20C8.68678 20 7.38612 19.7411 6.17286 19.2385C4.95975 18.736 3.85769 17.9993 2.92919 17.0708C2.0007 16.1423 1.26402 15.0403 0.761472 13.8271C0.258924 12.6139 0 11.3132 0 10C0 8.68678 0.258924 7.38612 0.761472 6.17286C1.26402 4.95975 2.0007 3.85769 2.92919 2.92919C3.85769 2.0007 4.95975 1.26402 6.17286 0.761472C7.38612 0.258924 8.68678 0 10 0C11.3132 0 12.6139 0.258924 13.8271 0.761472C15.0403 1.26402 16.1423 2.0007 17.0708 2.92919C17.9993 3.85769 18.736 4.95975 19.2385 6.17286C19.7411 7.38612 20 8.68678 20 10ZM7.8481 7.97468C7.8481 8.27683 7.96772 8.56701 8.18137 8.78066C8.39502 8.99431 8.6852 9.11392 8.98734 9.11392H9.11392V6.83544H8.98734C8.6852 6.83544 8.39502 6.95506 8.18137 7.16871C7.96772 7.38236 7.8481 7.67254 7.8481 7.97468Z" fill="currentColor"/>
</svg>
