<svg preserveAspectRatio="none" width="100%" height="100%" overflow="visible" style="display: block;" viewBox="0 0 20 19.9998" fill="none" xmlns="http://www.w3.org/2000/svg">
<path id="Vector" d="M18.2278 14.6873C18.0661 14.7876 17.8997 14.8816 17.7304 14.9662C16.4838 15.5895 14.8235 15.9492 13.038 15.9492C11.2525 15.9492 9.5922 15.5895 8.34553 14.9662C8.17629 14.8816 8.00986 14.7876 7.8481 14.6873V16.0758C7.8481 16.3978 8.13223 16.9288 9.13766 17.4316C10.09 17.9079 11.4678 18.2277 13.038 18.2277C14.6081 18.2277 15.986 17.9079 16.9383 17.4316C17.9437 16.9288 18.2278 16.3978 18.2278 16.0758V14.6873ZM12.1519 3.92388C12.1519 3.71899 12.0445 3.42153 11.6436 3.07439C11.2431 2.72771 10.6099 2.39107 9.75376 2.14382C8.03513 1.6476 5.88893 1.6476 4.17029 2.14382C3.31412 2.39107 2.68099 2.72771 2.28046 3.07439C1.87953 3.42153 1.77215 3.71899 1.77215 3.92388C1.77215 4.12877 1.87953 4.42623 2.28046 4.77336C2.68099 5.12005 3.31412 5.45668 4.17029 5.70394C5.88893 6.20015 8.03513 6.20015 9.75376 5.70394C10.6099 5.45668 11.2431 5.12005 11.6436 4.77336C12.0445 4.42623 12.1519 4.12877 12.1519 3.92388ZM18.2278 12.0251C18.2278 11.7025 17.9435 11.1719 16.9383 10.6693C15.986 10.1932 14.6082 9.87325 13.038 9.87325C11.4677 9.87325 10.0899 10.1932 9.13766 10.6693C8.13247 11.1719 7.8481 11.7025 7.8481 12.0251C7.8481 12.3477 8.13247 12.8784 9.13766 13.381C10.0899 13.8571 11.4677 14.177 13.038 14.177C14.6082 14.177 15.986 13.8571 16.9383 13.381C17.9435 12.8784 18.2278 12.3477 18.2278 12.0251ZM20 16.0758C20 17.4307 18.924 18.4189 17.7304 19.0158C16.4838 19.6393 14.8237 19.9998 13.038 19.9998C11.2523 19.9998 9.59218 19.6393 8.34553 19.0158C7.15197 18.4189 6.07595 17.4307 6.07595 16.0758V12.0251C6.07595 10.6698 7.15177 9.68096 8.34553 9.08408C9.5922 8.46084 11.2525 8.10109 13.038 8.10109C14.8235 8.10109 16.4838 8.46084 17.7304 9.08408C18.9242 9.68096 20 10.6698 20 12.0251V16.0758ZM13.9241 3.92388C13.9241 4.80452 13.4518 5.55115 12.8036 6.11237C12.1551 6.67387 11.2692 7.11042 10.2462 7.40588C8.20613 7.99505 5.71792 7.99505 3.67781 7.40588C2.96395 7.19969 2.31849 6.92212 1.77215 6.58408V8.98717C1.77215 9.13496 1.82028 9.27995 2.03422 9.47768C2.27565 9.7007 2.67312 9.9347 3.27334 10.2035C3.71985 10.4035 3.92014 10.9279 3.72033 11.3744C3.52035 11.8209 2.996 12.0212 2.54945 11.8214C2.28234 11.7018 2.02054 11.5735 1.77215 11.4357V14.0505C1.77215 14.1982 1.82028 14.3432 2.03422 14.541C2.27565 14.764 2.67312 14.998 3.27334 15.2668C3.71985 15.4668 3.92014 15.9912 3.72033 16.4377C3.52035 16.8842 2.996 17.0845 2.54945 16.8847C1.90655 16.5968 1.29103 16.2678 0.830696 15.8424C0.342889 15.3915 0 14.8019 0 14.0505V3.92388C0 3.04323 0.472299 2.2966 1.12045 1.73539C1.76897 1.17389 2.65488 0.737339 3.67781 0.441877C5.71792 -0.147292 8.20613 -0.147292 10.2462 0.441877C11.2692 0.737339 12.1551 1.17389 12.8036 1.73539C13.4518 2.2966 13.9241 3.04323 13.9241 3.92388Z" fill="currentColor"/>
</svg>
