<svg preserveAspectRatio="none" width="100%" height="100%" overflow="visible" style="display: block;" viewBox="0 0 19.9992 20" fill="none" xmlns="http://www.w3.org/2000/svg">
<path id="Vector" d="M5.55033 6.41363C5.85092 6.35966 6.15919 6.45603 6.3752 6.67192L13.3263 13.624C13.5423 13.8401 13.6396 14.1482 13.5856 14.4489C13.5315 14.7496 13.3332 15.0048 13.0555 15.1321L2.84448 19.8116C2.47269 19.985 2.05699 20.0411 1.65299 19.9699C1.24879 19.8987 0.875658 19.704 0.585438 19.4138C0.295459 19.1236 0.101517 18.7513 0.0303126 18.3473C-0.0408975 17.9431 0.0140844 17.5267 0.187581 17.1547L4.86709 6.94376L4.92021 6.84273C5.05846 6.61814 5.28726 6.46092 5.55033 6.41363ZM17.0663 17.9973V17.864H16.933C16.4176 17.864 15.9998 17.4462 15.9998 16.9308C15.9998 16.4154 16.4176 15.9976 16.933 15.9976H17.0663V15.8643C17.0663 15.3489 17.4841 14.9311 17.9995 14.9311C18.5148 14.9312 18.9327 15.349 18.9327 15.8643V15.9976H19.066C19.5813 15.9977 19.9992 16.4155 19.9992 16.9308C19.9992 17.4461 19.5813 17.8639 19.066 17.864H18.9327V17.9973C18.9327 18.5126 18.5148 18.9304 17.9995 18.9305C17.4841 18.9305 17.0663 18.5127 17.0663 17.9973ZM1.88212 17.938L1.879 17.9442C1.86752 17.9689 1.86386 17.9965 1.86858 18.0234C1.87329 18.0501 1.88592 18.0749 1.90503 18.0942C1.92438 18.1135 1.94995 18.1269 1.9769 18.1317C2.00371 18.1364 2.03138 18.1327 2.05605 18.1213L2.0623 18.1181L11.0568 13.9938L6.00338 8.94034L1.88212 17.938ZM18.839 9.09344C19.339 8.96844 19.8461 9.2725 19.9711 9.7725C20.0959 10.2724 19.7919 10.7786 19.292 10.9036L17.159 11.4368C16.659 11.5618 16.1529 11.2578 16.0279 10.7578C15.9031 10.258 16.2063 9.75191 16.706 9.62669L18.839 9.09344ZM13.0732 5.60542C13.4375 5.24122 14.0283 5.24143 14.3928 5.60542C14.7572 5.96985 14.7572 6.56162 14.3928 6.92605L13.3263 7.99256C12.9618 8.35655 12.371 8.35675 12.0067 7.99256C11.6422 7.62813 11.6422 7.03636 12.0067 6.67192L13.0732 5.60542ZM2.13521 3.06621V2.9329H2.00189C1.48651 2.9329 1.0687 2.51509 1.0687 1.9997C1.0687 1.48431 1.48651 1.06651 2.00189 1.06651H2.13521V0.933195C2.13521 0.417805 2.55301 0 3.0684 0C3.5837 0.000112667 4.0016 0.417875 4.0016 0.933195V1.06651H4.13491C4.6502 1.06662 5.06811 1.48438 5.06811 1.9997C5.06811 2.51502 4.6502 2.93278 4.13491 2.9329H4.0016V3.06621C4.0016 3.58153 3.5837 3.99929 3.0684 3.99941C2.55301 3.99941 2.13521 3.5816 2.13521 3.06621ZM17.0663 3.06621V2.9329H16.933C16.4176 2.9329 15.9998 2.51509 15.9998 1.9997C15.9998 1.48431 16.4176 1.06651 16.933 1.06651H17.0663V0.933195C17.0663 0.417805 17.4841 0 17.9995 0C18.5148 0.000112117 18.9327 0.417875 18.9327 0.933195V1.06651H19.066C19.5813 1.06662 19.9992 1.48438 19.9992 1.9997C19.9992 2.51502 19.5813 2.93279 19.066 2.9329H18.9327V3.06621C18.9327 3.58153 18.5148 3.99929 17.9995 3.99941C17.4841 3.99941 17.0663 3.5816 17.0663 3.06621ZM9.09563 0.707186C9.22063 0.207202 9.72673 -0.0968477 10.2267 0.0281208C10.7266 0.153097 11.0306 0.659297 10.9058 1.1592L10.3725 3.29222C10.2475 3.79222 9.7404 4.09628 9.2404 3.97128C8.74079 3.84607 8.43755 3.33996 8.56238 2.8402L9.09563 0.707186Z" fill="currentColor"/>
</svg>
