<svg preserveAspectRatio="none" width="100%" height="100%" overflow="visible" style="display: block;" viewBox="0 0 20 20" fill="none" xmlns="http://www.w3.org/2000/svg">
<path id="Vector" d="M8.45971 0.306347C9.44589 -0.102112 10.5541 -0.10212 11.5403 0.306347L14.3105 1.45257C14.5708 1.56035 14.7663 1.78319 14.84 2.05509C14.9136 2.32717 14.8564 2.61885 14.6858 2.84324C14.2571 3.40745 14.0249 4.0964 14.0245 4.805C14.0241 5.51369 14.2556 6.20303 14.6838 6.76777C15.112 7.33254 15.7134 7.74238 16.396 7.93326C17.0786 8.12411 17.8052 8.08641 18.4643 7.82574L18.5525 7.79531C18.9941 7.6705 19.4673 7.8969 19.6419 8.3319L19.6927 8.45971H19.6937C20.1021 9.44587 20.1021 10.5541 19.6937 11.5403C19.674 11.5879 19.6501 11.6337 19.6227 11.6772C19.1141 12.4827 18.7926 13.072 18.6296 13.4645C18.4616 13.8709 18.2468 14.5817 17.9875 15.6352C17.9765 15.6798 17.9615 15.7237 17.9439 15.7661C17.5351 16.752 16.7513 17.5347 15.7651 17.9429C15.724 17.9599 15.6814 17.9747 15.6383 17.9855C14.5522 18.2577 13.8428 18.4728 13.4645 18.6296H13.4635C13.0433 18.8037 12.4547 19.1257 11.6823 19.6196C11.6373 19.6484 11.5896 19.6732 11.5403 19.6937C10.5541 20.1021 9.44587 20.1021 8.45971 19.6937C8.41289 19.6743 8.36775 19.6506 8.3248 19.6237C7.50207 19.108 6.91348 18.7877 6.5365 18.6306L6.16525 18.4917C5.73825 18.3456 5.14375 18.177 4.3668 17.9875C4.3215 17.9765 4.27699 17.9618 4.23392 17.9439C3.24795 17.5351 2.46429 16.7513 2.05611 15.7651C2.03927 15.7244 2.02528 15.682 2.01452 15.6393C1.74002 14.549 1.52451 13.8391 1.36939 13.4635V13.4625C1.19287 13.0378 0.871193 12.4489 0.380395 11.6823C0.351567 11.6373 0.326822 11.5897 0.306347 11.5403C-0.10212 10.5541 -0.102112 9.44589 0.306347 8.45971L0.382424 8.31568C0.867503 7.56276 1.18919 6.97277 1.3704 6.53549C1.52019 6.17401 1.73531 5.46543 2.01452 4.3597L2.05611 4.23392C2.46494 3.24799 3.24872 2.46428 4.23493 2.05611L4.36274 2.01452C5.42873 1.74991 6.13947 1.53428 6.53549 1.3704L6.87327 1.21521C7.24602 1.03074 7.72609 0.755579 8.32075 0.378366L8.45971 0.306347ZM10.8445 1.98612C10.32 1.76889 9.73351 1.76378 9.20526 1.96786C8.42349 2.46012 7.7611 2.82978 7.23235 3.04916H7.23133C6.71466 3.26308 5.91972 3.49742 4.88513 3.75616C4.37978 3.97852 3.97643 4.38173 3.75413 4.88716C3.4842 5.94958 3.25006 6.74653 3.04916 7.23133C2.81727 7.79091 2.44865 8.4526 1.96684 9.20729C1.7702 9.71786 1.77015 10.2822 1.96684 10.7927C2.38951 11.4585 2.72451 12.0457 2.95381 12.5486L3.04916 12.7677L3.05017 12.7687C3.25519 13.2649 3.48873 14.0605 3.75515 15.1118C3.97678 15.6174 4.37928 16.0209 4.88412 16.2439C5.89616 16.4929 6.68923 16.7264 7.23032 16.9498L7.23336 16.9509C7.73763 17.1607 8.40168 17.5306 9.20526 18.0311C9.71555 18.2284 10.279 18.2291 10.7897 18.0332C11.5587 17.5453 12.2223 17.1769 12.7677 16.9509C13.2684 16.7432 14.065 16.5067 15.1149 16.2418C15.6203 16.0192 16.0228 15.6165 16.2449 15.1108C16.4989 14.0873 16.7323 13.2945 16.9498 12.7687L16.9509 12.7677C17.1666 12.2481 17.536 11.5839 18.0322 10.7927C18.1564 10.4704 18.2037 10.127 18.1711 9.78851C17.4223 9.92392 16.6482 9.89119 15.9071 9.68404C14.8422 9.38628 13.9034 8.74741 13.2353 7.86632C12.5673 6.98527 12.2061 5.90966 12.2067 4.80399C12.2071 4.08593 12.3605 3.38097 12.651 2.73369L10.8445 1.98612ZM9.09064 15.2041V15.193C9.09086 14.6914 9.49787 14.2843 9.9995 14.2841C10.5013 14.2841 10.9081 14.6912 10.9084 15.193V15.2041C10.9082 15.7059 10.5013 16.113 9.9995 16.113C9.49786 16.1128 9.09084 15.7058 9.09064 15.2041ZM13.2454 12.0881V12.0769C13.2456 11.5753 13.6527 11.1683 14.1543 11.168C14.6561 11.168 15.0629 11.5751 15.0631 12.0769V12.0881C15.0629 12.5898 14.6561 12.9969 14.1543 12.9969C13.6526 12.9967 13.2456 12.5897 13.2454 12.0881ZM4.93585 11.0494V11.0382C4.93607 10.5366 5.34308 10.1296 5.84471 10.1293C6.34653 10.1293 6.75335 10.5364 6.75357 11.0382V11.0494C6.75337 11.5511 6.34654 11.9582 5.84471 11.9582C5.34307 11.958 4.93605 11.551 4.93585 11.0494ZM9.09064 10.0107V9.9995C9.09086 9.49787 9.49787 9.09086 9.9995 9.09064C10.5013 9.09064 10.9081 9.49774 10.9084 9.9995V10.0107C10.9082 10.5124 10.5013 10.9195 9.9995 10.9195C9.49786 10.9193 9.09084 10.5123 9.09064 10.0107ZM8.05194 5.85587V5.84471C8.05216 5.34308 8.45917 4.93607 8.9608 4.93585C9.46262 4.93585 9.86945 5.34295 9.86966 5.84471V5.85587C9.86946 6.35765 9.46263 6.76473 8.9608 6.76473C8.45916 6.76451 8.05214 6.35752 8.05194 5.85587Z" fill="currentColor"/>
</svg>
