<svg preserveAspectRatio="none" width="100%" height="100%" overflow="visible" style="display: block;" viewBox="0 0 20 20" fill="none" xmlns="http://www.w3.org/2000/svg">
<path id="Vector" d="M18.2278 7.63746C18.2278 7.39918 18.1806 7.16338 18.0894 6.94324C17.9982 6.72307 17.8653 6.52235 17.6968 6.35384C17.5283 6.18533 17.3276 6.05243 17.1074 5.96123C16.8873 5.87006 16.6515 5.82279 16.4132 5.82278H7.63746C7.15618 5.82279 6.69415 6.01352 6.35384 6.35384C6.01352 6.69415 5.82279 7.15618 5.82278 7.63746V16.4132C5.82279 16.6515 5.87006 16.8873 5.96123 17.1074C6.05243 17.3276 6.18533 17.5283 6.35384 17.6968C6.52235 17.8653 6.72307 17.9982 6.94324 18.0894C7.16338 18.1806 7.39918 18.2278 7.63746 18.2278H16.4132C16.6515 18.2278 16.8873 18.1806 17.1074 18.0894C17.3276 17.9982 17.5283 17.8653 17.6968 17.6968C17.8653 17.5283 17.9982 17.3276 18.0894 17.1074C18.1806 16.8873 18.2278 16.6515 18.2278 16.4132V7.63746ZM0 2.91139C0 1.3081 1.3081 0 2.91139 0H13.038C13.5838 0 14.0639 0.145193 14.4729 0.442049C14.8626 0.724965 15.1284 1.10379 15.3313 1.46855C15.5689 1.89619 15.4147 2.43529 14.9871 2.67306C14.5595 2.91064 14.0204 2.75649 13.7826 2.32892C13.6393 2.07114 13.5248 1.94367 13.4316 1.87599C13.3575 1.82226 13.2515 1.77215 13.038 1.77215H2.91139C2.28683 1.77215 1.77215 2.28683 1.77215 2.91139V13.036L1.78204 13.1863C1.80212 13.335 1.85141 13.4791 1.92741 13.6096C2.02879 13.7835 2.1748 13.9272 2.34968 14.0269C2.77466 14.2692 2.92297 14.8103 2.68097 15.2354C2.43867 15.6604 1.8976 15.8088 1.47251 15.5667C1.02654 15.3124 0.655028 14.9451 0.396559 14.5016C0.138082 14.0579 0.00123803 13.5534 0 13.04V2.91139ZM20 16.4132C20 16.8842 19.9073 17.3506 19.7271 17.7858C19.5468 18.221 19.2828 18.6167 18.9498 18.9498C18.6167 19.2828 18.221 19.5468 17.7858 19.7271C17.3506 19.9073 16.8842 20 16.4132 20H7.63746C7.16644 20 6.7 19.9073 6.26483 19.7271C5.82966 19.5468 5.43394 19.2828 5.10087 18.9498C4.7678 18.6167 4.50383 18.221 4.32358 17.7858C4.14333 17.3506 4.05063 16.8842 4.05063 16.4132V7.63746C4.05063 6.68618 4.42821 5.77353 5.10087 5.10087C5.77353 4.42821 6.68618 4.05063 7.63746 4.05063H16.4132C16.8842 4.05063 17.3506 4.14333 17.7858 4.32358C18.221 4.50383 18.6167 4.7678 18.9498 5.10087C19.2828 5.43394 19.5468 5.82966 19.7271 6.26483C19.9073 6.7 20 7.16644 20 7.63746V16.4132Z" fill="currentColor"/>
</svg>
