<svg preserveAspectRatio="none" width="100%" height="100%" overflow="visible" style="display: block;" viewBox="0 0 20 19.9998" fill="none" xmlns="http://www.w3.org/2000/svg">
<path id="Vector" d="M12.203 14.7457V4.05219L8.80536 7.44987C8.34204 7.91319 7.58971 7.91319 7.12638 7.44987C6.66306 6.98654 6.66306 6.23421 7.12638 5.77089L12.55 0.347315L12.64 0.266544C13.106 -0.113893 13.7944 -0.0871825 14.2289 0.347315L19.6525 5.77089C20.1158 6.23421 20.1158 6.98654 19.6525 7.44987C19.1892 7.91319 18.4369 7.91319 17.9735 7.44987L14.5759 4.05219V14.7457C14.5759 16.1392 14.0226 17.4759 13.0372 18.4612C12.0519 19.4465 10.7152 19.9998 9.32177 19.9998H1.18641C0.531172 19.9998 0 19.4687 0 18.8134C0 18.1582 0.531172 17.627 1.18641 17.627H9.32177C10.0859 17.627 10.8192 17.3239 11.3596 16.7835C11.8999 16.2432 12.203 15.5099 12.203 14.7457Z" fill="currentColor"/>
</svg>
