<svg preserveAspectRatio="none" width="100%" height="100%" overflow="visible" style="display: block;" viewBox="0 0 20 20" fill="none" xmlns="http://www.w3.org/2000/svg">
<path id="Vector" d="M12.55 7.12638C13.0133 6.66306 13.7656 6.66306 14.2289 7.12638L19.6525 12.55C20.1158 13.0133 20.1158 13.7656 19.6525 14.2289L14.2289 19.6525C13.7656 20.1158 13.0133 20.1158 12.55 19.6525C12.0866 19.1892 12.0866 18.4369 12.55 17.9735L15.9476 14.5759H5.25409C3.86062 14.5759 2.52395 14.0226 1.53862 13.0372C0.553289 12.0519 0 10.7152 0 9.32177V1.18641C0 0.531172 0.531172 0 1.18641 0C1.84164 0 2.37281 0.531172 2.37281 1.18641V9.32177C2.37281 10.0859 2.67593 10.8192 3.21627 11.3596C3.75662 11.8999 4.48993 12.203 5.25409 12.203H15.9476L12.55 8.80536C12.0866 8.34204 12.0866 7.58971 12.55 7.12638Z" fill="currentColor"/>
</svg>
