<svg preserveAspectRatio="none" width="100%" height="100%" overflow="visible" style="display: block;" viewBox="0 0 20 20" fill="none" xmlns="http://www.w3.org/2000/svg">
<path id="Vector" d="M16.2025 3.92405C16.2025 3.89048 16.1897 3.8578 16.1659 3.83406C16.1422 3.81032 16.1095 3.79747 16.0759 3.79747H3.92405C3.89048 3.79747 3.8578 3.81032 3.83406 3.83406C3.81032 3.8578 3.79747 3.89048 3.79747 3.92405V16.0759C3.79747 16.1095 3.81032 16.1422 3.83406 16.1659C3.8578 16.1897 3.89048 16.2025 3.92405 16.2025H16.0759C16.1095 16.2025 16.1422 16.1897 16.1659 16.1659C16.1897 16.1422 16.2025 16.1095 16.2025 16.0759V3.92405ZM5.06329 12.0253C5.06329 11.536 5.46 11.1392 5.94937 11.1392C6.43873 11.1392 6.83544 11.536 6.83544 12.0253V13.1646H7.97468C8.46405 13.1646 8.86076 13.5613 8.86076 14.0506C8.86076 14.54 8.46405 14.9367 7.97468 14.9367H5.94937C5.46 14.9367 5.06329 14.54 5.06329 14.0506V12.0253ZM13.1646 12.0253C13.1646 11.536 13.5613 11.1392 14.0506 11.1392C14.54 11.1392 14.9367 11.536 14.9367 12.0253V14.0506C14.9367 14.54 14.54 14.9367 14.0506 14.9367H12.0253C11.536 14.9367 11.1392 14.54 11.1392 14.0506C11.1392 13.5613 11.536 13.1646 12.0253 13.1646H13.1646V12.0253ZM5.06329 7.97468V5.94937C5.06329 5.46 5.46 5.06329 5.94937 5.06329H7.97468C8.46405 5.06329 8.86076 5.46 8.86076 5.94937C8.86076 6.43873 8.46405 6.83544 7.97468 6.83544H6.83544V7.97468C6.83544 8.46405 6.43873 8.86076 5.94937 8.86076C5.46 8.86076 5.06329 8.46405 5.06329 7.97468ZM13.1646 7.97468V6.83544H12.0253C11.536 6.83544 11.1392 6.43873 11.1392 5.94937C11.1392 5.46 11.536 5.06329 12.0253 5.06329H14.0506C14.54 5.06329 14.9367 5.46 14.9367 5.94937V7.97468C14.9367 8.46405 14.54 8.86076 14.0506 8.86076C13.5613 8.86076 13.1646 8.46405 13.1646 7.97468ZM17.9747 7.08861H19.1139C19.6033 7.08861 20 7.48532 20 7.97468C20 8.46405 19.6033 8.86076 19.1139 8.86076H17.9747V11.1392H19.1139C19.6033 11.1392 20 11.536 20 12.0253C20 12.5147 19.6033 12.9114 19.1139 12.9114H17.9747V16.0759C17.9747 16.5795 17.775 17.0628 17.4189 17.4189C17.0628 17.775 16.5795 17.9747 16.0759 17.9747H12.9114V19.1139C12.9114 19.6033 12.5147 20 12.0253 20C11.536 20 11.1392 19.6033 11.1392 19.1139V17.9747H8.86076V19.1139C8.86076 19.6033 8.46405 20 7.97468 20C7.48532 20 7.08861 19.6033 7.08861 19.1139V17.9747H3.92405C3.42048 17.9747 2.93717 17.775 2.58109 17.4189C2.22501 17.0628 2.02532 16.5795 2.02532 16.0759V12.9114H0.886076C0.39671 12.9114 0 12.5147 0 12.0253C0 11.536 0.39671 11.1392 0.886076 11.1392H2.02532V8.86076H0.886076C0.39671 8.86076 0 8.46405 0 7.97468C0 7.48532 0.39671 7.08861 0.886076 7.08861H2.02532V3.92405C2.02532 3.42047 2.22501 2.93717 2.58109 2.58109C2.93717 2.22501 3.42047 2.02532 3.92405 2.02532H7.08861V0.886076C7.08861 0.39671 7.48532 0 7.97468 0C8.46405 0 8.86076 0.39671 8.86076 0.886076V2.02532H11.1392V0.886076C11.1392 0.39671 11.536 0 12.0253 0C12.5147 0 12.9114 0.39671 12.9114 0.886076V2.02532H16.0759C16.5795 2.02532 17.0628 2.22501 17.4189 2.58109C17.775 2.93717 17.9747 3.42048 17.9747 3.92405V7.08861Z" fill="currentColor"/>
</svg>
