<svg preserveAspectRatio="none" width="100%" height="100%" overflow="visible" style="display: block;" viewBox="0 0 20 15.9494" fill="none" xmlns="http://www.w3.org/2000/svg">
<path id="Vector" d="M18.2278 6.83544H1.77215V12.0253C1.77215 12.596 1.99854 13.1437 2.4021 13.5473C2.80566 13.9508 3.35333 14.1772 3.92405 14.1772H16.0759C16.6467 14.1772 17.1943 13.9508 17.5979 13.5473C18.0015 13.1437 18.2278 12.596 18.2278 12.0253V6.83544ZM4.9466 10.1266C5.43596 10.1266 5.83267 10.5233 5.83267 11.0127C5.83267 11.502 5.43596 11.8987 4.9466 11.8987H4.93671C4.44734 11.8987 4.05063 11.502 4.05063 11.0127C4.05063 10.5233 4.44734 10.1266 4.93671 10.1266H4.9466ZM11.0127 10.1266C11.502 10.1266 11.8987 10.5233 11.8987 11.0127C11.8987 11.502 11.502 11.8987 11.0127 11.8987H8.98734C8.49798 11.8987 8.10127 11.502 8.10127 11.0127C8.10127 10.5233 8.49798 10.1266 8.98734 10.1266H11.0127ZM18.2278 3.92405C18.2278 3.35333 18.0015 2.80566 17.5979 2.4021C17.1943 1.99854 16.6467 1.77215 16.0759 1.77215H3.92405C3.35333 1.77215 2.80566 1.99854 2.4021 2.4021C1.99854 2.80566 1.77215 3.35333 1.77215 3.92405V5.06329H18.2278V3.92405ZM20 12.0253C20 13.066 19.5868 14.0643 18.8509 14.8002C18.115 15.5361 17.1167 15.9494 16.0759 15.9494H3.92405C2.88333 15.9494 1.88503 15.5361 1.14913 14.8002C0.413228 14.0643 0 13.066 0 12.0253V3.92405C0 2.88333 0.413228 1.88503 1.14913 1.14913C1.88503 0.413228 2.88333 0 3.92405 0H16.0759C17.1167 0 18.115 0.413228 18.8509 1.14913C19.5868 1.88503 20 2.88333 20 3.92405V12.0253Z" fill="currentColor"/>
</svg>
