<svg preserveAspectRatio="none" width="100%" height="100%" overflow="visible" style="display: block;" viewBox="0 0 20 20" fill="none" xmlns="http://www.w3.org/2000/svg">
<path id="Vector" d="M9.1954 19.1954V18.1214C7.32642 17.9363 5.56917 17.1101 4.22953 15.7705C2.88988 14.4308 2.06369 12.6736 1.87859 10.8046H0.804598C0.360231 10.8046 0 10.4444 0 10C0 9.55563 0.360231 9.1954 0.804598 9.1954H1.87859C2.06369 7.32642 2.88988 5.56917 4.22953 4.22953C5.56919 2.88986 7.32639 2.06278 9.1954 1.87769V0.804598C9.1954 0.360231 9.55563 0 10 0C10.4444 0 10.8046 0.360231 10.8046 0.804598V1.87769C12.6736 2.06278 14.4308 2.88986 15.7705 4.22953C17.1101 5.56917 17.9363 7.32642 18.1214 9.1954H19.1954C19.6398 9.1954 20 9.55563 20 10C20 10.4444 19.6398 10.8046 19.1954 10.8046H18.1214C17.9363 12.6736 17.1101 14.4308 15.7705 15.7705C14.4308 17.1101 12.6736 17.9363 10.8046 18.1214V19.1954C10.8046 19.6398 10.4444 20 10 20C9.55563 20 9.1954 19.6398 9.1954 19.1954ZM10 3.44828C8.26237 3.44828 6.59596 4.13859 5.36728 5.36728C4.13859 6.59596 3.44828 8.26237 3.44828 10C3.44828 11.7376 4.13859 13.404 5.36728 14.6327C6.59596 15.8614 8.26237 16.5517 10 16.5517C11.7376 16.5517 13.404 15.8614 14.6327 14.6327C15.8614 13.404 16.5517 11.7376 16.5517 10C16.5517 8.26237 15.8614 6.59596 14.6327 5.36728C13.404 4.13859 11.7376 3.44828 10 3.44828ZM11.954 10C11.954 9.48176 11.7485 8.98445 11.382 8.618C11.0156 8.25155 10.5182 8.04598 10 8.04598C9.48176 8.04598 8.98445 8.25155 8.618 8.618C8.25155 8.98445 8.04598 9.48176 8.04598 10C8.04598 10.5182 8.25155 11.0156 8.618 11.382C8.98445 11.7485 9.48176 11.954 10 11.954C10.5182 11.954 11.0156 11.7485 11.382 11.382C11.7485 11.0156 11.954 10.5182 11.954 10ZM13.5632 10C13.5632 10.945 13.188 11.8515 12.5198 12.5198C11.8515 13.188 10.945 13.5632 10 13.5632C9.05498 13.5632 8.14848 13.188 7.48024 12.5198C6.81201 11.8515 6.43678 10.945 6.43678 10C6.43678 9.05498 6.81201 8.14848 7.48024 7.48024C8.14848 6.81201 9.05498 6.43678 10 6.43678C10.945 6.43678 11.8515 6.81201 12.5198 7.48024C13.188 8.14848 13.5632 9.05498 13.5632 10Z" fill="currentColor"/>
</svg>
