<svg preserveAspectRatio="none" width="100%" height="100%" overflow="visible" style="display: block;" viewBox="0 0 11.8987 20" fill="none" xmlns="http://www.w3.org/2000/svg">
<path id="Vector" d="M5.06329 19.1139V16.962H3.92405C3.91131 16.962 3.89822 16.9616 3.88548 16.961C3.1031 16.9272 2.34903 16.6598 1.71974 16.1936C1.09038 15.7274 0.614399 15.084 0.354035 14.3453C0.191408 13.8839 0.433657 13.3778 0.894976 13.215C1.35644 13.0524 1.86256 13.2945 2.02532 13.7559C2.16804 14.1609 2.42897 14.5139 2.77393 14.7696C3.11599 15.023 3.52575 15.1692 3.95075 15.1899H7.97468C8.5454 15.1899 9.09308 14.9635 9.49664 14.5599C9.9002 14.1564 10.1266 13.6087 10.1266 13.038C10.1266 12.4673 9.9002 11.9196 9.49664 11.516C9.09308 11.1125 8.5454 10.8861 7.97468 10.8861H3.92405C2.88333 10.8861 1.88503 10.4728 1.14913 9.73695C0.413228 9.00104 0 8.00275 0 6.96203C0 5.9213 0.413228 4.92301 1.14913 4.1871C1.88503 3.4512 2.88333 3.03797 3.92405 3.03797H5.06329V0.886076C5.06329 0.39671 5.46 0 5.94937 0C6.43873 0 6.83544 0.39671 6.83544 0.886076V3.03797H7.97468C7.98743 3.03797 8.00052 3.03841 8.01325 3.03896C8.79564 3.07282 9.54971 3.34024 10.179 3.80637C10.8084 4.27256 11.2843 4.91599 11.5447 5.65467C11.7073 6.11609 11.4651 6.62221 11.0038 6.78501C10.5423 6.94765 10.0362 6.70546 9.87342 6.24407C9.7307 5.83911 9.46976 5.48606 9.1248 5.23042C8.78275 4.97704 8.37299 4.83076 7.94798 4.81013H3.92405C3.35333 4.81013 2.80566 5.03651 2.4021 5.44007C1.99854 5.84363 1.77215 6.39131 1.77215 6.96203C1.77215 7.53274 1.99854 8.08042 2.4021 8.48398C2.80566 8.88754 3.35333 9.11392 3.92405 9.11392H7.97468C9.01541 9.11392 10.0137 9.52715 10.7496 10.2631C11.4855 10.999 11.8987 11.9973 11.8987 13.038C11.8987 14.0787 11.4855 15.077 10.7496 15.8129C10.0137 16.5488 9.01541 16.962 7.97468 16.962H6.83544V19.1139C6.83544 19.6033 6.43873 20 5.94937 20C5.46 20 5.06329 19.6033 5.06329 19.1139Z" fill="currentColor"/>
</svg>
