<svg preserveAspectRatio="none" width="100%" height="100%" overflow="visible" style="display: block;" viewBox="0 0 20 20" fill="none" xmlns="http://www.w3.org/2000/svg">
<path id="Vector" d="M9.1954 19.1954V17.3563C9.1954 16.912 9.55563 16.5517 10 16.5517C10.4444 16.5517 10.8046 16.912 10.8046 17.3563V19.1954C10.8046 19.6398 10.4444 20 10 20C9.55563 20 9.1954 19.6398 9.1954 19.1954ZM4.23042 14.6318C4.54466 14.3178 5.05403 14.3177 5.36818 14.6318C5.68232 14.946 5.68217 15.4553 5.36818 15.7696L4.06789 17.0699C3.75367 17.3841 3.24435 17.3841 2.93014 17.0699C2.61592 16.7556 2.61592 16.2463 2.93014 15.9321L4.23042 14.6318ZM14.6336 14.6318C14.9478 14.3177 15.4571 14.3179 15.7714 14.6318L17.0717 15.9321C17.3859 16.2463 17.3859 16.7556 17.0717 17.0699C16.7574 17.3841 16.2481 17.3841 15.9339 17.0699L14.6336 15.7696C14.3197 15.4553 14.3195 14.946 14.6336 14.6318ZM13.7931 10C13.7931 8.99401 13.3936 8.02905 12.6823 7.31771C11.9709 6.60636 11.006 6.2069 10 6.2069C8.99401 6.2069 8.02905 6.60636 7.31771 7.31771C6.60636 8.02905 6.2069 8.99401 6.2069 10C6.2069 11.006 6.60636 11.9709 7.31771 12.6823C8.02905 13.3936 8.99401 13.7931 10 13.7931C11.006 13.7931 11.9709 13.3936 12.6823 12.6823C13.3936 11.9709 13.7931 11.006 13.7931 10ZM2.64368 9.1954C3.08805 9.1954 3.44828 9.55563 3.44828 10C3.44828 10.4444 3.08805 10.8046 2.64368 10.8046H0.804598C0.360231 10.8046 0 10.4444 0 10C0 9.55563 0.360231 9.1954 0.804598 9.1954H2.64368ZM19.1954 9.1954C19.6398 9.1954 20 9.55563 20 10C20 10.4444 19.6398 10.8046 19.1954 10.8046H17.3563C16.912 10.8046 16.5517 10.4444 16.5517 10C16.5517 9.55563 16.912 9.1954 17.3563 9.1954H19.1954ZM2.93014 2.92924C3.24445 2.61514 3.75378 2.61494 4.06789 2.92924L5.36728 4.22953C5.68127 4.54379 5.68139 5.05317 5.36728 5.36728C5.05295 5.68138 4.54273 5.6816 4.22863 5.36728L2.93014 4.06699C2.6161 3.75273 2.61602 3.24336 2.93014 2.92924ZM15.933 2.92924C16.2472 2.61502 16.7565 2.61502 17.0708 2.92924C17.385 3.24345 17.385 3.75277 17.0708 4.06699L15.7705 5.36728C15.4562 5.68125 14.9469 5.68141 14.6327 5.36728C14.3186 5.05314 14.3187 4.54376 14.6327 4.22953L15.933 2.92924ZM9.1954 2.64368V0.804598C9.1954 0.360231 9.55563 0 10 0C10.4444 0 10.8046 0.360231 10.8046 0.804598V2.64368C10.8046 3.08805 10.4444 3.44828 10 3.44828C9.55563 3.44828 9.1954 3.08805 9.1954 2.64368ZM15.4023 10C15.4023 11.4328 14.8332 12.8069 13.82 13.82C12.8069 14.8332 11.4328 15.4023 10 15.4023C8.56722 15.4023 7.19308 14.8332 6.17996 13.82C5.16683 12.8069 4.5977 11.4328 4.5977 10C4.5977 8.56722 5.16683 7.19308 6.17996 6.17996C7.19308 5.16683 8.56722 4.5977 10 4.5977C11.4328 4.5977 12.8069 5.16683 13.82 6.17996C14.8332 7.19308 15.4023 8.56722 15.4023 10Z" fill="currentColor"/>
</svg>
