<svg preserveAspectRatio="none" width="100%" height="100%" overflow="visible" style="display: block;" viewBox="0 0 20 20" fill="none" xmlns="http://www.w3.org/2000/svg">
<path id="Vector" d="M0 0.886076C0 0.39671 0.39671 0 0.886076 0C1.37544 0 1.77215 0.39671 1.77215 0.886076V18.2278H19.1139C19.6033 18.2278 20 18.6246 20 19.1139C20 19.6033 19.6033 20 19.1139 20H0.886076C0.39671 20 0 19.6033 0 19.1139V0.886076ZM16.8127 3.0004C17.043 2.56868 17.5805 2.40521 18.0123 2.63548C18.444 2.8658 18.6074 3.40329 18.3772 3.83505L14.3265 11.43C14.1988 11.6695 13.9678 11.837 13.7006 11.8849C13.4334 11.9327 13.1588 11.8555 12.9559 11.6752L9.20688 8.34256L6.20847 13.484C5.96196 13.9066 5.41968 14.0497 4.99703 13.8034C4.57445 13.5569 4.43133 13.0146 4.67761 12.592L8.22191 6.51602L8.27631 6.43295C8.41353 6.2485 8.61832 6.12342 8.8479 6.08683C9.11009 6.04506 9.37725 6.12316 9.57575 6.29945L13.2911 9.60146L16.8127 3.0004Z" fill="currentColor"/>
</svg>
