<svg preserveAspectRatio="none" width="100%" height="100%" overflow="visible" style="display: block;" viewBox="0 0 13.9241 20" fill="none" xmlns="http://www.w3.org/2000/svg">
<path id="Vector" d="M12.1519 6.96203C12.1519 6.39131 11.9255 5.84363 11.522 5.44007C11.1184 5.03651 10.5707 4.81013 10 4.81013H3.92405C3.35333 4.81013 2.80566 5.03651 2.4021 5.44007C1.99854 5.84363 1.77215 6.39131 1.77215 6.96203V13.038C1.77215 13.6087 1.99854 14.1564 2.4021 14.5599C2.80566 14.9635 3.35333 15.1899 3.92405 15.1899H10C10.5707 15.1899 11.1184 14.9635 11.522 14.5599C11.9255 14.1564 12.1519 13.6087 12.1519 13.038V6.96203ZM4.81013 18.2278H9.11392V16.962H4.81013V18.2278ZM4.81013 3.03797H9.11392V1.77215H4.81013V3.03797ZM13.9241 13.038C13.9241 14.0787 13.5108 15.077 12.7749 15.8129C12.2517 16.3361 11.5954 16.6947 10.8861 16.8592V19.1139C10.8861 19.6033 10.4894 20 10 20H3.92405C3.43468 20 3.03797 19.6033 3.03797 19.1139V16.8592C2.32861 16.6947 1.67234 16.3361 1.14913 15.8129C0.413228 15.077 0 14.0787 0 13.038V6.96203C0 5.9213 0.413228 4.92301 1.14913 4.1871C1.67239 3.66384 2.32852 3.30432 3.03797 3.13983V0.886076C3.03797 0.39671 3.43468 0 3.92405 0H10C10.4894 0 10.8861 0.39671 10.8861 0.886076V3.13983C11.5955 3.30432 12.2517 3.66384 12.7749 4.1871C13.5108 4.92301 13.9241 5.9213 13.9241 6.96203V13.038Z" fill="currentColor"/>
</svg>
