<svg preserveAspectRatio="none" width="100%" height="100%" overflow="visible" style="display: block;" viewBox="0 0 13.9241 20" fill="none" xmlns="http://www.w3.org/2000/svg">
<path id="Vector" d="M12.1519 2.91139C12.1519 2.60925 12.0323 2.31907 11.8186 2.10542C11.605 1.89177 11.3148 1.77215 11.0127 1.77215H8.85087C8.8568 1.81354 8.86076 1.85571 8.86076 1.89873C8.86076 2.3881 8.46405 2.78481 7.97468 2.78481H5.94937C5.46 2.78481 5.06329 2.3881 5.06329 1.89873C5.06329 1.85571 5.06725 1.81354 5.07318 1.77215H2.91139C2.60925 1.77215 2.31907 1.89177 2.10542 2.10542C1.89177 2.31907 1.77215 2.60925 1.77215 2.91139V17.0886C1.77215 17.3908 1.89177 17.6809 2.10542 17.8946C2.31907 18.1082 2.60925 18.2278 2.91139 18.2278H11.0127C11.3148 18.2278 11.605 18.1082 11.8186 17.8946C12.0323 17.6809 12.1519 17.3908 12.1519 17.0886V2.91139ZM6.07595 15.0732V15.0633C6.07595 14.5739 6.47266 14.1772 6.96203 14.1772C7.45139 14.1772 7.8481 14.5739 7.8481 15.0633V15.0732C7.8481 15.5625 7.45139 15.9593 6.96203 15.9593C6.47266 15.9593 6.07595 15.5625 6.07595 15.0732ZM13.9241 17.0886C13.9241 17.8608 13.6176 18.6016 13.0716 19.1475C12.5256 19.6935 11.7848 20 11.0127 20H2.91139C2.13924 20 1.39844 19.6935 0.852453 19.1475C0.306461 18.6016 0 17.8608 0 17.0886V2.91139C0 2.13924 0.30646 1.39844 0.852453 0.852453C1.39844 0.30646 2.13924 0 2.91139 0H11.0127C11.7848 0 12.5256 0.306461 13.0716 0.852453C13.6176 1.39844 13.9241 2.13924 13.9241 2.91139V17.0886Z" fill="currentColor"/>
</svg>
