<svg preserveAspectRatio="none" width="100%" height="100%" overflow="visible" style="display: block;" viewBox="0 0 20 20" fill="none" xmlns="http://www.w3.org/2000/svg">
<path id="Vector" d="M18.2278 11.8987H1.77215V14.0506C1.77215 14.0842 1.785 14.1169 1.80874 14.1406C1.83248 14.1644 1.86516 14.1772 1.89873 14.1772H18.1013C18.1348 14.1772 18.1675 14.1644 18.1913 14.1406C18.215 14.1169 18.2278 14.0842 18.2278 14.0506V11.8987ZM8.47211 18.2278H11.5279L11.2431 15.9494H8.75692L8.47211 18.2278ZM18.2278 1.89873C18.2278 1.86516 18.215 1.83248 18.1913 1.80874C18.1675 1.785 18.1348 1.77215 18.1013 1.77215H1.89873C1.86516 1.77215 1.83248 1.785 1.80874 1.80874C1.785 1.83248 1.77215 1.86516 1.77215 1.89873V10.1266H18.2278V1.89873ZM20 14.0506C20 14.5542 19.8003 15.0375 19.4442 15.3936C19.0881 15.7497 18.6048 15.9494 18.1013 15.9494H13.0291L13.3139 18.2278H14.0506C14.54 18.2278 14.9367 18.6246 14.9367 19.1139C14.9367 19.6033 14.54 20 14.0506 20H5.94937C5.46 20 5.06329 19.6033 5.06329 19.1139C5.06329 18.6246 5.46 18.2278 5.94937 18.2278H6.68612L6.97093 15.9494H1.89873C1.39516 15.9494 0.911858 15.7497 0.555775 15.3936C0.199693 15.0375 0 14.5542 0 14.0506V1.89873C0 1.39516 0.199693 0.911857 0.555775 0.555775C0.911857 0.199693 1.39516 0 1.89873 0H18.1013C18.6048 0 19.0881 0.199693 19.4442 0.555775C19.8003 0.911858 20 1.39516 20 1.89873V14.0506Z" fill="currentColor"/>
</svg>
