<svg preserveAspectRatio="none" width="100%" height="100%" overflow="visible" style="display: block;" viewBox="0 0 20 14.9367" fill="none" xmlns="http://www.w3.org/2000/svg">
<path id="Vector" d="M19.1139 13.1646C19.6033 13.1646 20 13.5613 20 14.0506C20 14.54 19.6033 14.9367 19.1139 14.9367H0.886076C0.39671 14.9367 0 14.54 0 14.0506C0 13.5613 0.39671 13.1646 0.886076 13.1646H19.1139ZM16.2025 1.89873C16.2025 1.86516 16.1897 1.83248 16.1659 1.80874C16.1422 1.785 16.1095 1.77215 16.0759 1.77215H3.92405C3.89048 1.77215 3.8578 1.785 3.83406 1.80874C3.81032 1.83248 3.79747 1.86516 3.79747 1.89873V10C3.79747 10.0336 3.81032 10.0663 3.83406 10.09C3.8578 10.1137 3.89048 10.1266 3.92405 10.1266H16.0759C16.1095 10.1266 16.1422 10.1137 16.1659 10.09C16.1897 10.0663 16.2025 10.0336 16.2025 10V1.89873ZM17.9747 10C17.9747 10.5036 17.775 10.9869 17.4189 11.343C17.0628 11.699 16.5795 11.8987 16.0759 11.8987H3.92405C3.42047 11.8987 2.93717 11.699 2.58109 11.343C2.22501 10.9869 2.02532 10.5036 2.02532 10V1.89873C2.02532 1.39516 2.22501 0.911857 2.58109 0.555775C2.93717 0.199694 3.42047 0 3.92405 0H16.0759C16.5795 0 17.0628 0.199694 17.4189 0.555775C17.775 0.911858 17.9747 1.39516 17.9747 1.89873V10Z" fill="currentColor"/>
</svg>
