<svg preserveAspectRatio="none" width="100%" height="100%" overflow="visible" style="display: block;" viewBox="0 0 20 18.9878" fill="none" xmlns="http://www.w3.org/2000/svg">
<path id="Vector" d="M18.2278 6.96245C18.2278 6.66031 18.1082 6.37013 17.8946 6.15648C17.6809 5.94283 17.3908 5.82321 17.0886 5.82321H2.91139C2.60925 5.82321 2.31907 5.94283 2.10542 6.15648C1.89177 6.37013 1.77215 6.66031 1.77215 6.96245V16.0764C1.77215 16.3785 1.89177 16.6687 2.10542 16.8823C2.31907 17.096 2.60925 17.2156 2.91139 17.2156H17.0886C17.3908 17.2156 17.6809 17.096 17.8946 16.8823C18.1082 16.6687 18.2278 16.3785 18.2278 16.0764V6.96245ZM20 16.0764C20 16.8485 19.6935 17.5893 19.1475 18.1353C18.6016 18.6813 17.8608 18.9878 17.0886 18.9878H2.91139C2.13924 18.9878 1.39844 18.6813 0.852453 18.1353C0.306461 17.5893 0 16.8485 0 16.0764V6.96245C0 6.1903 0.30646 5.4495 0.852453 4.90351C1.39844 4.35752 2.13924 4.05106 2.91139 4.05106H7.85997L5.32239 1.51348C4.97636 1.16745 4.97636 0.60556 5.32239 0.259526C5.66842 -0.0865084 6.23031 -0.0865084 6.57635 0.259526L10 3.68318L13.4237 0.259526C13.7697 -0.0865085 14.3316 -0.0865085 14.6776 0.259526C15.0236 0.60556 15.0236 1.16745 14.6776 1.51348L12.14 4.05106H17.0886C17.8608 4.05106 18.6016 4.35752 19.1475 4.90351C19.6935 5.4495 20 6.1903 20 6.96245V16.0764Z" fill="currentColor"/>
</svg>
