<svg preserveAspectRatio="none" width="100%" height="100%" overflow="visible" style="display: block;" viewBox="0 0 20 20" fill="none" xmlns="http://www.w3.org/2000/svg">
<path id="Vector" d="M0 16.7606V3.23944C0 2.38028 0.340991 1.55602 0.948504 0.948504C1.55602 0.340991 2.38028 0 3.23944 0H14.507L14.605 0.00440141C14.8305 0.0268971 15.043 0.126614 15.2047 0.288292L19.7117 4.79533C19.8966 4.98023 20 5.23148 20 5.49296V16.7606C20 17.6197 19.659 18.444 19.0515 19.0515C18.444 19.659 17.6197 20 16.7606 20H3.23944C2.38028 20 1.55602 19.659 0.948504 19.0515C0.340991 18.444 0 17.6197 0 16.7606ZM11.2676 12.2535C11.2676 11.9173 11.1345 11.5945 10.8968 11.3567C10.6591 11.119 10.3362 10.9859 10 10.9859C9.66381 10.9859 9.34094 11.119 9.10321 11.3567C8.86549 11.5945 8.73239 11.9173 8.73239 12.2535C8.73239 12.5897 8.86549 12.9126 9.10321 13.1503C9.34094 13.388 9.66381 13.5211 10 13.5211C10.3362 13.5211 10.6591 13.388 10.8968 13.1503C11.1345 12.9126 11.2676 12.5897 11.2676 12.2535ZM6.47887 4.50704H11.2676V1.97183H6.47887V4.50704ZM13.2394 12.2535C13.2394 13.1127 12.8984 13.9369 12.2909 14.5445C11.6834 15.152 10.8592 15.493 10 15.493C9.14085 15.493 8.31658 15.152 7.70907 14.5445C7.10156 13.9369 6.76056 13.1127 6.76056 12.2535C6.76056 11.3944 7.10156 10.5701 7.70907 9.96259C8.31658 9.35508 9.14085 9.01408 10 9.01408C10.8592 9.01408 11.6834 9.35508 12.2909 9.96259C12.8984 10.5701 13.2394 11.3944 13.2394 12.2535ZM1.97183 16.7606C1.97183 17.0968 2.10493 17.4196 2.34265 17.6574C2.58037 17.8951 2.90325 18.0282 3.23944 18.0282H16.7606C17.0968 18.0282 17.4196 17.8951 17.6574 17.6574C17.8951 17.4196 18.0282 17.0968 18.0282 16.7606V5.90229L14.0977 1.97183H13.2394V5.49296C13.2394 6.03746 12.798 6.47887 12.2535 6.47887H5.49296C4.94845 6.47887 4.50704 6.03746 4.50704 5.49296V1.97183H3.23944C2.90325 1.97183 2.58037 2.10493 2.34265 2.34265C2.10493 2.58037 1.97183 2.90325 1.97183 3.23944V16.7606Z" fill="currentColor"/>
</svg>
