<svg preserveAspectRatio="none" width="100%" height="100%" overflow="visible" style="display: block;" viewBox="0 0 4.22535 20" fill="none" xmlns="http://www.w3.org/2000/svg">
<path id="Vector" d="M2.25352 17.8873C2.25352 17.85 2.23922 17.8136 2.21281 17.7872C2.1864 17.7608 2.15003 17.7465 2.11268 17.7465C2.07532 17.7465 2.03896 17.7608 2.01254 17.7872C1.98613 17.8136 1.97183 17.85 1.97183 17.8873C1.97183 17.9247 1.98613 17.961 2.01254 17.9875C2.03896 18.0139 2.07532 18.0282 2.11268 18.0282C2.15003 18.0282 2.1864 18.0139 2.21281 17.9875C2.23922 17.961 2.25352 17.9247 2.25352 17.8873ZM2.25352 10C2.25352 9.96265 2.23922 9.92628 2.21281 9.89987C2.18639 9.87345 2.15003 9.85916 2.11268 9.85916C2.07532 9.85916 2.03896 9.87345 2.01254 9.89987C1.98613 9.92628 1.97183 9.96265 1.97183 10C1.97183 10.0374 1.98613 10.0737 2.01254 10.1001C2.03896 10.1265 2.07532 10.1408 2.11268 10.1408C2.15003 10.1408 2.18639 10.1265 2.21281 10.1001C2.23922 10.0737 2.25352 10.0374 2.25352 10ZM2.25352 2.11268C2.25352 2.07532 2.23922 2.03896 2.21281 2.01254C2.18639 1.98613 2.15003 1.97183 2.11268 1.97183C2.07532 1.97183 2.03896 1.98613 2.01254 2.01254C1.98613 2.03896 1.97183 2.07532 1.97183 2.11268C1.97183 2.15003 1.98613 2.18639 2.01254 2.21281C2.03896 2.23922 2.07532 2.25352 2.11268 2.25352C2.15003 2.25352 2.18639 2.23922 2.21281 2.21281C2.23922 2.18639 2.25352 2.15003 2.25352 2.11268ZM4.22535 17.8873C4.22535 18.4476 4.00316 18.9854 3.60695 19.3816C3.21075 19.7778 2.67299 20 2.11268 20C1.55236 20 1.0146 19.7778 0.618398 19.3816C0.222195 18.9854 0 18.4476 0 17.8873C0 17.327 0.222194 16.7892 0.618398 16.393C1.0146 15.9968 1.55236 15.7746 2.11268 15.7746C2.67299 15.7746 3.21075 15.9968 3.60695 16.393C4.00316 16.7892 4.22535 17.327 4.22535 17.8873ZM4.22535 10C4.22535 10.5603 4.00316 11.0981 3.60695 11.4943C3.21075 11.8905 2.67299 12.1127 2.11268 12.1127C1.55236 12.1127 1.0146 11.8905 0.618398 11.4943C0.222195 11.0981 0 10.5603 0 10C0 9.43968 0.222195 8.90193 0.618398 8.50572C1.0146 8.10952 1.55236 7.88732 2.11268 7.88732C2.67299 7.88732 3.21075 8.10952 3.60695 8.50572C4.00316 8.90193 4.22535 9.43968 4.22535 10ZM4.22535 2.11268C4.22535 2.67299 4.00316 3.21075 3.60695 3.60695C3.21075 4.00316 2.67299 4.22535 2.11268 4.22535C1.55236 4.22535 1.0146 4.00316 0.618398 3.60695C0.222195 3.21075 0 2.67299 0 2.11268C0 1.55236 0.222195 1.0146 0.618398 0.618398C1.0146 0.222195 1.55236 0 2.11268 0C2.67299 1.77863e-08 3.21075 0.222195 3.60695 0.618398C4.00316 1.0146 4.22535 1.55236 4.22535 2.11268Z" fill="currentColor"/>
</svg>
