<svg preserveAspectRatio="none" width="100%" height="100%" overflow="visible" style="display: block;" viewBox="0 0 20 4.22535" fill="none" xmlns="http://www.w3.org/2000/svg">
<path id="Vector" d="M2.25352 2.11268C2.25352 2.07532 2.23922 2.03896 2.21281 2.01254C2.18639 1.98613 2.15003 1.97183 2.11268 1.97183C2.07532 1.97183 2.03896 1.98613 2.01254 2.01254C1.98613 2.03896 1.97183 2.07532 1.97183 2.11268C1.97183 2.15003 1.98613 2.18639 2.01254 2.21281C2.03896 2.23922 2.07532 2.25352 2.11268 2.25352C2.15003 2.25352 2.18639 2.23922 2.21281 2.21281C2.23922 2.18639 2.25352 2.15003 2.25352 2.11268ZM10.1408 2.11268C10.1408 2.07532 10.1265 2.03896 10.1001 2.01254C10.0737 1.98613 10.0374 1.97183 10 1.97183C9.96265 1.97183 9.92628 1.98613 9.89987 2.01254C9.87345 2.03896 9.85916 2.07532 9.85916 2.11268C9.85916 2.15003 9.87345 2.18639 9.89987 2.21281C9.92628 2.23922 9.96265 2.25352 10 2.25352C10.0374 2.25352 10.0737 2.23922 10.1001 2.21281C10.1265 2.18639 10.1408 2.15003 10.1408 2.11268ZM18.0282 2.11268C18.0282 2.07532 18.0139 2.03896 17.9875 2.01254C17.961 1.98613 17.9247 1.97183 17.8873 1.97183C17.85 1.97183 17.8136 1.98613 17.7872 2.01254C17.7608 2.03896 17.7465 2.07532 17.7465 2.11268C17.7465 2.15003 17.7608 2.1864 17.7872 2.21281C17.8136 2.23922 17.85 2.25352 17.8873 2.25352C17.9247 2.25352 17.961 2.23922 17.9875 2.21281C18.0139 2.1864 18.0282 2.15003 18.0282 2.11268ZM4.22535 2.11268C4.22535 2.67299 4.00316 3.21075 3.60695 3.60695C3.21075 4.00316 2.67299 4.22535 2.11268 4.22535C1.55236 4.22535 1.0146 4.00316 0.618398 3.60695C0.222195 3.21075 0 2.67299 0 2.11268C0 1.55236 0.222195 1.0146 0.618398 0.618398C1.0146 0.222195 1.55236 0 2.11268 0C2.67299 1.77863e-08 3.21075 0.222195 3.60695 0.618398C4.00316 1.0146 4.22535 1.55236 4.22535 2.11268ZM12.1127 2.11268C12.1127 2.67299 11.8905 3.21075 11.4943 3.60695C11.0981 4.00316 10.5603 4.22535 10 4.22535C9.43968 4.22535 8.90193 4.00316 8.50572 3.60695C8.10952 3.21075 7.88732 2.67299 7.88732 2.11268C7.88732 1.55236 8.10952 1.0146 8.50572 0.618398C8.90193 0.222195 9.43968 0 10 0C10.5603 1.4229e-07 11.0981 0.222195 11.4943 0.618398C11.8905 1.0146 12.1127 1.55236 12.1127 2.11268ZM20 2.11268C20 2.67299 19.7778 3.21075 19.3816 3.60695C18.9854 4.00316 18.4476 4.22535 17.8873 4.22535C17.327 4.22535 16.7892 4.00316 16.393 3.60695C15.9968 3.21075 15.7746 2.67299 15.7746 2.11268C15.7746 1.55236 15.9968 1.0146 16.393 0.618398C16.7892 0.222195 17.327 0 17.8873 0C18.4476 2.8458e-07 18.9854 0.222194 19.3816 0.618398C19.7778 1.0146 20 1.55236 20 2.11268Z" fill="currentColor"/>
</svg>
