<svg preserveAspectRatio="none" width="100%" height="100%" overflow="visible" style="display: block;" viewBox="0 0 18.9333 20" fill="none" xmlns="http://www.w3.org/2000/svg">
<path id="Vector" d="M0 16.9333V14.8C0 14.2845 0.417868 13.8667 0.933333 13.8667C1.4488 13.8667 1.86667 14.2845 1.86667 14.8V16.9333C1.86667 17.2516 1.99266 17.5572 2.21771 17.7823C2.44275 18.0073 2.74841 18.1333 3.06667 18.1333H15.8667C16.1849 18.1333 16.4906 18.0073 16.7156 17.7823C16.9407 17.5572 17.0667 17.2516 17.0667 16.9333V14.8C17.0667 14.2845 17.4845 13.8667 18 13.8667C18.5155 13.8667 18.9333 14.2845 18.9333 14.8V16.9333C18.9333 17.7467 18.6105 18.527 18.0354 19.1021C17.4603 19.6772 16.68 20 15.8667 20H3.06667C2.25334 20 1.47303 19.6772 0.897917 19.1021C0.322805 18.527 0 17.7467 0 16.9333ZM8.53333 0.933333C8.53333 0.417868 8.9512 0 9.46667 0C9.98213 2.74884e-07 10.4 0.417868 10.4 0.933333V11.4792L14.1396 7.73958C14.5041 7.37509 15.0959 7.37509 15.4604 7.73958C15.8249 8.10407 15.8249 8.69593 15.4604 9.06042L10.1271 14.3938C9.95205 14.5688 9.7142 14.6667 9.46667 14.6667C9.21913 14.6667 8.98128 14.5688 8.80625 14.3938L3.47292 9.06042C3.10843 8.69593 3.10843 8.10407 3.47292 7.73958C3.83741 7.37509 4.42926 7.37509 4.79375 7.73958L8.53333 11.4792V0.933333Z" fill="currentColor"/>
</svg>
