<svg preserveAspectRatio="none" width="100%" height="100%" overflow="visible" style="display: block;" viewBox="0 0 20 20" fill="none" xmlns="http://www.w3.org/2000/svg">
<path id="Vector" d="M0 16.9333V7.33333C3.01715e-05 6.52004 0.322832 5.73967 0.897917 5.16458C1.47302 4.58951 2.25336 4.26667 3.06667 4.26667H4.13333C4.64876 4.26667 5.06661 4.68459 5.06667 5.2C5.06667 5.71547 4.6488 6.13333 4.13333 6.13333H3.06667C2.74841 6.13333 2.44275 6.26037 2.21771 6.48542C1.99298 6.71039 1.8667 7.01533 1.86667 7.33333V16.9333C1.86667 17.2516 1.9927 17.5573 2.21771 17.7823C2.44275 18.0073 2.74841 18.1333 3.06667 18.1333H12.6667C12.9849 18.1333 13.2906 18.0073 13.5156 17.7823C13.7406 17.5573 13.8667 17.2516 13.8667 16.9333V15.8667C13.8667 15.3513 14.2846 14.9333 14.8 14.9333C15.3154 14.9333 15.7333 15.3513 15.7333 15.8667V16.9333C15.7333 17.7466 15.4105 18.527 14.8354 19.1021C14.2603 19.6772 13.48 20 12.6667 20H3.06667C2.25334 20 1.47303 19.6772 0.897917 19.1021C0.322841 18.527 0 17.7466 0 16.9333ZM18.1333 3.17396C18.1333 2.82738 17.9961 2.49403 17.751 2.24896C17.5061 2.00402 17.1735 1.86678 16.8271 1.86667C16.4807 1.86667 16.1481 2.00419 15.9031 2.24896L15.901 2.25104L15.0677 3.08125L16.9188 4.93229L17.75 4.09896L17.751 4.09792C17.996 3.85297 18.1332 3.52035 18.1333 3.17396ZM7.2 10.9198V12.8H9.07917L15.601 6.25521L13.7448 4.39896L7.2 10.9198ZM20 3.17396C19.9999 4.01496 19.6652 4.8207 19.0708 5.41563L17.7104 6.78229C17.6766 6.8331 17.6386 6.88227 17.5938 6.92708C17.55 6.97081 17.5015 7.00739 17.4521 7.04063L10.1281 14.3927C9.953 14.5684 9.71474 14.6667 9.46667 14.6667H6.26667C5.7512 14.6667 5.33333 14.2488 5.33333 13.7333V10.5333C5.33336 10.2853 5.4326 10.047 5.60833 9.87188L12.9552 2.55C12.9888 2.49949 13.0284 2.45187 13.0729 2.40729C13.1186 2.36163 13.1679 2.32068 13.2198 2.28646L14.5823 0.930208C15.1774 0.335072 15.9854 0 16.8271 0C17.6686 0.000110431 18.4758 0.334164 19.0708 0.929167C19.666 1.5243 20 2.33231 20 3.17396Z" fill="currentColor"/>
</svg>
