<svg preserveAspectRatio="none" width="100%" height="100%" overflow="visible" style="display: block;" viewBox="0 0 20 20" fill="none" xmlns="http://www.w3.org/2000/svg">
<path id="Vector" d="M0 16.7606V5.49296C0 4.63381 0.340991 3.80954 0.948504 3.20202C1.55602 2.59451 2.38028 2.25352 3.23944 2.25352H10C10.5445 2.25352 10.9859 2.69493 10.9859 3.23944C10.9859 3.78394 10.5445 4.22535 10 4.22535H3.23944C2.90325 4.22535 2.58037 4.35845 2.34265 4.59617C2.10493 4.83389 1.97183 5.15677 1.97183 5.49296V16.7606C1.97183 17.0968 2.10493 17.4196 2.34265 17.6574C2.58037 17.8951 2.90325 18.0282 3.23944 18.0282H14.507C14.8432 18.0282 15.1661 17.8951 15.4038 17.6574C15.6416 17.4196 15.7746 17.0968 15.7746 16.7606V10C15.7746 9.45549 16.2161 9.01408 16.7606 9.01408C17.3051 9.01409 17.7465 9.45549 17.7465 10V16.7606C17.7465 17.6197 17.4055 18.444 16.798 19.0515C16.1905 19.659 15.3662 20 14.507 20H3.23944C2.38028 20 1.55602 19.659 0.948504 19.0515C0.340991 18.444 0 17.6197 0 16.7606ZM20 6.61972C20 7.16422 19.5586 7.60563 19.0141 7.60563C18.4696 7.60563 18.0282 7.16422 18.0282 6.61972V3.36708L9.57086 11.8244C9.18584 12.2094 8.56064 12.2094 8.17562 11.8244C7.79059 11.4394 7.79059 10.8142 8.17562 10.4291L16.6329 1.97183H13.3803C12.8358 1.97183 12.3944 1.53042 12.3944 0.985916C12.3944 0.441409 12.8358 0 13.3803 0H19.0141C19.5586 5.80742e-07 20 0.44141 20 0.985916V6.61972Z" fill="currentColor"/>
</svg>
