<svg preserveAspectRatio="none" width="100%" height="100%" overflow="visible" style="display: block;" viewBox="0 0 20 20" fill="none" xmlns="http://www.w3.org/2000/svg">
<path id="Vector" d="M0.259515 0.259515C0.605534 -0.0865048 1.1674 -0.0865048 1.51342 0.259515L15.2994 14.0455C15.3441 14.082 15.3854 14.1233 15.423 14.1691L19.7405 18.4866C20.0865 18.8326 20.0865 19.3945 19.7405 19.7405C19.3945 20.0865 18.8326 20.0865 18.4866 19.7405L14.5864 15.8403C13.1761 16.5837 11.6015 16.9703 10 16.9607V16.9617L9.99703 16.9607L9.99407 16.9617V16.9607C5.94778 16.9585 2.66207 14.6809 0.127004 10.4559C-0.0413513 10.1753 -0.0413513 9.82472 0.127004 9.54413C1.23351 7.69998 2.48306 6.22139 3.88772 5.14162L0.259515 1.51342C-0.0865048 1.1674 -0.0865048 0.605534 0.259515 0.259515ZM5.15349 6.40739C4.00426 7.24732 2.92596 8.43484 1.92875 9.99901C4.1955 13.5564 6.8881 15.1897 10 15.1897H10.0059C11.1306 15.1971 12.239 14.9644 13.2603 14.5142L11.333 12.5869C10.9243 12.7977 10.4684 12.9122 10 12.9123C9.22787 12.9124 8.48722 12.6057 7.94115 12.0598C7.39526 11.5141 7.088 10.7739 7.08774 10.002C7.08766 9.53316 7.20211 9.07606 7.41309 8.66699L5.15349 6.40739ZM10 3.03827C14.049 3.03827 17.3367 5.31702 19.873 9.54413C20.0414 9.82472 20.0414 10.1753 19.873 10.4559C19.1711 11.6256 18.4118 12.6478 17.5926 13.5145C17.2565 13.8701 16.6953 13.8862 16.3397 13.5501C15.9842 13.2139 15.969 12.6528 16.3051 12.2972C16.9192 11.6474 17.5077 10.8824 18.0703 10C15.8037 6.44343 13.1116 4.81035 10 4.81035H9.99802C9.43893 4.80891 8.88072 4.86456 8.33275 4.97549C7.8532 5.07246 7.38557 4.76184 7.28849 4.28229C7.19147 3.80271 7.50212 3.33511 7.98169 3.23803C8.64601 3.10358 9.32222 3.03668 10 3.03827ZM8.86674 10.1206C8.89401 10.3789 9.00872 10.6217 9.19406 10.8069C9.3789 10.9917 9.62093 11.1047 9.87837 11.1323L8.86674 10.1206Z" fill="currentColor"/>
</svg>
