<svg preserveAspectRatio="none" width="100%" height="100%" overflow="visible" style="display: block;" viewBox="0 0 20 13.9245" fill="none" xmlns="http://www.w3.org/2000/svg">
<path id="Vector" d="M10 0C14.0493 0 17.3372 2.27891 19.8737 6.50633C20.0421 6.78695 20.0421 7.13754 19.8737 7.41815C17.3372 11.6456 14.0493 13.9245 10 13.9245C5.95069 13.9245 2.66277 11.6456 0.126276 7.41815C-0.042092 7.13754 -0.042092 6.78695 0.126276 6.50633C2.66277 2.27891 5.95069 0 10 0ZM10 1.77221C6.88808 1.77221 4.19498 3.4051 1.92815 6.96224C4.19498 10.5194 6.88808 12.1523 10 12.1523C13.1118 12.1523 15.8041 10.5191 18.0709 6.96224C15.8041 3.40541 13.1118 1.77221 10 1.77221ZM11.1393 6.96224C11.1393 6.66009 11.0197 6.3699 10.806 6.15624C10.5923 5.94259 10.3022 5.82297 10 5.82297C9.69785 5.82297 9.40766 5.94259 9.194 6.15624C8.98035 6.3699 8.86072 6.66009 8.86072 6.96224C8.86072 7.2644 8.98035 7.55458 9.194 7.76824C9.40766 7.9819 9.69785 8.10152 10 8.10152C10.3022 8.10152 10.5923 7.9819 10.806 7.76824C11.0197 7.55458 11.1393 7.2644 11.1393 6.96224ZM12.9115 6.96224C12.9115 7.73441 12.605 8.47524 12.059 9.02124C11.513 9.56725 10.7722 9.87372 10 9.87372C9.22783 9.87372 8.487 9.56725 7.941 9.02124C7.39499 8.47524 7.08852 7.73441 7.08852 6.96224C7.08852 6.19007 7.39499 5.44925 7.941 4.90324C8.487 4.35723 9.22783 4.05076 10 4.05076C10.7722 4.05076 11.513 4.35723 12.059 4.90324C12.605 5.44925 12.9115 6.19007 12.9115 6.96224Z" fill="currentColor"/>
</svg>
