<svg preserveAspectRatio="none" width="100%" height="100%" overflow="visible" style="display: block;" viewBox="0 0 15.9494 20" fill="none" xmlns="http://www.w3.org/2000/svg">
<path id="Vector" d="M4.70827 9.14359C5.18108 9.01754 5.66701 9.29878 5.79312 9.77156L6.47053 12.3151L7.15684 10.6715L7.21717 10.5538C7.37599 10.2915 7.66172 10.1266 7.97468 10.1266C8.33226 10.1266 8.65486 10.3415 8.79252 10.6715L9.47785 12.3151L10.1563 9.77156C10.2824 9.29878 10.7683 9.01754 11.2411 9.14359C11.7139 9.2697 11.9951 9.75563 11.8691 10.2284L10.5192 15.2917C10.4214 15.6583 10.1007 15.9219 9.72211 15.9474C9.34367 15.9728 8.99096 15.7545 8.84494 15.4045L7.97468 13.3159L7.10443 15.4045C6.95841 15.7545 6.6057 15.9728 6.22725 15.9474C5.8487 15.9219 5.52797 15.6583 5.43018 15.2917L4.0803 10.2284C3.95425 9.75563 4.23549 9.2697 4.70827 9.14359ZM15.9494 17.0886C15.9494 17.8608 15.6429 18.6016 15.0969 19.1475C14.5509 19.6935 13.8101 20 13.038 20H2.91139C2.13924 20 1.39844 19.6935 0.852453 19.1475C0.306461 18.6016 0 17.8608 0 17.0886V2.91139C0 2.13924 0.30646 1.39844 0.852453 0.852453C1.39844 0.30646 2.13924 0 2.91139 0H10C10.235 0 10.4608 0.0929266 10.627 0.259098L15.6903 5.32239C15.8564 5.48856 15.9494 5.71437 15.9494 5.94937V17.0886ZM10.8861 4.93671C10.8861 4.97028 10.8989 5.00296 10.9227 5.0267C10.9464 5.05044 10.9791 5.06329 11.0127 5.06329H12.9233L10.8861 3.02611V4.93671ZM1.77215 17.0886C1.77215 17.3908 1.89177 17.6809 2.10542 17.8946C2.31907 18.1082 2.60925 18.2278 2.91139 18.2278H13.038C13.3401 18.2278 13.6303 18.1082 13.8439 17.8946C14.0576 17.6809 14.1772 17.3908 14.1772 17.0886V6.83544H11.0127C10.5091 6.83544 10.0258 6.63575 9.6697 6.27967C9.31362 5.92359 9.11392 5.44029 9.11392 4.93671V1.77215H2.91139C2.60925 1.77215 2.31907 1.89177 2.10542 2.10542C1.89177 2.31907 1.77215 2.60925 1.77215 2.91139V17.0886Z" fill="currentColor"/>
</svg>
