<svg preserveAspectRatio="none" width="100%" height="100%" overflow="visible" style="display: block;" viewBox="0 0 20 17.7529" fill="none" xmlns="http://www.w3.org/2000/svg">
<path id="Vector" d="M2.69665 13.3709C2.69665 13.1027 2.59047 12.8451 2.40082 12.6555C2.21118 12.4658 1.9536 12.3596 1.6854 12.3596H1.57304V16.1799H1.6854C1.9536 16.1799 2.21118 16.0737 2.40082 15.8841C2.59047 15.6944 2.69665 15.4368 2.69665 15.1686V13.3709ZM8.08994 12.9214C8.08994 12.7724 8.03115 12.6291 7.92579 12.5238C7.82043 12.4184 7.67714 12.3596 7.52814 12.3596C7.37914 12.3596 7.23585 12.4184 7.13049 12.5238C7.02513 12.6291 6.96634 12.7724 6.96634 12.9214V15.6181C6.96634 15.7671 7.02513 15.9104 7.13049 16.0157C7.23585 16.1211 7.37914 16.1799 7.52814 16.1799C7.67714 16.1799 7.82043 16.1211 7.92579 16.0157C8.03115 15.9104 8.08994 15.7671 8.08994 15.6181V12.9214ZM18.5105 11.2211C18.7049 10.8328 19.1772 10.6758 19.5656 10.87C19.9539 11.0644 20.1109 11.5367 19.9167 11.9251L18.744 14.2698L19.9167 16.6144C20.1109 17.0028 19.9539 17.4752 19.5656 17.6695C19.1772 17.8637 18.7049 17.7067 18.5105 17.3184L17.8653 16.028L17.2201 17.3184C17.0257 17.7067 16.5534 17.8637 16.165 17.6695C15.7767 17.4752 15.6196 17.0028 15.8138 16.6144L16.9857 14.2698L15.8138 11.9251C15.6196 11.5367 15.7767 11.0644 16.165 10.87C16.5534 10.6758 17.0257 10.8328 17.2201 11.2211L17.8653 12.5115L18.5105 11.2211ZM13.4832 12.9214C13.4832 12.7724 13.4244 12.6291 13.3191 12.5238C13.2137 12.4184 13.0704 12.3596 12.9214 12.3596C12.7724 12.3596 12.6291 12.4184 12.5238 12.5238C12.4184 12.6291 12.3596 12.7724 12.3596 12.9214V15.6181C12.3596 15.7671 12.4184 15.9104 12.5238 16.0157C12.6291 16.1211 12.7724 16.1799 12.9214 16.1799C13.0704 16.1799 13.2137 16.1211 13.3191 16.0157C13.4244 15.9104 13.4832 15.7671 13.4832 15.6181C13.4832 15.1837 13.8354 14.8316 14.2698 14.8316C14.7041 14.8316 15.0563 15.1837 15.0563 15.6181C15.0563 16.1843 14.8316 16.7276 14.4313 17.1279C14.0309 17.5283 13.4876 17.7529 12.9214 17.7529C12.3552 17.7529 11.812 17.5283 11.4116 17.1279C11.0112 16.7276 10.7866 16.1843 10.7866 15.6181V12.9214C10.7866 12.3552 11.0112 11.812 11.4116 11.4116C11.812 11.0112 12.3552 10.7866 12.9214 10.7866C13.4876 10.7866 14.0309 11.0112 14.4313 11.4116C14.8316 11.812 15.0563 12.3552 15.0563 12.9214C15.0563 13.3558 14.7041 13.708 14.2698 13.708C13.8354 13.708 13.4832 13.3558 13.4832 12.9214ZM2.69665 8.87646V2.58429C2.69665 1.89889 2.96868 1.24132 3.45332 0.756676C3.93797 0.272028 4.59554 0 5.28093 0H11.5731C11.7817 0 11.9821 0.082486 12.1296 0.229987L16.6241 4.7244C16.7716 4.8719 16.854 5.07233 16.854 5.28093V8.87646C16.854 9.31085 16.5019 9.66298 16.0675 9.66298C15.6331 9.66298 15.281 9.31085 15.281 8.87646V6.06745H12.472C12.025 6.06745 11.596 5.8902 11.2799 5.57412C10.9638 5.25805 10.7866 4.82905 10.7866 4.38205V1.57304H5.28093C5.01273 1.57304 4.75516 1.67922 4.56551 1.86887C4.37587 2.05851 4.26969 2.31609 4.26969 2.58429V8.87646C4.26969 9.31085 3.91755 9.66298 3.48317 9.66298C3.04878 9.66298 2.69665 9.31085 2.69665 8.87646ZM4.26969 15.1686C4.26969 15.854 3.99766 16.5116 3.51301 16.9962C3.02837 17.4809 2.3708 17.7529 1.6854 17.7529H0.786522C0.352138 17.7529 0 17.4008 0 16.9664V11.5731C0 11.1387 0.352138 10.7866 0.786522 10.7866H1.6854C2.3708 10.7866 3.02837 11.0586 3.51301 11.5433C3.99766 12.0279 4.26969 12.6855 4.26969 13.3709V15.1686ZM9.66298 15.6181C9.66298 16.1843 9.43834 16.7276 9.03798 17.1279C8.63762 17.5283 8.09434 17.7529 7.52814 17.7529C6.96194 17.7529 6.41866 17.5283 6.0183 17.1279C5.61794 16.7276 5.39329 16.1843 5.39329 15.6181V12.9214C5.39329 12.3552 5.61794 11.812 6.0183 11.4116C6.41866 11.0112 6.96194 10.7866 7.52814 10.7866C8.09433 10.7866 8.63762 11.0112 9.03798 11.4116C9.43834 11.812 9.66298 12.3552 9.66298 12.9214V15.6181ZM12.3596 4.38205C12.3596 4.41185 12.371 4.44086 12.3921 4.46193C12.4132 4.483 12.4422 4.49441 12.472 4.49441H14.1679L12.3596 2.68611V4.38205Z" fill="currentColor"/>
</svg>
