<svg preserveAspectRatio="none" width="100%" height="100%" overflow="visible" style="display: block;" viewBox="0 0 17.9748 20" fill="none" xmlns="http://www.w3.org/2000/svg">
<path id="Vector" d="M16.248 12.7581C16.4027 12.294 16.9043 12.0428 17.3685 12.1974C17.8326 12.3521 18.0837 12.8537 17.9292 13.3178L15.9039 19.3938C15.7833 19.7556 15.4447 20 15.0633 20C14.6819 20 14.3433 19.7556 14.2227 19.3938L12.1974 13.3178C12.0428 12.8537 12.294 12.3521 12.7581 12.1974C13.2223 12.0428 13.7238 12.294 13.8786 12.7581L15.0633 16.3123L16.248 12.7581ZM3.03797 14.557C3.03797 14.3891 2.97174 14.2277 2.85305 14.109C2.73435 13.9903 2.57292 13.9241 2.40506 13.9241C2.2372 13.9241 2.07577 13.9903 1.95708 14.109C1.83839 14.2277 1.77215 14.3891 1.77215 14.557V17.5949C1.77215 17.7628 1.83839 17.9242 1.95708 18.0429C2.07578 18.1616 2.23721 18.2278 2.40506 18.2278C2.57292 18.2278 2.73435 18.1616 2.85305 18.0429C2.97174 17.9242 3.03797 17.7628 3.03797 17.5949C3.03797 17.1056 3.43468 16.7089 3.92405 16.7089C4.41342 16.7089 4.81013 17.1056 4.81013 17.5949C4.81013 18.2328 4.55705 18.8448 4.10601 19.2959C3.65498 19.7469 3.04293 20 2.40506 20C1.7672 20 1.15515 19.7469 0.704114 19.2959C0.253077 18.8448 0 18.2328 0 17.5949V14.557C0 13.9191 0.253077 13.3071 0.704114 12.856C1.15515 12.405 1.7672 12.1519 2.40506 12.1519C3.04293 12.1519 3.65498 12.405 4.10601 12.856C4.55705 13.3071 4.81013 13.9191 4.81013 14.557C4.81013 15.0463 4.41342 15.443 3.92405 15.443C3.43468 15.443 3.03797 15.0463 3.03797 14.557ZM1.01266 10V2.91139C1.01266 2.13924 1.31912 1.39844 1.86511 0.852453C2.4111 0.30646 3.1519 0 3.92405 0H11.0127L11.1007 0.0039557C11.3034 0.0241733 11.4943 0.113792 11.6396 0.259098L16.7029 5.32239C16.8691 5.48856 16.962 5.71437 16.962 5.94937V10C16.962 10.4894 16.5653 10.8861 16.0759 10.8861C15.5866 10.8861 15.1899 10.4894 15.1899 10V6.83544H12.0253C11.5217 6.83544 11.0384 6.63575 10.6824 6.27967C10.3263 5.92359 10.1266 5.44029 10.1266 4.93671V1.77215H3.92405C3.62191 1.77215 3.33173 1.89177 3.11808 2.10542C2.90443 2.31907 2.78481 2.60925 2.78481 2.91139V10C2.78481 10.4894 2.3881 10.8861 1.89873 10.8861C1.40937 10.8861 1.01266 10.4894 1.01266 10ZM10.8861 13.7975C10.8861 14.2868 10.4894 14.6835 10 14.6835C9.55366 14.6835 9.18529 14.3534 9.12381 13.9241H7.97468C7.94111 13.9241 7.90843 13.9369 7.88469 13.9606C7.86095 13.9844 7.8481 14.0171 7.8481 14.0506V15.0633C7.8481 15.0969 7.86095 15.1295 7.88469 15.1533C7.90843 15.177 7.94111 15.1899 7.97468 15.1899H8.98734C9.49092 15.1899 9.97422 15.3896 10.3303 15.7456C10.6864 16.1017 10.8861 16.585 10.8861 17.0886V18.1013C10.8861 18.6048 10.6864 19.0881 10.3303 19.4442C9.97422 19.8003 9.49092 20 8.98734 20H7.72152C6.81291 20 6.07595 19.263 6.07595 18.3544C6.07595 17.8651 6.47266 17.4684 6.96203 17.4684C7.40837 17.4684 7.77674 17.7985 7.83821 18.2278H8.98734C9.02092 18.2278 9.0536 18.215 9.07733 18.1913C9.10107 18.1675 9.11392 18.1348 9.11392 18.1013V17.0886C9.11392 17.055 9.10107 17.0224 9.07733 16.9986C9.0536 16.9749 9.02092 16.962 8.98734 16.962H7.97468C7.47111 16.962 6.98781 16.7623 6.63172 16.4063C6.27564 16.0502 6.07595 15.5669 6.07595 15.0633V14.0506C6.07595 13.5471 6.27564 13.0638 6.63172 12.7077C6.98781 12.3516 7.47111 12.1519 7.97468 12.1519H9.24051C9.62253 12.1519 9.99095 12.2846 10.2838 12.5247L10.4045 12.6335L10.5133 12.7542C10.7533 13.047 10.8861 13.4154 10.8861 13.7975ZM11.8987 4.93671C11.8987 4.97028 11.9116 5.00296 11.9353 5.0267C11.9591 5.05044 11.9917 5.06329 12.0253 5.06329H13.9359L11.8987 3.02611V4.93671Z" fill="currentColor"/>
</svg>
