<svg preserveAspectRatio="none" width="100%" height="100%" overflow="visible" style="display: block;" viewBox="0 0 16.962 20" fill="none" xmlns="http://www.w3.org/2000/svg">
<path id="Vector" d="M3.03797 14.557C3.03797 14.3891 2.97174 14.2277 2.85305 14.109C2.73435 13.9903 2.57292 13.9241 2.40506 13.9241H1.77215V15.1899H2.40506C2.57292 15.1899 2.73435 15.1236 2.85305 15.0049C2.97174 14.8863 3.03797 14.7248 3.03797 14.557ZM9.11392 15.0633C9.11392 14.7611 8.99431 14.471 8.78066 14.2573C8.56701 14.0437 8.27683 13.9241 7.97468 13.9241H7.8481V18.2278H7.97468C8.27683 18.2278 8.56701 18.1082 8.78066 17.8946C8.99431 17.6809 9.11392 17.3908 9.11392 17.0886V15.0633ZM12.1519 19.1139V13.038C12.1519 12.5486 12.5486 12.1519 13.038 12.1519H16.0759C16.5653 12.1519 16.962 12.5486 16.962 13.038C16.962 13.5273 16.5653 13.9241 16.0759 13.9241H13.9241V15.1899H15.0633C15.5527 15.1899 15.9494 15.5866 15.9494 16.0759C15.9494 16.5653 15.5527 16.962 15.0633 16.962H13.9241V19.1139C13.9241 19.6033 13.5273 20 13.038 20C12.5486 20 12.1519 19.6033 12.1519 19.1139ZM0 10V2.91139C0 2.13924 0.30646 1.39844 0.852453 0.852453C1.39844 0.30646 2.13924 0 2.91139 0H10C10.235 0 10.4608 0.0929266 10.627 0.259098L15.6903 5.32239C15.8564 5.48856 15.9494 5.71437 15.9494 5.94937V10C15.9494 10.4894 15.5527 10.8861 15.0633 10.8861C14.5739 10.8861 14.1772 10.4894 14.1772 10V6.83544H11.0127C10.5091 6.83544 10.0258 6.63575 9.6697 6.27967C9.31362 5.92359 9.11392 5.44029 9.11392 4.93671V1.77215H2.91139C2.60925 1.77215 2.31907 1.89177 2.10542 2.10542C1.89177 2.31907 1.77215 2.60925 1.77215 2.91139V10C1.77215 10.4894 1.37544 10.8861 0.886076 10.8861C0.39671 10.8861 0 10.4894 0 10ZM10.8861 17.0886C10.8861 17.8608 10.5796 18.6016 10.0336 19.1475C9.48763 19.6935 8.74683 20 7.97468 20H6.96203C6.47266 20 6.07595 19.6033 6.07595 19.1139V13.038C6.07595 12.5486 6.47266 12.1519 6.96203 12.1519H7.97468C8.74683 12.1519 9.48763 12.4584 10.0336 13.0044C10.5796 13.5503 10.8861 14.2911 10.8861 15.0633V17.0886ZM4.81013 14.557C4.81013 15.1948 4.55705 15.8069 4.10601 16.2579C3.65498 16.7089 3.04293 16.962 2.40506 16.962H1.77215V19.1139C1.77215 19.6033 1.37544 20 0.886076 20C0.39671 20 0 19.6033 0 19.1139V13.038C0 12.5486 0.39671 12.1519 0.886076 12.1519H2.40506C3.04293 12.1519 3.65498 12.405 4.10601 12.856C4.55705 13.3071 4.81013 13.9191 4.81013 14.557ZM10.8861 4.93671C10.8861 4.97028 10.8989 5.00296 10.9227 5.0267C10.9464 5.05044 10.9791 5.06329 11.0127 5.06329H12.9233L10.8861 3.02611V4.93671Z" fill="currentColor"/>
</svg>
