<svg preserveAspectRatio="none" width="100%" height="100%" overflow="visible" style="display: block;" viewBox="0 0 15.9494 20" fill="none" xmlns="http://www.w3.org/2000/svg">
<path id="Vector" d="M15.0633 18.2278C15.5527 18.2278 15.9494 18.6246 15.9494 19.1139C15.9494 19.6033 15.5527 20 15.0633 20H0.886076C0.39671 20 0 19.6033 0 19.1139C0 18.6246 0.39671 18.2278 0.886076 18.2278H15.0633ZM15.0633 15.1899C15.5527 15.1899 15.9494 15.5866 15.9494 16.0759C15.9494 16.5653 15.5527 16.962 15.0633 16.962H0.886076C0.39671 16.962 0 16.5653 0 16.0759C0 15.5866 0.39671 15.1899 0.886076 15.1899H15.0633ZM15.0633 12.1519C15.5527 12.1519 15.9494 12.5486 15.9494 13.038C15.9494 13.5273 15.5527 13.9241 15.0633 13.9241H0.886076C0.39671 13.9241 0 13.5273 0 13.038C0 12.5486 0.39671 12.1519 0.886076 12.1519H15.0633ZM0 10V2.91139C0 2.13924 0.30646 1.39844 0.852453 0.852453C1.39844 0.30646 2.13924 0 2.91139 0H10C10.235 0 10.4608 0.0929266 10.627 0.259098L15.6903 5.32239C15.8564 5.48856 15.9494 5.71437 15.9494 5.94937V10C15.9494 10.4894 15.5527 10.8861 15.0633 10.8861C14.5739 10.8861 14.1772 10.4894 14.1772 10V6.83544H11.0127C10.5091 6.83544 10.0258 6.63575 9.6697 6.27967C9.31362 5.92359 9.11392 5.44029 9.11392 4.93671V1.77215H2.91139C2.60925 1.77215 2.31907 1.89177 2.10542 2.10542C1.89177 2.31907 1.77215 2.60925 1.77215 2.91139V10C1.77215 10.4894 1.37544 10.8861 0.886076 10.8861C0.39671 10.8861 0 10.4894 0 10ZM10.8861 4.93671C10.8861 4.97028 10.8989 5.00296 10.9227 5.0267C10.9464 5.05044 10.9791 5.06329 11.0127 5.06329H12.9233L10.8861 3.02611V4.93671Z" fill="currentColor"/>
</svg>
