<svg preserveAspectRatio="none" width="100%" height="100%" overflow="visible" style="display: block;" viewBox="0 0 15.9494 20" fill="none" xmlns="http://www.w3.org/2000/svg">
<path id="Vector" d="M3.92405 12.1519C4.23113 12.1519 4.51616 12.311 4.67761 12.5722C4.83906 12.8334 4.85352 13.1599 4.71618 13.4345L2.31903 18.2278H3.92405C4.41342 18.2278 4.81013 18.6246 4.81013 19.1139C4.81013 19.6033 4.41342 20 3.92405 20H0.886076C0.578998 20 0.293969 19.8409 0.132516 19.5797C-0.0289331 19.3185 -0.0433889 18.992 0.0939478 18.7174L2.4911 13.9241H0.886076C0.39671 13.9241 0 13.5273 0 13.038C0 12.5486 0.39671 12.1519 0.886076 12.1519H3.92405ZM7.08861 19.1139V13.038C7.08861 12.5486 7.48532 12.1519 7.97468 12.1519C8.46405 12.1519 8.86076 12.5486 8.86076 13.038V19.1139C8.86076 19.6033 8.46405 20 7.97468 20C7.48532 20 7.08861 19.6033 7.08861 19.1139ZM14.1772 14.557C14.1772 14.3891 14.111 14.2277 13.9923 14.109C13.8736 13.9903 13.7122 13.9241 13.5443 13.9241H12.9114V15.1899H13.5443C13.7122 15.1899 13.8736 15.1236 13.9923 15.0049C14.111 14.8862 14.1772 14.7248 14.1772 14.557ZM0 10V2.91139C0 2.13924 0.30646 1.39844 0.852453 0.852453C1.39844 0.30646 2.13924 0 2.91139 0H10C10.235 0 10.4608 0.0929266 10.627 0.259098L15.6903 5.32239C15.8564 5.48856 15.9494 5.71437 15.9494 5.94937V10C15.9494 10.4894 15.5527 10.8861 15.0633 10.8861C14.5739 10.8861 14.1772 10.4894 14.1772 10V6.83544H11.0127C10.5091 6.83544 10.0258 6.63575 9.6697 6.27967C9.31362 5.92359 9.11392 5.44029 9.11392 4.93671V1.77215H2.91139C2.60925 1.77215 2.31907 1.89177 2.10542 2.10542C1.89177 2.31907 1.77215 2.60925 1.77215 2.91139V10C1.77215 10.4894 1.37544 10.8861 0.886076 10.8861C0.39671 10.8861 0 10.4894 0 10ZM15.9494 14.557C15.9494 15.1948 15.6963 15.8069 15.2453 16.2579C14.7942 16.7089 14.1822 16.962 13.5443 16.962H12.9114V19.1139C12.9114 19.6033 12.5147 20 12.0253 20C11.536 20 11.1392 19.6033 11.1392 19.1139V13.038C11.1392 12.5486 11.536 12.1519 12.0253 12.1519H13.5443C14.1822 12.1519 14.7942 12.405 15.2453 12.856C15.6963 13.307 15.9494 13.9191 15.9494 14.557ZM10.8861 4.93671C10.8861 4.97028 10.8989 5.00296 10.9227 5.0267C10.9464 5.05044 10.9791 5.06329 11.0127 5.06329H12.9233L10.8861 3.02611V4.93671Z" fill="currentColor"/>
</svg>
