<svg preserveAspectRatio="none" width="100%" height="100%" overflow="visible" style="display: block;" viewBox="0 0 15.9494 20" fill="none" xmlns="http://www.w3.org/2000/svg">
<path id="Vector" d="M9.30775 9.4462C9.61346 9.06407 10.1717 9.00205 10.5538 9.30775C10.9359 9.61346 10.998 10.1717 10.6922 10.5538L9.10997 12.5316L10.6922 14.5095C10.998 14.8916 10.9359 15.4498 10.5538 15.7555C10.1717 16.0612 9.61346 15.9992 9.30775 15.6171L7.97468 13.9508L6.64161 15.6171C6.33591 15.9992 5.7777 16.0612 5.39557 15.7555C5.01344 15.4498 4.95142 14.8916 5.25712 14.5095L6.8394 12.5316L5.25712 10.5538C4.95142 10.1717 5.01344 9.61346 5.39557 9.30775C5.7777 9.00205 6.33591 9.06407 6.64161 9.4462L7.97468 11.1125L9.30775 9.4462ZM15.9494 17.0886C15.9494 17.8608 15.6429 18.6016 15.0969 19.1475C14.5509 19.6935 13.8101 20 13.038 20H2.91139C2.13924 20 1.39844 19.6935 0.852453 19.1475C0.306461 18.6016 0 17.8608 0 17.0886V2.91139C0 2.13924 0.30646 1.39844 0.852453 0.852453C1.39844 0.30646 2.13924 0 2.91139 0H10C10.235 0 10.4608 0.0929266 10.627 0.259098L15.6903 5.32239C15.8564 5.48856 15.9494 5.71437 15.9494 5.94937V17.0886ZM10.8861 4.93671C10.8861 4.97028 10.8989 5.00296 10.9227 5.0267C10.9464 5.05044 10.9791 5.06329 11.0127 5.06329H12.9233L10.8861 3.02611V4.93671ZM1.77215 17.0886C1.77215 17.3908 1.89177 17.6809 2.10542 17.8946C2.31907 18.1082 2.60925 18.2278 2.91139 18.2278H13.038C13.3401 18.2278 13.6303 18.1082 13.8439 17.8946C14.0576 17.6809 14.1772 17.3908 14.1772 17.0886V6.83544H11.0127C10.5091 6.83544 10.0258 6.63575 9.6697 6.27967C9.31362 5.92359 9.11392 5.44029 9.11392 4.93671V1.77215H2.91139C2.60925 1.77215 2.31907 1.89177 2.10542 2.10542C1.89177 2.31907 1.77215 2.60925 1.77215 2.91139V17.0886Z" fill="currentColor"/>
</svg>
