<svg preserveAspectRatio="none" width="100%" height="100%" overflow="visible" style="display: block;" viewBox="0 0 17.1085 20" fill="none" xmlns="http://www.w3.org/2000/svg">
<path id="Vector" d="M13.4937 14.819C13.4937 14.4036 13.329 14.0049 13.0353 13.7111C12.7416 13.4174 12.3429 13.2527 11.9275 13.2527C11.5121 13.2527 11.1133 13.4174 10.8196 13.7111C10.5259 14.0049 10.3612 14.4036 10.3612 14.819C10.3612 15.2344 10.5259 15.6331 10.8196 15.9268C11.1133 16.2205 11.5121 16.3852 11.9275 16.3852C12.3429 16.3852 12.7416 16.2205 13.0353 15.9268C13.329 15.6331 13.4937 15.2344 13.4937 14.819ZM0 16.2647V2.77103C0 2.03611 0.291685 1.33102 0.811354 0.811354C1.33102 0.291685 2.03611 0 2.77103 0H9.51788L9.60165 0.00376498C9.79457 0.0230079 9.97633 0.108306 10.1146 0.246606L14.9338 5.06579C15.092 5.22395 15.1804 5.43886 15.1804 5.66254V9.9998C15.1804 10.4656 14.8028 10.8432 14.3371 10.8432C13.8713 10.8432 13.4937 10.4656 13.4937 9.9998V6.50589H10.4817C10.0024 6.50589 9.54242 6.31583 9.2035 5.97691C8.86459 5.638 8.67452 5.178 8.67452 4.6987V1.68671H2.77103C2.48345 1.68671 2.20726 1.80056 2.00391 2.00391C1.80056 2.20726 1.68671 2.48345 1.68671 2.77103V16.2647C1.68671 16.5523 1.80056 16.8285 2.00391 17.0318C2.20726 17.2352 2.48345 17.349 2.77103 17.349H7.59021C8.05598 17.349 8.43356 17.7266 8.43356 18.1924C8.43356 18.6582 8.05598 19.0358 7.59021 19.0358H2.77103C2.03611 19.0358 1.33102 18.7441 0.811354 18.2244C0.291686 17.7047 0 16.9997 0 16.2647ZM15.1804 14.819C15.1804 15.3941 15.0269 15.9528 14.7446 16.4426L16.8615 18.5595C17.1908 18.8888 17.1908 19.4236 16.8615 19.753C16.5321 20.0823 15.9973 20.0823 15.668 19.753L13.5511 17.6361C13.0613 17.9184 12.5026 18.0719 11.9275 18.0719C11.0647 18.0719 10.2371 17.7294 9.62706 17.1194C9.01702 16.5093 8.67452 15.6817 8.67452 14.819C8.67452 13.9562 9.01702 13.1286 9.62706 12.5186C10.2371 11.9085 11.0647 11.566 11.9275 11.566C12.7902 11.566 13.6178 11.9085 14.2279 12.5186C14.8379 13.1286 15.1804 13.9562 15.1804 14.819ZM10.3612 4.6987C10.3612 4.73065 10.3735 4.76176 10.3961 4.78435C10.4187 4.80695 10.4498 4.81918 10.4817 4.81918H12.3002L10.3612 2.88021V4.6987Z" fill="currentColor"/>
</svg>
