<svg preserveAspectRatio="none" width="100%" height="100%" overflow="visible" style="display: block;" viewBox="0 0 17.9747 20" fill="none" xmlns="http://www.w3.org/2000/svg">
<path id="Vector" d="M4.19922 12.5463C4.47062 12.1392 5.02129 12.0288 5.42843 12.3C5.83553 12.5714 5.94593 13.1221 5.67467 13.5293L3.97672 16.0757L5.67467 18.6221C5.94593 19.0293 5.83553 19.58 5.42843 19.8513C5.02129 20.1226 4.47062 20.0122 4.19922 19.6051L2.91166 17.6738L1.6241 19.6051C1.35271 20.0122 0.802038 20.1226 0.39489 19.8513C-0.0122053 19.58 -0.122603 19.0293 0.148651 18.6221L1.84562 16.0757L0.148651 13.5293C-0.122603 13.1221 -0.0122053 12.5714 0.39489 12.3C0.802038 12.0288 1.35271 12.1392 1.6241 12.5463L2.91166 14.4776L4.19922 12.5463ZM7.08881 13.0378C7.08881 12.5484 7.48551 12.1517 7.97487 12.1517C8.46423 12.1517 8.86094 12.5484 8.86094 13.0378V18.2276H11.0128C11.5022 18.2276 11.8989 18.6243 11.8989 19.1136C11.8989 19.603 11.5022 19.9997 11.0128 19.9997H7.97487C7.48551 19.9997 7.08881 19.603 7.08881 19.1136V13.0378ZM1.01296 9.99984V2.91135C1.01296 2.13921 1.31941 1.39842 1.8654 0.852439C2.41138 0.306456 3.15217 0 3.9243 0H11.0128L11.1008 0.00395563C11.3035 0.0241729 11.4945 0.113791 11.6398 0.259094L16.703 5.32231C16.8691 5.48847 16.9621 5.71428 16.9621 5.94927V9.99984C16.9621 10.4892 16.5654 10.8859 16.076 10.8859C15.5867 10.8859 15.19 10.4892 15.19 9.99984V6.83534H12.0254C11.5219 6.83534 11.0386 6.63564 10.6825 6.27957C10.3264 5.92349 10.1267 5.4402 10.1267 4.93663V1.77212H3.9243C3.62216 1.77212 3.33199 1.89174 3.11834 2.10539C2.9047 2.31903 2.78508 2.60921 2.78508 2.91135V9.99984C2.78508 10.4892 2.38838 10.8859 1.89902 10.8859C1.40966 10.8859 1.01296 10.4892 1.01296 9.99984ZM17.9747 13.7973C17.9747 14.2866 17.578 14.6833 17.0887 14.6833C16.6423 14.6833 16.274 14.3532 16.2125 13.9238H15.0634C15.0298 13.9238 14.9971 13.9367 14.9734 13.9604C14.9496 13.9842 14.9368 14.0168 14.9368 14.0504V15.0631C14.9368 15.0966 14.9496 15.1293 14.9734 15.153C14.9971 15.1768 15.0298 15.1896 15.0634 15.1896H16.076C16.5796 15.1896 17.0629 15.3893 17.419 15.7454C17.775 16.1015 17.9747 16.5848 17.9747 17.0883V18.101C17.9747 18.6045 17.775 19.0878 17.419 19.4439C17.0629 19.8 16.5796 19.9997 16.076 19.9997H14.8102C13.9016 19.9997 13.1647 19.2627 13.1647 18.3541C13.1647 17.8648 13.5614 17.4681 14.0507 17.4681C14.4971 17.4681 14.8654 17.7982 14.9269 18.2276H16.076C16.1096 18.2276 16.1423 18.2147 16.166 18.191C16.1897 18.1672 16.2026 18.1346 16.2026 18.101V17.0883C16.2026 17.0548 16.1897 17.0221 16.166 16.9983C16.1423 16.9746 16.1096 16.9618 16.076 16.9618H15.0634C14.5598 16.9618 14.0765 16.7621 13.7204 16.406C13.3644 16.0499 13.1647 15.5666 13.1647 15.0631V14.0504C13.1647 13.5468 13.3644 13.0636 13.7204 12.7075C14.0765 12.3514 14.5598 12.1517 15.0634 12.1517H16.3292C16.7112 12.1517 17.0796 12.2844 17.3725 12.5245L17.4931 12.6333L17.6019 12.754C17.842 13.0468 17.9747 13.4152 17.9747 13.7973ZM11.8989 4.93663C11.8989 4.9702 11.9117 5.00288 11.9355 5.02662C11.9592 5.05036 11.9919 5.06321 12.0254 5.06321H13.936L11.8989 3.02606V4.93663Z" fill="currentColor"/>
</svg>
