<svg preserveAspectRatio="none" width="100%" height="100%" overflow="visible" style="display: block;" viewBox="0 0 16.962 20" fill="none" xmlns="http://www.w3.org/2000/svg">
<path id="Vector" d="M3.03797 15.0633C3.03797 14.7611 2.91836 14.471 2.70471 14.2573C2.49106 14.0437 2.20088 13.9241 1.89873 13.9241H1.77215V18.2278H1.89873C2.20088 18.2278 2.49106 18.1082 2.70471 17.8946C2.91836 17.6809 3.03797 17.3908 3.03797 17.0886V15.0633ZM9.11392 14.557C9.11392 14.3891 9.04769 14.2277 8.929 14.109C8.8103 13.9903 8.64887 13.9241 8.48101 13.9241C8.31315 13.9241 8.15172 13.9903 8.03303 14.109C7.91434 14.2277 7.8481 14.3891 7.8481 14.557V17.5949C7.8481 17.7628 7.91434 17.9242 8.03303 18.0429C8.15172 18.1616 8.31316 18.2278 8.48101 18.2278C8.64887 18.2278 8.8103 18.1616 8.929 18.0429C9.04769 17.9242 9.11392 17.7628 9.11392 17.5949V14.557ZM15.1899 14.557C15.1899 14.3891 15.1236 14.2277 15.0049 14.109C14.8863 13.9903 14.7248 13.9241 14.557 13.9241C14.3891 13.9241 14.2277 13.9903 14.109 14.109C13.9903 14.2277 13.9241 14.3891 13.9241 14.557V17.5949C13.9241 17.7628 13.9903 17.9242 14.109 18.0429C14.2277 18.1616 14.3891 18.2278 14.557 18.2278C14.7248 18.2278 14.8862 18.1616 15.0049 18.0429C15.1236 17.9242 15.1899 17.7628 15.1899 17.5949C15.1899 17.1056 15.5866 16.7089 16.0759 16.7089C16.5653 16.7089 16.962 17.1056 16.962 17.5949C16.962 18.2328 16.7089 18.8449 16.2579 19.2959C15.8069 19.7469 15.1948 20 14.557 20C13.9191 20 13.307 19.7469 12.856 19.2959C12.405 18.8449 12.1519 18.2328 12.1519 17.5949V14.557C12.1519 13.9191 12.405 13.307 12.856 12.856C13.307 12.405 13.9191 12.1519 14.557 12.1519C15.1948 12.1519 15.8069 12.405 16.2579 12.856C16.7089 13.307 16.962 13.9191 16.962 14.557C16.962 15.0463 16.5653 15.443 16.0759 15.443C15.5866 15.443 15.1899 15.0463 15.1899 14.557ZM0 10V2.91139C0 2.13924 0.30646 1.39844 0.852453 0.852453C1.39844 0.30646 2.13924 0 2.91139 0H10C10.235 0 10.4608 0.0929266 10.627 0.259098L15.6903 5.32239C15.8564 5.48856 15.9494 5.71437 15.9494 5.94937V10C15.9494 10.4894 15.5527 10.8861 15.0633 10.8861C14.5739 10.8861 14.1772 10.4894 14.1772 10V6.83544H11.0127C10.5091 6.83544 10.0258 6.63575 9.6697 6.27967C9.31362 5.92359 9.11392 5.44029 9.11392 4.93671V1.77215H2.91139C2.60925 1.77215 2.31907 1.89177 2.10542 2.10542C1.89177 2.31907 1.77215 2.60925 1.77215 2.91139V10C1.77215 10.4894 1.37544 10.8861 0.886076 10.8861C0.39671 10.8861 0 10.4894 0 10ZM4.81013 17.0886C4.81013 17.8608 4.50367 18.6016 3.95767 19.1475C3.41168 19.6935 2.67088 20 1.89873 20H0.886076C0.39671 20 0 19.6033 0 19.1139V13.038C0 12.5486 0.39671 12.1519 0.886076 12.1519H1.89873C2.67088 12.1519 3.41168 12.4584 3.95767 13.0044C4.50367 13.5503 4.81013 14.2911 4.81013 15.0633V17.0886ZM10.8861 17.5949C10.8861 18.2328 10.633 18.8448 10.182 19.2959C9.73093 19.7469 9.11888 20 8.48101 20C7.84315 20 7.2311 19.7469 6.78006 19.2959C6.32903 18.8448 6.07595 18.2328 6.07595 17.5949V14.557C6.07595 13.9191 6.32903 13.3071 6.78006 12.856C7.2311 12.405 7.84315 12.1519 8.48101 12.1519C9.11887 12.1519 9.73092 12.405 10.182 12.856C10.633 13.3071 10.8861 13.9191 10.8861 14.557V17.5949ZM10.8861 4.93671C10.8861 4.97028 10.8989 5.00296 10.9227 5.0267C10.9464 5.05044 10.9791 5.06329 11.0127 5.06329H12.9233L10.8861 3.02611V4.93671Z" fill="currentColor"/>
</svg>
