<svg preserveAspectRatio="none" width="100%" height="100%" overflow="visible" style="display: block;" viewBox="0 0 16.962 20" fill="none" xmlns="http://www.w3.org/2000/svg">
<path id="Vector" d="M1.77215 17.0886C1.77215 17.3908 1.89177 17.6809 2.10542 17.8946C2.31907 18.1082 2.60925 18.2278 2.91139 18.2278H10C10.3021 18.2278 10.5923 18.1082 10.806 17.8946C11.0196 17.6809 11.1392 17.3908 11.1392 17.0886V15.9494H6.96203C6.18988 15.9494 5.44908 15.6429 4.90309 15.0969C4.35709 14.5509 4.05063 13.8101 4.05063 13.038V5.82278H2.91139C2.60925 5.82278 2.31907 5.9424 2.10542 6.15605C1.89177 6.3697 1.77215 6.65988 1.77215 6.96203V17.0886ZM16.962 13.038C16.962 13.8101 16.6556 14.5509 16.1096 15.0969C15.5636 15.6429 14.8228 15.9494 14.0506 15.9494H12.9114V17.0886C12.9114 17.8608 12.6049 18.6016 12.0589 19.1475C11.5129 19.6935 10.7721 20 10 20H2.91139C2.13924 20 1.39844 19.6935 0.852453 19.1475C0.306461 18.6016 0 17.8608 0 17.0886V6.96203C0 6.18988 0.30646 5.44908 0.852453 4.90309C1.39844 4.35709 2.13924 4.05063 2.91139 4.05063H4.05063V2.91139C4.05063 2.13924 4.35709 1.39844 4.90309 0.852453C5.44908 0.306461 6.18988 0 6.96203 0H11.0127C11.2477 0 11.4735 0.0929266 11.6396 0.259098L16.7029 5.32239C16.8691 5.48856 16.962 5.71437 16.962 5.94937V13.038ZM11.8987 4.93671C11.8987 4.97028 11.9116 5.00296 11.9353 5.0267C11.9591 5.05044 11.9917 5.06329 12.0253 5.06329H13.9359L11.8987 3.02611V4.93671ZM5.82278 13.038C5.82278 13.3401 5.9424 13.6303 6.15605 13.8439C6.3697 14.0576 6.65988 14.1772 6.96203 14.1772H14.0506C14.3528 14.1772 14.643 14.0576 14.8566 13.8439C15.0703 13.6303 15.1899 13.3401 15.1899 13.038V6.83544H12.0253C11.5217 6.83544 11.0384 6.63575 10.6824 6.27967C10.3263 5.92359 10.1266 5.44029 10.1266 4.93671V1.77215H6.96203C6.65988 1.77215 6.3697 1.89177 6.15605 2.10542C5.9424 2.31907 5.82278 2.60925 5.82278 2.91139V13.038Z" fill="currentColor"/>
</svg>
