<svg preserveAspectRatio="none" width="100%" height="100%" overflow="visible" style="display: block;" viewBox="0 0 15.9593 20" fill="none" xmlns="http://www.w3.org/2000/svg">
<path id="Vector" d="M0 17.0886C0 16.5992 0.39671 16.2025 0.886076 16.2025C1.37544 16.2025 1.77215 16.5992 1.77215 17.0886C1.77215 17.3908 1.89177 17.6809 2.10542 17.8946C2.31907 18.1082 2.60925 18.2278 2.91139 18.2278H13.038C13.3401 18.2278 13.6303 18.1082 13.8439 17.8946C14.0576 17.6809 14.1772 17.3908 14.1772 17.0886C14.1772 16.5992 14.5739 16.2025 15.0633 16.2025C15.5527 16.2025 15.9494 16.5992 15.9494 17.0886C15.9494 17.8608 15.6429 18.6016 15.0969 19.1475C14.5509 19.6935 13.8101 20 13.038 20H2.91139C2.13924 20 1.39844 19.6935 0.852453 19.1475C0.306461 18.6016 0 17.8608 0 17.0886ZM0.895965 13.1646C1.38533 13.1646 1.78204 13.5613 1.78204 14.0506C1.78204 14.54 1.38533 14.9367 0.895965 14.9367H0.886076C0.39671 14.9367 0 14.54 0 14.0506C0 13.5613 0.39671 13.1646 0.886076 13.1646H0.895965ZM15.0732 13.1646C15.5625 13.1646 15.9593 13.5613 15.9593 14.0506C15.9593 14.54 15.5625 14.9367 15.0732 14.9367H15.0633C14.5739 14.9367 14.1772 14.54 14.1772 14.0506C14.1772 13.5613 14.5739 13.1646 15.0633 13.1646H15.0732ZM0.895965 10.1266C1.38533 10.1266 1.78204 10.5233 1.78204 11.0127C1.78204 11.502 1.38533 11.8987 0.895965 11.8987H0.886076C0.39671 11.8987 0 11.502 0 11.0127C0 10.5233 0.39671 10.1266 0.886076 10.1266H0.895965ZM15.0732 10.1266C15.5625 10.1266 15.9593 10.5233 15.9593 11.0127C15.9593 11.502 15.5625 11.8987 15.0732 11.8987H15.0633C14.5739 11.8987 14.1772 11.502 14.1772 11.0127C14.1772 10.5233 14.5739 10.1266 15.0633 10.1266H15.0732ZM0.895965 7.08861C1.38533 7.08861 1.78204 7.48532 1.78204 7.97468C1.78204 8.46405 1.38533 8.86076 0.895965 8.86076H0.886076C0.39671 8.86076 0 8.46405 0 7.97468C0 7.48532 0.39671 7.08861 0.886076 7.08861H0.895965ZM0 4.93671V2.91139C0 2.13924 0.30646 1.39844 0.852453 0.852453C1.39844 0.30646 2.13924 0 2.91139 0H10C10.235 0 10.4608 0.0929266 10.627 0.259098L15.6903 5.32239C15.8564 5.48856 15.9494 5.71437 15.9494 5.94937V7.97468C15.9494 8.46405 15.5527 8.86076 15.0633 8.86076C14.5739 8.86076 14.1772 8.46405 14.1772 7.97468V6.83544H11.0127C10.5091 6.83544 10.0258 6.63575 9.6697 6.27967C9.31362 5.92359 9.11392 5.44029 9.11392 4.93671V1.77215H2.91139C2.60925 1.77215 2.31907 1.89177 2.10542 2.10542C1.89177 2.31907 1.77215 2.60925 1.77215 2.91139V4.93671C1.77215 5.42608 1.37544 5.82278 0.886076 5.82278C0.39671 5.82278 0 5.42608 0 4.93671ZM10.8861 4.93671C10.8861 4.97028 10.8989 5.00296 10.9227 5.0267C10.9464 5.05044 10.9791 5.06329 11.0127 5.06329H12.9233L10.8861 3.02611V4.93671Z" fill="currentColor"/>
</svg>
