<svg preserveAspectRatio="none" width="100%" height="100%" overflow="visible" style="display: block;" viewBox="0 0 18.1176 20" fill="none" xmlns="http://www.w3.org/2000/svg">
<path id="Vector" d="M14 11.7647C14.3801 11.7647 14.7111 12.0249 14.8006 12.3943C14.9582 13.046 15.2925 13.6417 15.7665 14.1158C16.2406 14.5899 16.8364 14.9242 17.4881 15.0818C17.8575 15.1713 18.1176 15.5022 18.1176 15.8824C18.1176 16.2625 17.8575 16.5934 17.4881 16.6829C16.8364 16.8405 16.2406 17.1748 15.7665 17.6489C15.2925 18.123 14.9582 18.7187 14.8006 19.3704C14.7111 19.7398 14.3801 20 14 20C13.6199 20 13.2889 19.7398 13.1994 19.3704C13.0418 18.7187 12.7075 18.123 12.2335 17.6489C11.7594 17.1748 11.1636 16.8405 10.5119 16.6829C10.1425 16.5934 9.88235 16.2625 9.88235 15.8824C9.88235 15.5022 10.1425 15.1713 10.5119 15.0818C11.1636 14.9242 11.7594 14.5899 12.2335 14.1158C12.7075 13.6417 13.0418 13.046 13.1994 12.3943C13.2889 12.0249 13.6199 11.7647 14 11.7647ZM0 15.8824V2.70588C0 1.98824 0.284828 1.29973 0.792279 0.792279C1.29973 0.284828 1.98824 0 2.70588 0H9.29412C9.51253 0 9.7224 0.0863671 9.87684 0.240809L14.5827 4.94669C14.7372 5.10113 14.8235 5.311 14.8235 5.52941V8.82353C14.8235 9.27835 14.4548 9.64706 14 9.64706C13.5452 9.64706 13.1765 9.27835 13.1765 8.82353V6.35294H10.2353C9.76726 6.35294 9.31808 6.16734 8.98713 5.8364C8.65619 5.50545 8.47059 5.05626 8.47059 4.58824V1.64706H2.70588C2.42506 1.64706 2.15537 1.75823 1.9568 1.9568C1.75823 2.15537 1.64706 2.42506 1.64706 2.70588V15.8824C1.64706 16.1632 1.75823 16.4329 1.9568 16.6314C2.15537 16.83 2.42507 16.9412 2.70588 16.9412H7.41176C7.86659 16.9412 8.23529 17.3099 8.23529 17.7647C8.23529 18.2195 7.86659 18.5882 7.41176 18.5882H2.70588C1.98824 18.5882 1.29973 18.3034 0.792279 17.796C0.284828 17.2885 0 16.6 0 15.8824ZM14 14.5551C13.8211 14.8127 13.6216 15.0567 13.398 15.2803C13.1744 15.5039 12.9304 15.7034 12.6728 15.8824C12.9304 16.0613 13.1744 16.2608 13.398 16.4844C13.6214 16.7078 13.8212 16.9513 14 17.2086C14.1788 16.9513 14.3786 16.7078 14.602 16.4844C14.8254 16.261 15.0689 16.0612 15.3263 15.8824C15.0689 15.7036 14.8254 15.5038 14.602 15.2803C14.3784 15.0567 14.1789 14.8127 14 14.5551ZM10.1176 4.58824C10.1176 4.61944 10.1296 4.64981 10.1517 4.67188C10.1737 4.69394 10.2041 4.70588 10.2353 4.70588H12.011L10.1176 2.8125V4.58824Z" fill="currentColor"/>
</svg>
