<svg preserveAspectRatio="none" width="100%" height="100%" overflow="visible" style="display: block;" viewBox="0 0 18.0719 20" fill="none" xmlns="http://www.w3.org/2000/svg">
<path id="Vector" d="M4.10195 12.7765C4.4313 12.4471 4.9661 12.4471 5.29545 12.7765L8.18696 15.668C8.51631 15.9973 8.51631 16.5321 8.18696 16.8615L5.29545 19.753C4.9661 20.0823 4.4313 20.0823 4.10195 19.753C3.7726 19.4236 3.7726 18.8888 4.10195 18.5595L5.55335 17.1081H0.843356C0.377584 17.1081 0 16.7305 0 16.2647C0 15.799 0.377584 15.4214 0.843356 15.4214H5.55335L4.10195 13.97C3.7726 13.6406 3.7726 13.1058 4.10195 12.7765ZM2.89151 10.4817V2.77103C2.89151 2.03611 3.18319 1.33102 3.70286 0.811354C4.22253 0.291685 4.92761 0 5.66254 0H12.4094C12.6331 0 12.848 0.0884464 13.0061 0.246606L17.8253 5.06579C17.9835 5.22395 18.0719 5.43886 18.0719 5.66254V16.2647C18.0719 16.9997 17.7802 17.7047 17.2606 18.2244C16.7409 18.7441 16.0358 19.0358 15.3009 19.0358H9.9998C9.53402 19.0358 9.15644 18.6582 9.15644 18.1924C9.15644 17.7266 9.53402 17.349 9.9998 17.349H15.3009C15.5885 17.349 15.8647 17.2352 16.068 17.0318C16.2714 16.8285 16.3852 16.5523 16.3852 16.2647V6.50589H13.3732C12.8939 6.50589 12.4339 6.31583 12.095 5.97691C11.7561 5.638 11.566 5.178 11.566 4.6987V1.68671H5.66254C5.37496 1.68671 5.09877 1.80056 4.89542 2.00391C4.69207 2.20726 4.57822 2.48345 4.57822 2.77103V10.4817C4.57822 10.9475 4.20064 11.3251 3.73486 11.3251C3.26909 11.3251 2.89151 10.9475 2.89151 10.4817ZM13.2527 4.6987C13.2527 4.73065 13.265 4.76176 13.2876 4.78435C13.3102 4.80695 13.3413 4.81918 13.3732 4.81918H15.1917L13.2527 2.88021V4.6987Z" fill="currentColor"/>
</svg>
