<svg preserveAspectRatio="none" width="100%" height="100%" overflow="visible" style="display: block;" viewBox="0 0 17.1085 20" fill="none" xmlns="http://www.w3.org/2000/svg">
<path id="Vector" d="M12.7765 12.7765C13.1058 12.4471 13.6406 12.4471 13.97 12.7765L16.8615 15.668C17.1908 15.9973 17.1908 16.5321 16.8615 16.8615L13.97 19.753C13.6406 20.0823 13.1058 20.0823 12.7765 19.753C12.4471 19.4236 12.4471 18.8888 12.7765 18.5595L14.2279 17.1081H9.51788C9.05211 17.1081 8.67452 16.7305 8.67452 16.2647C8.67452 15.799 9.05211 15.4214 9.51788 15.4214H14.2279L12.7765 13.97C12.4471 13.6406 12.4471 13.1058 12.7765 12.7765ZM0 16.2647V2.77103C0 2.03611 0.291685 1.33102 0.811354 0.811354C1.33102 0.291685 2.03611 0 2.77103 0H9.51788L9.60165 0.00376498C9.79457 0.0230079 9.97633 0.108306 10.1146 0.246606L14.9338 5.06579C15.092 5.22395 15.1804 5.43886 15.1804 5.66254V10.4817C15.1804 10.9475 14.8028 11.3251 14.3371 11.3251C13.8713 11.3251 13.4937 10.9475 13.4937 10.4817V6.50589H10.4817C10.0024 6.50589 9.54242 6.31583 9.2035 5.97691C8.86459 5.638 8.67452 5.178 8.67452 4.6987V1.68671H2.77103C2.48345 1.68671 2.20726 1.80056 2.00391 2.00391C1.80056 2.20726 1.68671 2.48345 1.68671 2.77103V16.2647C1.68671 16.5523 1.80056 16.8285 2.00391 17.0318C2.20726 17.2352 2.48345 17.349 2.77103 17.349H7.10829C7.57406 17.349 7.95165 17.7266 7.95165 18.1924C7.95165 18.6582 7.57406 19.0358 7.10829 19.0358H2.77103C2.03611 19.0358 1.33102 18.7441 0.811354 18.2244C0.291686 17.7047 0 16.9997 0 16.2647ZM10.3612 4.6987C10.3612 4.73065 10.3735 4.76176 10.3961 4.78435C10.4187 4.80695 10.4498 4.81918 10.4817 4.81918H12.3002L10.3612 2.88021V4.6987Z" fill="currentColor"/>
</svg>
