<svg preserveAspectRatio="none" width="100%" height="100%" overflow="visible" style="display: block;" viewBox="0 0 16.4557 20" fill="none" xmlns="http://www.w3.org/2000/svg">
<path id="Vector" d="M3.03797 14.557C3.03797 14.3891 2.97174 14.2277 2.85305 14.109C2.73435 13.9903 2.57292 13.9241 2.40506 13.9241H1.77215V15.1899H2.40506C2.57292 15.1899 2.73435 15.1236 2.85305 15.0049C2.97174 14.8863 3.03797 14.7248 3.03797 14.557ZM9.11392 14.557C9.11392 14.3891 9.04769 14.2277 8.929 14.109C8.8103 13.9903 8.64887 13.9241 8.48101 13.9241H7.8481V15.1899H8.48101C8.64887 15.1899 8.8103 15.1236 8.929 15.0049C9.04769 14.8863 9.11392 14.7248 9.11392 14.557ZM13.1646 19.1139V13.9241H12.5316C12.0423 13.9241 11.6456 13.5273 11.6456 13.038C11.6456 12.5486 12.0423 12.1519 12.5316 12.1519H15.5696C16.059 12.1519 16.4557 12.5486 16.4557 13.038C16.4557 13.5273 16.059 13.9241 15.5696 13.9241H14.9367V19.1139C14.9367 19.6033 14.54 20 14.0506 20C13.5613 20 13.1646 19.6033 13.1646 19.1139ZM0 10V2.91139C0 2.13924 0.30646 1.39844 0.852453 0.852453C1.39844 0.30646 2.13924 0 2.91139 0H10C10.235 0 10.4608 0.0929266 10.627 0.259098L15.6903 5.32239C15.8564 5.48856 15.9494 5.71437 15.9494 5.94937V10C15.9494 10.4894 15.5527 10.8861 15.0633 10.8861C14.5739 10.8861 14.1772 10.4894 14.1772 10V6.83544H11.0127C10.5091 6.83544 10.0258 6.63575 9.6697 6.27967C9.31362 5.92359 9.11392 5.44029 9.11392 4.93671V1.77215H2.91139C2.60925 1.77215 2.31907 1.89177 2.10542 2.10542C1.89177 2.31907 1.77215 2.60925 1.77215 2.91139V10C1.77215 10.4894 1.37544 10.8861 0.886076 10.8861C0.39671 10.8861 0 10.4894 0 10ZM4.81013 14.557C4.81013 15.1948 4.55705 15.8069 4.10601 16.2579C3.65498 16.7089 3.04293 16.962 2.40506 16.962H1.77215V19.1139C1.77215 19.6033 1.37544 20 0.886076 20C0.39671 20 0 19.6033 0 19.1139V13.038C0 12.5486 0.39671 12.1519 0.886076 12.1519H2.40506C3.04293 12.1519 3.65498 12.405 4.10601 12.856C4.55705 13.3071 4.81013 13.9191 4.81013 14.557ZM10.8861 14.557C10.8861 15.1948 10.633 15.8069 10.182 16.2579C9.73093 16.7089 9.11888 16.962 8.48101 16.962H7.8481V19.1139C7.8481 19.6033 7.45139 20 6.96203 20C6.47266 20 6.07595 19.6033 6.07595 19.1139V13.038C6.07595 12.5486 6.47266 12.1519 6.96203 12.1519H8.48101C9.11887 12.1519 9.73092 12.405 10.182 12.856C10.633 13.3071 10.8861 13.9191 10.8861 14.557ZM10.8861 4.93671C10.8861 4.97028 10.8989 5.00296 10.9227 5.0267C10.9464 5.05044 10.9791 5.06329 11.0127 5.06329H12.9233L10.8861 3.02611V4.93671Z" fill="currentColor"/>
</svg>
