<svg preserveAspectRatio="none" width="100%" height="100%" overflow="visible" style="display: block;" viewBox="0 0 18.9334 20" fill="none" xmlns="http://www.w3.org/2000/svg">
<path id="Vector" d="M17.0667 3.25001V1.86667H1.86667V3.30834C1.8667 3.60678 1.97844 3.89479 2.17917 4.11563L6.95731 9.3719C7.11349 9.5437 7.20002 9.76784 7.20002 10V17.7719L11.7334 16.2605V9.46669C11.7334 9.21915 11.8312 8.98131 12.0063 8.80627L16.7146 4.09793C16.9115 3.90112 17.0331 3.64334 17.0605 3.36876L17.0667 3.25001ZM18.9188 3.55313C18.849 4.25514 18.5377 4.91456 18.0344 5.41772L18.0355 5.41876L13.6 9.85419V16.9334C13.6 17.3351 13.3426 17.6918 12.9615 17.8188L6.56147 19.9521C6.27694 20.0469 5.96414 19.9994 5.72085 19.824C5.47747 19.6486 5.33335 19.3667 5.33335 19.0667V10.3604L0.796877 5.37085C0.284258 4.80664 0.000199423 4.07169 0 3.30938V0.933336C0 0.417869 0.417869 0 0.933336 0H18C18.5155 5.4977e-07 18.9334 0.417869 18.9334 0.933336V3.25001L18.9188 3.55313Z" fill="currentColor"/>
</svg>
