<svg preserveAspectRatio="none" width="100%" height="100%" overflow="visible" style="display: block;" viewBox="0 0 16.4236 20" fill="none" xmlns="http://www.w3.org/2000/svg">
<path id="Vector" d="M0 19.0876V2.40326C0 2.15812 0.0988815 1.92313 0.273931 1.75153C1.41911 0.629029 2.95855 0 4.56212 0C6.16569 0 7.70513 0.629029 8.85031 1.75153C9.65436 2.53964 10.7356 2.98065 11.8615 2.98065C12.9874 2.98065 14.0687 2.53964 14.8727 1.75153C15.1351 1.49436 15.5259 1.41983 15.8646 1.56212C16.2032 1.70444 16.4236 2.03594 16.4236 2.40326V11.7882C16.4235 12.0331 16.3246 12.2674 16.1497 12.4389C15.0045 13.5614 13.4651 14.1904 11.8615 14.1904C10.2579 14.1904 8.7185 13.5614 7.57332 12.4389C6.76927 11.6508 5.68797 11.2098 4.56212 11.2098C3.55939 11.2098 2.59244 11.5601 1.82485 12.1935V19.0876C1.82462 19.5913 1.4162 20 0.912424 20C0.408646 20 0.000226727 19.5913 0 19.0876ZM4.56212 1.82485C3.55939 1.82485 2.59244 2.17521 1.82485 2.80855V10.0316C2.66742 9.6107 3.60312 9.38493 4.56212 9.38493C6.16569 9.38493 7.70513 10.014 8.85031 11.1365C9.65436 11.9246 10.7356 12.3656 11.8615 12.3656C12.8645 12.3656 13.8311 12.0145 14.5988 11.3809V4.15784C13.7561 4.57887 12.8207 4.8055 11.8615 4.8055C10.2579 4.8055 8.7185 4.17647 7.57332 3.05397C6.76927 2.26591 5.68797 1.82485 4.56212 1.82485Z" fill="currentColor"/>
</svg>
