<svg preserveAspectRatio="none" width="100%" height="100%" overflow="visible" style="display: block;" viewBox="0 0 20 18.9873" fill="none" xmlns="http://www.w3.org/2000/svg">
<path id="Vector" d="M0 16.0759V6.96203C0 6.18988 0.30646 5.44908 0.852453 4.90309C1.39844 4.35709 2.13924 4.05063 2.91139 4.05063H4.05063V2.91139C4.05063 2.13924 4.35709 1.39844 4.90309 0.852453C5.44908 0.30646 6.18988 0 6.96203 0H10C10.235 0 10.4608 0.0929266 10.627 0.259098L12.3932 2.02532H17.0886C17.8608 2.02532 18.6016 2.33178 19.1475 2.87777C19.6935 3.42376 20 4.16456 20 4.93671V12.0253C20 12.7975 19.6935 13.5383 19.1475 14.0843C18.6016 14.6302 17.8608 14.9367 17.0886 14.9367H15.9494V16.0759C15.9494 16.8481 15.6429 17.5889 15.0969 18.1349C14.5509 18.6809 13.8101 18.9873 13.038 18.9873H2.91139C2.13924 18.9873 1.39844 18.6809 0.852453 18.1349C0.306461 17.5889 0 16.8481 0 16.0759ZM1.77215 16.0759C1.77215 16.3781 1.89177 16.6683 2.10542 16.8819C2.31907 17.0956 2.60925 17.2152 2.91139 17.2152H13.038C13.3401 17.2152 13.6303 17.0956 13.8439 16.8819C14.0576 16.6683 14.1772 16.3781 14.1772 16.0759V14.9367H6.96203C6.18988 14.9367 5.44908 14.6302 4.90309 14.0843C4.35709 13.5383 4.05063 12.7975 4.05063 12.0253V5.82278H2.91139C2.60925 5.82278 2.31907 5.9424 2.10542 6.15605C1.89177 6.3697 1.77215 6.65988 1.77215 6.96203V16.0759ZM5.82278 12.0253C5.82278 12.3275 5.9424 12.6176 6.15605 12.8313C6.3697 13.0449 6.65988 13.1646 6.96203 13.1646H17.0886C17.3908 13.1646 17.6809 13.0449 17.8946 12.8313C18.1082 12.6176 18.2278 12.3275 18.2278 12.0253V4.93671C18.2278 4.63456 18.1082 4.34439 17.8946 4.13074C17.6809 3.91709 17.3908 3.79747 17.0886 3.79747H12.0253C11.7903 3.79747 11.5645 3.70454 11.3983 3.53837L9.63212 1.77215H6.96203C6.65988 1.77215 6.3697 1.89177 6.15605 2.10542C5.9424 2.31907 5.82278 2.60925 5.82278 2.91139V12.0253Z" fill="currentColor"/>
</svg>
