<svg preserveAspectRatio="none" width="100%" height="100%" overflow="visible" style="display: block;" viewBox="0 0 20 16.962" fill="none" xmlns="http://www.w3.org/2000/svg">
<path id="Vector" d="M0 14.0506V2.91139C0 2.13924 0.30646 1.39844 0.852453 0.852453C1.39844 0.30646 2.13924 0 2.91139 0H6.96203C7.19703 0 7.42283 0.0929267 7.589 0.259098L10.3679 3.03797H17.0886C17.8608 3.03797 18.6016 3.34444 19.1475 3.89043C19.6935 4.43642 20 5.17722 20 5.94937V14.0506C20 14.8228 19.6935 15.5636 19.1475 16.1096C18.6016 16.6556 17.8608 16.962 17.0886 16.962H2.91139C2.13924 16.962 1.39844 16.6556 0.852453 16.1096C0.306461 15.5636 0 14.8228 0 14.0506ZM1.77215 14.0506C1.77215 14.3528 1.89177 14.643 2.10542 14.8566C2.31907 15.0703 2.60925 15.1899 2.91139 15.1899H17.0886C17.3908 15.1899 17.6809 15.0703 17.8946 14.8566C18.1082 14.643 18.2278 14.3528 18.2278 14.0506V5.94937C18.2278 5.64722 18.1082 5.35704 17.8946 5.14339C17.6809 4.92974 17.3908 4.81013 17.0886 4.81013H10C9.765 4.81013 9.53919 4.7172 9.37302 4.55103L6.59415 1.77215H2.91139C2.60925 1.77215 2.31907 1.89177 2.10542 2.10542C1.89177 2.31907 1.77215 2.60925 1.77215 2.91139V14.0506Z" fill="currentColor"/>
</svg>
