<svg preserveAspectRatio="none" width="100%" height="100%" overflow="visible" style="display: block;" viewBox="0 0 20 20" fill="none" xmlns="http://www.w3.org/2000/svg">
<path id="Vector" d="M6.07595 16.0759V3.92405C6.07595 3.35333 5.84956 2.80566 5.446 2.4021C5.04245 1.99854 4.49477 1.77215 3.92405 1.77215C3.43468 1.77215 3.03797 1.37544 3.03797 0.886076C3.03797 0.39671 3.43468 0 3.92405 0C4.96477 0 5.96307 0.413228 6.69897 1.14913C6.79185 1.24201 6.8796 1.33908 6.96203 1.43987C7.04445 1.33908 7.1322 1.24201 7.22508 1.14913C7.96098 0.413228 8.95928 0 10 0C10.4894 0 10.8861 0.39671 10.8861 0.886076C10.8861 1.37544 10.4894 1.77215 10 1.77215C9.42928 1.77215 8.88161 1.99854 8.47805 2.4021C8.07449 2.80566 7.8481 3.35333 7.8481 3.92405V16.0759C7.8481 16.6467 8.07449 17.1943 8.47805 17.5979C8.8816 18.0015 9.42928 18.2278 10 18.2278C10.4894 18.2278 10.8861 18.6246 10.8861 19.1139C10.8861 19.6033 10.4894 20 10 20C8.95928 20 7.96098 19.5868 7.22508 18.8509C7.13202 18.7578 7.04459 18.6601 6.96203 18.5591C6.87946 18.6601 6.79203 18.7578 6.69897 18.8509C5.96307 19.5868 4.96477 20 3.92405 20C3.43468 20 3.03797 19.6033 3.03797 19.1139C3.03797 18.6246 3.43468 18.2278 3.92405 18.2278C4.49477 18.2278 5.04245 18.0015 5.446 17.5979C5.84956 17.1943 6.07595 16.6467 6.07595 16.0759ZM0 14.0506V5.94937C0 5.44579 0.199694 4.96249 0.555775 4.60641C0.911857 4.25033 1.39516 4.05063 1.89873 4.05063H2.91139C3.40076 4.05063 3.79747 4.44734 3.79747 4.93671C3.79747 5.42608 3.40076 5.82278 2.91139 5.82278H1.89873C1.86516 5.82278 1.83248 5.83564 1.80874 5.85938C1.785 5.88311 1.77215 5.9158 1.77215 5.94937V14.0506C1.77215 14.0842 1.785 14.1169 1.80874 14.1406C1.83248 14.1644 1.86516 14.1772 1.89873 14.1772H2.91139C3.40076 14.1772 3.79747 14.5739 3.79747 15.0633C3.79747 15.5527 3.40076 15.9494 2.91139 15.9494H1.89873C1.39516 15.9494 0.911858 15.7497 0.555775 15.3936C0.199693 15.0375 0 14.5542 0 14.0506ZM18.2278 14.0506V5.94937C18.2278 5.91579 18.215 5.88311 18.1913 5.85938C18.1675 5.83564 18.1348 5.82278 18.1013 5.82278H11.0127C10.5233 5.82278 10.1266 5.42608 10.1266 4.93671C10.1266 4.44734 10.5233 4.05063 11.0127 4.05063H18.1013C18.6048 4.05063 19.0881 4.25033 19.4442 4.60641C19.8003 4.96249 20 5.44579 20 5.94937V14.0506C20 14.5542 19.8003 15.0375 19.4442 15.3936C19.0881 15.7497 18.6048 15.9494 18.1013 15.9494H11.0127C10.5233 15.9494 10.1266 15.5527 10.1266 15.0633C10.1266 14.5739 10.5233 14.1772 11.0127 14.1772H18.1013C18.1348 14.1772 18.1675 14.1644 18.1913 14.1406C18.215 14.1169 18.2278 14.0842 18.2278 14.0506ZM11.0225 9.11392C11.5119 9.11392 11.9086 9.51063 11.9086 10C11.9086 10.4894 11.5119 10.8861 11.0225 10.8861H11.0127C10.5233 10.8861 10.1266 10.4894 10.1266 10C10.1266 9.51063 10.5233 9.11392 11.0127 9.11392H11.0225ZM15.0732 9.11392C15.5625 9.11392 15.9593 9.51063 15.9593 10C15.9593 10.4894 15.5625 10.8861 15.0732 10.8861H15.0633C14.5739 10.8861 14.1772 10.4894 14.1772 10C14.1772 9.51063 14.5739 9.11392 15.0633 9.11392H15.0732Z" fill="currentColor"/>
</svg>
