<svg preserveAspectRatio="none" width="100%" height="100%" overflow="visible" style="display: block;" viewBox="0 0 20 20" fill="none" xmlns="http://www.w3.org/2000/svg">
<path id="Vector" d="M16.2025 10.8861H10.8861V18.2278H15.0633C15.3654 18.2278 15.6556 18.1082 15.8693 17.8946C16.0828 17.681 16.2025 17.3906 16.2025 17.0886V10.8861ZM3.79747 17.0886C3.79747 17.3906 3.91722 17.681 4.13074 17.8946C4.34439 18.1082 4.63456 18.2278 4.93671 18.2278H9.11392V10.8861H3.79747V17.0886ZM18.2278 6.96203C18.2277 6.92874 18.2147 6.89663 18.1913 6.87302C18.1675 6.84928 18.1348 6.83544 18.1013 6.83544H10.8861V9.11392H18.1013C18.1348 9.11392 18.1675 9.10107 18.1913 9.07733C18.2149 9.05362 18.2278 9.02081 18.2278 8.98734V6.96203ZM1.77215 8.98734C1.77215 9.02081 1.78514 9.05362 1.80874 9.07733C1.83248 9.10107 1.86516 9.11392 1.89873 9.11392H9.11392V6.83544H1.89873C1.86516 6.83544 1.83248 6.84928 1.80874 6.87302C1.78528 6.89663 1.77227 6.92874 1.77215 6.96203V8.98734ZM16.2025 3.41772C16.2024 2.98158 16.0293 2.56322 15.7209 2.25475C15.4123 1.94614 14.9934 1.77215 14.557 1.77215C14.5518 1.77215 14.5463 1.77224 14.5411 1.77215C13.8816 1.76079 13.1547 2.0766 12.4684 2.8392C11.967 3.39624 11.5289 4.15343 11.1946 5.06329H14.557C14.9934 5.06329 15.4123 4.89029 15.7209 4.58169C16.0294 4.2731 16.2025 3.85405 16.2025 3.41772ZM3.79747 3.41772C3.79747 3.85405 3.97061 4.2731 4.27907 4.58169C4.58768 4.89029 5.00661 5.06329 5.44304 5.06329H8.80538C8.47111 4.15343 8.03298 3.39624 7.53165 2.8392C6.84529 2.0766 6.1184 1.76079 5.45886 1.77215C5.45372 1.77224 5.44818 1.77215 5.44304 1.77215C5.00661 1.77215 4.58768 1.94614 4.27907 2.25475C3.97075 2.56322 3.79759 2.98158 3.79747 3.41772ZM17.9747 3.41772C17.9747 3.99809 17.8269 4.56356 17.5524 5.06329H18.1013C18.6048 5.06329 19.0881 5.26397 19.4442 5.62006C19.8 5.97601 19.9999 6.45874 20 6.96203V8.98734C20 9.49081 19.8002 9.97424 19.4442 10.3303C19.0881 10.6864 18.6048 10.8861 18.1013 10.8861H17.9747V17.0886C17.9747 17.8607 17.6681 18.6016 17.1222 19.1475C16.5762 19.6935 15.8354 20 15.0633 20H4.93671C4.16456 20 3.42376 19.6935 2.87777 19.1475C2.33192 18.6016 2.02532 17.8607 2.02532 17.0886V10.8861H1.89873C1.39516 10.8861 0.911857 10.6864 0.555775 10.3303C0.199832 9.97424 0 9.49081 0 8.98734V6.96203C0.0001172 6.45874 0.199969 5.97601 0.555775 5.62006C0.911857 5.26397 1.39516 5.06329 1.89873 5.06329H2.44759C2.17315 4.56356 2.02532 3.99809 2.02532 3.41772C2.02543 2.51157 2.38544 1.6426 3.02611 1.00178C3.66705 0.360833 4.5366 0 5.44304 0V0.00197785C6.73112 -0.0153023 7.91341 0.614131 8.84889 1.65348C9.28992 2.14351 9.6745 2.72269 10 3.3663C10.3255 2.72269 10.7101 2.14351 11.1511 1.65348C12.0866 0.614131 13.2689 -0.0153023 14.557 0.00197785V0C15.4634 0 16.3329 0.360833 16.9739 1.00178C17.6146 1.6426 17.9746 2.51157 17.9747 3.41772Z" fill="currentColor"/>
</svg>
