<svg preserveAspectRatio="none" width="100%" height="100%" overflow="visible" style="display: block;" viewBox="0 0 17.7465 20" fill="none" xmlns="http://www.w3.org/2000/svg">
<path id="Vector" d="M10.1408 16.7606C10.1408 16.4244 10.0077 16.1015 9.77003 15.8638C9.5323 15.6261 9.20943 15.493 8.87324 15.493C8.53705 15.493 8.21418 15.6261 7.97645 15.8638C7.73873 16.1015 7.60563 16.4244 7.60563 16.7606C7.60563 17.0968 7.73873 17.4196 7.97645 17.6574C8.21418 17.8951 8.53705 18.0282 8.87324 18.0282C9.20943 18.0282 9.5323 17.8951 9.77003 17.6574C10.0077 17.4196 10.1408 17.0968 10.1408 16.7606ZM4.50704 3.23944C4.50704 2.90325 4.37395 2.58037 4.13622 2.34265C3.8985 2.10493 3.57563 1.97183 3.23944 1.97183C2.90325 1.97183 2.58037 2.10493 2.34265 2.34265C2.10493 2.58037 1.97183 2.90325 1.97183 3.23944C1.97183 3.57563 2.10493 3.8985 2.34265 4.13622C2.58037 4.37395 2.90325 4.50704 3.23944 4.50704C3.57563 4.50704 3.8985 4.37395 4.13622 4.13622C4.37395 3.8985 4.50704 3.57563 4.50704 3.23944ZM15.7746 3.23944C15.7746 2.90325 15.6416 2.58037 15.4038 2.34265C15.1661 2.10493 14.8432 1.97183 14.507 1.97183C14.1709 1.97183 13.848 2.10493 13.6103 2.34265C13.3725 2.58037 13.2394 2.90325 13.2394 3.23944C13.2394 3.57563 13.3725 3.8985 13.6103 4.13622C13.848 4.37395 14.1709 4.50704 14.507 4.50704C14.8432 4.50704 15.1661 4.37395 15.4038 4.13622C15.6416 3.8985 15.7746 3.57563 15.7746 3.23944ZM17.7465 3.23944C17.7465 4.09859 17.4055 4.92286 16.798 5.53037C16.4295 5.89887 15.9803 6.16678 15.493 6.32262V7.74648C15.493 8.60563 15.152 9.4299 14.5445 10.0374C13.9369 10.6449 13.1127 10.9859 12.2535 10.9859H9.85916V13.6763C10.3466 13.8321 10.7956 14.101 11.1642 14.4696C11.7717 15.0771 12.1127 15.9014 12.1127 16.7606C12.1127 17.6197 11.7717 18.444 11.1642 19.0515C10.5567 19.659 9.73239 20 8.87324 20C8.01409 20 7.18982 19.659 6.58231 19.0515C5.9748 18.444 5.6338 17.6197 5.6338 16.7606C5.6338 15.9014 5.9748 15.0771 6.58231 14.4696C6.95089 14.101 7.39988 13.8321 7.88732 13.6763V10.9859H5.49296C4.63381 10.9859 3.80954 10.6449 3.20202 10.0374C2.59451 9.4299 2.25352 8.60563 2.25352 7.74648V6.32262C1.7662 6.16678 1.317 5.89887 0.948504 5.53037C0.340991 4.92286 0 4.09859 0 3.23944C0 2.38028 0.340991 1.55602 0.948504 0.948504C1.55602 0.340991 2.38028 0 3.23944 0C4.09859 0 4.92286 0.340991 5.53037 0.948504C6.13788 1.55602 6.47887 2.38028 6.47887 3.23944C6.47887 4.09859 6.13788 4.92286 5.53037 5.53037C5.16187 5.89887 4.71268 6.16678 4.22535 6.32262V7.74648C4.22535 8.08267 4.35845 8.40554 4.59617 8.64327C4.83389 8.88099 5.15677 9.01408 5.49296 9.01408H12.2535C12.5897 9.01408 12.9126 8.88099 13.1503 8.64327C13.388 8.40554 13.5211 8.08267 13.5211 7.74648V6.32262C13.0338 6.16678 12.5846 5.89887 12.2161 5.53037C11.6086 4.92286 11.2676 4.09859 11.2676 3.23944C11.2676 2.38028 11.6086 1.55602 12.2161 0.948504C12.8236 0.340991 13.6479 0 14.507 0C15.3662 0 16.1905 0.340991 16.798 0.948504C17.4055 1.55602 17.7465 2.38028 17.7465 3.23944Z" fill="currentColor"/>
</svg>
