<svg preserveAspectRatio="none" width="100%" height="100%" overflow="visible" style="display: block;" viewBox="0 0 20 20" fill="none" xmlns="http://www.w3.org/2000/svg">
<path id="Vector" d="M18.0282 3.23944C18.0282 2.90325 17.8951 2.58037 17.6574 2.34265C17.4196 2.10493 17.0968 1.97183 16.7606 1.97183H3.23944C2.90325 1.97183 2.58037 2.10493 2.34265 2.34265C2.10493 2.58037 1.97183 2.90325 1.97183 3.23944V16.7606C1.97183 17.0968 2.10493 17.4196 2.34265 17.6574C2.58037 17.8951 2.90325 18.0282 3.23944 18.0282H16.7606C17.0968 18.0282 17.4196 17.8951 17.6574 17.6574C17.8951 17.4196 18.0282 17.0968 18.0282 16.7606V3.23944ZM13.3803 6.76056C13.6418 6.76056 13.893 6.86396 14.0779 7.04886L16.3314 9.30238C16.7164 9.6874 16.7165 10.3126 16.3314 10.6976C15.9464 11.0826 15.3212 11.0826 14.9362 10.6976L13.3803 9.14173L10.6976 11.8244C10.5127 12.0093 10.2615 12.1127 10 12.1127C9.73852 12.1127 9.48727 12.0093 9.30238 11.8244L7.74648 10.2685L5.06382 12.9511C4.6788 13.3362 4.0536 13.3362 3.66857 12.9511C3.28355 12.5661 3.28355 11.9409 3.66857 11.5559L7.04886 8.17562C7.23375 7.99072 7.485 7.88732 7.74648 7.88732C8.00796 7.88732 8.25921 7.99072 8.4441 8.17562L10 9.73151L12.6827 7.04886C12.8676 6.86396 13.1188 6.76056 13.3803 6.76056ZM20 16.7606C20 17.6197 19.659 18.444 19.0515 19.0515C18.444 19.659 17.6197 20 16.7606 20H3.23944C2.38028 20 1.55602 19.659 0.948504 19.0515C0.340991 18.444 0 17.6197 0 16.7606V3.23944C0 2.38028 0.340991 1.55602 0.948504 0.948504C1.55602 0.340991 2.38028 0 3.23944 0H16.7606C17.6197 2.84581e-07 18.444 0.340992 19.0515 0.948504C19.659 1.55602 20 2.38028 20 3.23944V16.7606Z" fill="currentColor"/>
</svg>
