<svg preserveAspectRatio="none" width="100%" height="100%" overflow="visible" style="display: block;" viewBox="0 0 20 20" fill="none" xmlns="http://www.w3.org/2000/svg">
<path id="Vector" d="M2.25352 17.8873C2.25352 17.85 2.23922 17.8136 2.21281 17.7872C2.1864 17.7608 2.15003 17.7465 2.11268 17.7465C2.07532 17.7465 2.03896 17.7608 2.01254 17.7872C1.98613 17.8136 1.97183 17.85 1.97183 17.8873C1.97183 17.9247 1.98613 17.961 2.01254 17.9875C2.03896 18.0139 2.07532 18.0282 2.11268 18.0282C2.15003 18.0282 2.1864 18.0139 2.21281 17.9875C2.23922 17.961 2.25352 17.9247 2.25352 17.8873ZM10.1408 17.8873C10.1408 17.85 10.1265 17.8136 10.1001 17.7872C10.0737 17.7608 10.0374 17.7465 10 17.7465C9.96264 17.7465 9.92628 17.7608 9.89987 17.7872C9.87346 17.8136 9.85916 17.85 9.85916 17.8873C9.85916 17.9247 9.87346 17.961 9.89987 17.9875C9.92628 18.0139 9.96264 18.0282 10 18.0282C10.0374 18.0282 10.0737 18.0139 10.1001 17.9875C10.1265 17.961 10.1408 17.9247 10.1408 17.8873ZM18.0282 17.8873C18.0282 17.85 18.0139 17.8136 17.9875 17.7872C17.961 17.7608 17.9247 17.7465 17.8873 17.7465C17.85 17.7465 17.8136 17.7608 17.7872 17.7872C17.7608 17.8136 17.7465 17.85 17.7465 17.8873C17.7465 17.9247 17.7608 17.961 17.7872 17.9875C17.8136 18.0139 17.85 18.0282 17.8873 18.0282C17.9247 18.0282 17.961 18.0139 17.9875 17.9875C18.0139 17.961 18.0282 17.9247 18.0282 17.8873ZM2.25352 10C2.25352 9.96265 2.23922 9.92628 2.21281 9.89987C2.18639 9.87345 2.15003 9.85916 2.11268 9.85916C2.07532 9.85916 2.03896 9.87345 2.01254 9.89987C1.98613 9.92628 1.97183 9.96265 1.97183 10C1.97183 10.0374 1.98613 10.0737 2.01254 10.1001C2.03896 10.1265 2.07532 10.1408 2.11268 10.1408C2.15003 10.1408 2.18639 10.1265 2.21281 10.1001C2.23922 10.0737 2.25352 10.0374 2.25352 10ZM10.1408 10C10.1408 9.96265 10.1265 9.92628 10.1001 9.89987C10.0737 9.87345 10.0374 9.85916 10 9.85916C9.96265 9.85916 9.92628 9.87345 9.89987 9.89987C9.87345 9.92628 9.85916 9.96265 9.85916 10C9.85916 10.0374 9.87345 10.0737 9.89987 10.1001C9.92628 10.1265 9.96265 10.1408 10 10.1408C10.0374 10.1408 10.0737 10.1265 10.1001 10.1001C10.1265 10.0737 10.1408 10.0374 10.1408 10ZM18.0282 10C18.0282 9.96264 18.0139 9.92628 17.9875 9.89987C17.961 9.87345 17.9247 9.85916 17.8873 9.85916C17.85 9.85916 17.8136 9.87346 17.7872 9.89987C17.7608 9.92628 17.7465 9.96264 17.7465 10C17.7465 10.0374 17.7608 10.0737 17.7872 10.1001C17.8136 10.1265 17.85 10.1408 17.8873 10.1408C17.9247 10.1408 17.961 10.1265 17.9875 10.1001C18.0139 10.0737 18.0282 10.0374 18.0282 10ZM2.25352 2.11268C2.25352 2.07532 2.23922 2.03896 2.21281 2.01254C2.18639 1.98613 2.15003 1.97183 2.11268 1.97183C2.07532 1.97183 2.03896 1.98613 2.01254 2.01254C1.98613 2.03896 1.97183 2.07532 1.97183 2.11268C1.97183 2.15003 1.98613 2.18639 2.01254 2.21281C2.03896 2.23922 2.07532 2.25352 2.11268 2.25352C2.15003 2.25352 2.18639 2.23922 2.21281 2.21281C2.23922 2.18639 2.25352 2.15003 2.25352 2.11268ZM10.1408 2.11268C10.1408 2.07532 10.1265 2.03896 10.1001 2.01254C10.0737 1.98613 10.0374 1.97183 10 1.97183C9.96265 1.97183 9.92628 1.98613 9.89987 2.01254C9.87345 2.03896 9.85916 2.07532 9.85916 2.11268C9.85916 2.15003 9.87345 2.18639 9.89987 2.21281C9.92628 2.23922 9.96265 2.25352 10 2.25352C10.0374 2.25352 10.0737 2.23922 10.1001 2.21281C10.1265 2.18639 10.1408 2.15003 10.1408 2.11268ZM18.0282 2.11268C18.0282 2.07532 18.0139 2.03896 17.9875 2.01254C17.961 1.98613 17.9247 1.97183 17.8873 1.97183C17.85 1.97183 17.8136 1.98613 17.7872 2.01254C17.7608 2.03896 17.7465 2.07532 17.7465 2.11268C17.7465 2.15003 17.7608 2.1864 17.7872 2.21281C17.8136 2.23922 17.85 2.25352 17.8873 2.25352C17.9247 2.25352 17.961 2.23922 17.9875 2.21281C18.0139 2.1864 18.0282 2.15003 18.0282 2.11268ZM4.22535 17.8873C4.22535 18.4476 4.00316 18.9854 3.60695 19.3816C3.21075 19.7778 2.67299 20 2.11268 20C1.55236 20 1.0146 19.7778 0.618398 19.3816C0.222195 18.9854 0 18.4476 0 17.8873C0 17.327 0.222194 16.7892 0.618398 16.393C1.0146 15.9968 1.55236 15.7746 2.11268 15.7746C2.67299 15.7746 3.21075 15.9968 3.60695 16.393C4.00316 16.7892 4.22535 17.327 4.22535 17.8873ZM12.1127 17.8873C12.1127 18.4476 11.8905 18.9854 11.4943 19.3816C11.0981 19.7778 10.5603 20 10 20C9.43969 20 8.90193 19.7778 8.50572 19.3816C8.10952 18.9854 7.88732 18.4476 7.88732 17.8873C7.88732 17.327 8.10952 16.7892 8.50572 16.393C8.90193 15.9968 9.43969 15.7746 10 15.7746C10.5603 15.7746 11.0981 15.9968 11.4943 16.393C11.8905 16.7892 12.1127 17.327 12.1127 17.8873ZM20 17.8873C20 18.4476 19.7778 18.9854 19.3816 19.3816C18.9854 19.7778 18.4476 20 17.8873 20C17.327 20 16.7893 19.7778 16.393 19.3816C15.9968 18.9854 15.7746 18.4476 15.7746 17.8873C15.7746 17.327 15.9968 16.7893 16.393 16.393C16.7893 15.9968 17.327 15.7746 17.8873 15.7746C18.4476 15.7746 18.9854 15.9968 19.3816 16.393C19.7778 16.7893 20 17.327 20 17.8873ZM4.22535 10C4.22535 10.5603 4.00316 11.0981 3.60695 11.4943C3.21075 11.8905 2.67299 12.1127 2.11268 12.1127C1.55236 12.1127 1.0146 11.8905 0.618398 11.4943C0.222195 11.0981 0 10.5603 0 10C0 9.43968 0.222195 8.90193 0.618398 8.50572C1.0146 8.10952 1.55236 7.88732 2.11268 7.88732C2.67299 7.88732 3.21075 8.10952 3.60695 8.50572C4.00316 8.90193 4.22535 9.43968 4.22535 10ZM12.1127 10C12.1127 10.5603 11.8905 11.0981 11.4943 11.4943C11.0981 11.8905 10.5603 12.1127 10 12.1127C9.43968 12.1127 8.90193 11.8905 8.50572 11.4943C8.10952 11.0981 7.88732 10.5603 7.88732 10C7.88732 9.43968 8.10952 8.90193 8.50572 8.50572C8.90193 8.10952 9.43968 7.88732 10 7.88732C10.5603 7.88732 11.0981 8.10952 11.4943 8.50572C11.8905 8.90193 12.1127 9.43968 12.1127 10ZM20 10C20 10.5603 19.7778 11.0981 19.3816 11.4943C18.9854 11.8905 18.4476 12.1127 17.8873 12.1127C17.327 12.1127 16.7892 11.8905 16.393 11.4943C15.9968 11.0981 15.7746 10.5603 15.7746 10C15.7746 9.43969 15.9968 8.90193 16.393 8.50572C16.7892 8.10952 17.327 7.88732 17.8873 7.88732C18.4476 7.88732 18.9854 8.10952 19.3816 8.50572C19.7778 8.90193 20 9.43969 20 10ZM4.22535 2.11268C4.22535 2.67299 4.00316 3.21075 3.60695 3.60695C3.21075 4.00316 2.67299 4.22535 2.11268 4.22535C1.55236 4.22535 1.0146 4.00316 0.618398 3.60695C0.222195 3.21075 0 2.67299 0 2.11268C0 1.55236 0.222195 1.0146 0.618398 0.618398C1.0146 0.222195 1.55236 0 2.11268 0C2.67299 1.77863e-08 3.21075 0.222195 3.60695 0.618398C4.00316 1.0146 4.22535 1.55236 4.22535 2.11268ZM12.1127 2.11268C12.1127 2.67299 11.8905 3.21075 11.4943 3.60695C11.0981 4.00316 10.5603 4.22535 10 4.22535C9.43968 4.22535 8.90193 4.00316 8.50572 3.60695C8.10952 3.21075 7.88732 2.67299 7.88732 2.11268C7.88732 1.55236 8.10952 1.0146 8.50572 0.618398C8.90193 0.222195 9.43968 0 10 0C10.5603 1.4229e-07 11.0981 0.222195 11.4943 0.618398C11.8905 1.0146 12.1127 1.55236 12.1127 2.11268ZM20 2.11268C20 2.67299 19.7778 3.21075 19.3816 3.60695C18.9854 4.00316 18.4476 4.22535 17.8873 4.22535C17.327 4.22535 16.7892 4.00316 16.393 3.60695C15.9968 3.21075 15.7746 2.67299 15.7746 2.11268C15.7746 1.55236 15.9968 1.0146 16.393 0.618398C16.7892 0.222195 17.327 0 17.8873 0C18.4476 2.8458e-07 18.9854 0.222194 19.3816 0.618398C19.7778 1.0146 20 1.55236 20 2.11268Z" fill="currentColor"/>
</svg>
