<svg preserveAspectRatio="none" width="100%" height="100%" overflow="visible" style="display: block;" viewBox="0 0 20 17.9775" fill="none" xmlns="http://www.w3.org/2000/svg">
<path id="Vector" d="M4.1526 0.276743C4.93525 0.0291306 5.76103 -0.0534749 6.57729 0.0335818C7.39359 0.12066 8.18337 0.375673 8.89621 0.782834C9.30041 1.01372 9.6733 1.29254 10.0112 1.60919C10.3493 1.29572 10.7228 1.02086 11.1262 0.792718C11.8384 0.389949 12.6263 0.13874 13.4402 0.0543394C14.2541 -0.0300116 15.0772 0.0542832 15.8569 0.302443C16.6366 0.550607 17.3568 0.957282 17.9722 1.4965C18.5877 2.03581 19.0857 2.69643 19.4342 3.43685C19.7826 4.17732 19.9743 4.98221 19.9976 5.80025C20.0208 6.61821 19.8754 7.43232 19.5696 8.19134C19.2638 8.95041 18.8042 9.6383 18.2203 10.2117C18.1998 10.2319 18.178 10.2503 18.1561 10.2681L10.6319 17.7211C10.2868 18.0629 9.73067 18.0629 9.3855 17.7211L1.79907 10.2078C1.21096 9.63537 0.747213 8.94759 0.437966 8.18738C0.128696 7.4271 -0.0195009 6.61086 0.00205521 5.79037C0.023672 4.96972 0.21555 4.16214 0.564489 3.41905C0.913357 2.67616 1.41191 2.01345 2.02938 1.47278C2.64699 0.932085 3.37 0.524375 4.1526 0.276743ZM6.38948 1.79502C5.81635 1.73388 5.23688 1.79217 4.68735 1.96602C4.13786 2.13987 3.63041 2.4256 3.19676 2.80522C2.76307 3.1849 2.41277 3.65052 2.16777 4.17226C1.92282 4.69395 1.78756 5.26069 1.77239 5.83683C1.75724 6.41295 1.86165 6.98633 2.07881 7.52017C2.29596 8.05392 2.62171 8.53672 3.03465 8.93861L3.04058 8.94454L10.0082 15.845L11.2952 14.5699L9.88862 13.1633C9.54275 12.8174 9.54275 12.2568 9.88862 11.9109C10.2345 11.5652 10.7952 11.5651 11.141 11.9109L12.5535 13.3234L13.8385 12.0523L12.4191 10.6328C12.0732 10.287 12.0732 9.72632 12.4191 9.38045C12.765 9.03476 13.3256 9.03464 13.6715 9.38045L15.0968 10.8058L16.3808 9.53366L14.6965 7.84933C14.2586 7.41142 13.6641 7.16532 13.0448 7.16532C12.4257 7.1654 11.8319 7.41161 11.394 7.84933L10.3819 8.86151C9.33759 9.90579 7.64331 9.90578 6.59903 8.86151L6.04945 8.31193C5.69373 7.9561 5.49303 7.47372 5.49295 6.97059C5.49295 6.46735 5.69366 5.98416 6.04945 5.62826L8.78748 2.88924C8.55359 2.67191 8.29617 2.48006 8.01747 2.32088C7.51698 2.03502 6.9626 1.85615 6.38948 1.79502ZM7.26426 6.97059C7.26435 7.004 7.27822 7.0359 7.30183 7.05955L7.85141 7.60913C8.20394 7.96166 8.77695 7.96167 9.12949 7.60913L10.1417 6.59695C10.9117 5.82704 11.9559 5.39408 13.0448 5.394C14.1339 5.394 15.1788 5.82686 15.9489 6.59695L17.569 8.21704C17.7081 7.99941 17.8297 7.76993 17.9268 7.52907C18.1414 6.99628 18.2436 6.42482 18.2273 5.85066C18.2109 5.2763 18.0765 4.71095 17.8319 4.19104C17.5872 3.67114 17.237 3.20763 16.8049 2.82894C16.3729 2.45042 15.8675 2.16499 15.3202 1.99073C14.7727 1.81646 14.1946 1.75654 13.623 1.81577C13.0515 1.87501 12.4981 2.05189 11.998 2.33471C11.4979 2.61755 11.0612 3.00039 10.716 3.45958C10.673 3.51668 10.6238 3.56744 10.5697 3.6118L7.30183 6.88064C7.27811 6.90437 7.26426 6.93704 7.26426 6.97059Z" fill="currentColor"/>
</svg>
