<svg preserveAspectRatio="none" width="100%" height="100%" overflow="visible" style="display: block;" viewBox="0 0 20 20" fill="none" xmlns="http://www.w3.org/2000/svg">
<path id="Vector" d="M18.2278 10C18.2278 8.91952 18.0153 7.8495 17.6019 6.85127C17.1884 5.85302 16.5819 4.94619 15.8178 4.18216C15.0538 3.41813 14.147 2.81163 13.1487 2.39814C12.1505 1.98467 11.0805 1.77215 10 1.77215C8.91952 1.77215 7.8495 1.98467 6.85127 2.39814C5.85302 2.81163 4.94619 3.41813 4.18216 4.18216C3.41813 4.94619 2.81163 5.85302 2.39814 6.85127C1.98467 7.8495 1.77215 8.91952 1.77215 10C1.77215 11.0805 1.98467 12.1505 2.39814 13.1487C2.81163 14.147 3.41813 15.0538 4.18216 15.8178C4.94619 16.5819 5.85302 17.1884 6.85127 17.6019C7.8495 18.0153 8.91952 18.2278 10 18.2278C11.0805 18.2278 12.1505 18.0153 13.1487 17.6019C14.147 17.1884 15.0538 16.5819 15.8178 15.8178C16.5819 15.0538 17.1884 14.147 17.6019 13.1487C18.0153 12.1505 18.2278 11.0805 18.2278 10ZM9.11392 15.0732V15.0633C9.11392 14.5739 9.51063 14.1772 10 14.1772C10.4894 14.1772 10.8861 14.5739 10.8861 15.0633V15.0732C10.8861 15.5625 10.4894 15.9593 10 15.9593C9.51063 15.9593 9.11392 15.5625 9.11392 15.0732ZM10.0821 4.02195C10.6267 4.02348 11.1637 4.15153 11.6505 4.39577C12.1372 4.64002 12.5609 4.99355 12.8877 5.42919C13.2145 5.86492 13.4353 6.37091 13.5334 6.90665C13.6316 7.44229 13.6043 7.99341 13.4533 8.51661C13.3023 9.03983 13.0317 9.5209 12.6632 9.92188C12.2946 10.3229 11.8378 10.6332 11.3291 10.8277C11.3217 10.8306 11.3139 10.833 11.3064 10.8356C11.177 10.8812 11.066 10.9678 10.9899 11.0819C10.9139 11.196 10.8774 11.3317 10.8851 11.4686C10.9128 11.9571 10.5389 12.3762 10.0504 12.4041C9.56193 12.4318 9.14274 12.0579 9.11491 11.5694C9.08539 11.0489 9.22624 10.5327 9.51543 10.0989C9.80012 9.67185 10.2142 9.34825 10.6962 9.17326V9.17227C10.9487 9.0757 11.1758 8.92234 11.3588 8.7233C11.5417 8.52424 11.6754 8.28488 11.7504 8.02512C11.8254 7.7654 11.8387 7.49196 11.79 7.22607C11.7412 6.96013 11.6318 6.70858 11.4695 6.49229C11.3074 6.27614 11.097 6.10022 10.8554 5.97903C10.6139 5.8579 10.3474 5.79487 10.0771 5.79411C9.80688 5.79336 9.54011 5.85527 9.29786 5.97508C9.05554 6.09498 8.84419 6.26997 8.68078 6.48536C8.38495 6.87507 7.82849 6.9512 7.43869 6.65546C7.04898 6.35964 6.97285 5.80317 7.26859 5.41337C7.59778 4.97955 8.02357 4.62838 8.51167 4.38687C8.99983 4.14533 9.53744 4.02044 10.0821 4.02195ZM20 10C20 11.3132 19.7411 12.6139 19.2385 13.8271C18.736 15.0403 17.9993 16.1423 17.0708 17.0708C16.1423 17.9993 15.0403 18.736 13.8271 19.2385C12.6139 19.7411 11.3132 20 10 20C8.68678 20 7.38612 19.7411 6.17286 19.2385C4.95975 18.736 3.85769 17.9993 2.92919 17.0708C2.0007 16.1423 1.26402 15.0403 0.761472 13.8271C0.258924 12.6139 0 11.3132 0 10C0 8.68678 0.258924 7.38612 0.761472 6.17286C1.26402 4.95975 2.0007 3.85769 2.92919 2.92919C3.85769 2.0007 4.95975 1.26402 6.17286 0.761472C7.38612 0.258924 8.68678 0 10 0C11.3132 0 12.6139 0.258924 13.8271 0.761472C15.0403 1.26402 16.1423 2.0007 17.0708 2.92919C17.9993 3.85769 18.736 4.95975 19.2385 6.17286C19.7411 7.38612 20 8.68678 20 10Z" fill="currentColor"/>
</svg>
