<svg preserveAspectRatio="none" width="100%" height="100%" overflow="visible" style="display: block;" viewBox="0 0 20 20" fill="none" xmlns="http://www.w3.org/2000/svg">
<path id="Vector" d="M18.2278 10C18.2278 7.81784 17.3609 5.72518 15.8178 4.18216C14.2748 2.63914 12.1822 1.77215 10 1.77215C7.81784 1.77215 5.72518 2.63914 4.18216 4.18216C2.63914 5.72518 1.77215 7.81784 1.77215 10C1.77215 11.0805 1.98467 12.1505 2.39814 13.1487C2.81163 14.147 3.41813 15.0538 4.18216 15.8178C4.94619 16.5819 5.85302 17.1884 6.85127 17.6019C7.8495 18.0153 8.91952 18.2278 10 18.2278C11.0805 18.2278 12.1505 18.0153 13.1487 17.6019C14.147 17.1884 15.0538 16.5819 15.8178 15.8178C16.5819 15.0538 17.1884 14.147 17.6019 13.1487C18.0153 12.1505 18.2278 11.0805 18.2278 10ZM9.11392 14.0605V14.0506C9.11392 13.5613 9.51063 13.1646 10 13.1646C10.4894 13.1646 10.8861 13.5613 10.8861 14.0506V14.0605C10.8861 14.5499 10.4894 14.9466 10 14.9466C9.51063 14.9466 9.11392 14.5499 9.11392 14.0605ZM9.44422 6.13232C10.0834 6.00444 10.7468 6.09674 11.3271 6.39339H11.3281C11.9113 6.69059 12.3777 7.17542 12.6513 7.76998C12.925 8.36475 12.99 9.03529 12.8362 9.67168C12.6824 10.3078 12.3186 10.8736 11.8038 11.2777C11.2887 11.6819 10.6517 11.9007 9.99703 11.8987C9.50781 11.8971 9.11245 11.499 9.11392 11.0097C9.11556 10.5205 9.5137 10.1251 10.003 10.1266C10.259 10.1273 10.5076 10.0414 10.7091 9.88331C10.9105 9.72523 11.0533 9.50422 11.1135 9.25534C11.1737 9.00651 11.1482 8.74428 11.0413 8.51167C10.9343 8.27895 10.7514 8.08902 10.5231 7.97271L10.5212 7.97172C10.2965 7.85671 10.0398 7.82045 9.79233 7.86986C9.54463 7.91942 9.32064 8.05185 9.15744 8.24466C8.84127 8.61805 8.28191 8.66457 7.90843 8.3485C7.53494 8.03235 7.4885 7.473 7.80459 7.09949C8.22627 6.60132 8.80424 6.26037 9.44422 6.13232ZM20 10C20 11.3132 19.7411 12.6139 19.2385 13.8271C18.736 15.0403 17.9993 16.1423 17.0708 17.0708C16.1423 17.9993 15.0403 18.736 13.8271 19.2385C12.6139 19.7411 11.3132 20 10 20C8.68678 20 7.38612 19.7411 6.17286 19.2385C4.95975 18.736 3.85769 17.9993 2.92919 17.0708C2.0007 16.1423 1.26402 15.0403 0.761472 13.8271C0.258924 12.6139 0 11.3132 0 10C6.03591e-08 7.34784 1.05383 4.80456 2.92919 2.92919C4.80456 1.05383 7.34784 0 10 0C12.6522 0 15.1954 1.05383 17.0708 2.92919C18.9462 4.80456 20 7.34784 20 10Z" fill="currentColor"/>
</svg>
