<svg preserveAspectRatio="none" width="100%" height="100%" overflow="visible" style="display: block;" viewBox="0 0 19.9528 20" fill="none" xmlns="http://www.w3.org/2000/svg">
<path id="Vector" d="M0 18.1901V13.1267C3.7577e-05 12.6374 0.396736 12.2406 0.886082 12.2406H5.94941C6.43875 12.2406 6.83545 12.6374 6.83549 13.1267C6.83549 13.6161 6.43878 14.0128 5.94941 14.0128H2.77197C3.53477 15.3778 4.67469 16.5068 6.06907 17.2535C7.85109 18.2077 9.92217 18.4723 11.8869 17.9972C13.8519 17.522 15.5737 16.3397 16.7228 14.6764C17.8718 13.0132 18.368 10.9851 18.1172 8.97916C17.8664 6.97317 16.8862 5.12935 15.363 3.80013C13.84 2.47109 11.8809 1.74984 9.85964 1.77282C7.83815 1.79591 5.89514 2.56204 4.40272 3.92572C2.91042 5.28938 1.97208 7.15494 1.76722 9.16606C1.71755 9.65283 1.28288 10.0068 0.796089 9.95721C0.309364 9.9075 -0.0446388 9.47285 0.00494465 8.98608C0.254 6.5418 1.3943 4.27469 3.20809 2.61736C5.02191 0.960133 7.38213 0.0287306 9.83887 0.000653082C12.2956 -0.027408 14.6768 0.849674 16.528 2.46507C18.3793 4.0806 19.5708 6.32154 19.8755 8.75961C20.1802 11.1976 19.5771 13.6626 18.1805 15.6841C16.7839 17.7054 14.6923 19.1423 12.3043 19.7199C9.91608 20.2975 7.39846 19.975 5.23243 18.8151C3.84412 18.0716 2.66377 17.0164 1.77216 15.7474V18.1901C1.77216 18.6794 1.37545 19.0761 0.886082 19.0761C0.396712 19.0761 0 18.6794 0 18.1901ZM9.06355 6.03808C9.06359 5.54874 9.46029 5.15199 9.94963 5.15199C10.4389 5.1521 10.8357 5.5488 10.8357 6.03808V9.72283L12.601 11.4881C12.9469 11.8341 12.947 12.395 12.601 12.741C12.2549 13.0867 11.6939 13.0869 11.348 12.741L9.32265 10.7157C9.15648 10.5495 9.06355 10.3237 9.06355 10.0887V6.03808Z" fill="currentColor"/>
</svg>
