<svg preserveAspectRatio="none" width="100%" height="100%" overflow="visible" style="display: block;" viewBox="0 0 20 19.9997" fill="none" xmlns="http://www.w3.org/2000/svg">
<path id="Vector" d="M12.1518 13.0379C12.1518 12.7358 12.0322 12.4456 11.8186 12.2319C11.6049 12.0183 11.3148 11.8987 11.0126 11.8987H8.98737C8.68523 11.8987 8.39506 12.0183 8.18142 12.2319C7.96778 12.4456 7.84816 12.7358 7.84816 13.0379V18.2276H12.1518V13.0379ZM17.9745 17.0884C17.9745 17.8605 17.668 18.6013 17.122 19.1473C16.5761 19.6933 15.8353 19.9997 15.0631 19.9997H4.93685C4.16473 19.9997 3.42395 19.6933 2.87797 19.1473C2.332 18.6013 2.02554 17.8605 2.02554 17.0884V10.8861H0.886336C0.527971 10.8861 0.20468 10.6703 0.0675304 10.3392C-0.0696134 10.0081 0.00596748 9.62646 0.259376 9.37305L9.37304 0.259387L9.44028 0.199064C9.78831 -0.0850594 10.3025 -0.065111 10.627 0.259387L19.7406 9.37305C19.994 9.62646 20.0696 10.0081 19.9325 10.3392C19.7953 10.6703 19.472 10.8861 19.1137 10.8861H17.9745V17.0884ZM13.9239 18.2276H15.0631C15.3653 18.2276 15.6555 18.108 15.8691 17.8944C16.0827 17.6807 16.2024 17.3906 16.2024 17.0884V10C16.2024 9.54716 16.5421 9.17409 16.9806 9.12088L10 2.14027L3.0184 9.12088C3.45736 9.17365 3.79765 9.54683 3.79765 10V17.0884C3.79765 17.3906 3.91726 17.6807 4.1309 17.8944C4.34455 18.108 4.63472 18.2276 4.93685 18.2276H6.07606V13.0379C6.07606 12.2658 6.38251 11.525 6.92849 10.979C7.47447 10.433 8.21524 10.1266 8.98737 10.1266H11.0126C11.7848 10.1266 12.5255 10.433 13.0715 10.979C13.6175 11.525 13.9239 12.2658 13.9239 13.0379V18.2276Z" fill="currentColor"/>
</svg>
