<svg preserveAspectRatio="none" width="100%" height="100%" overflow="visible" style="display: block;" viewBox="0 0 13.9241 20" fill="none" xmlns="http://www.w3.org/2000/svg">
<path id="Vector" d="M12.1489 15.9494H1.77512C1.77409 15.9915 1.77215 16.0337 1.77215 16.0759V18.1013C1.77215 18.1348 1.785 18.1675 1.80874 18.1913C1.83248 18.215 1.86516 18.2278 1.89873 18.2278H12.0253C12.0589 18.2278 12.0916 18.215 12.1153 18.1913C12.139 18.1675 12.1519 18.1348 12.1519 18.1013V16.0759C12.1519 16.0337 12.15 15.9915 12.1489 15.9494ZM6.96203 10.8861C5.58559 10.8861 4.26542 11.4328 3.29213 12.4061C2.78295 12.9152 2.39161 13.5198 2.13311 14.1772H11.7909C11.5324 13.5198 11.1411 12.9152 10.6319 12.4061C9.65863 11.4328 8.33846 10.8861 6.96203 10.8861ZM2.13311 5.82278C2.39161 6.48019 2.78295 7.08477 3.29213 7.59395C4.26542 8.56724 5.58559 9.11392 6.96203 9.11392C8.33846 9.11392 9.65863 8.56724 10.6319 7.59395C11.1411 7.08477 11.5324 6.48019 11.7909 5.82278H2.13311ZM12.1519 1.89873C12.1519 1.86516 12.139 1.83248 12.1153 1.80874C12.0916 1.785 12.0589 1.77215 12.0253 1.77215H1.89873C1.86516 1.77215 1.83248 1.785 1.80874 1.80874C1.785 1.83248 1.77215 1.86516 1.77215 1.89873V3.92405C1.77215 3.96631 1.77409 4.00849 1.77512 4.05063H12.1489C12.15 4.00849 12.1519 3.96631 12.1519 3.92405V1.89873ZM13.9241 3.92405C13.9241 5.77049 13.1905 7.54128 11.8849 8.84691C11.4274 9.30438 10.9119 9.68995 10.357 10C10.9119 10.31 11.4274 10.6956 11.8849 11.1531C13.1905 12.4587 13.9241 14.2295 13.9241 16.0759V18.1013C13.9241 18.6048 13.7244 19.0881 13.3683 19.4442C13.0122 19.8003 12.5289 20 12.0253 20H1.89873C1.39516 20 0.911858 19.8003 0.555775 19.4442C0.199694 19.0881 0 18.6048 0 18.1013V16.0759C0 14.2295 0.733528 12.4587 2.03916 11.1531C2.49642 10.6958 3.01142 10.31 3.56606 10C3.01142 9.69002 2.49642 9.30418 2.03916 8.84691C0.733529 7.54128 0 5.77049 0 3.92405V1.89873C0 1.39516 0.199694 0.911857 0.555775 0.555775C0.911857 0.199694 1.39516 0 1.89873 0H12.0253C12.5289 0 13.0122 0.199693 13.3683 0.555775C13.7244 0.911858 13.9241 1.39516 13.9241 1.89873V3.92405Z" fill="currentColor"/>
</svg>
