<svg preserveAspectRatio="none" width="100%" height="100%" overflow="visible" style="display: block;" viewBox="0 0 20 20" fill="none" xmlns="http://www.w3.org/2000/svg">
<path id="Vector" d="M10.1408 14.4509C9.41672 14.5721 8.6732 14.8337 8.05678 15.296C7.35513 15.8222 6.7449 16.6584 6.5471 18.0282H8.87324C9.20943 18.0282 9.5323 17.8951 9.77003 17.6574C10.0077 17.4196 10.1408 17.0968 10.1408 16.7606V14.4509ZM18.0282 17.8873V15.6338C18.0282 15.0893 18.4696 14.6479 19.0141 14.6479C19.5586 14.6479 20 15.0893 20 15.6338V17.8873C20 18.4476 19.7778 18.9854 19.3816 19.3816C18.9854 19.7778 18.4476 20 17.8873 20H15.6338C15.0893 20 14.6479 19.5586 14.6479 19.0141C14.6479 18.4696 15.0893 18.0282 15.6338 18.0282H17.8873C17.9247 18.0282 17.961 18.0139 17.9875 17.9875C18.0139 17.961 18.0282 17.9247 18.0282 17.8873ZM18.0282 11.1268V8.87324C18.0282 8.32873 18.4696 7.88732 19.0141 7.88732C19.5586 7.88732 20 8.32873 20 8.87324V11.1268C20 11.6713 19.5586 12.1127 19.0141 12.1127C18.4696 12.1127 18.0282 11.6713 18.0282 11.1268ZM0 4.3662V2.11268C0 1.55236 0.222195 1.0146 0.618398 0.618398C1.0146 0.222195 1.55236 0 2.11268 0H4.3662C4.9107 1.45185e-07 5.35211 0.44141 5.35211 0.985916C5.35211 1.53042 4.9107 1.97183 4.3662 1.97183H2.11268C2.07532 1.97183 2.03896 1.98613 2.01254 2.01254C1.98613 2.03896 1.97183 2.07532 1.97183 2.11268V4.3662C1.97183 4.9107 1.53042 5.35211 0.985916 5.35211C0.441409 5.35211 0 4.9107 0 4.3662ZM18.0282 4.3662V2.11268C18.0282 2.07532 18.0139 2.03896 17.9875 2.01254C17.961 1.98613 17.9247 1.97183 17.8873 1.97183H15.6338C15.0893 1.97183 14.6479 1.53042 14.6479 0.985916C14.6479 0.441409 15.0893 0 15.6338 0H17.8873C18.4476 2.8458e-07 18.9854 0.222194 19.3816 0.618398C19.7778 1.0146 20 1.55236 20 2.11268V4.3662C20 4.9107 19.5586 5.35211 19.0141 5.35211C18.4696 5.35211 18.0282 4.9107 18.0282 4.3662ZM11.1268 0C11.6713 5.80741e-07 12.1127 0.44141 12.1127 0.985916C12.1127 1.53042 11.6713 1.97183 11.1268 1.97183H8.87324C8.32873 1.97183 7.88732 1.53042 7.88732 0.985916C7.88732 0.441409 8.32873 0 8.87324 0H11.1268ZM10.1408 11.1268C10.1408 10.7906 10.0077 10.4677 9.77003 10.23C9.5323 9.99225 9.20943 9.85916 8.87324 9.85916H3.23944C2.90325 9.85916 2.58037 9.99225 2.34265 10.23C2.10493 10.4677 1.97183 10.7906 1.97183 11.1268V16.7606C1.97183 17.0968 2.10493 17.4196 2.34265 17.6574C2.58037 17.8951 2.90325 18.0282 3.23944 18.0282H4.56096C4.77948 16.0271 5.66512 14.6239 6.8728 13.7181C7.89195 12.9537 9.07728 12.59 10.1408 12.4571V11.1268ZM12.1127 16.7606C12.1127 17.6197 11.7717 18.444 11.1642 19.0515C10.5567 19.659 9.73239 20 8.87324 20H3.23944C2.38028 20 1.55602 19.659 0.948504 19.0515C0.340991 18.444 0 17.6197 0 16.7606V11.1268C0 10.2676 0.340991 9.44334 0.948504 8.83583C1.55602 8.22832 2.38028 7.88732 3.23944 7.88732H8.87324C9.73239 7.88732 10.5567 8.22832 11.1642 8.83583C11.7717 9.44334 12.1127 10.2676 12.1127 11.1268V16.7606Z" fill="currentColor"/>
</svg>
