<svg preserveAspectRatio="none" width="100%" height="100%" overflow="visible" style="display: block;" viewBox="0 0 20 20" fill="none" xmlns="http://www.w3.org/2000/svg">
<path id="Vector" d="M18.0282 12.1127H16.0431L12.9511 15.2047C12.7662 15.3896 12.515 15.493 12.2535 15.493H7.74648C7.485 15.493 7.23375 15.3896 7.04886 15.2047L3.95687 12.1127H1.97183V16.7606C1.97183 17.0968 2.10493 17.4196 2.34265 17.6574C2.58037 17.8951 2.90325 18.0282 3.23944 18.0282H16.7606C17.0968 18.0282 17.4196 17.8951 17.6574 17.6574C17.8951 17.4196 18.0282 17.0968 18.0282 16.7606V12.1127ZM18.0282 3.23944C18.0282 2.90325 17.8951 2.58037 17.6574 2.34265C17.4196 2.10493 17.0968 1.97183 16.7606 1.97183H3.23944C2.90325 1.97183 2.58037 2.10493 2.34265 2.34265C2.10493 2.58037 1.97183 2.90325 1.97183 3.23944V10.1408H4.3662L4.46413 10.1452C4.68966 10.1677 4.90214 10.2675 5.06382 10.4291L8.15581 13.5211H11.8442L14.9362 10.4291C15.1211 10.2442 15.3723 10.1408 15.6338 10.1408H18.0282V3.23944ZM20 16.7606C20 17.6197 19.659 18.444 19.0515 19.0515C18.444 19.659 17.6197 20 16.7606 20H3.23944C2.38028 20 1.55602 19.659 0.948504 19.0515C0.340991 18.444 0 17.6197 0 16.7606V3.23944C0 2.38028 0.340991 1.55602 0.948504 0.948504C1.55602 0.340991 2.38028 0 3.23944 0H16.7606C17.6197 2.84581e-07 18.444 0.340992 19.0515 0.948504C19.659 1.55602 20 2.38028 20 3.23944V16.7606Z" fill="currentColor"/>
</svg>
