<svg preserveAspectRatio="none" width="100%" height="100%" overflow="visible" style="display: block;" viewBox="0 0 20 16.9621" fill="none" xmlns="http://www.w3.org/2000/svg">
<path id="Vector" d="M17.2148 12.0251C17.2148 11.4544 16.9884 10.9067 16.5849 10.5031C16.1813 10.0996 15.6337 9.87321 15.063 9.87321C14.4923 9.87321 13.9446 10.0996 13.541 10.5031C13.1375 10.9067 12.9111 11.4544 12.9111 12.0251C12.9111 12.5958 13.1375 13.1434 13.541 13.547C13.9446 13.9505 14.4923 14.1769 15.063 14.1769C15.6337 14.1769 16.1813 13.9505 16.5849 13.547C16.9884 13.1434 17.2148 12.5958 17.2148 12.0251ZM16.2022 4.9366V2.91133C16.2022 2.60919 16.0826 2.31902 15.8689 2.10537C15.6553 1.89173 15.3651 1.77211 15.063 1.77211H2.91133C2.60919 1.77211 2.31902 1.89173 2.10537 2.10537C1.89173 2.31902 1.77211 2.60919 1.77211 2.91133V7.97451C1.77211 8.27665 1.89173 8.56682 2.10537 8.78047C2.31902 8.99411 2.60919 9.11373 2.91133 9.11373H7.97451C8.46387 9.11373 8.86057 9.51043 8.86057 9.99979C8.86057 10.4891 8.46387 10.8858 7.97451 10.8858H2.91133C2.1392 10.8858 1.39841 10.5794 0.852434 10.0334C0.306454 9.48743 0 8.74665 0 7.97451V2.91133C0 2.1392 0.306454 1.39841 0.852434 0.852434C1.39841 0.306454 2.1392 0 2.91133 0H15.063C15.8351 0 16.5759 0.306454 17.1219 0.852434C17.6678 1.39841 17.9743 2.1392 17.9743 2.91133V4.9366C17.9743 5.42596 17.5776 5.82266 17.0882 5.82266C16.5989 5.82266 16.2022 5.42596 16.2022 4.9366ZM18.9869 12.0251C18.9869 12.7649 18.7758 13.4819 18.3906 14.0998L19.7405 15.4486C20.0865 15.7947 20.0865 16.3565 19.7405 16.7026C19.3945 17.0486 18.8326 17.0486 18.4866 16.7026L17.1377 15.3527C16.5198 15.7379 15.8028 15.949 15.063 15.949C14.0223 15.949 13.024 15.5358 12.2881 14.7999C11.5522 14.064 11.139 13.0658 11.139 12.0251C11.139 10.9844 11.5522 9.98608 12.2881 9.2502C13.024 8.51431 14.0223 8.10109 15.063 8.10109C16.1037 8.10109 17.1019 8.51431 17.8378 9.2502C18.5737 9.98608 18.9869 10.9844 18.9869 12.0251Z" fill="currentColor"/>
</svg>
