<svg preserveAspectRatio="none" width="100%" height="100%" overflow="visible" style="display: block;" viewBox="0 0 20 20" fill="none" xmlns="http://www.w3.org/2000/svg">
<path id="Vector" d="M6.07595 6.47646C6.07595 5.97746 6.17473 5.48277 6.3657 5.02176C6.55668 4.56091 6.83671 4.14227 7.18948 3.78956L9.86551 1.11254C10.2183 0.759772 10.6378 0.480692 11.0987 0.289755C11.5597 0.098829 12.0535 0 12.5524 0C13.0514 1.01446e-06 13.5452 0.0988264 14.0061 0.289755C14.4668 0.480604 14.8857 0.760001 15.2383 1.11254L18.8865 4.76068C19.2392 5.11339 19.5193 5.53203 19.7102 5.99288C19.9012 6.45389 20 6.94858 20 7.44759C20 7.94649 19.9012 8.44038 19.7102 8.90131C19.5193 9.36232 19.2393 9.78167 18.8865 10.1345L16.2104 12.8105C15.8576 13.1634 15.4383 13.4433 14.9773 13.6343C14.5163 13.8252 14.0224 13.9241 13.5235 13.9241C13.0246 13.924 12.5307 13.8252 12.0698 13.6343C11.7494 13.5016 11.4495 13.3254 11.1778 13.1121L5.14438 19.1466C4.66074 19.6301 4.02187 19.9282 3.34059 19.9881C3.32823 19.9892 3.31539 19.9905 3.30301 19.9911L3.12599 19.999C3.11253 19.9996 3.09892 20 3.08544 20H1.89873C1.43369 19.9999 0.984394 19.8294 0.636867 19.5204C0.289334 19.2113 0.0672686 18.7847 0.012856 18.3228C0.0108958 18.3061 0.00990543 18.2892 0.00890032 18.2723L0.00197785 18.1537C0.00093885 18.1362 3.85062e-06 18.1188 0 18.1013V16.9136C0.000272512 16.2302 0.240499 15.5683 0.679391 15.0445L0.705103 15.0158L0.825752 14.8843L0.852453 14.8556L1.27176 14.4363C1.43793 14.2701 1.66373 14.1772 1.89873 14.1772H3.03797V13.038C3.03797 12.5486 3.43468 12.1519 3.92405 12.1519H5.06329V11.0127C5.06329 10.7777 5.15628 10.5518 5.32239 10.3857L6.88687 8.8212C6.67391 8.54978 6.49828 8.25022 6.3657 7.93018C6.17477 7.46925 6.07598 6.97537 6.07595 6.47646ZM13.0479 6.07595C13.5372 6.07595 13.9339 6.47266 13.9339 6.96203C13.9338 7.4513 13.5372 7.8481 13.0479 7.8481H13.038C12.5487 7.8481 12.152 7.4513 12.1519 6.96203C12.1519 6.47266 12.5486 6.07595 13.038 6.07595H13.0479ZM7.8481 6.47646C7.84813 6.7425 7.90061 7.00598 8.00237 7.25178C8.10428 7.49777 8.25416 7.72214 8.44244 7.9104L8.74703 8.21499C9.09297 8.56103 9.09303 9.12196 8.74703 9.46796L6.83544 11.3795V13.038C6.83534 13.5273 6.43867 13.9241 5.94937 13.9241H4.81013V15.0633C4.81002 15.5526 4.41335 15.9494 3.92405 15.9494H2.26563L2.12124 16.0928L2.03125 16.1917C1.86394 16.3953 1.77222 16.6508 1.77215 16.9146V18.0746L1.77512 18.122C1.7799 18.1503 1.79325 18.1761 1.81468 18.1952C1.83782 18.2158 1.86777 18.2278 1.89873 18.2278H3.06665L3.18928 18.2219C3.45425 18.1977 3.70216 18.0817 3.89043 17.8936L10.532 11.253L10.5993 11.1917C10.9473 10.9079 11.4607 10.9286 11.785 11.253L12.0896 11.5576C12.2778 11.7458 12.5013 11.8957 12.7472 11.9976C12.9932 12.0995 13.2573 12.1519 13.5235 12.1519C13.7898 12.1519 14.0539 12.0995 14.2998 11.9976C14.5458 11.8957 14.7693 11.7458 14.9575 11.5576L17.6335 8.88153C17.8218 8.69327 17.9717 8.46889 18.0736 8.2229C18.1753 7.9771 18.2278 7.71363 18.2278 7.44759C18.2278 7.18133 18.1755 6.91727 18.0736 6.67128C17.9717 6.42533 17.8218 6.20189 17.6335 6.01365L13.9864 2.3665C13.7982 2.17829 13.5746 2.02832 13.3287 1.92642C13.0827 1.82452 12.8187 1.77215 12.5524 1.77215C12.2862 1.77215 12.0221 1.82452 11.7761 1.92642C11.5302 2.02832 11.3067 2.17829 11.1185 2.3665L8.44244 5.04252C8.25417 5.23077 8.10427 5.4542 8.00237 5.70016C7.90047 5.94615 7.8481 6.2102 7.8481 6.47646Z" fill="currentColor"/>
</svg>
