<svg preserveAspectRatio="none" width="100%" height="100%" overflow="visible" style="display: block;" viewBox="0 0 20 12.6437" fill="none" xmlns="http://www.w3.org/2000/svg">
<path id="Vector" d="M18.3908 2.64368C18.3908 2.36932 18.2822 2.10582 18.0882 1.91182C17.8942 1.71781 17.6307 1.6092 17.3563 1.6092H2.64368C2.36932 1.6092 2.10582 1.71781 1.91182 1.91182C1.71781 2.10582 1.6092 2.36932 1.6092 2.64368V10C1.6092 10.2744 1.71781 10.5379 1.91182 10.7319C2.10582 10.9259 2.36932 11.0345 2.64368 11.0345H17.3563C17.6307 11.0345 17.8942 10.9259 18.0882 10.7319C18.2822 10.5379 18.3908 10.2744 18.3908 10V2.64368ZM3.67816 8.1699V8.16092C3.67816 7.71655 4.03839 7.35632 4.48276 7.35632C4.92713 7.35632 5.28736 7.71655 5.28736 8.16092V8.1699C5.28736 8.61427 4.92713 8.9745 4.48276 8.9745C4.03839 8.9745 3.67816 8.61427 3.67816 8.1699ZM11.8409 7.3653C12.2851 7.36641 12.6446 7.72753 12.6437 8.1717C12.6426 8.61599 12.2816 8.97549 11.8373 8.9745L8.15912 8.96552C7.71483 8.96441 7.35533 8.60339 7.35632 8.15912C7.35743 7.71483 7.71845 7.35533 8.16272 7.35632L11.8409 7.3653ZM14.7126 8.1699V8.16092C14.7126 7.71655 15.0729 7.35632 15.5172 7.35632C15.9616 7.35632 16.3218 7.71655 16.3218 8.16092V8.1699C16.3218 8.61427 15.9616 8.9745 15.5172 8.9745C15.0729 8.9745 14.7126 8.61427 14.7126 8.1699ZM3.67816 4.49174V4.48276C3.67816 4.03839 4.03839 3.67816 4.48276 3.67816C4.92713 3.67816 5.28736 4.03839 5.28736 4.48276V4.49174C5.28736 4.93611 4.92713 5.29634 4.48276 5.29634C4.03839 5.29634 3.67816 4.93611 3.67816 4.49174ZM7.35632 4.49174V4.48276C7.35632 4.03839 7.71655 3.67816 8.16092 3.67816C8.60529 3.67816 8.96552 4.03839 8.96552 4.48276V4.49174C8.96552 4.93611 8.60529 5.29634 8.16092 5.29634C7.71655 5.29634 7.35632 4.93611 7.35632 4.49174ZM11.0345 4.49174V4.48276C11.0345 4.03839 11.3947 3.67816 11.8391 3.67816C12.2834 3.67816 12.6437 4.03839 12.6437 4.48276V4.49174C12.6437 4.93611 12.2834 5.29634 11.8391 5.29634C11.3947 5.29634 11.0345 4.93611 11.0345 4.49174ZM14.7126 4.49174V4.48276C14.7126 4.03839 15.0729 3.67816 15.5172 3.67816C15.9616 3.67816 16.3218 4.03839 16.3218 4.48276V4.49174C16.3218 4.93611 15.9616 5.29634 15.5172 5.29634C15.0729 5.29634 14.7126 4.93611 14.7126 4.49174ZM20 10C20 10.7011 19.7217 11.3738 19.2259 11.8696C18.7301 12.3654 18.0575 12.6437 17.3563 12.6437H2.64368C1.94253 12.6437 1.26985 12.3654 0.774066 11.8696C0.27828 11.3738 0 10.7011 0 10V2.64368C0 1.94253 0.27828 1.26985 0.774066 0.774066C1.26985 0.27828 1.94253 0 2.64368 0H17.3563C18.0575 0 18.7301 0.27828 19.2259 0.774066C19.7217 1.26985 20 1.94253 20 2.64368V10Z" fill="currentColor"/>
</svg>
