<svg preserveAspectRatio="none" width="100%" height="100%" overflow="visible" style="display: block;" viewBox="0 0 18.9336 20" fill="none" xmlns="http://www.w3.org/2000/svg">
<path id="Vector" d="M13.7332 8.53302C14.102 8.53302 14.4365 8.75013 14.5863 9.08718L18.8529 18.6871C19.0623 19.1581 18.85 19.71 18.379 19.9193C17.9079 20.1287 17.356 19.9164 17.1467 19.4454L16.4446 17.8662H11.0217L10.3197 19.4454C10.1103 19.9164 9.55843 20.1287 9.0874 19.9193C8.61636 19.71 8.4041 19.1581 8.61344 18.6871L12.8801 9.08718C13.0299 8.75013 13.3643 8.53302 13.7332 8.53302ZM11.8509 15.9996H15.6154L13.7332 11.7642L11.8509 15.9996ZM8.3999 3.59558C8.91536 3.59558 9.33323 4.01344 9.33323 4.5289C9.33317 5.04431 8.91533 5.46222 8.3999 5.46222H7.16971C7.03868 7.40973 6.48975 9.00562 5.59994 10.1976C6.37532 10.4658 7.31844 10.6392 8.42282 10.6663C8.93812 10.679 9.34588 11.1073 9.33323 11.6226C9.32057 12.1379 8.89229 12.5456 8.37699 12.533C6.72916 12.4925 5.28418 12.1656 4.11766 11.6038C3.17675 12.2214 2.08548 12.533 0.933323 12.533C0.417863 12.533 0 12.1151 0 11.5997C0 11.0842 0.417863 10.6663 0.933323 10.6663C1.44982 10.6663 1.93963 10.5781 2.39268 10.4038C1.5571 9.56517 1.06665 8.51034 1.06665 7.33303C1.06665 6.81757 1.48452 6.39971 1.99998 6.39971C2.51544 6.39971 2.9333 6.81757 2.9333 7.33303C2.9333 8.02254 3.24548 8.70856 3.93641 9.29239C3.95131 9.27479 3.96755 9.25824 3.98225 9.2403C4.65743 8.4158 5.16118 7.17647 5.29577 5.46222H0.933323C0.417896 5.46222 5.4147e-05 5.04431 0 4.5289C0 4.01344 0.417863 3.59558 0.933323 3.59558H8.3999ZM3.05413 0.381031C3.35911 -0.034522 3.94377 -0.12395 4.35933 0.181033L5.20515 0.801859C5.62042 1.10689 5.71 1.69056 5.40515 2.10601C5.1002 2.52151 4.51654 2.61086 4.10099 2.30601L3.25517 1.68518C2.8397 1.38026 2.74937 0.796568 3.05413 0.381031Z" fill="currentColor"/>
</svg>
