<svg preserveAspectRatio="none" width="100%" height="100%" overflow="visible" style="display: block;" viewBox="0 0 20 20" fill="none" xmlns="http://www.w3.org/2000/svg">
<path id="Vector" d="M6.76056 13.3803C6.76056 13.3429 6.74626 13.3066 6.71985 13.2802C6.69344 13.2537 6.65707 13.2394 6.61972 13.2394H2.11268C2.07532 13.2394 2.03896 13.2537 2.01254 13.2802C1.98613 13.3066 1.97183 13.3429 1.97183 13.3803V17.8873C1.97183 17.9247 1.98613 17.961 2.01254 17.9875C2.03896 18.0139 2.07532 18.0282 2.11268 18.0282H6.61972C6.65707 18.0282 6.69344 18.0139 6.71985 17.9875C6.74626 17.961 6.76056 17.9247 6.76056 17.8873V13.3803ZM18.0282 13.3803C18.0282 13.3429 18.0139 13.3066 17.9875 13.2802C17.961 13.2537 17.9247 13.2394 17.8873 13.2394H13.3803C13.3429 13.2394 13.3066 13.2537 13.2802 13.2802C13.2537 13.3066 13.2394 13.3429 13.2394 13.3803V17.8873C13.2394 17.9247 13.2537 17.961 13.2802 17.9875C13.3066 18.0139 13.3429 18.0282 13.3803 18.0282H17.8873C17.9247 18.0282 17.961 18.0139 17.9875 17.9875C18.0139 17.961 18.0282 17.9247 18.0282 17.8873V13.3803ZM6.76056 2.11268C6.76056 2.07532 6.74626 2.03896 6.71985 2.01254C6.69344 1.98613 6.65707 1.97183 6.61972 1.97183H2.11268C2.07532 1.97183 2.03896 1.98613 2.01254 2.01254C1.98613 2.03896 1.97183 2.07532 1.97183 2.11268V6.61972C1.97183 6.65707 1.98613 6.69344 2.01254 6.71985C2.03896 6.74626 2.07532 6.76056 2.11268 6.76056H6.61972C6.65707 6.76056 6.69344 6.74626 6.71985 6.71985C6.74626 6.69344 6.76056 6.65707 6.76056 6.61972V2.11268ZM18.0282 2.11268C18.0282 2.07532 18.0139 2.03896 17.9875 2.01254C17.961 1.98613 17.9247 1.97183 17.8873 1.97183H13.3803C13.3429 1.97183 13.3066 1.98613 13.2802 2.01254C13.2537 2.03896 13.2394 2.07532 13.2394 2.11268V6.61972C13.2394 6.65707 13.2537 6.69344 13.2802 6.71985C13.3066 6.74626 13.3429 6.76056 13.3803 6.76056H17.8873C17.9247 6.76056 17.961 6.74626 17.9875 6.71985C18.0139 6.69344 18.0282 6.65707 18.0282 6.61972V2.11268ZM8.73239 17.8873C8.73239 18.4476 8.5102 18.9854 8.114 19.3816C7.71779 19.7778 7.18003 20 6.61972 20H2.11268C1.55236 20 1.0146 19.7778 0.618398 19.3816C0.222195 18.9854 0 18.4476 0 17.8873V13.3803C0 12.82 0.222195 12.2822 0.618398 11.886C1.0146 11.4898 1.55236 11.2676 2.11268 11.2676H6.61972C7.18004 11.2676 7.71779 11.4898 8.114 11.886C8.5102 12.2822 8.73239 12.82 8.73239 13.3803V17.8873ZM20 17.8873C20 18.4476 19.7778 18.9854 19.3816 19.3816C18.9854 19.7778 18.4476 20 17.8873 20H13.3803C12.82 20 12.2822 19.7778 11.886 19.3816C11.4898 18.9854 11.2676 18.4476 11.2676 17.8873V13.3803C11.2676 12.82 11.4898 12.2822 11.886 11.886C12.2822 11.4898 12.82 11.2676 13.3803 11.2676H17.8873C18.4476 11.2676 18.9854 11.4898 19.3816 11.886C19.7778 12.2822 20 12.82 20 13.3803V17.8873ZM8.73239 6.61972C8.73239 7.18004 8.5102 7.71779 8.114 8.114C7.71779 8.5102 7.18004 8.73239 6.61972 8.73239H2.11268C1.55236 8.73239 1.0146 8.5102 0.618398 8.114C0.222195 7.71779 0 7.18004 0 6.61972V2.11268C0 1.55236 0.222195 1.0146 0.618398 0.618398C1.0146 0.222195 1.55236 0 2.11268 0H6.61972C7.18004 1.4229e-07 7.71779 0.222195 8.114 0.618398C8.5102 1.0146 8.73239 1.55236 8.73239 2.11268V6.61972ZM20 6.61972C20 7.18003 19.7778 7.71779 19.3816 8.114C18.9854 8.5102 18.4476 8.73239 17.8873 8.73239H13.3803C12.82 8.73239 12.2822 8.5102 11.886 8.114C11.4898 7.71779 11.2676 7.18004 11.2676 6.61972V2.11268C11.2676 1.55236 11.4898 1.0146 11.886 0.618398C12.2822 0.222195 12.82 0 13.3803 0H17.8873C18.4476 2.8458e-07 18.9854 0.222194 19.3816 0.618398C19.7778 1.0146 20 1.55236 20 2.11268V6.61972Z" fill="currentColor"/>
</svg>
