<svg preserveAspectRatio="none" width="100%" height="100%" overflow="visible" style="display: block;" viewBox="0 0 20 19.997" fill="none" xmlns="http://www.w3.org/2000/svg">
<path id="Vector" d="M0 17.0856V6.95708L0.00692247 6.76523C0.037416 6.31859 0.170328 5.88375 0.396559 5.49545C0.65503 5.0519 1.02652 4.68463 1.47251 4.43038C1.89752 4.18829 2.4386 4.33582 2.68097 4.76068C2.92334 5.18581 2.77482 5.72777 2.34968 5.97013C2.1748 6.06988 2.02879 6.21352 1.92741 6.38746C1.82601 6.56151 1.77265 6.75961 1.77215 6.96104V17.0856C1.77219 17.7102 2.28686 18.2249 2.91139 18.2249H13.038C13.2515 18.2249 13.3575 18.1748 13.4316 18.121C13.5248 18.0533 13.6392 17.9251 13.7826 17.6671C14.0205 17.2398 14.5596 17.0864 14.9871 17.324C15.4147 17.5618 15.5689 18.1008 15.3313 18.5285C15.1284 18.8933 14.8626 19.2721 14.4729 19.555C14.0639 19.8518 13.5838 19.997 13.038 19.997H2.91139C1.30813 19.997 3.88709e-05 18.6889 0 17.0856ZM18.2278 11.3795L15.8099 8.96163C15.7784 8.9301 15.7404 8.90453 15.6992 8.88746C15.6581 8.87051 15.614 8.86175 15.5696 8.86175C15.5252 8.86175 15.4811 8.87051 15.4401 8.88746C15.4194 8.89602 15.3992 8.90673 15.3807 8.91911L15.3293 8.96163L14.2909 9.99901L14.6776 10.3857C15.0236 10.7317 15.0236 11.2936 14.6776 11.6396C14.3316 11.9857 13.7697 11.9857 13.4237 11.6396L9.73398 7.94897C9.70247 7.91744 9.6644 7.89187 9.62322 7.8748C9.58216 7.85785 9.53809 7.84909 9.49367 7.84909C9.44925 7.84909 9.40518 7.85785 9.36412 7.8748C9.34347 7.88336 9.32327 7.89407 9.30479 7.90645L9.25336 7.94897L5.82278 11.3795V12.3625C5.82279 12.8438 6.01352 13.3058 6.35384 13.6462C6.69415 13.9865 7.15618 14.1772 7.63746 14.1772H16.4132C16.6515 14.1772 16.8873 14.1299 17.1074 14.0388C17.3276 13.9476 17.5283 13.8147 17.6968 13.6462C17.8653 13.4777 17.9982 13.2769 18.0894 13.0568C18.1806 12.8366 18.2278 12.6008 18.2278 12.3625V11.3795ZM15.0732 4.05063C15.5625 4.05063 15.9593 4.44734 15.9593 4.93671C15.9593 5.42608 15.5625 5.82278 15.0732 5.82278H15.0633C14.5739 5.82278 14.1772 5.42608 14.1772 4.93671C14.1772 4.44734 14.5739 4.05063 15.0633 4.05063H15.0732ZM18.2278 3.58683C18.2278 3.34855 18.1806 3.11275 18.0894 2.8926C17.9982 2.67244 17.8653 2.47171 17.6968 2.3032C17.5283 2.13469 17.3276 2.0018 17.1074 1.9106C16.8873 1.81943 16.6515 1.77215 16.4132 1.77215H7.63746C7.15618 1.77215 6.69415 1.96289 6.35384 2.3032C6.01352 2.64352 5.82279 3.10555 5.82278 3.58683V8.87263L8.0004 6.696L8.15368 6.55657C8.31376 6.42513 8.49271 6.31777 8.68473 6.23813C8.94103 6.1319 9.21623 6.07694 9.49367 6.07694C9.77111 6.07694 10.0463 6.1319 10.3026 6.23813C10.5586 6.3443 10.791 6.50001 10.9869 6.696L13.037 8.74604L14.0763 7.70866L14.2296 7.56922C14.3897 7.43778 14.5687 7.33043 14.7607 7.25079C15.017 7.14456 15.2922 7.0896 15.5696 7.0896C15.8471 7.0896 16.1223 7.14456 16.3786 7.25079C16.6345 7.35696 16.867 7.51266 17.0629 7.70866L18.2278 8.87263V3.58683ZM20 12.3625C20 12.8336 19.9073 13.3 19.7271 13.7352C19.5468 14.1703 19.2828 14.5661 18.9498 14.8991C18.6167 15.2322 18.221 15.4962 17.7858 15.6764C17.3506 15.8567 16.8842 15.9494 16.4132 15.9494H7.63746C6.68618 15.9494 5.77353 15.5718 5.10087 14.8991C4.42821 14.2265 4.05063 13.3138 4.05063 12.3625V3.58683C4.05063 2.63554 4.42821 1.7229 5.10087 1.05024C5.77353 0.377577 6.68618 2.04608e-06 7.63746 0H16.4132C16.8842 1.01447e-06 17.3506 0.0926945 17.7858 0.272943C18.221 0.453199 18.6167 0.71717 18.9498 1.05024C19.2828 1.3833 19.5468 1.77902 19.7271 2.2142C19.9073 2.64937 20 3.11581 20 3.58683V12.3625Z" fill="currentColor"/>
</svg>
