<svg preserveAspectRatio="none" width="100%" height="100%" overflow="visible" style="display: block;" viewBox="0 0 19.9997 20" fill="none" xmlns="http://www.w3.org/2000/svg">
<path id="Vector" d="M0 16.0759V15.0633C5.21932e-07 14.5739 0.39671 14.1772 0.886076 14.1772H2.02532V3.92405C2.02532 2.88333 2.43854 1.88503 3.17445 1.14913C3.91035 0.413228 4.90864 0 5.94937 0H17.0886C17.1009 0 17.113 0.00247141 17.1252 0.00296677C17.3027 0.00519932 17.4805 0.0214189 17.6563 0.0563687C18.221 0.168705 18.7404 0.445287 19.1475 0.852453C19.5547 1.25962 19.8313 1.77899 19.9436 2.34375C20.0559 2.90843 19.9988 3.494 19.7785 4.02591C19.5581 4.5577 19.1851 5.01244 18.7065 5.33228C18.2277 5.65219 17.6644 5.82278 17.0886 5.82278H15.9494V17.0886C15.9494 17.8608 15.6429 18.6016 15.0969 19.1475C14.5509 19.6935 13.8101 20 13.038 20H3.92405C2.88333 20 1.88503 19.5868 1.14913 18.8509C0.413228 18.115 0 17.1167 0 16.0759ZM11.0127 8.10127C11.502 8.10127 11.8987 8.49798 11.8987 8.98734C11.8987 9.47671 11.502 9.87342 11.0127 9.87342H6.96203C6.47266 9.87342 6.07595 9.47671 6.07595 8.98734C6.07595 8.49798 6.47266 8.10127 6.96203 8.10127H11.0127ZM11.0127 4.05063C11.502 4.05063 11.8987 4.44734 11.8987 4.93671C11.8987 5.42608 11.502 5.82278 11.0127 5.82278H6.96203C6.47266 5.82278 6.07595 5.42608 6.07595 4.93671C6.07595 4.44734 6.47266 4.05063 6.96203 4.05063H11.0127ZM1.77215 16.0759C1.77215 16.6467 1.99854 17.1943 2.4021 17.5979C2.80566 18.0015 3.35333 18.2278 3.92405 18.2278H10.36C10.2081 17.8708 10.1266 17.4841 10.1266 17.0886V15.9494H1.77215V16.0759ZM3.79747 14.1772H11.0127C11.502 14.1772 11.8987 14.5739 11.8987 15.0633V17.0886C11.8987 17.3908 12.0184 17.6809 12.232 17.8946C12.4457 18.1082 12.7358 18.2278 13.038 18.2278C13.3401 18.2278 13.6303 18.1082 13.8439 17.8946C14.0576 17.6809 14.1772 17.3908 14.1772 17.0886V2.91139C14.1772 2.51776 14.2589 2.13096 14.4116 1.77215H5.94937C5.37865 1.77215 4.83097 1.99854 4.42741 2.4021C4.02385 2.80566 3.79747 3.35333 3.79747 3.92405V14.1772ZM15.9494 4.05063H17.0886C17.3139 4.05063 17.5342 3.98393 17.7215 3.85878C17.9088 3.73365 18.0546 3.55558 18.1408 3.34751C18.2271 3.13934 18.25 2.90988 18.2061 2.68888C18.1621 2.46798 18.0539 2.26469 17.8946 2.10542C17.7353 1.94615 17.532 1.83789 17.3111 1.79391C17.0901 1.74995 16.8607 1.77295 16.6525 1.85918C16.4444 1.94542 16.2664 2.0912 16.1412 2.27848C16.0161 2.46581 15.9494 2.6861 15.9494 2.91139V4.05063Z" fill="currentColor"/>
</svg>
