<svg preserveAspectRatio="none" width="100%" height="100%" overflow="visible" style="display: block;" viewBox="0 0 20 20" fill="none" xmlns="http://www.w3.org/2000/svg">
<path id="Vector" d="M0 13.3799C0 12.5085 0.172666 11.6454 0.508391 10.8413C0.844156 10.0371 1.33685 9.3071 1.95653 8.69436L1.99615 8.65695L2.58707 8.13535C2.99513 7.7748 3.61854 7.81312 3.97909 8.22118C4.33946 8.62925 4.30016 9.2527 3.89216 9.61321L3.33315 10.1073C2.90372 10.5345 2.56194 11.0415 2.32847 11.6006C2.0932 12.164 1.97194 12.7693 1.97194 13.3799C1.97197 13.9904 2.09327 14.5948 2.32847 15.1582C2.56374 15.7217 2.90884 16.2331 3.34305 16.6624C4.22753 17.537 5.42138 18.0281 6.6652 18.0281C7.88804 18.0279 9.06146 17.5525 9.94113 16.7054L10.3362 16.1739C10.6611 15.7369 11.2791 15.6454 11.7161 15.9703C12.153 16.2952 12.2434 16.9132 11.9186 17.3502L11.4718 17.9521C11.4421 17.992 11.4092 18.0294 11.3739 18.0644C10.1203 19.304 8.42813 19.9999 6.6652 20C4.90216 20 3.21017 19.304 1.95653 18.0644C1.33692 17.4517 0.844153 16.7227 0.508391 15.9186C0.172657 15.1145 3.2402e-05 14.2513 0 13.3799ZM12.6845 5.92352C13.0695 5.53857 13.6937 5.53851 14.0787 5.92352C14.4634 6.30856 14.4635 6.93279 14.0787 7.31774L7.31774 14.0787C6.9328 14.4636 6.30859 14.4634 5.92352 14.0787C5.53848 13.6936 5.53848 13.0695 5.92352 12.6845L12.6845 5.92352ZM18.0281 6.62118C18.0281 5.38833 17.5385 4.20497 16.6669 3.33315C15.7952 2.46147 14.6126 1.97205 13.3799 1.97194C12.1544 1.97185 10.9787 2.45576 10.1084 3.31774L9.61981 3.88446C9.26383 4.29645 8.64094 4.34163 8.22889 3.98569C7.81734 3.62975 7.77211 3.0078 8.12765 2.59587L8.64924 1.99175L8.69876 1.93893C9.94041 0.697488 11.6241 -0.000113857 13.3799 1.39383e-08C15.1356 0.00012419 16.8196 0.697449 18.0611 1.93893C19.3026 3.18059 20.0001 4.86534 20 6.62118C19.9998 8.37693 19.3016 10.0609 18.06 11.3023C18.0438 11.3185 18.0277 11.3347 18.0105 11.3497L17.4085 11.8724C16.9975 12.2294 16.3748 12.1853 16.0176 11.7744C15.6605 11.3635 15.7037 10.7407 16.1144 10.3835L16.6834 9.88831C17.5437 9.0185 18.0279 7.84529 18.0281 6.62118Z" fill="currentColor"/>
</svg>
