<svg preserveAspectRatio="none" width="100%" height="100%" overflow="visible" style="display: block;" viewBox="0 0 20 17.8667" fill="none" xmlns="http://www.w3.org/2000/svg">
<path id="Vector" d="M15.9996 10.5331C15.9996 9.64906 15.6487 8.80096 15.0236 8.17586C14.3985 7.55075 13.5504 7.19984 12.6664 7.19984C11.7823 7.19984 10.9342 7.55075 10.3091 8.17586C9.68404 8.80096 9.33312 9.64906 9.33312 10.5331C9.33312 11.4171 9.68404 12.2652 10.3091 12.8903C10.9343 13.5154 11.7823 13.8664 12.6664 13.8664C13.5504 13.8664 14.3985 13.5154 15.0236 12.8903C15.6487 12.2652 15.9996 11.4171 15.9996 10.5331ZM5.19988 12.7997C5.71534 12.7997 6.1332 13.2176 6.1332 13.733C6.1332 14.2485 5.71534 14.6663 5.19988 14.6663H0.933312C0.417858 14.6663 0 14.2485 0 13.733C0 13.2176 0.417858 12.7997 0.933312 12.7997H5.19988ZM5.19988 6.39986C5.71534 6.39986 6.1332 6.81771 6.1332 7.33317C6.1332 7.84862 5.71534 8.26648 5.19988 8.26648H0.933312C0.417858 8.26648 0 7.84862 0 7.33317C0 6.81771 0.417858 6.39986 0.933312 6.39986H5.19988ZM17.9996 0C18.515 0 18.9329 0.417858 18.9329 0.933312C18.9329 1.44877 18.515 1.86662 17.9996 1.86662H0.933312C0.417858 1.86662 0 1.44877 0 0.933312C0 0.417858 0.417858 0 0.933312 0H17.9996ZM17.8663 10.5331C17.8663 11.6022 17.5353 12.6361 16.933 13.5018C16.9772 13.5327 17.0205 13.5664 17.06 13.6059L19.7266 16.2726C20.0911 16.637 20.0911 17.2289 19.7266 17.5934C19.3622 17.9578 18.7703 17.9578 18.4058 17.5934L15.7392 14.9267C15.6997 14.8872 15.666 14.8439 15.6351 14.7997C14.7694 15.402 13.7355 15.733 12.6664 15.733C11.2873 15.733 9.96455 15.1853 8.98938 14.2101C8.01421 13.2349 7.4665 11.9122 7.4665 10.5331C7.4665 9.154 8.01421 7.83126 8.98938 6.8561C9.96455 5.88093 11.2873 5.33321 12.6664 5.33321C14.0455 5.33321 15.3682 5.88093 16.3434 6.8561C17.3185 7.83126 17.8663 9.154 17.8663 10.5331Z" fill="currentColor"/>
</svg>
