<svg preserveAspectRatio="none" width="100%" height="100%" overflow="visible" style="display: block;" viewBox="0 0 20 17.8087" fill="none" xmlns="http://www.w3.org/2000/svg">
<path id="Vector" d="M4.66431 13.4312C5.03878 13.0568 5.64683 13.0568 6.0213 13.4312C6.39577 13.8057 6.39577 14.4138 6.0213 14.7882L3.28164 17.5279C2.90717 17.9023 2.29911 17.9023 1.92465 17.5279L0.28085 15.8841C-0.0936167 15.5096 -0.0936167 14.9016 0.28085 14.5271C0.655317 14.1526 1.26337 14.1526 1.63784 14.5271L2.60314 15.4924L4.66431 13.4312ZM19.0411 14.7946C19.5707 14.7946 20 15.2239 20 15.7535C20 16.2831 19.5707 16.7124 19.0411 16.7124H9.17833C8.64876 16.7124 8.21945 16.2831 8.21945 15.7535C8.21945 15.2239 8.64876 14.7946 9.17833 14.7946H19.0411ZM4.66431 6.85604C5.03878 6.48157 5.64683 6.48157 6.0213 6.85604C6.39577 7.23051 6.39577 7.83856 6.0213 8.21303L3.28164 10.9527C2.90717 11.3272 2.29911 11.3272 1.92465 10.9527L0.28085 9.30889C-0.0936165 8.93443 -0.0936165 8.32637 0.28085 7.9519C0.655317 7.57744 1.26337 7.57744 1.63784 7.9519L2.60314 8.91721L4.66431 6.85604ZM19.0411 8.21945C19.5707 8.21945 20 8.64876 20 9.17833C20 9.70791 19.5707 10.1372 19.0411 10.1372H9.17833C8.64876 10.1372 8.21945 9.70791 8.21945 9.17833C8.21945 8.64876 8.64876 8.21945 9.17833 8.21945H19.0411ZM4.66431 0.28085C5.03878 -0.0936167 5.64683 -0.0936166 6.0213 0.28085C6.39577 0.655317 6.39577 1.26337 6.0213 1.63784L3.28164 4.3775C2.90717 4.75197 2.29911 4.75197 1.92465 4.3775L0.28085 2.7337C-0.0936167 2.35924 -0.0936167 1.75118 0.28085 1.37671C0.655317 1.00225 1.26337 1.00225 1.63784 1.37671L2.60314 2.34202L4.66431 0.28085ZM19.0411 1.64426C19.5707 1.64426 20 2.07357 20 2.60314C20 3.13272 19.5707 3.56202 19.0411 3.56202H9.17833C8.64876 3.56202 8.21945 3.13272 8.21945 2.60314C8.21945 2.07357 8.64876 1.64426 9.17833 1.64426H19.0411Z" fill="currentColor"/>
</svg>
