<svg preserveAspectRatio="none" width="100%" height="100%" overflow="visible" style="display: block;" viewBox="0 0 20 20" fill="none" xmlns="http://www.w3.org/2000/svg">
<path id="Vector" d="M9.11392 19.1139V16.0759C9.11392 15.5866 9.51063 15.1899 10 15.1899C10.4894 15.1899 10.8861 15.5866 10.8861 16.0759V19.1139C10.8861 19.6033 10.4894 20 10 20C9.51063 20 9.11392 19.6033 9.11392 19.1139ZM5.06922 13.6768C5.41526 13.3308 5.97715 13.3308 6.32318 13.6768C6.66921 14.0229 6.66922 14.5847 6.32318 14.9308L4.14557 17.1074C3.79954 17.4534 3.23864 17.4534 2.8926 17.1074C2.54657 16.7614 2.54657 16.2005 2.8926 15.8544L5.06922 13.6768ZM13.6768 13.6768C14.0229 13.3308 14.5847 13.3308 14.9308 13.6768L17.1074 15.8544C17.4534 16.2005 17.4534 16.7614 17.1074 17.1074C16.7614 17.4534 16.2005 17.4534 15.8544 17.1074L13.6768 14.9308C13.3308 14.5847 13.3308 14.0229 13.6768 13.6768ZM3.92405 9.11392C4.41342 9.11392 4.81013 9.51063 4.81013 10C4.81013 10.4894 4.41342 10.8861 3.92405 10.8861H0.886076C0.39671 10.8861 0 10.4894 0 10C0 9.51063 0.39671 9.11392 0.886076 9.11392H3.92405ZM19.1139 9.11392C19.6033 9.11392 20 9.51063 20 10C20 10.4894 19.6033 10.8861 19.1139 10.8861H16.0759C15.5866 10.8861 15.1899 10.4894 15.1899 10C15.1899 9.51063 15.5866 9.11392 16.0759 9.11392H19.1139ZM2.8926 2.8926C3.23864 2.54657 3.79954 2.54657 4.14557 2.8926L6.32318 5.06922C6.66921 5.41526 6.66921 5.97715 6.32318 6.32318C5.97715 6.66921 5.41526 6.66921 5.06922 6.32318L2.8926 4.14557C2.54657 3.79954 2.54657 3.23864 2.8926 2.8926ZM15.8544 2.8926C16.2005 2.54657 16.7614 2.54657 17.1074 2.8926C17.4534 3.23864 17.4534 3.79954 17.1074 4.14557L14.9308 6.32318C14.5847 6.66922 14.0229 6.66921 13.6768 6.32318C13.3308 5.97715 13.3308 5.41526 13.6768 5.06922L15.8544 2.8926ZM9.11392 3.92405V0.886076C9.11392 0.39671 9.51063 0 10 0C10.4894 0 10.8861 0.39671 10.8861 0.886076V3.92405C10.8861 4.41342 10.4894 4.81013 10 4.81013C9.51063 4.81013 9.11392 4.41342 9.11392 3.92405Z" fill="currentColor"/>
</svg>
