<svg preserveAspectRatio="none" width="100%" height="100%" overflow="visible" style="display: block;" viewBox="0 0 20 20" fill="none" xmlns="http://www.w3.org/2000/svg">
<path id="Vector" d="M10.0001 0C10.4894 0 10.8861 0.396707 10.8861 0.886069C10.8861 1.37543 10.4894 1.77214 10.0001 1.77214C8.3729 1.77214 6.78229 2.25465 5.42931 3.1586C4.07625 4.06268 3.02102 5.34778 2.39828 6.85121C1.77557 8.35459 1.61308 10.009 1.93052 11.6049C2.24799 13.201 3.03161 14.667 4.18228 15.8177C5.33296 16.9684 6.79903 17.752 8.39507 18.0695C9.99105 18.3869 11.6454 18.2244 13.1488 17.6017C14.6522 16.979 15.9373 15.9237 16.8414 14.5707C17.7453 13.2177 18.2279 11.6271 18.2279 9.99992C18.2279 9.51056 18.6246 9.11386 19.1139 9.11385C19.6033 9.11385 20 9.51056 20 9.99992C20 11.9777 19.4137 13.9112 18.3149 15.5557C17.2162 17.2 15.6543 18.4815 13.8272 19.2384C11.9999 19.9952 9.98874 20.1938 8.04895 19.808C6.10922 19.4221 4.3278 18.4691 2.92933 17.0707C1.53085 15.6722 0.577877 13.8908 0.192005 11.9511C-0.193844 10.0113 0.00475017 8.00006 0.761621 6.17282C1.51851 4.34572 2.79997 2.78385 4.44435 1.68511C6.08882 0.586321 8.02229 7.63662e-07 10.0001 0Z" fill="currentColor"/>
</svg>
