<svg preserveAspectRatio="none" width="100%" height="100%" overflow="visible" style="display: block;" viewBox="0 0 19.999 20" fill="none" xmlns="http://www.w3.org/2000/svg">
<path id="Vector" d="M18.8311 0.0518293C19.1489 -0.0629407 19.5048 0.0163875 19.7438 0.255203C19.9828 0.494191 20.0619 0.850052 19.9472 1.16795L13.4704 19.1038C13.4622 19.1265 13.4532 19.149 13.4431 19.1709C13.3299 19.418 13.1482 19.6274 12.9196 19.7742C12.6909 19.921 12.4246 19.9999 12.1528 20C11.8809 20 11.6139 19.9211 11.3851 19.7742C11.1647 19.6327 10.989 19.4327 10.8752 19.1972L10.8742 19.1982L7.51608 12.482L0.829065 9.13749C0.825888 9.13603 0.8225 9.1341 0.819335 9.13263L0.801819 9.12484L0.802792 9.12387C0.567111 9.00994 0.366367 8.8346 0.224782 8.61397C0.0779888 8.38518 0 8.11902 0 7.84718C0 7.57535 0.0779888 7.30919 0.224782 7.0804L0.346417 6.91789C0.47885 6.76491 0.642731 6.64086 0.828092 6.55591L0.895235 6.52866L18.8311 0.0518293ZM2.24198 7.89584L8.55631 11.0535L8.67697 11.1255C8.79056 11.2074 8.88322 11.3162 8.94651 11.4427L12.1032 17.7561L17.676 2.323L2.24198 7.89584Z" fill="currentColor"/>
</svg>
