<svg preserveAspectRatio="none" width="100%" height="100%" overflow="visible" style="display: block;" viewBox="0 0 15.1807 20" fill="none" xmlns="http://www.w3.org/2000/svg">
<path id="Vector" d="M13.494 11.4458C13.494 11.1582 13.3801 10.882 13.1768 10.6787C12.9734 10.4753 12.6972 10.3614 12.4096 10.3614H2.77108C2.4835 10.3614 2.20731 10.4753 2.00395 10.6787C1.8006 10.882 1.68675 11.1582 1.68675 11.4458V17.2289C1.68675 17.5165 1.8006 17.7927 2.00395 17.996C2.20731 18.1994 2.4835 18.3133 2.77108 18.3133H12.4096C12.6972 18.3133 12.9734 18.1994 13.1768 17.996C13.3801 17.7927 13.494 17.5165 13.494 17.2289V11.4458ZM7.71084 14.3373C7.71084 14.3054 7.69861 14.2743 7.67602 14.2517C7.65342 14.2291 7.62232 14.2169 7.59036 14.2169C7.55841 14.2169 7.5273 14.2291 7.50471 14.2517C7.48211 14.2743 7.46988 14.3054 7.46988 14.3373C7.46988 14.3693 7.48211 14.4004 7.50471 14.423C7.5273 14.4456 7.55841 14.4578 7.59036 14.4578C7.62232 14.4578 7.65342 14.4456 7.67602 14.423C7.69861 14.4004 7.71084 14.3693 7.71084 14.3373ZM10.6024 4.6988C10.6024 3.89995 10.2853 3.13358 9.72044 2.56871C9.15558 2.00384 8.38921 1.68675 7.59036 1.68675C6.79152 1.68675 6.02515 2.00384 5.46028 2.56871C4.89541 3.13358 4.57831 3.89995 4.57831 4.6988V8.6747H12.4096C13.1446 8.6747 13.8497 8.96639 14.3694 9.48607C14.889 10.0057 15.1807 10.7108 15.1807 11.4458V17.2289C15.1807 17.9639 14.889 18.669 14.3694 19.1886C13.8497 19.7083 13.1446 20 12.4096 20H2.77108C2.03615 20 1.33105 19.7083 0.811371 19.1886C0.291692 18.669 0 17.9639 0 17.2289V11.4458C0 10.7108 0.291691 10.0057 0.811371 9.48607C1.33105 8.96639 2.03615 8.6747 2.77108 8.6747H2.89157V4.6988C2.89157 3.4526 3.3865 2.25732 4.2677 1.37613C5.14889 0.494935 6.34416 0 7.59036 0C8.83656 0 10.0318 0.494935 10.913 1.37613C11.7942 2.25732 12.2892 3.4526 12.2892 4.6988C12.2892 5.16458 11.9116 5.54217 11.4458 5.54217C10.98 5.54217 10.6024 5.16458 10.6024 4.6988ZM9.39759 14.3373C9.39759 14.8167 9.20752 15.2767 8.8686 15.6156C8.52968 15.9545 8.06967 16.1446 7.59036 16.1446C7.11106 16.1446 6.65105 15.9545 6.31212 15.6156C5.9732 15.2767 5.78313 14.8167 5.78313 14.3373C5.78313 13.858 5.9732 13.398 6.31212 13.0591C6.65104 12.7202 7.11105 12.5301 7.59036 12.5301C8.06967 12.5301 8.52968 12.7202 8.8686 13.0591C9.20752 13.398 9.39759 13.858 9.39759 14.3373Z" fill="currentColor"/>
</svg>
