<svg preserveAspectRatio="none" width="100%" height="100%" overflow="visible" style="display: block;" viewBox="0 0 15.9494 20" fill="none" xmlns="http://www.w3.org/2000/svg">
<path id="Vector" d="M14.1772 11.0127C14.1772 10.7105 14.0576 10.4203 13.8439 10.2067C13.6303 9.99304 13.3401 9.87342 13.038 9.87342H2.91139C2.60925 9.87342 2.31907 9.99304 2.10542 10.2067C1.89177 10.4203 1.77215 10.7105 1.77215 11.0127V17.0886C1.77215 17.3908 1.89177 17.6809 2.10542 17.8946C2.31907 18.1082 2.60925 18.2278 2.91139 18.2278H13.038C13.3401 18.2278 13.6303 18.1082 13.8439 17.8946C14.0576 17.6809 14.1772 17.3908 14.1772 17.0886V11.0127ZM8.10127 14.0506C8.10127 14.0171 8.08842 13.9844 8.06468 13.9606C8.04094 13.9369 8.00825 13.9241 7.97468 13.9241C7.94111 13.9241 7.90843 13.9369 7.88469 13.9606C7.86095 13.9844 7.8481 14.0171 7.8481 14.0506C7.8481 14.0842 7.86095 14.1169 7.88469 14.1406C7.90843 14.1644 7.94111 14.1772 7.97468 14.1772C8.00826 14.1772 8.04094 14.1644 8.06468 14.1406C8.08841 14.1169 8.10127 14.0842 8.10127 14.0506ZM9.87342 14.0506C9.87342 14.5542 9.67372 15.0375 9.31764 15.3936C8.96156 15.7497 8.47826 15.9494 7.97468 15.9494C7.47111 15.9494 6.98781 15.7497 6.63172 15.3936C6.27564 15.0375 6.07595 14.5542 6.07595 14.0506C6.07595 13.5471 6.27564 13.0638 6.63172 12.7077C6.98781 12.3516 7.47111 12.1519 7.97468 12.1519C8.47826 12.1519 8.96156 12.3516 9.31764 12.7077C9.67372 13.0638 9.87342 13.5471 9.87342 14.0506ZM11.1392 4.93671C11.1392 4.09742 10.8061 3.29224 10.2126 2.69877C9.61915 2.1053 8.81398 1.77215 7.97468 1.77215C7.13539 1.77215 6.33022 2.1053 5.73675 2.69877C5.14328 3.29224 4.81013 4.09742 4.81013 4.93671V8.10127H11.1392V4.93671ZM12.9114 8.10127H13.038C13.8101 8.10127 14.5509 8.40773 15.0969 8.95372C15.6429 9.49971 15.9494 10.2405 15.9494 11.0127V17.0886C15.9494 17.8608 15.6429 18.6016 15.0969 19.1475C14.5509 19.6935 13.8101 20 13.038 20H2.91139C2.13924 20 1.39844 19.6935 0.852453 19.1475C0.306461 18.6016 0 17.8608 0 17.0886V11.0127C0 10.2405 0.306461 9.49971 0.852453 8.95372C1.39844 8.40773 2.13924 8.10127 2.91139 8.10127H3.03797V4.93671C3.03797 3.62741 3.55797 2.37162 4.48378 1.44581C5.40959 0.519994 6.66539 0 7.97468 0C9.28398 0 10.5398 0.519994 11.4656 1.44581C12.3914 2.37162 12.9114 3.62741 12.9114 4.93671V8.10127Z" fill="currentColor"/>
</svg>
