<svg preserveAspectRatio="none" width="100%" height="100%" overflow="visible" style="display: block;" viewBox="0 0 20 17.9743" fill="none" xmlns="http://www.w3.org/2000/svg">
<path id="Vector" d="M15.4486 5.32228C15.7947 4.97625 16.3565 4.97625 16.7026 5.32228L19.7405 8.36019C20.0865 8.70621 20.0865 9.26809 19.7405 9.61411L16.7026 12.652C16.3565 12.9981 15.7947 12.9981 15.4486 12.652C15.1026 12.306 15.1026 11.7441 15.4486 11.3981L16.9735 9.87321H6.96188C6.47252 9.87321 6.07582 9.47651 6.07582 8.98715C6.07582 8.49779 6.47252 8.10109 6.96188 8.10109H16.9735L15.4486 6.5762C15.1026 6.23018 15.1026 5.6683 15.4486 5.32228ZM11.139 4.9366V2.91133C11.139 2.60919 11.0194 2.31902 10.8057 2.10537C10.5921 1.89173 10.3019 1.77211 9.99979 1.77211H2.91133C2.60919 1.77211 2.31902 1.89173 2.10537 2.10537C1.89173 2.31902 1.77211 2.60919 1.77211 2.91133V15.063C1.77211 15.3651 1.89173 15.6553 2.10537 15.8689C2.31902 16.0826 2.60919 16.2022 2.91133 16.2022H9.99979C10.3019 16.2022 10.5921 16.0826 10.8057 15.8689C11.0194 15.6553 11.139 15.3651 11.139 15.063V13.0377C11.139 12.5483 11.5357 12.1516 12.0251 12.1516C12.5144 12.1516 12.9111 12.5483 12.9111 13.0377V15.063C12.9111 15.8351 12.6047 16.5759 12.0587 17.1219C11.5127 17.6678 10.7719 17.9743 9.99979 17.9743H2.91133C2.1392 17.9743 1.39841 17.6678 0.852434 17.1219C0.306454 16.5759 0 15.8351 0 15.063V2.91133C0 2.1392 0.306454 1.39841 0.852434 0.852434C1.39841 0.306454 2.1392 0 2.91133 0H9.99979C10.7719 0 11.5127 0.306454 12.0587 0.852434C12.6047 1.39841 12.9111 2.1392 12.9111 2.91133V4.9366C12.9111 5.42596 12.5144 5.82266 12.0251 5.82266C11.5357 5.82266 11.139 5.42596 11.139 4.9366Z" fill="currentColor"/>
</svg>
