<svg preserveAspectRatio="none" width="100%" height="100%" overflow="visible" style="display: block;" viewBox="0 0 20 18.9874" fill="none" xmlns="http://www.w3.org/2000/svg">
<path id="Vector" d="M15.4486 11.3981C15.7947 11.0521 16.3565 11.0521 16.7026 11.3981L19.7405 14.436C20.0865 14.782 20.0865 15.3439 19.7405 15.6899L16.7026 18.7278C16.3565 19.0739 15.7947 19.0739 15.4486 18.7278C15.1026 18.3818 15.1026 17.8199 15.4486 17.4739L16.9735 15.949H13.0377C12.5483 15.949 12.1516 15.5523 12.1516 15.063C12.1516 14.5736 12.5483 14.1769 13.0377 14.1769H16.9735L15.4486 12.652C15.1026 12.306 15.1026 11.7441 15.4486 11.3981ZM18.2275 10.5061V4.56675L10.4913 9.72487C10.1938 9.92309 9.80582 9.92309 9.5083 9.72487L1.77211 4.56675V13.0377C1.77211 13.3398 1.89173 13.63 2.10537 13.8437C2.31902 14.0573 2.60919 14.1769 2.91133 14.1769H9.99979C10.4891 14.1769 10.8858 14.5736 10.8858 15.063C10.8858 15.5523 10.4891 15.949 9.99979 15.949H2.91133C2.1392 15.949 1.39841 15.6426 0.852434 15.0966C0.306454 14.5506 0 13.8098 0 13.0377V2.91133C0 2.1392 0.306454 1.39841 0.852434 0.852434C1.39841 0.306454 2.1392 0 2.91133 0H17.0882C17.8604 0 18.6012 0.306454 19.1471 0.852434C19.6931 1.39841 19.9996 2.1392 19.9996 2.91133V10.5061C19.9996 10.9955 19.6029 11.3922 19.1135 11.3922C18.6242 11.3922 18.2275 10.9955 18.2275 10.5061ZM2.91133 1.77211C2.60919 1.77211 2.31902 1.89173 2.10537 2.10537C1.99477 2.21598 1.90996 2.3475 1.8532 2.49006L9.99979 7.92111L18.1454 2.49006C18.0886 2.34763 18.0047 2.21589 17.8942 2.10537C17.6806 1.89173 17.3904 1.77211 17.0882 1.77211H2.91133Z" fill="currentColor"/>
</svg>
