<svg preserveAspectRatio="none" width="100%" height="100%" overflow="visible" style="display: block;" viewBox="0 0 20 15.9494" fill="none" xmlns="http://www.w3.org/2000/svg">
<path id="Vector" d="M18.2278 4.56685L10.4915 9.72508C10.194 9.9233 9.80603 9.9233 9.5085 9.72508L1.77215 4.56685V13.038C1.77215 13.3401 1.89177 13.6303 2.10542 13.8439C2.31907 14.0576 2.60925 14.1772 2.91139 14.1772H17.0886C17.3908 14.1772 17.6809 14.0576 17.8946 13.8439C18.1082 13.6303 18.2278 13.3401 18.2278 13.038V4.56685ZM2.91139 1.77215C2.60925 1.77215 2.31907 1.89177 2.10542 2.10542C1.99482 2.21602 1.91 2.34755 1.85324 2.49011L10 7.92128L18.1458 2.49011C18.089 2.34768 18.0051 2.21593 17.8946 2.10542C17.6809 1.89177 17.3908 1.77215 17.0886 1.77215H2.91139ZM20 13.038C20 13.8101 19.6935 14.5509 19.1475 15.0969C18.6016 15.6429 17.8608 15.9494 17.0886 15.9494H2.91139C2.13924 15.9494 1.39844 15.6429 0.852453 15.0969C0.306461 14.5509 0 13.8101 0 13.038V2.91139C0 2.13924 0.30646 1.39844 0.852453 0.852453C1.39844 0.30646 2.13924 0 2.91139 0H17.0886C17.8608 0 18.6016 0.306461 19.1475 0.852453C19.6935 1.39844 20 2.13924 20 2.91139V13.038Z" fill="currentColor"/>
</svg>
