<svg preserveAspectRatio="none" width="100%" height="100%" overflow="visible" style="display: block;" viewBox="0 0 20 18.0723" fill="none" xmlns="http://www.w3.org/2000/svg">
<path id="Vector" d="M17.349 13.3732C17.349 12.83 17.1336 12.3087 16.7495 11.9246C16.3654 11.5405 15.8441 11.3251 15.3009 11.3251C14.7577 11.3251 14.2364 11.5405 13.8523 11.9246C13.4682 12.3087 13.2527 12.83 13.2527 13.3732C13.2527 13.9164 13.4682 14.4377 13.8523 14.8218C14.2364 15.2059 14.7577 15.4214 15.3009 15.4214C15.8441 15.4214 16.3654 15.2059 16.7495 14.8218C17.1336 14.4377 17.349 13.9164 17.349 13.3732ZM17.349 7.10829V4.34667L9.98568 9.25621C9.7025 9.44488 9.33326 9.44488 9.05008 9.25621L1.68671 4.34667V12.4094C1.68671 12.697 1.80056 12.9732 2.00391 13.1765C2.20726 13.3799 2.48345 13.4937 2.77103 13.4937H8.55404C9.01982 13.4937 9.3974 13.8713 9.3974 14.3371C9.3974 14.8028 9.01982 15.1804 8.55404 15.1804H2.77103C2.03611 15.1804 1.33102 14.8887 0.811354 14.3691C0.291686 13.8494 0 13.1443 0 12.4094V2.77103C0 2.03611 0.291685 1.33102 0.811354 0.811354C1.33102 0.291685 2.03611 0 2.77103 0H16.2647C16.9997 0 17.7047 0.291686 18.2244 0.811354C18.7441 1.33102 19.0358 2.03611 19.0358 2.77103V7.10829C19.0358 7.57406 18.6582 7.95165 18.1924 7.95165C17.7266 7.95165 17.349 7.57406 17.349 7.10829ZM2.77103 1.68671C2.48345 1.68671 2.20726 1.80056 2.00391 2.00391C1.89864 2.10918 1.81792 2.23437 1.76389 2.37006L9.51788 7.53938L17.2709 2.37006C17.2169 2.2345 17.137 2.1091 17.0318 2.00391C16.8285 1.80056 16.5523 1.68671 16.2647 1.68671H2.77103ZM19.0358 13.3732C19.0358 14.0774 18.8348 14.7599 18.4682 15.348L19.753 16.6318C20.0823 16.9612 20.0823 17.496 19.753 17.8253C19.4236 18.1547 18.8888 18.1547 18.5595 17.8253L17.2756 16.5405C16.6875 16.9072 16.0051 17.1081 15.3009 17.1081C14.3103 17.1081 13.3602 16.7148 12.6598 16.0144C11.9593 15.3139 11.566 14.3638 11.566 13.3732C11.566 12.3827 11.9593 11.4325 12.6598 10.7321C13.3602 10.0317 14.3103 9.63836 15.3009 9.63836C16.2914 9.63836 17.2416 10.0317 17.942 10.7321C18.6425 11.4325 19.0358 12.3827 19.0358 13.3732Z" fill="currentColor"/>
</svg>
