<svg preserveAspectRatio="none" width="100%" height="100%" overflow="visible" style="display: block;" viewBox="0 0 17.5437 20" fill="none" xmlns="http://www.w3.org/2000/svg">
<path id="Vector" d="M8.77187 0C10.5068 0 12.2028 0.514883 13.6454 1.47876C15.0879 2.44262 16.2122 3.8123 16.8761 5.41506C17.5401 7.01794 17.7136 8.78196 17.3751 10.4836C17.0367 12.1851 16.2013 13.7481 14.9746 14.9749L10.7815 19.1689H10.7806C10.2478 19.7011 9.52583 19.9999 8.77283 20C8.11397 20 7.4781 19.7717 6.97264 19.3581L6.76415 19.1689L2.56916 14.9749C1.34246 13.7481 0.507059 12.1851 0.168586 10.4836C-0.169855 8.78196 0.00366011 7.01794 0.667621 5.41506C1.33155 3.8123 2.45588 2.44262 3.89832 1.47876C5.34089 0.514883 7.03691 7.45383e-07 8.77187 0ZM8.77187 1.72973C7.37905 1.72973 6.01781 2.1432 4.85971 2.91699C3.70158 3.69081 2.79815 4.7904 2.26511 6.07722C1.73219 7.36389 1.59291 8.77983 1.86453 10.1458C2.13624 11.5118 2.80727 12.767 3.79214 13.7519L7.98615 17.945C8.19466 18.1533 8.47812 18.2703 8.77283 18.2703C9.06738 18.2701 9.35016 18.1532 9.55855 17.945L13.7516 13.7519C14.7365 12.767 15.4075 11.5118 15.6792 10.1458C15.9508 8.77983 15.8115 7.36389 15.2786 6.07722C14.7456 4.7904 13.8422 3.69081 12.684 2.91699C11.5259 2.1432 10.1647 1.72973 8.77187 1.72973ZM10.8723 8.7722C10.8723 8.21521 10.6512 7.68056 10.2574 7.28668C9.86349 6.89278 9.32893 6.67181 8.77187 6.67181C8.21481 6.67182 7.68024 6.89278 7.28635 7.28668C6.89254 7.68056 6.67148 8.21521 6.67148 8.7722C6.67156 9.32899 6.89273 9.86296 7.28635 10.2568C7.68024 10.6507 8.21481 10.8726 8.77187 10.8726C9.32893 10.8726 9.86349 10.6507 10.2574 10.2568C10.651 9.86296 10.8722 9.329 10.8723 8.7722ZM12.602 8.7722C12.6019 9.78791 12.1986 10.7625 11.4804 11.4807C10.7621 12.1989 9.78761 12.6023 8.77187 12.6023C7.75613 12.6023 6.78165 12.1989 6.06337 11.4807C5.34516 10.7625 4.94183 9.78791 4.94175 8.7722C4.94175 7.75646 5.34518 6.78198 6.06337 6.06371C6.78166 5.34542 7.75606 4.94209 8.77187 4.94208C9.78768 4.94208 10.7621 5.34542 11.4804 6.06371C12.1986 6.78198 12.602 7.75646 12.602 8.7722Z" fill="currentColor"/>
</svg>
