<svg preserveAspectRatio="none" width="100%" height="100%" overflow="visible" style="display: block;" viewBox="0 0 20 17.9741" fill="none" xmlns="http://www.w3.org/2000/svg">
<path id="Vector" d="M6.56547 0.0936423C6.81492 -0.0310851 7.10913 -0.0310851 7.35858 0.0936423L13.038 2.93284L18.7174 0.0936423C18.992 -0.0436943 19.3185 -0.0292386 19.5797 0.13221C19.8409 0.293664 20 0.578693 20 0.88577V14.0503C20 14.3858 19.8104 14.6923 19.5105 14.8425L13.4345 17.8804C13.1851 18.0052 12.8909 18.0052 12.6414 17.8804L6.96203 15.0402L1.28263 17.8804C1.00796 18.0178 0.681523 18.0033 0.420293 17.8419C0.159088 17.6804 0 17.3954 0 17.0883V3.92375C0 3.58827 0.189558 3.28178 0.489517 3.13162L6.56547 0.0936423ZM1.77215 4.47062V15.6544L6.07595 13.5025V2.31872L1.77215 4.47062ZM7.8481 13.5025L12.1519 15.6544V4.47062L7.8481 2.31872V13.5025ZM13.9241 4.47062V15.6544L18.2278 13.5025V2.31872L13.9241 4.47062Z" fill="currentColor"/>
</svg>
