<svg preserveAspectRatio="none" width="100%" height="100%" overflow="visible" style="display: block;" viewBox="0 0 20 15.9494" fill="none" xmlns="http://www.w3.org/2000/svg">
<path id="Vector" d="M18.2278 2.91139C18.2278 2.60925 18.1082 2.31907 17.8946 2.10542C17.6809 1.89177 17.3908 1.77215 17.0886 1.77215H2.91139C2.60925 1.77215 2.31907 1.89177 2.10542 2.10542C1.89177 2.31907 1.77215 2.60925 1.77215 2.91139V13.038C1.77215 13.3401 1.89177 13.6303 2.10542 13.8439C2.31907 14.0576 2.60925 14.1772 2.91139 14.1772H17.0886C17.3908 14.1772 17.6809 14.0576 17.8946 13.8439C18.1082 13.6303 18.2278 13.3401 18.2278 13.038V2.91139ZM8.10127 11.0127V7.07674L7.589 7.589C7.24297 7.93504 6.68108 7.93504 6.33505 7.589L5.82278 7.07674V11.0127C5.82278 11.502 5.42608 11.8987 4.93671 11.8987C4.44734 11.8987 4.05063 11.502 4.05063 11.0127V4.93671C4.05063 4.57833 4.26642 4.25503 4.59751 4.11788C4.92861 3.98073 5.31027 4.05632 5.56369 4.30973L6.96203 5.70807L8.36036 4.30973C8.61378 4.05632 8.99544 3.98073 9.32654 4.11788C9.65763 4.25503 9.87342 4.57833 9.87342 4.93671V11.0127C9.87342 11.502 9.47671 11.8987 8.98734 11.8987C8.49798 11.8987 8.10127 11.502 8.10127 11.0127ZM13.1646 4.93671C13.1646 4.44734 13.5613 4.05063 14.0506 4.05063C14.54 4.05063 14.9367 4.44734 14.9367 4.93671V8.87263L15.449 8.36036C15.795 8.01433 16.3569 8.01433 16.7029 8.36036C17.049 8.7064 17.049 9.26829 16.7029 9.61432L14.6776 11.6396C14.3316 11.9857 13.7697 11.9857 13.4237 11.6396L11.3983 9.61432C11.0523 9.26829 11.0523 8.7064 11.3983 8.36036C11.7444 8.01433 12.3063 8.01433 12.6523 8.36036L13.1646 8.87263V4.93671ZM20 13.038C20 13.8101 19.6935 14.5509 19.1475 15.0969C18.6016 15.6429 17.8608 15.9494 17.0886 15.9494H2.91139C2.13924 15.9494 1.39844 15.6429 0.852453 15.0969C0.306461 14.5509 0 13.8101 0 13.038V2.91139C0 2.13924 0.30646 1.39844 0.852453 0.852453C1.39844 0.30646 2.13924 0 2.91139 0H17.0886C17.8608 0 18.6016 0.306461 19.1475 0.852453C19.6935 1.39844 20 2.13924 20 2.91139V13.038Z" fill="currentColor"/>
</svg>
