<svg preserveAspectRatio="none" width="100%" height="100%" overflow="visible" style="display: block;" viewBox="0 0 20 15.493" fill="none" xmlns="http://www.w3.org/2000/svg">
<path id="Vector" d="M19.0141 13.5211C19.5586 13.5211 20 13.9625 20 14.507C20 15.0515 19.5586 15.493 19.0141 15.493H0.985916C0.441409 15.493 0 15.0515 0 14.507C0 13.9625 0.441409 13.5211 0.985916 13.5211H19.0141ZM19.0141 6.76056C19.5586 6.76056 20 7.20197 20 7.74648C20 8.29098 19.5586 8.73239 19.0141 8.73239H0.985916C0.441409 8.73239 0 8.29099 0 7.74648C0 7.20197 0.441409 6.76056 0.985916 6.76056H19.0141ZM19.0141 0C19.5586 5.80742e-07 20 0.44141 20 0.985916C20 1.53042 19.5586 1.97183 19.0141 1.97183H0.985916C0.441409 1.97183 0 1.53042 0 0.985916C0 0.441409 0.441409 0 0.985916 0H19.0141Z" fill="currentColor"/>
</svg>
