<svg preserveAspectRatio="none" width="100%" height="100%" overflow="visible" style="display: block;" viewBox="0 0 20 18.0925" fill="none" xmlns="http://www.w3.org/2000/svg">
<path id="Vector" d="M13.7406 12.7975C14.0699 12.4681 14.6048 12.4681 14.9341 12.7975C15.2632 13.1268 15.2631 13.6607 14.9341 13.9901L13.6022 15.321L14.9341 16.6529C15.2632 16.9822 15.2631 17.5162 14.9341 17.8455C14.6048 18.1749 14.0699 18.1749 13.7406 17.8455L11.8129 15.9178C11.655 15.7597 11.5663 15.5454 11.5663 15.322C11.5663 15.0984 11.6548 14.8834 11.8129 14.7252L13.7406 12.7975ZM16.6322 12.7975C16.9615 12.4681 17.4963 12.4681 17.8257 12.7975L19.7534 14.7252C19.9115 14.8834 20 15.0984 20 15.322C19.9999 15.5454 19.9113 15.7597 19.7534 15.9178L17.8257 17.8455C17.4963 18.1749 16.9615 18.1749 16.6322 17.8455C16.3032 17.5162 16.303 16.9822 16.6322 16.6529L17.9631 15.321L16.6322 13.9901C16.3032 13.6607 16.303 13.1268 16.6322 12.7975ZM3.63233 1.83929C7.341 -0.791285 12.6487 -0.58141 16.0843 2.34851C18.3468 4.27817 19.3582 7.01664 18.9684 9.67627C18.9008 10.137 18.4727 10.4561 18.012 10.3888C17.5512 10.3212 17.232 9.89239 17.2995 9.43154C17.6016 7.37024 16.8293 5.20055 14.9896 3.63146C12.2393 1.28623 7.97367 1.03869 4.9021 3.01681L4.60842 3.21542C1.55775 5.38022 0.829268 9.14695 2.7946 12.0539C2.94141 12.271 2.97903 12.5441 2.89626 12.7928L2.10936 15.1535L5.19766 14.4965C5.38082 14.4575 5.57218 14.4809 5.74077 14.5624C6.66045 15.0071 7.65209 15.2844 8.66904 15.3813C9.13263 15.4255 9.47276 15.8373 9.42864 16.3009C9.38446 16.7645 8.97266 17.1046 8.50903 17.0605C7.39123 16.954 6.30007 16.6628 5.27672 16.2039L1.01844 17.1104C0.722761 17.1731 0.416074 17.0731 0.214595 16.8478C0.0130264 16.6222 -0.0523691 16.3055 0.0432843 16.0185L1.1681 12.6413C-1.05044 8.9786 0.00526038 4.413 3.63233 1.83929Z" fill="currentColor"/>
</svg>
