<svg preserveAspectRatio="none" width="100%" height="100%" overflow="visible" style="display: block;" viewBox="0 0 20 17.9832" fill="none" xmlns="http://www.w3.org/2000/svg">
<path id="Vector" d="M3.81351 1.93103C7.70717 -0.830753 13.2796 -0.61041 16.8866 2.46565L17.2196 2.76311C20.5644 5.89518 20.9583 10.7842 18.0369 14.3292C15.1249 17.8624 9.83714 18.9445 5.53794 17.0122L1.06923 17.9638C0.758811 18.0297 0.436828 17.9247 0.225298 17.6881C0.0136761 17.4513 -0.0549812 17.1188 0.0454433 16.8175L1.22636 13.2718C-1.10284 9.42645 0.00552276 4.63312 3.81351 1.93103ZM15.7373 3.81259C12.8498 1.35038 8.37139 1.0905 5.14661 3.16729L4.83829 3.3758C1.63545 5.64858 0.870631 9.60319 2.934 12.6551C3.08812 12.8831 3.12763 13.1698 3.04072 13.4309L2.21458 15.9093L5.45691 15.2196C5.64966 15.1785 5.85082 15.2037 6.0281 15.2897C9.69279 17.0688 14.2505 16.1386 16.6702 13.2026C19.0502 10.3147 18.6764 6.32005 15.7373 3.81259Z" fill="currentColor"/>
</svg>
