<svg preserveAspectRatio="none" width="100%" height="100%" overflow="visible" style="display: block;" viewBox="0 0 20 18.9872" fill="none" xmlns="http://www.w3.org/2000/svg">
<path id="Vector" d="M18.2278 3.92405C18.2278 3.35333 18.0015 2.80566 17.5979 2.4021C17.1943 1.99854 16.6467 1.77215 16.0759 1.77215H3.92405C3.35333 1.77215 2.80566 1.99854 2.4021 2.4021C1.99854 2.80566 1.77215 3.35333 1.77215 3.92405V12.0253C1.77215 12.596 1.99854 13.1437 2.4021 13.5473C2.80566 13.9508 3.35333 14.1772 3.92405 14.1772H5.94937C6.43873 14.1772 6.83544 14.5739 6.83544 15.0633V16.5358L10.5568 14.3038L10.6636 14.2484C10.7735 14.2013 10.8923 14.1772 11.0127 14.1772H16.0759C16.6467 14.1772 17.1943 13.9508 17.5979 13.5473C18.0015 13.1437 18.2278 12.596 18.2278 12.0253V3.92405ZM12.0253 9.11392C12.5147 9.11392 12.9114 9.51063 12.9114 10C12.9114 10.4894 12.5147 10.8861 12.0253 10.8861H5.94937C5.46 10.8861 5.06329 10.4894 5.06329 10C5.06329 9.51063 5.46 9.11392 5.94937 9.11392H12.0253ZM14.0506 5.06329C14.54 5.06329 14.9367 5.46 14.9367 5.94937C14.9367 6.43873 14.54 6.83544 14.0506 6.83544H5.94937C5.46 6.83544 5.06329 6.43873 5.06329 5.94937C5.06329 5.46 5.46 5.06329 5.94937 5.06329H14.0506ZM20 12.0253C20 13.066 19.5868 14.0643 18.8509 14.8002C18.115 15.5361 17.1167 15.9494 16.0759 15.9494H11.2579L6.40526 18.8608C6.13168 19.0249 5.79096 19.0296 5.51325 18.8726C5.23546 18.7153 5.06329 18.4205 5.06329 18.1013V15.9494H3.92405C2.88333 15.9494 1.88503 15.5361 1.14913 14.8002C0.413228 14.0643 0 13.066 0 12.0253V3.92405C0 2.88333 0.413228 1.88503 1.14913 1.14913C1.88503 0.413228 2.88333 0 3.92405 0H16.0759C17.1167 0 18.115 0.413228 18.8509 1.14913C19.5868 1.88503 20 2.88333 20 3.92405V12.0253Z" fill="currentColor"/>
</svg>
