<svg preserveAspectRatio="none" width="100%" height="100%" overflow="visible" style="display: block;" viewBox="0 0 20 19.0361" fill="none" xmlns="http://www.w3.org/2000/svg">
<path id="Vector" d="M15.4217 18.1928V16.1446H13.3735C12.9077 16.1446 12.5301 15.767 12.5301 15.3012C12.5301 14.8354 12.9077 14.4578 13.3735 14.4578H15.4217V12.4096C15.4217 11.9439 15.7993 11.5663 16.2651 11.5663C16.7308 11.5663 17.1084 11.9439 17.1084 12.4096V14.4578H19.1566C19.6224 14.4578 20 14.8354 20 15.3012C20 15.767 19.6224 16.1446 19.1566 16.1446H17.1084V18.1928C17.1084 18.6586 16.7308 19.0361 16.2651 19.0361C15.7993 19.0361 15.4217 18.6586 15.4217 18.1928ZM11.4458 8.6747C11.9116 8.6747 12.2892 9.05229 12.2892 9.51807C12.2892 9.98385 11.9116 10.3614 11.4458 10.3614H5.66265C5.19687 10.3614 4.81928 9.98385 4.81928 9.51807C4.81928 9.05229 5.19687 8.6747 5.66265 8.6747H11.4458ZM17.3494 9.03614V3.73494C17.3494 3.19172 17.1339 2.67044 16.7498 2.28633C16.3657 1.90222 15.8444 1.68675 15.3012 1.68675H3.73494C3.19173 1.68675 2.67044 1.90222 2.28633 2.28633C1.90222 2.67044 1.68675 3.19173 1.68675 3.73494V11.4458C1.68675 11.989 1.90222 12.5103 2.28633 12.8944C2.67044 13.2785 3.19173 13.494 3.73494 13.494H5.66265C6.12843 13.494 6.50602 13.8716 6.50602 14.3373V15.7389L9.09356 14.1867C9.49297 13.9471 10.0117 14.0763 10.2513 14.4757C10.491 14.8751 10.3608 15.3938 9.96141 15.6335L6.09657 17.9518C5.83618 18.108 5.51188 18.1125 5.24755 17.9631C4.98315 17.8134 4.81928 17.5328 4.81928 17.2289V15.1807H3.73494C2.74437 15.1807 1.79419 14.7874 1.09375 14.087C0.393313 13.3865 0 12.4364 0 11.4458V3.73494C0 2.74437 0.393313 1.79419 1.09375 1.09375C1.79419 0.393313 2.74437 0 3.73494 0H15.3012C16.2918 0 17.242 0.393313 17.9424 1.09375C18.6428 1.79419 19.0361 2.74437 19.0361 3.73494V9.03614C19.0361 9.50193 18.6586 9.87952 18.1928 9.87952C17.727 9.87952 17.3494 9.50193 17.3494 9.03614ZM13.3735 4.81928C13.8393 4.81928 14.2169 5.19687 14.2169 5.66265C14.2169 6.12843 13.8393 6.50602 13.3735 6.50602H5.66265C5.19687 6.50602 4.81928 6.12843 4.81928 5.66265C4.81928 5.19687 5.19687 4.81928 5.66265 4.81928H13.3735Z" fill="currentColor"/>
</svg>
