<svg preserveAspectRatio="none" width="100%" height="100%" overflow="visible" style="display: block;" viewBox="0 0 20 18.9872" fill="none" xmlns="http://www.w3.org/2000/svg">
<path id="Vector" d="M18.2278 3.92405C18.2278 3.35333 18.0015 2.80566 17.5979 2.4021C17.1943 1.99854 16.6467 1.77215 16.0759 1.77215H3.92405C3.35333 1.77215 2.80566 1.99854 2.4021 2.4021C1.99854 2.80566 1.77215 3.35333 1.77215 3.92405V12.0253C1.77215 12.596 1.99854 13.1437 2.4021 13.5473C2.80566 13.9508 3.35333 14.1772 3.92405 14.1772H5.94937C6.43873 14.1772 6.83544 14.5739 6.83544 15.0633V16.5358L10.5568 14.3038L10.6636 14.2484C10.7735 14.2013 10.8923 14.1772 11.0127 14.1772H16.0759C16.6467 14.1772 17.1943 13.9508 17.5979 13.5473C18.0015 13.1437 18.2278 12.596 18.2278 12.0253V3.92405ZM11.8987 9.37994C12.2412 9.03041 12.8022 9.02464 13.1517 9.36709C13.5012 9.70956 13.507 10.2705 13.1646 10.6201C12.7521 11.041 12.26 11.3757 11.7168 11.604C11.1734 11.8324 10.5894 11.9502 10 11.9502C9.41058 11.9502 8.82662 11.8324 8.28323 11.604C7.73998 11.3757 7.24785 11.041 6.83544 10.6201C6.49299 10.2705 6.49876 9.70956 6.8483 9.36709C7.19785 9.02464 7.75879 9.03041 8.10127 9.37994C8.34876 9.63253 8.64451 9.83334 8.97053 9.97033C9.29647 10.1072 9.64647 10.178 10 10.178C10.3535 10.178 10.7035 10.1072 11.0295 9.97033C11.3555 9.83334 11.6512 9.63253 11.8987 9.37994ZM7.47824 5.06329C7.96761 5.06329 8.36432 5.46 8.36432 5.94937C8.36432 6.43873 7.96761 6.83544 7.47824 6.83544H7.46835C6.97899 6.83544 6.58228 6.43873 6.58228 5.94937C6.58228 5.46 6.97899 5.06329 7.46835 5.06329H7.47824ZM12.5415 5.06329C13.0309 5.06329 13.4276 5.46 13.4276 5.94937C13.4276 6.43873 13.0309 6.83544 12.5415 6.83544H12.5316C12.0423 6.83544 11.6456 6.43873 11.6456 5.94937C11.6456 5.46 12.0423 5.06329 12.5316 5.06329H12.5415ZM20 12.0253C20 13.066 19.5868 14.0643 18.8509 14.8002C18.115 15.5361 17.1167 15.9494 16.0759 15.9494H11.2579L6.40526 18.8608C6.13168 19.0249 5.79096 19.0296 5.51325 18.8726C5.23546 18.7153 5.06329 18.4205 5.06329 18.1013V15.9494H3.92405C2.88333 15.9494 1.88503 15.5361 1.14913 14.8002C0.413228 14.0643 0 13.066 0 12.0253V3.92405C0 2.88333 0.413228 1.88503 1.14913 1.14913C1.88503 0.413228 2.88333 0 3.92405 0H16.0759C17.1167 0 18.115 0.413228 18.8509 1.14913C19.5868 1.88503 20 2.88333 20 3.92405V12.0253Z" fill="currentColor"/>
</svg>
