<svg preserveAspectRatio="none" width="100%" height="100%" overflow="visible" style="display: block;" viewBox="0 0 19.0366 20" fill="none" xmlns="http://www.w3.org/2000/svg">
<path id="Vector" d="M0.247013 1.21044C0.576364 0.881091 1.11116 0.881091 1.44051 1.21044L18.7896 18.5595C19.1189 18.8888 19.1189 19.4236 18.7896 19.753C18.4602 20.0823 17.9254 20.0823 17.5961 19.753L13.0922 15.2491C12.2441 15.7019 11.3181 15.9912 10.3616 16.0981V18.3129H13.3736C13.8394 18.3129 14.217 18.6905 14.217 19.1562C14.217 19.622 13.8394 19.9996 13.3736 19.9996H5.66294C5.19717 19.9996 4.81959 19.622 4.81959 19.1562C4.81959 18.6905 5.19717 18.3129 5.66294 18.3129H8.67493V16.0972C7.71191 15.9895 6.77445 15.6994 5.9152 15.2359C4.70953 14.5856 3.70209 13.6206 3.00016 12.4442C2.29835 11.268 1.92787 9.92375 1.92808 8.55404C1.92816 8.08832 2.30573 7.71068 2.77143 7.71069C3.23716 7.71077 3.61479 8.08834 3.61479 8.55404C3.61461 9.61948 3.90281 10.6652 4.44873 11.5801C4.99468 12.4951 5.77845 13.2449 6.7162 13.7507C7.6539 14.2564 8.71086 14.4992 9.77525 14.4528C10.4851 14.4219 11.1795 14.2609 11.8281 13.985L10.0887 12.2456C9.68844 12.3075 9.27954 12.306 8.87824 12.2362C8.30382 12.1363 7.76044 11.9031 7.29224 11.5557C6.82407 11.2082 6.44356 10.756 6.18157 10.2351C5.91955 9.71417 5.78328 9.13905 5.78342 8.55593V7.94035L0.247013 2.40394C-0.0823378 2.07459 -0.0823378 1.53979 0.247013 1.21044ZM16.2614 7.71069C16.727 7.70984 17.1056 8.08655 17.1066 8.55216C17.1093 10.037 16.6744 11.4901 15.8566 12.7294C15.6001 13.1181 15.0773 13.225 14.6885 12.9685C14.2999 12.712 14.1922 12.1891 14.4485 11.8004C15.0838 10.8378 15.4219 9.70927 15.4199 8.55593C15.419 8.09025 15.7957 7.7117 16.2614 7.71069ZM11.5664 8.55404V3.73486C11.5664 3.19166 11.351 2.67039 10.9669 2.28629C10.5828 1.90218 10.0615 1.68671 9.51829 1.68671C8.97508 1.68671 8.45381 1.90218 8.06971 2.28629C7.68561 2.67039 7.47013 3.19166 7.47013 3.73486C7.47013 4.20064 7.09255 4.57822 6.62678 4.57822C6.161 4.57822 5.78342 4.20064 5.78342 3.73486C5.78342 2.74432 6.17673 1.79415 6.87715 1.09373C7.57757 0.393305 8.52774 0 9.51829 0C10.5088 0 11.459 0.393305 12.1594 1.09373C12.8598 1.79415 13.2531 2.74432 13.2531 3.73486V8.55404L13.2428 8.82983C13.2224 9.10504 13.1718 9.37757 13.0913 9.64212C12.9556 10.0876 12.4845 10.3387 12.0389 10.2031C11.5934 10.0675 11.3423 9.59638 11.478 9.15079C11.5368 8.95741 11.5665 8.75618 11.5664 8.55404Z" fill="currentColor"/>
</svg>
