<svg preserveAspectRatio="none" width="100%" height="100%" overflow="visible" style="display: block;" viewBox="0 0 15.1807 20" fill="none" xmlns="http://www.w3.org/2000/svg">
<path id="Vector" d="M0 8.55422C0 8.08843 0.377591 7.71084 0.843374 7.71084C1.30916 7.71084 1.68675 8.08843 1.68675 8.55422C1.68675 10.12 2.30871 11.6216 3.41585 12.7287C4.52299 13.8359 6.02463 14.4578 7.59036 14.4578C9.1561 14.4578 10.6577 13.8359 11.7649 12.7287C12.872 11.6216 13.494 10.12 13.494 8.55422C13.494 8.08843 13.8716 7.71084 14.3373 7.71084C14.8031 7.71084 15.1807 8.08843 15.1807 8.55422C15.1807 10.5673 14.3809 12.4978 12.9575 13.9213C11.7343 15.1445 10.1364 15.9053 8.43374 16.0956V18.3133H11.4458C11.9116 18.3133 12.2892 18.6908 12.2892 19.1566C12.2892 19.6224 11.9116 20 11.4458 20H3.73494C3.26916 20 2.89157 19.6224 2.89157 19.1566C2.89157 18.6908 3.26916 18.3133 3.73494 18.3133H6.74699V16.0956C5.04428 15.9053 3.44647 15.1445 2.22327 13.9213C0.799799 12.4978 5.74503e-08 10.5673 0 8.55422ZM9.63855 3.73494C9.63855 3.19173 9.42308 2.67044 9.03897 2.28633C8.65486 1.90222 8.13358 1.68675 7.59036 1.68675C7.04715 1.68675 6.52587 1.90222 6.14175 2.28633C5.75764 2.67044 5.54217 3.19173 5.54217 3.73494V8.55422C5.54217 9.09743 5.75764 9.61871 6.14175 10.0028C6.52586 10.3869 7.04715 10.6024 7.59036 10.6024C8.13358 10.6024 8.65486 10.3869 9.03897 10.0028C9.42308 9.61871 9.63855 9.09743 9.63855 8.55422V3.73494ZM11.3253 8.55422C11.3253 9.54478 10.932 10.495 10.2316 11.1954C9.53111 11.8958 8.58093 12.2892 7.59036 12.2892C6.59979 12.2892 5.64961 11.8958 4.94917 11.1954C4.24873 10.495 3.85542 9.54478 3.85542 8.55422V3.73494C3.85542 2.74437 4.24873 1.79419 4.94917 1.09375C5.64961 0.393313 6.59979 0 7.59036 0C8.58093 0 9.53111 0.393313 10.2316 1.09375C10.932 1.79419 11.3253 2.74437 11.3253 3.73494V8.55422Z" fill="currentColor"/>
</svg>
