<svg preserveAspectRatio="none" width="100%" height="100%" overflow="visible" style="display: block;" viewBox="0 0 17.9747 20" fill="none" xmlns="http://www.w3.org/2000/svg">
<path id="Vector" d="M16.2025 14.0506C16.2025 12.137 15.4423 10.3019 14.0892 8.94877C12.7361 7.59566 10.9009 6.83544 8.98734 6.83544C7.07375 6.83544 5.23859 7.59566 3.88548 8.94877C2.53237 10.3019 1.77215 12.137 1.77215 14.0506V15.0633C1.77215 15.9026 2.1053 16.7078 2.69877 17.3012C3.29224 17.8947 4.09742 18.2278 4.93671 18.2278H13.038C13.8773 18.2278 14.6824 17.8947 15.2759 17.3012C15.8694 16.7078 16.2025 15.9026 16.2025 15.0633V14.0506ZM12.1519 2.40506C12.1519 2.2372 12.0857 2.07577 11.967 1.95708C11.8483 1.83839 11.6868 1.77215 11.519 1.77215H6.4557C6.28784 1.77215 6.12641 1.83839 6.00771 1.95708C5.88902 2.07577 5.82278 2.2372 5.82278 2.40506C5.82278 3.11007 6.10255 3.78649 6.60107 4.28501C7.09958 4.78352 7.77601 5.06329 8.48101 5.06329H9.49367C10.1987 5.06329 10.8751 4.78352 11.3736 4.28501C11.8721 3.78649 12.1519 3.11007 12.1519 2.40506ZM13.9241 2.40506C13.9241 3.58007 13.4574 4.70712 12.6266 5.53797C12.5561 5.60851 12.4817 5.67449 12.407 5.73972C13.4947 6.18726 14.4944 6.84802 15.3422 7.69581C17.0276 9.38126 17.9747 11.667 17.9747 14.0506V15.0633C17.9747 16.3726 17.4547 17.6284 16.5289 18.5542C15.6031 19.48 14.3473 20 13.038 20H4.93671C3.62741 20 2.37162 19.48 1.44581 18.5542C0.519995 17.6284 0 16.3726 0 15.0633V14.0506C0 11.667 0.947063 9.38126 2.63252 7.69581C3.48008 6.84824 4.47932 6.18725 5.56665 5.73972C5.4922 5.67464 5.41846 5.60833 5.3481 5.53797C4.51724 4.70712 4.05063 3.58007 4.05063 2.40506C4.05063 1.7672 4.30371 1.15515 4.75475 0.704114C5.20578 0.253077 5.81783 0 6.4557 0H11.519C12.1568 2.55761e-07 12.7689 0.253077 13.2199 0.704114C13.671 1.15515 13.9241 1.7672 13.9241 2.40506Z" fill="currentColor"/>
</svg>
