<svg preserveAspectRatio="none" width="100%" height="100%" overflow="visible" style="display: block;" viewBox="0 0 20 20" fill="none" xmlns="http://www.w3.org/2000/svg">
<path id="Vector" d="M18.2278 10C18.2278 8.91952 18.0153 7.8495 17.6019 6.85127C17.1884 5.85302 16.5819 4.94619 15.8178 4.18216C15.0538 3.41813 14.147 2.81163 13.1487 2.39814C12.1505 1.98467 11.0805 1.77215 10 1.77215C8.91952 1.77215 7.8495 1.98467 6.85127 2.39814C5.85302 2.81163 4.94619 3.41813 4.18216 4.18216C3.41813 4.94619 2.81163 5.85302 2.39814 6.85127C1.98467 7.8495 1.77215 8.91952 1.77215 10C1.77215 11.0805 1.98467 12.1505 2.39814 13.1487C2.81163 14.147 3.41813 15.0538 4.18216 15.8178C4.94619 16.5819 5.85302 17.1884 6.85127 17.6019C7.8495 18.0153 8.91952 18.2278 10 18.2278C11.0805 18.2278 12.1505 18.0153 13.1487 17.6019C14.147 17.1884 15.0538 16.5819 15.8178 15.8178C16.5819 15.0538 17.1884 14.147 17.6019 13.1487C18.0153 12.1505 18.2278 11.0805 18.2278 10ZM11.8987 12.4179C12.2412 12.0684 12.8022 12.0626 13.1517 12.4051C13.5012 12.7475 13.507 13.3085 13.1646 13.658C12.7521 14.0789 12.26 14.4137 11.7168 14.642C11.1734 14.8703 10.5894 14.9881 10 14.9881C9.41058 14.9881 8.82662 14.8703 8.28323 14.642C7.73998 14.4137 7.24785 14.0789 6.83544 13.658C6.49299 13.3085 6.49876 12.7475 6.8483 12.4051C7.19785 12.0626 7.75879 12.0684 8.10127 12.4179C8.34876 12.6705 8.64451 12.8713 8.97053 13.0083C9.29647 13.1452 9.64647 13.216 10 13.216C10.3535 13.216 10.7035 13.1452 11.0295 13.0083C11.3555 12.8713 11.6512 12.6705 11.8987 12.4179ZM6.97191 7.08861C7.46128 7.08861 7.85799 7.48532 7.85799 7.97468C7.85799 8.46405 7.46128 8.86076 6.97191 8.86076H6.96203C6.47266 8.86076 6.07595 8.46405 6.07595 7.97468C6.07595 7.48532 6.47266 7.08861 6.96203 7.08861H6.97191ZM13.0479 7.08861C13.5372 7.08861 13.9339 7.48532 13.9339 7.97468C13.9339 8.46405 13.5372 8.86076 13.0479 8.86076H13.038C12.5486 8.86076 12.1519 8.46405 12.1519 7.97468C12.1519 7.48532 12.5486 7.08861 13.038 7.08861H13.0479ZM20 10C20 11.3132 19.7411 12.6139 19.2385 13.8271C18.736 15.0403 17.9993 16.1423 17.0708 17.0708C16.1423 17.9993 15.0403 18.736 13.8271 19.2385C12.6139 19.7411 11.3132 20 10 20C8.68678 20 7.38612 19.7411 6.17286 19.2385C4.95975 18.736 3.85769 17.9993 2.92919 17.0708C2.0007 16.1423 1.26402 15.0403 0.761472 13.8271C0.258924 12.6139 0 11.3132 0 10C0 8.68678 0.258924 7.38612 0.761472 6.17286C1.26402 4.95975 2.0007 3.85769 2.92919 2.92919C3.85769 2.0007 4.95975 1.26402 6.17286 0.761472C7.38612 0.258924 8.68678 0 10 0C11.3132 0 12.6139 0.258924 13.8271 0.761472C15.0403 1.26402 16.1423 2.0007 17.0708 2.92919C17.9993 3.85769 18.736 4.95975 19.2385 6.17286C19.7411 7.38612 20 8.68678 20 10Z" fill="currentColor"/>
</svg>
