<svg preserveAspectRatio="none" width="100%" height="100%" overflow="visible" style="display: block;" viewBox="0 0 20 20" fill="none" xmlns="http://www.w3.org/2000/svg">
<path id="Vector" d="M18.2278 10C18.2278 8.91952 18.0153 7.8495 17.6019 6.85127C17.1884 5.85302 16.5819 4.94619 15.8178 4.18216C15.0538 3.41813 14.147 2.81163 13.1487 2.39814C12.1505 1.98467 11.0805 1.77215 10 1.77215C8.91952 1.77215 7.8495 1.98467 6.85127 2.39814C5.85302 2.81163 4.94619 3.41813 4.18216 4.18216C3.41813 4.94619 2.81163 5.85302 2.39814 6.85127C1.98467 7.8495 1.77215 8.91952 1.77215 10C1.77215 11.0805 1.98467 12.1505 2.39814 13.1487C2.81163 14.147 3.41813 15.0538 4.18216 15.8178C4.94619 16.5819 5.85302 17.1884 6.85127 17.6019C7.8495 18.0153 8.91952 18.2278 10 18.2278C11.0805 18.2278 12.1505 18.0153 13.1487 17.6019C14.147 17.1884 15.0538 16.5819 15.8178 15.8178C16.5819 15.0538 17.1884 14.147 17.6019 13.1487C18.0153 12.1505 18.2278 11.0805 18.2278 10ZM10 12.1509C10.5894 12.1509 11.1734 12.2687 11.7168 12.497C12.26 12.7254 12.7521 13.0601 13.1646 13.481C13.507 13.8305 13.5012 14.3915 13.1517 14.734C12.8022 15.0765 12.2412 15.0707 11.8987 14.7211C11.6513 14.4686 11.3554 14.2677 11.0295 14.1307C10.7035 13.9938 10.3535 13.9231 10 13.9231C9.64649 13.9231 9.29645 13.9938 8.97053 14.1307C8.64455 14.2677 8.34874 14.4686 8.10127 14.7211C7.75878 15.0707 7.19785 15.0765 6.8483 14.734C6.49881 14.3915 6.49298 13.8305 6.83544 13.481C7.24786 13.0601 7.73998 12.7254 8.28323 12.497C8.82662 12.2687 9.41059 12.1509 10 12.1509ZM7.18256 6.81863C7.40153 6.38122 7.93367 6.20428 8.37124 6.42306C8.80866 6.64204 8.9856 7.17418 8.76681 7.61175C8.29946 8.54595 7.25198 8.86076 6.4557 8.86076C5.65941 8.86076 4.61193 8.54595 4.14458 7.61175C3.9258 7.17418 4.10274 6.64204 4.54015 6.42306C4.97772 6.20428 5.50986 6.38122 5.72884 6.81863C5.76791 6.89678 5.98627 7.08861 6.4557 7.08861C6.92512 7.08861 7.14348 6.89678 7.18256 6.81863ZM14.2712 6.81863C14.4901 6.38122 15.0223 6.20428 15.4598 6.42306C15.8973 6.64204 16.0742 7.17418 15.8554 7.61175C15.3881 8.54595 14.3406 8.86076 13.5443 8.86076C12.748 8.86076 11.7005 8.54595 11.2332 7.61175C11.0144 7.17418 11.1913 6.64204 11.6288 6.42306C12.0663 6.20428 12.5985 6.38122 12.8174 6.81863C12.8565 6.89678 13.0749 7.08861 13.5443 7.08861C14.0137 7.08861 14.2321 6.89678 14.2712 6.81863ZM20 10C20 11.3132 19.7411 12.6139 19.2385 13.8271C18.736 15.0403 17.9993 16.1423 17.0708 17.0708C16.1423 17.9993 15.0403 18.736 13.8271 19.2385C12.6139 19.7411 11.3132 20 10 20C8.68678 20 7.38612 19.7411 6.17286 19.2385C4.95975 18.736 3.85769 17.9993 2.92919 17.0708C2.0007 16.1423 1.26402 15.0403 0.761472 13.8271C0.258924 12.6139 0 11.3132 0 10C0 8.68678 0.258924 7.38612 0.761472 6.17286C1.26402 4.95975 2.0007 3.85769 2.92919 2.92919C3.85769 2.0007 4.95975 1.26402 6.17286 0.761472C7.38612 0.258924 8.68678 0 10 0C11.3132 0 12.6139 0.258924 13.8271 0.761472C15.0403 1.26402 16.1423 2.0007 17.0708 2.92919C17.9993 3.85769 18.736 4.95975 19.2385 6.17286C19.7411 7.38612 20 8.68678 20 10Z" fill="currentColor"/>
</svg>
