<svg preserveAspectRatio="none" width="100%" height="100%" overflow="visible" style="display: block;" viewBox="0 0 19.3026 20" fill="none" xmlns="http://www.w3.org/2000/svg">
<path id="Vector" d="M9.99811 0C10.0364 9.387e-06 10.0743 0.00304194 10.1118 0.00791145H10.3957C10.76 0.00791145 11.0872 0.231534 11.2204 0.570613C11.3535 0.909612 11.2657 1.29582 10.9989 1.54372C9.85001 2.6114 9.11108 4.04766 8.91128 5.60328C8.71153 7.15917 9.064 8.73598 9.90614 10.0594C10.7483 11.3829 12.0276 12.3701 13.5217 12.8482C15.0156 13.3261 16.6298 13.2648 18.0836 12.6761C18.4148 12.5421 18.7944 12.6201 19.0458 12.8739C19.2973 13.1277 19.3718 13.5082 19.2347 13.8381C18.54 15.5096 17.4044 16.9612 15.9495 18.0381C14.4944 19.115 12.7739 19.7767 10.9722 19.9527C9.17055 20.1286 7.35494 19.8119 5.71901 19.0369C4.08311 18.2619 2.6882 17.0575 1.68318 15.5519C0.678144 14.0463 0.10018 12.2958 0.0118835 10.4876C-0.0763715 8.67955 0.328272 6.88122 1.18179 5.28485C2.03534 3.68856 3.30607 2.35378 4.85864 1.42307C6.41129 0.492337 8.18786 0.000436632 9.99811 0ZM8.39407 1.93138C7.47157 2.115 6.58301 2.45535 5.76944 2.94306C4.49205 3.70885 3.44656 4.8071 2.7443 6.12049C2.04201 7.43402 1.70942 8.91387 1.78207 10.4016C1.85475 11.8892 2.32982 13.3292 3.15669 14.5679C3.98361 15.8068 5.13146 16.7981 6.47752 17.4358C7.82353 18.0735 9.31777 18.3342 10.8001 18.1894C12.2823 18.0446 13.6972 17.4999 14.8943 16.614C15.5599 16.1215 16.144 15.5328 16.6299 14.8715C15.4122 15.0255 14.1663 14.9147 12.9807 14.5353C11.0922 13.9309 9.47542 12.6836 8.41088 11.0108C7.34633 9.33776 6.90144 7.34464 7.15395 5.37781C7.31243 4.14362 7.73922 2.96891 8.39407 1.93138Z" fill="currentColor"/>
</svg>
