<svg preserveAspectRatio="none" width="100%" height="100%" overflow="visible" style="display: block;" viewBox="0 0 20 20" fill="none" xmlns="http://www.w3.org/2000/svg">
<path id="Vector" d="M18.0282 15.493H15.493V18.0282H16.7606C17.0968 18.0282 17.4196 17.8951 17.6574 17.6574C17.8951 17.4196 18.0282 17.0968 18.0282 16.7606V15.493ZM6.47887 18.0282H13.5211V10.9859H6.47887V18.0282ZM15.493 13.5211H18.0282V10.9859H15.493V13.5211ZM1.97183 13.5211H4.50704V10.9859H1.97183V13.5211ZM15.493 9.01408H18.0282V6.47887H15.493V9.01408ZM6.47887 9.01408H13.5211V1.97183H6.47887V9.01408ZM1.97183 9.01408H4.50704V6.47887H1.97183V9.01408ZM1.97183 16.7606C1.97183 17.0968 2.10493 17.4196 2.34265 17.6574C2.58037 17.8951 2.90325 18.0282 3.23944 18.0282H4.50704V15.493H1.97183V16.7606ZM18.0282 3.23944C18.0282 2.90325 17.8951 2.58037 17.6574 2.34265C17.4196 2.10493 17.0968 1.97183 16.7606 1.97183H15.493V4.50704H18.0282V3.23944ZM1.97183 4.50704H4.50704V1.97183H3.23944C2.90325 1.97183 2.58037 2.10493 2.34265 2.34265C2.10493 2.58037 1.97183 2.90325 1.97183 3.23944V4.50704ZM20 16.7606C20 17.6197 19.659 18.444 19.0515 19.0515C18.444 19.659 17.6197 20 16.7606 20H3.23944C2.38028 20 1.55602 19.659 0.948504 19.0515C0.340991 18.444 0 17.6197 0 16.7606V3.23944C0 2.38028 0.340991 1.55602 0.948504 0.948504C1.55602 0.340991 2.38028 0 3.23944 0H16.7606C17.6197 2.84581e-07 18.444 0.340992 19.0515 0.948504C19.659 1.55602 20 2.38028 20 3.23944V16.7606Z" fill="currentColor"/>
</svg>
