<svg preserveAspectRatio="none" width="100%" height="100%" overflow="visible" style="display: block;" viewBox="0 0 20 20" fill="none" xmlns="http://www.w3.org/2000/svg">
<path id="Vector" d="M6.76056 15.6338C6.76056 14.9988 6.50867 14.3894 6.05964 13.9404C5.61061 13.4913 5.00122 13.2394 4.3662 13.2394C3.73117 13.2394 3.12179 13.4913 2.67276 13.9404C2.22372 14.3894 1.97183 14.9988 1.97183 15.6338C1.97183 16.2688 2.22372 16.8782 2.67276 17.3272C3.12179 17.7763 3.73117 18.0282 4.3662 18.0282C5.00122 18.0282 5.61061 17.7763 6.05964 17.3272C6.50867 16.8782 6.76056 16.2688 6.76056 15.6338ZM18.0282 15.6338C18.0282 14.9988 17.7763 14.3894 17.3272 13.9404C16.8782 13.4913 16.2688 13.2394 15.6338 13.2394C14.9988 13.2394 14.3894 13.4913 13.9404 13.9404C13.4913 14.3894 13.2394 14.9988 13.2394 15.6338C13.2394 16.2688 13.4913 16.8782 13.9404 17.3272C14.3894 17.7763 14.9988 18.0282 15.6338 18.0282C16.2688 18.0282 16.8782 17.7763 17.3272 17.3272C17.7763 16.8782 18.0282 16.2688 18.0282 15.6338ZM8.73239 4.50704H18.0282V1.97183H8.73239V4.50704ZM20 15.6338C20 16.7918 19.5402 17.9026 18.7214 18.7214C17.9026 19.5402 16.7918 20 15.6338 20C14.4758 20 13.365 19.5402 12.5462 18.7214C11.7274 17.9026 11.2676 16.7918 11.2676 15.6338C11.2676 14.4758 11.7274 13.365 12.5462 12.5462C13.365 11.7274 14.4758 11.2676 15.6338 11.2676C16.4912 11.2676 17.322 11.5207 18.0282 11.9839V6.47887H8.73239V15.6338L8.72689 15.8506C8.67329 16.9296 8.22137 17.9538 7.45379 18.7214C6.63496 19.5402 5.52418 20 4.3662 20C3.20821 20 2.09743 19.5402 1.27861 18.7214C0.459788 17.9026 0 16.7918 0 15.6338C0 14.4758 0.459788 13.365 1.27861 12.5462C2.09743 11.7274 3.20821 11.2676 4.3662 11.2676C5.22357 11.2676 6.05435 11.5207 6.76056 11.9839V0.985916C6.76056 0.441409 7.20197 0 7.74648 0H19.0141C19.5586 5.80742e-07 20 0.44141 20 0.985916V15.6338Z" fill="currentColor"/>
</svg>
