<svg preserveAspectRatio="none" width="100%" height="100%" overflow="visible" style="display: block;" viewBox="0 0 17.9769 20" fill="none" xmlns="http://www.w3.org/2000/svg">
<path id="Vector" d="M8.98834 0C9.33404 8.27004e-06 9.64859 0.201368 9.7934 0.515282L17.8638 18.0101C17.8758 18.0361 17.8871 18.0633 17.8965 18.0902C17.9864 18.3484 18.0014 18.6271 17.939 18.8933C17.8769 19.1585 17.7395 19.3996 17.5454 19.5906L17.5464 19.5916C17.1528 19.9799 16.5744 20.0996 16.0618 19.915V19.918L8.98834 17.5196L1.91582 19.918L1.91483 19.915C1.40249 20.0991 0.824653 19.9797 0.431298 19.5916L0.432287 19.5906C0.0357256 19.2012 -0.104056 18.6163 0.0801946 18.0893L0.112832 18.0101L8.18426 0.515282L8.24657 0.402533C8.40839 0.154074 8.68616 0.000156099 8.98834 0ZM2.07209 17.9923L8.70449 15.7443L8.84493 15.7097C8.98764 15.6862 9.1348 15.6974 9.27318 15.7443L15.9036 17.9923L8.98834 3.0007L2.07209 17.9923Z" fill="currentColor"/>
</svg>
