<svg preserveAspectRatio="none" width="100%" height="100%" overflow="visible" style="display: block;" viewBox="0 0 20 20" fill="none" xmlns="http://www.w3.org/2000/svg">
<path id="Vector" d="M18.0282 4.3662C18.0282 4.32884 18.0139 4.29248 17.9875 4.26607C17.961 4.23965 17.9247 4.22535 17.8873 4.22535H15.493V16.7606C15.493 17.0968 15.6261 17.4196 15.8638 17.6574C16.1015 17.8951 16.4244 18.0282 16.7606 18.0282C17.0968 18.0282 17.4196 17.8951 17.6574 17.6574C17.8951 17.4196 18.0282 17.0968 18.0282 16.7606V4.3662ZM10 13.5211C10.5445 13.5211 10.9859 13.9625 10.9859 14.507C10.9859 15.0515 10.5445 15.493 10 15.493H5.49296C4.94845 15.493 4.50704 15.0515 4.50704 14.507C4.50704 13.9625 4.94845 13.5211 5.49296 13.5211H10ZM10 9.01408C10.5445 9.01409 10.9859 9.45549 10.9859 10C10.9859 10.5445 10.5445 10.9859 10 10.9859H5.49296C4.94845 10.9859 4.50704 10.5445 4.50704 10C4.50704 9.45549 4.94845 9.01408 5.49296 9.01408H10ZM10 4.50704C10.5445 4.50704 10.9859 4.94845 10.9859 5.49296C10.9859 6.03746 10.5445 6.47887 10 6.47887H5.49296C4.94845 6.47887 4.50704 6.03746 4.50704 5.49296C4.50704 4.94845 4.94845 4.50704 5.49296 4.50704H10ZM13.5211 2.11268C13.5211 2.07532 13.5068 2.03896 13.4804 2.01254C13.454 1.98613 13.4176 1.97183 13.3803 1.97183H2.11268C2.07532 1.97183 2.03896 1.98613 2.01254 2.01254C1.98613 2.03896 1.97183 2.07532 1.97183 2.11268V15.6338C1.97183 16.2688 2.22372 16.8782 2.67276 17.3272C3.12179 17.7763 3.73117 18.0282 4.3662 18.0282H13.7808C13.6118 17.6309 13.5211 17.2006 13.5211 16.7606V2.11268ZM15.493 2.25352H17.8873C18.4476 2.25352 18.9854 2.47572 19.3816 2.87192C19.7778 3.26812 20 3.80588 20 4.3662V16.7606C20 17.6197 19.659 18.444 19.0515 19.0515C18.5199 19.5831 17.8224 19.911 17.0808 19.9846L16.7606 20H4.3662C3.20821 20 2.09743 19.5402 1.27861 18.7214C0.459788 17.9026 0 16.7918 0 15.6338V2.11268C0 1.55236 0.222195 1.0146 0.618398 0.618398C1.0146 0.222195 1.55236 0 2.11268 0H13.3803C13.9406 2.8458e-07 14.4784 0.222195 14.8746 0.618398C15.2708 1.0146 15.493 1.55236 15.493 2.11268V2.25352Z" fill="currentColor"/>
</svg>
