<svg preserveAspectRatio="none" width="100%" height="100%" overflow="visible" style="display: block;" viewBox="0 0 19.9971 20" fill="none" xmlns="http://www.w3.org/2000/svg">
<path id="Vector" d="M18.2252 8.98606C18.2252 5.0973 14.6425 1.7719 9.99857 1.7719C7.81672 1.7719 5.72436 2.63876 4.18156 4.18156C2.63876 5.72436 1.7719 7.81672 1.7719 9.99857C1.7719 12.1804 2.63876 14.2728 4.18156 15.8156C5.72436 17.3584 7.81672 18.2252 9.99857 18.2252C10.0255 18.2252 10.0528 18.2267 10.0797 18.2292C10.1691 18.2373 10.2593 18.2173 10.3367 18.1719C10.4142 18.1263 10.4753 18.0572 10.5117 17.9751C10.5482 17.8929 10.5576 17.8011 10.5394 17.7131C10.5253 17.6449 10.4951 17.5816 10.4514 17.5282C9.94608 17.2128 9.54668 16.7515 9.31236 16.2012C9.058 15.6037 9.01056 14.9381 9.17788 14.3107C9.3452 13.6833 9.71787 13.13 10.2359 12.7385C10.7502 12.3499 11.3792 12.1429 12.0236 12.1502H14.5549C15.559 12.1502 16.5052 11.7938 17.188 11.1871C17.867 10.5837 18.2252 9.78852 18.2252 8.98606ZM6.58134 8.4798C6.58134 8.44624 6.56849 8.41356 6.54475 8.38982C6.52102 8.36609 6.48834 8.35324 6.45477 8.35324C6.42121 8.35324 6.38853 8.36609 6.36479 8.38982C6.34106 8.41356 6.32821 8.44624 6.32821 8.4798C6.32821 8.51337 6.34106 8.54605 6.36479 8.56978C6.38853 8.59352 6.42121 8.60637 6.45477 8.60637C6.48834 8.60637 6.52102 8.59352 6.54475 8.56978C6.56849 8.54605 6.58134 8.51337 6.58134 8.4798ZM14.6814 8.4798C14.6814 8.44623 14.6686 8.41356 14.6449 8.38982C14.6211 8.36609 14.5884 8.35324 14.5549 8.35324C14.5213 8.35324 14.4886 8.36609 14.4649 8.38982C14.4412 8.41356 14.4283 8.44624 14.4283 8.4798C14.4283 8.51337 14.4412 8.54605 14.4649 8.56978C14.4886 8.59352 14.5213 8.60637 14.5549 8.60637C14.5884 8.60637 14.6211 8.59352 14.6449 8.56978C14.6686 8.54605 14.6814 8.51337 14.6814 8.4798ZM10.6314 5.44226C10.6314 5.40869 10.6185 5.37602 10.5948 5.35228C10.5711 5.32855 10.5384 5.3157 10.5048 5.3157C10.4713 5.3157 10.4386 5.32855 10.4148 5.35228C10.3911 5.37602 10.3783 5.40869 10.3783 5.44226C10.3783 5.47583 10.3911 5.5085 10.4148 5.53224C10.4386 5.55598 10.4713 5.56883 10.5048 5.56883C10.5384 5.56883 10.5711 5.55598 10.5948 5.53224C10.6185 5.5085 10.6314 5.47583 10.6314 5.44226ZM19.9971 8.98606C19.9971 10.3301 19.3957 11.5967 18.3657 12.5121C17.3393 13.4241 15.9666 13.9221 14.5549 13.9221H12.0098C11.7557 13.918 11.5075 13.9993 11.3048 14.1524C11.102 14.3056 10.9559 14.5219 10.8905 14.7675C10.825 15.013 10.8433 15.2733 10.9429 15.5071C11.03 15.7118 11.1751 15.8857 11.3591 16.0084L11.4402 16.0578L11.5292 16.1142C11.5581 16.135 11.586 16.1582 11.6123 16.1824C11.9503 16.4945 12.1817 16.9046 12.2747 17.3551C12.3678 17.8058 12.3173 18.2744 12.1304 18.6949C11.9435 19.1154 11.6294 19.4666 11.2326 19.6995C10.8564 19.9202 10.424 20.0216 9.98967 19.9962C7.3411 19.9938 4.80177 18.9414 2.92877 17.0684C1.05368 15.1933 0 12.6504 0 9.99857C0 7.34679 1.05368 4.80387 2.92877 2.92877C4.80387 1.05368 7.34679 6.03505e-08 9.99857 0C15.4191 0 19.9971 3.92825 19.9971 8.98606ZM8.35324 8.4798C8.35324 8.98331 8.15357 9.46654 7.79754 9.82257C7.44151 10.1786 6.95828 10.3783 6.45477 10.3783C5.95127 10.3783 5.46804 10.1786 5.11201 9.82257C4.75598 9.46654 4.55631 8.98331 4.55631 8.4798C4.55631 7.9763 4.75598 7.49307 5.11201 7.13703C5.46804 6.781 5.95127 6.58134 6.45477 6.58134C6.95828 6.58134 7.44151 6.781 7.79754 7.13703C8.15357 7.49307 8.35324 7.9763 8.35324 8.4798ZM16.4533 8.4798C16.4533 8.9833 16.2537 9.46654 15.8976 9.82257C15.5416 10.1786 15.0584 10.3783 14.5549 10.3783C14.0514 10.3783 13.5681 10.1786 13.2121 9.82257C12.8561 9.46654 12.6564 8.98331 12.6564 8.4798C12.6564 7.9763 12.8561 7.49307 13.2121 7.13703C13.5681 6.781 14.0514 6.58134 14.5549 6.58134C15.0584 6.58134 15.5416 6.781 15.8976 7.13703C16.2537 7.49307 16.4533 7.9763 16.4533 8.4798ZM12.4033 5.44226C12.4033 5.94577 12.2036 6.429 11.8476 6.78503C11.4916 7.14106 11.0083 7.34072 10.5048 7.34072C10.0013 7.34072 9.51809 7.14106 9.16206 6.78503C8.80603 6.429 8.60636 5.94577 8.60636 5.44226C8.60636 4.93876 8.80603 4.45552 9.16206 4.09949C9.51809 3.74346 10.0013 3.5438 10.5048 3.5438C11.0083 3.5438 11.4916 3.74346 11.8476 4.09949C12.2036 4.45552 12.4033 4.93876 12.4033 5.44226Z" fill="currentColor"/>
</svg>
