<svg preserveAspectRatio="none" width="100%" height="100%" overflow="visible" style="display: block;" viewBox="0 0 18.779 20" fill="none" xmlns="http://www.w3.org/2000/svg">
<path id="Vector" d="M15.3332 5.02758C15.3331 4.15023 14.9845 3.30881 14.3641 2.68841C13.7437 2.06803 12.9023 1.71943 12.0249 1.71936C11.1474 1.71936 10.3053 2.06792 9.68482 2.68841L3.29863 9.0746C2.28745 10.0858 1.71948 11.4574 1.71936 12.8875C1.71936 14.3177 2.28733 15.69 3.29863 16.7014C4.30999 17.7127 5.68222 18.2806 7.1125 18.2806C8.54261 18.2806 9.91413 17.7126 10.9254 16.7014L17.3116 10.3152C17.6473 9.97948 18.1915 9.97953 18.5272 10.3152C18.8629 10.6509 18.8629 11.1951 18.5272 11.5308L12.141 17.917C10.8073 19.2507 8.99861 19.9999 7.1125 20C5.22622 20 3.41679 19.2508 2.08299 17.917C0.749245 16.5832 0 14.7737 0 12.8875C0.000117855 11.0014 0.749371 9.19264 2.08299 7.85896L8.46918 1.47278C9.41212 0.529837 10.6914 0 12.0249 0C13.3583 7.71639e-05 14.6369 0.529954 15.5798 1.47278C16.5226 2.41561 17.0524 3.69423 17.0525 5.02758C17.0525 6.3611 16.5227 7.64042 15.5798 8.58335L9.19357 14.9695C8.64157 15.5215 7.8931 15.832 7.1125 15.8321C6.33174 15.8321 5.58254 15.5216 5.03046 14.9695C4.47843 14.4175 4.16791 13.6682 4.16791 12.8875C4.16802 12.107 4.47856 11.3584 5.03046 10.8064L11.4166 4.42024C11.7523 4.08454 12.2966 4.0846 12.6323 4.42024C12.968 4.75597 12.968 5.30016 12.6323 5.63588L6.2461 12.0221C6.01664 12.2516 5.88738 12.563 5.88726 12.8875C5.88726 13.2122 6.01651 13.5243 6.2461 13.7539C6.47574 13.9835 6.78774 14.1127 7.1125 14.1127C7.4371 14.1127 7.74837 13.9834 7.97793 13.7539L14.3641 7.36771C14.9846 6.74722 15.3332 5.9051 15.3332 5.02758Z" fill="currentColor"/>
</svg>
