<svg preserveAspectRatio="none" width="100%" height="100%" overflow="visible" style="display: block;" viewBox="0 0 20 9.87342" fill="none" xmlns="http://www.w3.org/2000/svg">
<path id="Vector" d="M4.05063 2.91139C4.05063 2.60925 3.93101 2.31907 3.71737 2.10542C3.50372 1.89177 3.21354 1.77215 2.91139 1.77215H1.77215V4.05063H2.91139C3.21354 4.05063 3.50372 3.93101 3.71737 3.71737C3.93101 3.50372 4.05063 3.21354 4.05063 2.91139ZM11.1392 2.91139C11.1392 2.60925 11.0196 2.31907 10.806 2.10542C10.5923 1.89177 10.3021 1.77215 10 1.77215H8.86076V8.10127H10C10.3021 8.10127 10.5923 7.98165 10.806 7.768C11.0196 7.55435 11.1392 7.26417 11.1392 6.96203V2.91139ZM14.1772 8.98734V0.886076C14.1772 0.39671 14.5739 0 15.0633 0H19.1139C19.6033 0 20 0.39671 20 0.886076C20 1.37544 19.6033 1.77215 19.1139 1.77215H15.9494V4.05063H18.1013C18.5906 4.05063 18.9873 4.44734 18.9873 4.93671C18.9873 5.42608 18.5906 5.82278 18.1013 5.82278H15.9494V8.98734C15.9494 9.47671 15.5527 9.87342 15.0633 9.87342C14.5739 9.87342 14.1772 9.47671 14.1772 8.98734ZM5.82278 2.91139C5.82278 3.68354 5.51632 4.42434 4.97033 4.97033C4.42434 5.51632 3.68354 5.82278 2.91139 5.82278H1.77215V8.98734C1.77215 9.47671 1.37544 9.87342 0.886076 9.87342C0.39671 9.87342 0 9.47671 0 8.98734V0.886076C0 0.39671 0.39671 0 0.886076 0H2.91139C3.68354 0 4.42434 0.306461 4.97033 0.852453C5.51632 1.39844 5.82278 2.13924 5.82278 2.91139ZM12.9114 6.96203C12.9114 7.73418 12.6049 8.47497 12.0589 9.02097C11.5129 9.56696 10.7721 9.87342 10 9.87342H7.97468C7.48532 9.87342 7.08861 9.47671 7.08861 8.98734V0.886076C7.08861 0.39671 7.48532 0 7.97468 0H10C10.7721 0 11.5129 0.306461 12.0589 0.852453C12.6049 1.39844 12.9114 2.13924 12.9114 2.91139V6.96203Z" fill="currentColor"/>
</svg>
