<svg preserveAspectRatio="none" width="100%" height="100%" overflow="visible" style="display: block;" viewBox="0 0 20 20" fill="none" xmlns="http://www.w3.org/2000/svg">
<path id="Vector" d="M17.9506 4.33669C17.9505 4.03644 17.8916 3.7392 17.7768 3.4618C17.6618 3.18425 17.4928 2.93201 17.2804 2.71958C17.068 2.50724 16.8157 2.33817 16.5382 2.22324C16.2608 2.10843 15.9635 2.04941 15.6633 2.04941C15.3631 2.04941 15.0658 2.10843 14.7884 2.22324C14.511 2.33817 14.2586 2.50724 14.0462 2.71958L13.599 3.1656L16.8344 6.40096L17.2804 5.95494C17.4928 5.74257 17.6618 5.49018 17.7768 5.21272C17.8917 4.93517 17.9506 4.63711 17.9506 4.33669ZM2.04941 14.7164V17.9506H5.28477L15.3843 7.84995L12.15 4.61574L2.04941 14.7164ZM20 4.33669C20 4.90623 19.8886 5.47106 19.6706 5.99725C19.4527 6.52326 19.1331 7.00131 18.7306 7.40393L6.43413 19.7004C6.24196 19.8925 5.98083 20 5.70906 20H1.0247C0.458775 20 0 19.5412 0 18.9753V14.2909C9.36529e-05 14.0195 0.107795 13.7591 0.299634 13.567L12.5961 1.27059C12.9988 0.867853 13.4777 0.548469 14.0039 0.330512C14.53 0.112587 15.0938 0 15.6633 0C16.2328 0 16.7966 0.112587 17.3227 0.330512C17.8489 0.548469 18.3278 0.867853 18.7306 1.27059C19.1331 1.67323 19.4527 2.15124 19.6706 2.67726C19.8885 3.20333 20 3.7673 20 4.33669Z" fill="currentColor"/>
</svg>
