<svg preserveAspectRatio="none" width="100%" height="100%" overflow="visible" style="display: block;" viewBox="0 0 20 20" fill="none" xmlns="http://www.w3.org/2000/svg">
<path id="Vector" d="M18.1333 13.2979L14.124 11.6948L12.9333 13.6802C12.6835 14.0965 12.1563 14.252 11.7208 14.0375C9.22028 12.8043 7.19572 10.7797 5.9625 8.27917C5.74799 7.84366 5.90353 7.31653 6.31979 7.06667L8.30417 5.875L6.70104 1.86667H3.06667C2.74841 1.86667 2.44275 1.99266 2.21771 2.21771C1.9966 2.43882 1.871 2.73777 1.86667 3.05C2.11453 6.96842 3.78349 10.6627 6.56042 13.4396C9.33709 16.2163 13.0309 17.8842 16.949 18.1323C17.2616 18.1282 17.5609 18.0036 17.7823 17.7823C18.0073 17.5572 18.1333 17.2516 18.1333 16.9333V13.2979ZM20 16.9333C20 17.7467 19.6772 18.527 19.1021 19.1021C18.527 19.6772 17.7467 20 16.9333 20C16.9146 20 16.8958 19.999 16.8771 19.9979C12.4888 19.7312 8.34937 17.8681 5.24063 14.7594C2.13188 11.6506 0.268764 7.51124 0.00208333 3.12292C0.000951628 3.10418 0 3.08544 0 3.06667C0 2.25334 0.322805 1.47303 0.897917 0.897917C1.47303 0.322805 2.25334 0 3.06667 0H7.33333C7.71491 0 8.05822 0.232212 8.2 0.586458L10.3333 5.91979C10.5034 6.34507 10.3396 6.83094 9.94688 7.06667L8.04688 8.20625C8.965 9.74658 10.2525 11.0338 11.7927 11.9521L12.9333 10.0531L13.0323 9.91667C13.289 9.62447 13.708 9.51779 14.0802 9.66667L19.4135 11.8C19.7678 11.9418 20 12.2851 20 12.6667V16.9333Z" fill="currentColor"/>
</svg>
