<svg preserveAspectRatio="none" width="100%" height="100%" overflow="visible" style="display: block;" viewBox="0 0 20 20" fill="none" xmlns="http://www.w3.org/2000/svg">
<path id="Vector" d="M18.2278 14.4185L15.449 11.6396H15.448C15.116 11.3251 14.8083 11.2203 14.557 11.2203C14.3055 11.2203 13.9971 11.3247 13.665 11.6396L13.2793 12.0253L14.6776 13.4237C15.0236 13.7697 15.0236 14.3316 14.6776 14.6776C14.3316 15.0236 13.7697 15.0236 13.4237 14.6776L8.36036 9.61432H8.35938C8.02743 9.29977 7.71965 9.19502 7.46835 9.19502C7.21693 9.19502 6.90849 9.29938 6.57635 9.61432L1.77215 14.4185V16.0759C1.77215 16.6467 1.99854 17.1943 2.4021 17.5979C2.80566 18.0015 3.35333 18.2278 3.92405 18.2278H16.0759C16.6467 18.2278 17.1943 18.0015 17.5979 17.5979C18.0015 17.1943 18.2278 16.6467 18.2278 16.0759V14.4185ZM13.0479 5.06329C13.5372 5.06329 13.9339 5.46 13.9339 5.94937C13.9339 6.43873 13.5372 6.83544 13.0479 6.83544H13.038C12.5486 6.83544 12.1519 6.43873 12.1519 5.94937C12.1519 5.46 12.5486 5.06329 13.038 5.06329H13.0479ZM18.2278 3.92405C18.2278 3.35333 18.0015 2.80566 17.5979 2.4021C17.1943 1.99854 16.6467 1.77215 16.0759 1.77215H3.92405C3.35333 1.77215 2.80566 1.99854 2.4021 2.4021C1.99854 2.80566 1.77215 3.35333 1.77215 3.92405V11.9106L5.32239 8.36036C5.3264 8.35635 5.33116 8.35243 5.33525 8.3485C5.9381 7.76851 6.67392 7.42286 7.46835 7.42286C8.26279 7.42286 8.99861 7.76851 9.60146 8.3485C9.60555 8.35243 9.61031 8.35635 9.61432 8.36036L12.0253 10.7714L12.411 10.3857C12.415 10.3817 12.4198 10.3777 12.4239 10.3738C13.0267 9.79383 13.7625 9.44818 14.557 9.44818C15.3514 9.44818 16.0872 9.79383 16.6901 10.3738C16.6942 10.3777 16.6989 10.3817 16.7029 10.3857L18.2278 11.9106V3.92405ZM20 16.0759C20 17.1167 19.5868 18.115 18.8509 18.8509C18.115 19.5868 17.1167 20 16.0759 20H3.92405C2.88333 20 1.88503 19.5868 1.14913 18.8509C0.413228 18.115 0 17.1167 0 16.0759V3.92405C0 2.88333 0.413228 1.88503 1.14913 1.14913C1.88503 0.413228 2.88333 0 3.92405 0H16.0759C17.1167 0 18.115 0.413228 18.8509 1.14913C19.5868 1.88503 20 2.88333 20 3.92405V16.0759Z" fill="currentColor"/>
</svg>
