<svg preserveAspectRatio="none" width="100%" height="100%" overflow="visible" style="display: block;" viewBox="0 0 20 19.9997" fill="none" xmlns="http://www.w3.org/2000/svg">
<path id="Vector" d="M5.37748 16.328C5.57637 16.1597 5.8394 16.0872 6.09639 16.1302C6.38254 16.1782 6.67252 16.2025 6.96265 16.2024H11.0131L11.2306 16.1975C11.448 16.1885 11.6647 16.1662 11.8793 16.1302C12.1363 16.0872 12.3994 16.1597 12.5983 16.328C12.797 16.4963 12.9117 16.7439 12.9117 17.0044V17.5947C12.9118 17.7623 12.9782 17.9231 13.0967 18.0417C13.2153 18.1604 13.3768 18.2276 13.5446 18.2276C13.7125 18.2276 13.8739 18.1604 13.9926 18.0417C14.111 17.9231 14.1774 17.7623 14.1775 17.5947V15.5418C14.1775 15.2901 14.2847 15.0503 14.4722 14.8823C15.1228 14.2992 15.6166 13.5633 15.907 12.7423L15.9634 12.6148C16.1165 12.3325 16.4142 12.152 16.7426 12.152H18.1014C18.1349 12.152 18.1676 12.1381 18.1913 12.1144C18.2148 12.0908 18.2278 12.0587 18.2279 12.0254V10.0002C18.2279 9.96669 18.215 9.93391 18.1913 9.91019C18.1676 9.88645 18.1349 9.8736 18.1014 9.8736H16.7436C16.3685 9.8736 16.0335 9.63677 15.908 9.28324C15.4942 8.11722 14.6788 7.13604 13.6079 6.51636C13.3344 6.35794 13.1659 6.06605 13.1659 5.74998V3.55369L9.98565 5.67384C9.8401 5.77087 9.6691 5.82316 9.49417 5.82316H6.96265C5.91145 5.82299 4.88463 6.14181 4.01876 6.73787C3.153 7.33392 2.48823 8.17869 2.1132 9.16062C1.73815 10.1426 1.67036 11.2155 1.91839 12.237C2.16644 13.2585 2.71896 14.1807 3.50257 14.8813C3.69058 15.0494 3.79824 15.2896 3.79824 15.5418V17.5947C3.79834 17.7623 3.86475 17.9231 3.98316 18.0417C4.10185 18.1604 4.26328 18.2276 4.43113 18.2276C4.59897 18.2276 4.7604 18.1604 4.87909 18.0417C4.99749 17.9231 5.06391 17.7623 5.06401 17.5947V17.0044C5.06401 16.7439 5.1787 16.4963 5.37748 16.328ZM12.1533 8.99745V8.98757C12.1533 8.49823 12.55 8.10154 13.0393 8.10153C13.5286 8.10153 13.9253 8.49822 13.9253 8.98757V8.99745C13.9253 9.48674 13.5286 9.88349 13.0393 9.88349C12.55 9.88348 12.1533 9.48674 12.1533 8.99745ZM5.49713 1.84491C5.11398 1.74214 4.70969 1.74724 4.32927 1.85974C3.94885 1.97225 3.60701 2.18808 3.34138 2.48273C3.07578 2.77741 2.89676 3.13993 2.8242 3.52995C2.75168 3.9199 2.7882 4.32246 2.93001 4.69287C2.99453 4.86129 3.08095 5.0197 3.18415 5.16556C4.30898 4.43882 5.6206 4.0509 6.96265 4.05109H7.08725C7.09863 3.85942 7.08498 3.66615 7.04473 3.47655C6.96232 3.08855 6.77376 2.73101 6.50084 2.44318C6.22779 2.1553 5.88035 1.94773 5.49713 1.84491ZM20 12.0254C19.9999 12.5287 19.8 13.0114 19.4443 13.3673C19.0882 13.7234 18.6049 13.924 18.1014 13.924H17.334C16.9924 14.6648 16.5248 15.3403 15.9496 15.9196V17.5947C15.9495 18.2323 15.6962 18.8437 15.2455 19.2946C14.7945 19.7456 14.1824 19.9997 13.5446 19.9997C12.9068 19.9997 12.2948 19.7456 11.8437 19.2946C11.4826 18.9334 11.2503 18.4688 11.1713 17.9705C11.1186 17.9717 11.0659 17.9745 11.0131 17.9745H6.96265C6.90955 17.9745 6.8565 17.9717 6.80344 17.9705C6.72446 18.4687 6.49308 18.9334 6.13199 19.2946C5.68098 19.7456 5.06895 19.9997 4.43113 19.9997C3.79329 19.9997 3.18127 19.7456 2.73026 19.2946C2.27952 18.8437 2.02627 18.2323 2.02618 17.5947V15.9206C1.13169 15.0211 0.497335 13.893 0.196754 12.6553C-0.135982 11.2851 -0.0452166 9.84597 0.457818 8.52873C0.772171 7.70567 1.23778 6.9536 1.82642 6.31068C1.59762 6.01228 1.4114 5.6812 1.27562 5.32674C1.01695 4.65132 0.94965 3.91768 1.0818 3.20659C1.21408 2.49526 1.54077 1.83352 2.02519 1.29608C2.50956 0.758805 3.13323 0.366007 3.82692 0.160851C4.5206 -0.0442789 5.2573 -0.0532449 5.95597 0.134151C6.65467 0.321622 7.28851 0.698082 7.78638 1.2229C8.2843 1.74786 8.62791 2.40095 8.77823 3.10869C8.84426 3.41976 8.86956 3.73619 8.85932 4.05109H9.2252L13.5594 1.16159L13.6732 1.09732C13.7908 1.04188 13.9198 1.01326 14.0509 1.01326H14.0519C14.5412 1.01326 14.9379 1.40995 14.9379 1.8993V5.26346C15.9802 5.97585 16.8098 6.9564 17.3379 8.10153H18.1014C18.6049 8.10153 19.0882 8.30122 19.4443 8.65728C19.8002 9.01333 20 9.49671 20 10.0002V12.0254Z" fill="currentColor"/>
</svg>
