<svg preserveAspectRatio="none" width="100%" height="100%" overflow="visible" style="display: block;" viewBox="0 0 20 20" fill="none" xmlns="http://www.w3.org/2000/svg">
<path id="Vector" d="M11.8908 0.297123C12.2869 -0.0990413 12.9302 -0.0990407 13.3264 0.297123L19.7029 6.67362C20.099 7.06979 20.099 7.71308 19.7029 8.10924C19.3538 8.45832 18.8135 8.49876 18.419 8.23265L14.6397 12.0119L12.9788 16.4433C12.9279 16.5787 12.849 16.7022 12.7467 16.8045L11.0077 18.5435C10.6115 18.9397 9.9682 18.9397 9.57203 18.5435L6.23207 15.2035L1.73274 19.7029C1.33658 20.099 0.693288 20.099 0.297123 19.7029C-0.099041 19.3067 -0.0990412 18.6634 0.297123 18.2673L4.79645 13.7679L1.45649 10.428C1.26624 10.2377 1.15985 9.97921 1.15985 9.71016C1.15985 9.44111 1.26624 9.1826 1.45649 8.99235L3.19553 7.25331C3.29784 7.151 3.42126 7.07206 3.5567 7.02121L7.98696 5.35915L11.7662 1.5799C11.5011 1.1855 11.5421 0.645822 11.8908 0.297123ZM9.26861 6.94988C9.1663 7.05218 9.04288 7.13112 8.90744 7.18198L4.47604 8.8429L3.60991 9.71016L10.2898 16.3901L11.156 15.5228L12.818 11.0926C12.8689 10.9571 12.9478 10.8337 13.0501 10.7314L16.9698 6.81175L13.1883 3.03023L9.26861 6.94988Z" fill="currentColor"/>
</svg>
