<svg preserveAspectRatio="none" width="100%" height="100%" overflow="visible" style="display: block;" viewBox="0 0 20 20" fill="none" xmlns="http://www.w3.org/2000/svg">
<path id="Vector" d="M17.7778 3.65079C17.7778 3.27191 17.6278 2.90804 17.3599 2.64013C17.092 2.37222 16.7281 2.22222 16.3492 2.22222H3.65079C3.27191 2.22222 2.90804 2.37222 2.64013 2.64013C2.37222 2.90804 2.22222 3.27191 2.22222 3.65079V16.3492C2.22222 16.7281 2.37222 17.092 2.64013 17.3599C2.90804 17.6278 3.27191 17.7778 3.65079 17.7778H16.3492C16.7281 17.7778 17.092 17.6278 17.3599 17.3599C17.6278 17.092 17.7778 16.7281 17.7778 16.3492V3.65079ZM20 16.3492C20 17.3175 19.6157 18.2464 18.9311 18.9311C18.2464 19.6157 17.3175 20 16.3492 20H3.65079C2.68254 20 1.7536 19.6157 1.06895 18.9311C0.384292 18.2464 0 17.3175 0 16.3492V3.65079C0 2.68254 0.384292 1.75361 1.06895 1.06895C1.75361 0.384292 2.68254 0 3.65079 0H16.3492C17.3175 0 18.2464 0.384292 18.9311 1.06895C19.6157 1.7536 20 2.68254 20 3.65079V16.3492Z" fill="currentColor"/>
</svg>
