<svg preserveAspectRatio="none" width="100%" height="100%" overflow="visible" style="display: block;" viewBox="0 0 20 15.1805" fill="none" xmlns="http://www.w3.org/2000/svg">
<path id="Vector" d="M0.495105 0.075205C0.796406 -0.0614146 1.14974 -0.00899614 1.39872 0.208865L9.10956 6.95585C9.29251 7.11599 9.39759 7.34713 9.39759 7.59027C9.39759 7.8334 9.29251 8.06454 9.10956 8.22468L1.39872 14.9717C1.14974 15.1895 0.796405 15.2419 0.495105 15.1053C0.193759 14.9686 0 14.6682 0 14.3373V0.843277C0 0.512357 0.193759 0.211947 0.495105 0.075205ZM11.0975 0.075205C11.3988 -0.0614144 11.7521 -0.00899606 12.0011 0.208865L19.712 6.95585C19.8949 7.11599 20 7.34713 20 7.59027C20 7.8334 19.8949 8.06454 19.712 8.22468L12.0011 14.9717C11.7521 15.1895 11.3988 15.2419 11.0975 15.1053C10.7962 14.9686 10.6024 14.6682 10.6024 14.3373V0.843277C10.6024 0.512357 10.7962 0.211947 11.0975 0.075205ZM1.68675 12.4783L7.27316 7.59027L1.68675 2.70133V12.4783ZM12.2892 12.4783L17.8756 7.59027L12.2892 2.70133V12.4783Z" fill="currentColor"/>
</svg>
