<svg preserveAspectRatio="none" width="100%" height="100%" overflow="visible" style="display: block;" viewBox="0 0 20 20" fill="none" xmlns="http://www.w3.org/2000/svg">
<path id="Vector" d="M12.6825 0.288754C13.0675 -0.0962512 13.6927 -0.0962515 14.0777 0.288754C14.4627 0.67376 14.4627 1.29893 14.0777 1.68393L10.7097 5.05085L14.948 9.28921L18.3161 5.92229C18.7011 5.53728 19.3262 5.53728 19.7112 5.92229C20.0963 6.3073 20.0963 6.93246 19.7112 7.31747L16.3432 10.6844L17.4578 11.799C17.6424 11.9838 17.7461 12.2343 17.7461 12.4955C17.7461 12.7569 17.6427 13.0082 17.4578 13.1931L15.1428 15.507C14.4515 16.2223 13.6257 16.794 12.7122 17.1883C11.7927 17.5851 10.8024 17.7946 9.80085 17.8044C8.79959 17.8142 7.80652 17.6241 6.87955 17.2455C6.25829 16.9917 5.67573 16.6552 5.14548 16.2486L1.68393 19.7112C1.29893 20.0963 0.67376 20.0963 0.288754 19.7112C-0.0962512 19.3262 -0.0962515 18.7011 0.288754 18.3161L3.7503 14.8534C3.34417 14.3235 3.0081 13.7412 2.75453 13.1205C2.37595 12.1935 2.18579 11.2004 2.19557 10.1992C2.2054 9.19765 2.41489 8.20734 2.81174 7.28776C3.20858 6.36837 3.78547 5.53695 4.5073 4.8429L6.80693 2.54217C6.99181 2.35734 7.24309 2.25389 7.50452 2.25389C7.76571 2.25394 8.01621 2.35761 8.20101 2.54217L9.31451 3.65567L12.6825 0.288754ZM5.88708 6.25128C5.88268 6.25568 5.87836 6.26017 5.87388 6.26448C5.34091 6.77694 4.9147 7.39122 4.62173 8.07007C4.32897 8.74866 4.17461 9.47885 4.16731 10.2179C4.16006 10.9572 4.30033 11.6911 4.57992 12.3755C4.85951 13.0599 5.27299 13.6815 5.79575 14.2042C6.31852 14.727 6.94006 15.1405 7.62445 15.4201C8.30892 15.6997 9.04281 15.8399 9.78214 15.8327C10.5212 15.8254 11.2513 15.671 11.9299 15.3783C12.6088 15.0853 13.2231 14.6591 13.7355 14.1261L15.3651 12.4955L7.50342 4.63384L5.88708 6.25128Z" fill="currentColor"/>
</svg>
