<svg preserveAspectRatio="none" width="100%" height="100%" overflow="visible" style="display: block;" viewBox="0 0 20 20" fill="none" xmlns="http://www.w3.org/2000/svg">
<path id="Vector" d="M8.88889 18.8889V11.1111H1.11111C0.497461 11.1111 0 10.6137 0 10C0 9.38635 0.497461 8.88889 1.11111 8.88889H8.88889V1.11111C8.88889 0.497461 9.38635 0 10 0C10.6137 0 11.1111 0.497461 11.1111 1.11111V8.88889H18.8889C19.5025 8.88889 20 9.38635 20 10C20 10.6137 19.5025 11.1111 18.8889 11.1111H11.1111V18.8889C11.1111 19.5025 10.6137 20 10 20C9.38635 20 8.88889 19.5025 8.88889 18.8889Z" fill="currentColor"/>
</svg>
