<svg preserveAspectRatio="none" width="100%" height="100%" overflow="visible" style="display: block;" viewBox="0 0 18.9875 20" fill="none" xmlns="http://www.w3.org/2000/svg">
<path id="Vector" d="M13.1646 19.1139V14.0506C13.1646 13.5612 13.5614 13.1645 14.0507 13.1645C14.5401 13.1645 14.9368 13.5612 14.9368 14.0506V19.1139C14.9368 19.6033 14.5401 20 14.0507 20C13.5614 20 13.1646 19.6033 13.1646 19.1139ZM17.2153 19.1139V14.0506C17.2153 13.5612 17.612 13.1645 18.1014 13.1645C18.5908 13.1645 18.9875 13.5612 18.9875 14.0506V19.1139C18.9875 19.6033 18.5908 20 18.1014 20C17.612 20 17.2153 19.6033 17.2153 19.1139ZM0.259078 0.259927C0.486979 0.0319413 0.8215 -0.0546025 1.13132 0.0344508L14.8775 3.98622C15.2779 4.08452 15.6408 4.29778 15.9208 4.60134C16.2113 4.9163 16.3988 5.31221 16.4578 5.73663C16.5167 6.16123 16.445 6.59448 16.2511 6.97675C16.0679 7.33776 15.7831 7.63568 15.4342 7.8391L13.1894 9.34623L13.3812 9.53809C13.7272 9.88396 13.727 10.4449 13.3812 10.7911C13.0354 11.1372 12.4745 11.1378 12.1282 10.7921L11.1739 9.83872C10.9867 9.65149 10.8933 9.39025 10.9188 9.12669C10.9444 8.86289 11.0864 8.62371 11.3064 8.47597L14.4592 6.35966L14.5333 6.31516C14.5921 6.28337 14.6395 6.2343 14.6698 6.17473C14.7001 6.11496 14.7116 6.04729 14.7024 5.9809C14.6932 5.91441 14.6639 5.85224 14.6184 5.80289C14.5729 5.75356 14.5138 5.71856 14.4483 5.704C14.4305 5.70006 14.4123 5.69616 14.3949 5.69114L2.18057 2.17944L5.69128 14.3759L5.70414 14.4284C5.71874 14.4938 5.75369 14.553 5.80303 14.5985C5.85238 14.6439 5.91458 14.6733 5.98104 14.6825C6.04741 14.6916 6.11514 14.6802 6.17487 14.6499C6.23461 14.6195 6.28353 14.5714 6.3153 14.5124C6.32935 14.4863 6.34518 14.4608 6.36178 14.4363L8.47809 11.3043L8.53743 11.2262C8.68585 11.0518 8.89731 10.9407 9.12782 10.9186C9.39106 10.8934 9.65187 10.9868 9.83886 11.1738L10.8199 12.1548C11.1659 12.5008 11.1658 13.0617 10.8199 13.4078C10.4738 13.7538 9.91294 13.7538 9.56691 13.4078L9.34539 13.1863L7.8343 15.4222C7.63107 15.7672 7.33488 16.0484 6.97689 16.2302C6.59475 16.4242 6.1623 16.4966 5.73776 16.4379C5.31328 16.3791 4.91661 16.1923 4.60148 15.9019C4.29963 15.6237 4.08761 15.263 3.98834 14.8655L0.0345901 1.13118C-0.0545292 0.821565 0.0314591 0.487904 0.259078 0.259927Z" fill="currentColor"/>
</svg>
