<svg preserveAspectRatio="none" width="100%" height="100%" overflow="visible" style="display: block;" viewBox="0 0 20 19.9661" fill="none" xmlns="http://www.w3.org/2000/svg">
<path id="Vector" d="M18.0282 17.8703V16.0328C17.2286 17.0682 16.2321 17.9469 15.0847 18.6098C13.164 19.7194 10.9312 20.1668 8.73129 19.8829C6.53153 19.599 4.48646 18.5992 2.91043 17.0385C1.33432 15.4777 0.315236 13.4422 0.00990317 11.2451C-0.0650473 10.7058 0.311249 10.2076 0.850572 10.1327C1.38959 10.058 1.88677 10.4344 1.96193 10.9733C2.20772 12.742 3.02918 14.3813 4.29798 15.6377C5.56673 16.894 7.21353 17.6991 8.98438 17.9276C10.7551 18.156 12.5517 17.7951 14.0977 16.902C15.1934 16.2691 16.1187 15.3924 16.8101 14.3492H14.507C13.9626 14.3492 13.5213 13.9077 13.5211 13.3633C13.5211 12.8188 13.9625 12.3774 14.507 12.3774H18.4276C18.4419 12.377 18.4562 12.3771 18.4705 12.3774H19.0141C19.5586 12.3774 20 12.8188 20 13.3633V17.8703C19.9998 18.4147 19.5585 18.8563 19.0141 18.8563C18.4697 18.8563 18.0283 18.4147 18.0282 17.8703ZM4.91527 1.35626C6.83596 0.246662 9.06878 -0.200704 11.2687 0.0831575C13.4683 0.367076 15.5136 1.36593 17.0896 2.92647C18.6656 4.48716 19.6847 6.52295 19.9901 8.71982C20.065 9.25914 19.6888 9.75733 19.1494 9.83228C18.6102 9.90702 18.113 9.5308 18.0381 8.99161C17.7923 7.22295 16.9708 5.58368 15.702 4.32722C14.4333 3.07103 12.7864 2.26697 11.0156 2.03848C9.24492 1.81008 7.44827 2.1699 5.90229 3.06291C4.80631 3.69607 3.88022 4.57325 3.18882 5.61683H5.49296C6.03746 5.61683 6.47887 6.05824 6.47887 6.60274C6.47869 7.1471 6.03735 7.58866 5.49296 7.58866H0.985916C0.44152 7.58866 0.000178824 7.1471 0 6.60274V2.0957C0 1.5512 0.441409 1.10979 0.985916 1.10979C1.53042 1.10979 1.97183 1.5512 1.97183 2.0957V3.93219C2.77135 2.89694 3.76812 2.01906 4.91527 1.35626Z" fill="currentColor"/>
</svg>
