<svg preserveAspectRatio="none" width="100%" height="100%" overflow="visible" style="display: block;" viewBox="0 0 17.9748 20" fill="none" xmlns="http://www.w3.org/2000/svg">
<path id="Vector" d="M3.29736 12.4109C3.64338 12.0649 4.20524 12.0649 4.55126 12.4109C4.89728 12.7569 4.89728 13.3188 4.55126 13.6648L3.02641 15.1897H14.0505C14.6212 15.1897 15.1688 14.9633 15.5723 14.5597C15.9759 14.1562 16.2023 13.6085 16.2023 13.0378V10C16.2023 9.51066 16.599 9.11396 17.0883 9.11396C17.5776 9.11396 17.9743 9.51066 17.9743 10V13.0378C17.9743 14.0785 17.5611 15.0768 16.8253 15.8126C16.0894 16.5485 15.0911 16.9617 14.0505 16.9617H3.02641L4.55126 18.4866C4.89728 18.8326 4.89728 19.3945 4.55126 19.7405C4.20524 20.0865 3.64338 20.0865 3.29736 19.7405L0.259515 16.7026C-0.0865048 16.3566 -0.0865048 15.7948 0.259515 15.4487L3.29736 12.4109ZM0.000427475 10V6.96216C0.000427475 5.92148 0.413637 4.92322 1.14951 4.18735C1.88538 3.45148 2.88363 3.03827 3.92431 3.03827H14.9484L13.4235 1.51342C13.0775 1.1674 13.0775 0.605534 13.4235 0.259514C13.7695 -0.0865047 14.3314 -0.0865049 14.6774 0.259514L17.7153 3.29736C18.0613 3.64338 18.0613 4.20524 17.7153 4.55126L14.6774 7.58911C14.3314 7.93513 13.7695 7.93513 13.4235 7.58911C13.0775 7.24309 13.0775 6.68122 13.4235 6.3352L14.9484 4.81035H3.92431C3.35362 4.81035 2.80596 5.03672 2.40242 5.44027C1.99888 5.84381 1.7725 6.39146 1.7725 6.96216V10C1.7725 10.4893 1.37581 10.886 0.886466 10.886C0.39712 10.886 0.000427475 10.4893 0.000427475 10Z" fill="currentColor"/>
</svg>
