<svg preserveAspectRatio="none" width="100%" height="100%" overflow="visible" style="display: block;" viewBox="0 0 18.0723 20" fill="none" xmlns="http://www.w3.org/2000/svg">
<path id="Vector" d="M14.4575 14.819C14.4575 14.4036 14.2929 14.0049 13.9992 13.7111C13.7054 13.4174 13.3067 13.2527 12.8913 13.2527C12.4759 13.2527 12.0772 13.4174 11.7835 13.7111C11.4897 14.0049 11.3251 14.4036 11.3251 14.819C11.3251 15.2344 11.4897 15.6331 11.7835 15.9268C12.0772 16.2205 12.4759 16.3852 12.8913 16.3852C13.3067 16.3852 13.7054 16.2205 13.9992 15.9268C14.2929 15.6331 14.4575 15.2344 14.4575 14.819ZM7.59021 11.566C8.05598 11.566 8.43356 11.9436 8.43356 12.4094C8.43356 12.8752 8.05598 13.2527 7.59021 13.2527H4.6987C4.23293 13.2527 3.85534 12.8752 3.85534 12.4094C3.85534 11.9436 4.23293 11.566 4.6987 11.566H7.59021ZM13.4937 9.51788V4.6987C13.4937 4.41112 13.3799 4.13493 13.1765 3.93158C12.9732 3.72824 12.697 3.61438 12.4094 3.61438H11.1924C11.0591 4.03135 10.829 4.41542 10.5137 4.7307C9.99405 5.25037 9.28897 5.54206 8.55404 5.54206H6.62637C5.89145 5.54206 5.18637 5.25037 4.6667 4.7307C4.35141 4.41542 4.12136 4.03135 3.98806 3.61438H2.77103C2.48345 3.61438 2.20726 3.72824 2.00391 3.93158C1.80056 4.13493 1.68671 4.41112 1.68671 4.6987V16.2647C1.68671 16.5523 1.80056 16.8285 2.00391 17.0318C2.20726 17.2352 2.48345 17.349 2.77103 17.349H8.26226C8.72791 17.3492 9.10561 17.7267 9.10561 18.1924C9.10561 18.6581 8.72791 19.0356 8.26226 19.0358H2.77103C2.03611 19.0358 1.33102 18.7441 0.811354 18.2244C0.291686 17.7047 0 16.9997 0 16.2647V4.6987C0 3.96378 0.291685 3.25869 0.811354 2.73903C1.33102 2.21936 2.03611 1.92767 2.77103 1.92767H3.98806C4.12136 1.51071 4.35141 1.12664 4.6667 0.811354C5.18637 0.291686 5.89145 0 6.62637 0H8.55404C9.28897 0 9.99405 0.291686 10.5137 0.811354C10.829 1.12664 11.0591 1.51071 11.1924 1.92767H12.4094C13.1443 1.92767 13.8494 2.21936 14.3691 2.73903C14.8887 3.25869 15.1804 3.96378 15.1804 4.6987V9.51788C15.1804 9.98365 14.8028 10.3612 14.3371 10.3612C13.8713 10.3612 13.4937 9.98365 13.4937 9.51788ZM8.55404 7.71069C9.01982 7.71069 9.3974 8.08827 9.3974 8.55404C9.3974 9.01982 9.01982 9.3974 8.55404 9.3974H4.6987C4.23293 9.3974 3.85534 9.01982 3.85534 8.55404C3.85534 8.08827 4.23293 7.71069 4.6987 7.71069H8.55404ZM6.62637 1.68671C6.33879 1.68671 6.0626 1.80056 5.85926 2.00391C5.65591 2.20726 5.54206 2.48345 5.54206 2.77103C5.54206 3.05861 5.65591 3.33479 5.85926 3.53814C6.0626 3.74149 6.33879 3.85534 6.62637 3.85534H8.55404C8.84162 3.85534 9.11781 3.74149 9.32116 3.53814C9.52451 3.33479 9.63836 3.05861 9.63836 2.77103C9.63836 2.48345 9.52451 2.20726 9.32116 2.00391C9.11781 1.80056 8.84162 1.68671 8.55404 1.68671H6.62637ZM16.1443 14.819C16.1443 15.3941 15.9907 15.9528 15.7085 16.4426L17.8253 18.5595C18.1547 18.8888 18.1547 19.4236 17.8253 19.753C17.496 20.0823 16.9612 20.0823 16.6318 19.753L14.515 17.6361C14.0252 17.9184 13.4664 18.0719 12.8913 18.0719C12.0286 18.0719 11.2009 17.7294 10.5909 17.1194C9.98085 16.5093 9.63836 15.6817 9.63836 14.819C9.63836 13.9562 9.98085 13.1286 10.5909 12.5186C11.2009 11.9085 12.0286 11.566 12.8913 11.566C13.754 11.566 14.5817 11.9085 15.1917 12.5186C15.8018 13.1286 16.1443 13.9562 16.1443 14.819Z" fill="currentColor"/>
</svg>
