<svg preserveAspectRatio="none" width="100%" height="100%" overflow="visible" style="display: block;" viewBox="0 0 20 20" fill="none" xmlns="http://www.w3.org/2000/svg">
<path id="Vector" d="M1.06709 19.0667V12.6668C1.06709 12.1514 1.48495 11.7335 2.00041 11.7335C2.51586 11.7335 2.93372 12.1514 2.93372 12.6668V19.0667C2.93372 19.5821 2.51586 20 2.00041 20C1.48495 20 1.06709 19.5821 1.06709 19.0667ZM7.46695 18V16.9334C7.46695 16.898 7.45341 16.8636 7.42841 16.8386C7.4034 16.8136 7.36898 16.8001 7.33362 16.8001H5.20033C4.68488 16.8001 4.26702 16.3822 4.26702 15.8668V12.6668C4.26702 12.1514 4.68488 11.7335 5.20033 11.7335H8.40026C8.91572 11.7335 9.33357 12.1514 9.33357 12.6668C9.33357 13.1823 8.91572 13.6001 8.40026 13.6001H6.13365V14.9334H7.33362C7.86404 14.9334 8.3731 15.1438 8.74817 15.5189C9.12323 15.8939 9.33357 16.403 9.33357 16.9334V18C9.33357 18.5305 9.12323 19.0395 8.74817 19.4146C8.3731 19.7897 7.86404 20 7.33362 20H5.20033C4.68488 20 4.26702 19.5821 4.26702 19.0667C4.26702 18.5512 4.68488 18.1334 5.20033 18.1334H7.33362C7.36898 18.1334 7.4034 18.1198 7.42841 18.0948C7.45341 18.0698 7.46695 18.0354 7.46695 18ZM18.1334 10.5335C18.1334 9.08373 17.5575 7.69318 16.5324 6.66801C15.5072 5.64283 14.1166 5.067 12.6668 5.067H3.18788L4.79409 6.67322C5.15857 7.0377 5.15857 7.62954 4.79409 7.99402C4.42961 8.3585 3.83777 8.3585 3.47329 7.99402L0.273361 4.79409C-0.0911203 4.42961 -0.0911203 3.83777 0.273361 3.47329L3.47329 0.273361C3.83777 -0.0911203 4.42961 -0.0911203 4.79409 0.273361C5.15857 0.637842 5.15857 1.22968 4.79409 1.59416L3.18788 3.20038H12.6668C14.6117 3.20038 16.4769 3.97301 17.8521 5.34825C19.2274 6.72348 20 8.58867 20 10.5335C20 12.4784 19.2274 14.3436 17.8521 15.7188C16.4769 17.0941 14.6117 17.8667 12.6668 17.8667C12.1514 17.8667 11.7335 17.4489 11.7335 16.9334C11.7335 16.4179 12.1514 16.0001 12.6668 16.0001C14.1166 16.0001 15.5072 15.4243 16.5324 14.3991C17.5575 13.3739 18.1334 11.9834 18.1334 10.5335Z" fill="currentColor"/>
</svg>
