<svg preserveAspectRatio="none" width="100%" height="100%" overflow="visible" style="display: block;" viewBox="0 0 20 20" fill="none" xmlns="http://www.w3.org/2000/svg">
<path id="Vector" d="M15.646 0C16.8006 0 17.9085 0.45867 18.725 1.27503C19.5415 2.09156 20 3.19923 20 4.35398C20 4.37183 19.9999 4.38992 19.9989 4.40774C19.8794 6.59865 19.1131 8.7049 17.7967 10.4603C16.6097 12.043 15.0222 13.2741 13.2046 14.0352C13.0758 15.1147 12.724 16.1579 12.1622 17.0944C11.4864 18.2208 10.5339 19.1563 9.39596 19.8123C9.10972 19.9774 8.75975 19.9878 8.46438 19.8398C8.16908 19.6917 7.968 19.4052 7.92891 19.0772C7.86555 18.5441 7.74813 18.0219 7.58217 17.5179C6.95278 18.1989 6.20374 18.7656 5.36568 19.1847C3.98945 19.8728 2.43873 20.134 0.912951 19.9352C0.470809 19.8776 0.122479 19.5302 0.0647595 19.0881C-0.134021 17.5624 0.127226 16.0117 0.815294 14.6354C1.23428 13.7974 1.80018 13.0472 2.48095 12.4178C1.97758 12.2522 1.45635 12.1355 0.923924 12.0722C0.595993 12.0332 0.30951 11.8318 0.161319 11.5367C0.0132087 11.2413 0.0226117 10.8903 0.187654 10.604C0.84368 9.46622 1.7794 8.51468 2.9056 7.83891C3.84169 7.27725 4.88469 6.9255 5.96369 6.7965C6.72477 4.97849 7.95681 3.39164 9.5397 2.20442C11.2953 0.887756 13.4022 0.12057 15.5934 0.00109727L15.646 0ZM4.43081 13.3703C3.64561 13.9183 3.00505 14.6528 2.57422 15.5143C2.18153 16.2997 1.97611 17.1615 1.96743 18.0326C2.83869 18.024 3.70012 17.8186 4.48567 17.4258C5.34756 16.9948 6.08274 16.3547 6.63084 15.5692C6.34208 15.1378 6.01133 14.7325 5.64 14.3611C5.26852 13.9896 4.86236 13.6591 4.43081 13.3703ZM15.668 1.96741C13.8767 2.07142 12.1551 2.69993 10.7193 3.77681C9.27495 4.86005 8.18467 6.34763 7.58546 8.05068C7.45095 8.43304 7.0952 8.69457 6.69009 8.70795C5.71143 8.74029 4.75693 9.02163 3.91728 9.52542C3.49047 9.78155 3.09985 10.0902 2.75527 10.4438C4.36208 10.9096 5.83492 11.7755 7.03024 12.9709C8.22468 14.1654 9.08911 15.637 9.55507 17.2425C9.90863 16.898 10.2196 16.5095 10.4757 16.0827C10.9794 15.2431 11.2608 14.2885 11.2931 13.3099L11.3096 13.1607C11.3738 12.8197 11.615 12.5333 11.9493 12.4156C13.6525 11.8165 15.1399 10.7252 16.2232 9.28073C17.2988 7.84651 17.9275 6.12772 18.0326 4.33861C18.0286 3.71092 17.7789 3.10942 17.3347 2.66527C16.892 2.22272 16.2934 1.97301 15.668 1.96741ZM13.5393 6.60119C13.5393 6.56394 13.525 6.52768 13.4987 6.50134C13.4723 6.47516 13.4359 6.46074 13.3988 6.46074C13.3619 6.46088 13.3262 6.4753 13.3001 6.50134C13.2737 6.52768 13.2584 6.56394 13.2584 6.60119C13.2584 6.63844 13.2737 6.6747 13.3001 6.70104C13.3262 6.72708 13.3619 6.7415 13.3988 6.74164C13.4359 6.74164 13.4723 6.72721 13.4987 6.70104C13.525 6.6747 13.5393 6.63844 13.5393 6.60119ZM15.5056 6.60119C15.5056 7.15994 15.284 7.69619 14.8889 8.09128C14.4938 8.48621 13.9574 8.70795 13.3988 8.70795C12.8404 8.70781 12.3048 8.48608 11.9098 8.09128C11.5147 7.69619 11.292 7.15994 11.292 6.60119C11.292 6.04244 11.5147 5.50619 11.9098 5.11109C12.3048 4.7163 12.8404 4.49457 13.3988 4.49443C13.9574 4.49443 14.4938 4.71617 14.8889 5.11109C15.284 5.50619 15.5056 6.04244 15.5056 6.60119Z" fill="currentColor"/>
</svg>
