<svg preserveAspectRatio="none" width="100%" height="100%" overflow="visible" style="display: block;" viewBox="0 0 20 20" fill="none" xmlns="http://www.w3.org/2000/svg">
<path id="Vector" d="M16.2138 5.12833C16.2138 4.77265 16.0726 4.43139 15.8212 4.17981C15.5695 3.92814 15.2276 3.78616 14.8717 3.78616H13.8589C13.0373 3.78612 12.2475 3.46071 11.6641 2.88017L11.6621 2.87918L10.952 2.16804C10.8273 2.04269 10.679 1.94319 10.5158 1.87528C10.3526 1.8074 10.1773 1.77245 10.0005 1.77241C9.82371 1.77241 9.64843 1.80743 9.48519 1.87528C9.32199 1.94315 9.17367 2.04274 9.04901 2.16804L8.33787 2.87918L8.33589 2.88017C7.75283 3.45997 6.96439 3.78564 6.14213 3.78616H5.12833C4.77252 3.78623 4.43142 3.92821 4.17981 4.17981C3.92821 4.43142 3.78623 4.77252 3.78616 5.12833V6.14213C3.78564 6.96439 3.45997 7.75283 2.88017 8.33589L2.87918 8.33787L2.16804 9.04901C2.04274 9.17367 1.94315 9.32199 1.87528 9.48519C1.80743 9.64843 1.77241 9.82371 1.77241 10.0005C1.77245 10.1773 1.8074 10.3526 1.87528 10.5158C1.92621 10.6382 1.99498 10.7521 2.07903 10.8541L2.16804 10.952L2.87918 11.6621L2.88017 11.6641C3.46002 12.2472 3.78569 13.0365 3.78616 13.8589V14.8717C3.78616 15.2276 3.92814 15.5695 4.17981 15.8212C4.43139 16.0726 4.77265 16.2138 5.12833 16.2138H6.14213C6.86159 16.2143 7.5556 16.4634 8.1084 16.9141L8.33589 17.1198L9.04703 17.831L9.04901 17.832C9.17371 17.9574 9.32189 18.0568 9.48519 18.1247C9.64847 18.1926 9.82366 18.2276 10.0005 18.2276C10.1773 18.2275 10.3526 18.1926 10.5158 18.1247C10.679 18.0568 10.8274 17.9573 10.952 17.832L10.954 17.831L11.6641 17.1198C12.2472 16.54 13.0365 16.2143 13.8589 16.2138H14.8717C15.2276 16.2138 15.5695 16.0728 15.8212 15.8212C16.0728 15.5695 16.2138 15.2276 16.2138 14.8717V13.8589L16.2287 13.5522C16.2992 12.8423 16.6124 12.1744 17.1198 11.6641L17.831 10.954L17.832 10.952C17.9573 10.8274 18.0568 10.679 18.1247 10.5158C18.1926 10.3526 18.2275 10.1773 18.2276 10.0005C18.2276 9.82366 18.1926 9.64847 18.1247 9.48519C18.0568 9.32189 17.9574 9.17371 17.832 9.04901L17.831 9.04703L17.1198 8.33589C16.5395 7.75252 16.2138 6.96261 16.2138 6.14114V5.12833ZM12.402 7.33792C12.748 6.99183 13.309 6.99183 13.6551 7.33792C14.0012 7.684 14.0012 8.24499 13.6551 8.59107L9.60388 12.6423C9.2578 12.9884 8.69681 12.9884 8.35072 12.6423L6.32511 10.6167C5.97902 10.2706 5.97902 9.70962 6.32511 9.36353C6.67119 9.01745 7.23217 9.01745 7.57826 9.36353L8.97681 10.7621L12.402 7.33792ZM17.9863 6.14114C17.9863 6.4937 18.1259 6.8337 18.375 7.08471L19.0821 7.7919L19.2889 8.0184C19.4841 8.25511 19.6434 8.52036 19.7616 8.80471C19.9192 9.18361 20 9.59014 20 10.0005C20 10.4109 19.9192 10.8174 19.7616 11.1963C19.6043 11.5744 19.3733 11.9171 19.0831 12.2061L18.375 12.9163C18.1263 13.1673 17.9865 13.5064 17.9863 13.8598V14.8717C17.9863 15.6977 17.6584 16.4903 17.0743 17.0743C16.4903 17.6584 15.6977 17.9863 14.8717 17.9863H13.8598L13.7273 17.9932C13.4215 18.0236 13.1341 18.1584 12.9143 18.3769L12.2071 19.0841L12.2061 19.0831C11.9171 19.3733 11.5744 19.6043 11.1963 19.7616C10.8174 19.9192 10.4109 20 10.0005 20C9.59014 20 9.18361 19.9192 8.80471 19.7616C8.42661 19.6044 8.08287 19.3742 7.79388 19.0841L7.08669 18.3769L6.98778 18.2879C6.78359 18.1215 6.53482 18.0192 6.27269 17.9932L6.14114 17.9863H5.12833C4.30258 17.9862 3.51063 17.6581 2.92666 17.0743C2.3426 16.4903 2.01375 15.6977 2.01375 14.8717V13.8598L2.00781 13.7273C1.97748 13.4225 1.84332 13.1358 1.62603 12.9163L0.916869 12.2071C0.626765 11.9181 0.395614 11.5744 0.238366 11.1963C0.0807937 10.8174 3.74136e-05 10.4109 0 10.0005C0 9.5902 0.0808783 9.18358 0.238366 8.80471C0.395975 8.42571 0.627794 8.08132 0.918847 7.7919L1.62603 7.08471C1.84358 6.86504 1.97755 6.57776 2.00781 6.27269L2.01375 6.14114V5.12833C2.01382 4.30244 2.34266 3.51066 2.92666 2.92666C3.51066 2.34266 4.30244 2.01382 5.12833 2.01375H6.14114L6.27269 2.00781C6.57866 1.97746 6.86677 1.84274 7.08669 1.62405L7.79388 0.916869C8.08293 0.626656 8.42649 0.395653 8.80471 0.238366C9.18358 0.0808783 9.5902 0 10.0005 0C10.4109 3.74136e-05 10.8174 0.0807937 11.1963 0.238366C11.5744 0.395614 11.9171 0.626765 12.2061 0.916869L12.9143 1.62405L13.0122 1.71307C13.2504 1.90727 13.5499 2.01371 13.8589 2.01375H14.8717C15.6977 2.01375 16.4903 2.3426 17.0743 2.92666C17.6581 3.51063 17.9862 4.30258 17.9863 5.12833V6.14114Z" fill="currentColor"/>
</svg>
