<svg preserveAspectRatio="none" width="100%" height="100%" overflow="visible" style="display: block;" viewBox="0 0 19.923 20" fill="none" xmlns="http://www.w3.org/2000/svg">
<path id="Vector" d="M0 18.9688V13.3351C0.000187529 12.7907 0.441521 12.3492 0.985906 12.3492H6.61965C7.16404 12.3492 7.60537 12.7907 7.60556 13.3351C7.60556 13.8796 7.16415 14.321 6.61965 14.321H3.15908C3.92561 15.5209 5.00166 16.5045 6.28735 17.1577C8.0282 18.042 10.0322 18.2613 11.9233 17.775C13.8141 17.2886 15.463 16.13 16.5612 14.5157C17.6595 12.9013 18.1315 10.9417 17.8893 9.00414C17.6471 7.06669 16.707 5.28428 15.2452 3.98988C13.7833 2.69546 11.8997 1.97769 9.94708 1.97186C7.99468 1.96611 6.10743 2.67246 4.63794 3.95797C3.16834 5.24363 2.21678 7.02079 1.96301 8.95682C1.89212 9.49636 1.39784 9.87672 0.858266 9.80628C0.318413 9.73552 -0.0619106 9.24029 0.00880273 8.70044C0.324904 6.28889 1.50898 4.07504 3.33954 2.47361C5.17006 0.872301 7.52161 -0.00722735 9.95369 4.47366e-05C12.3857 0.00739907 14.7316 0.900984 16.5524 2.51322C18.3734 4.12557 19.5441 6.34646 19.8458 8.75986C20.1474 11.1732 19.5599 13.614 18.1919 15.6249C16.8239 17.6358 14.7696 19.0794 12.414 19.6851C10.0585 20.2909 7.5623 20.0165 5.39387 18.9149C4.04304 18.2286 2.87669 17.2504 1.97181 16.0639V18.9688C1.97181 19.5133 1.53041 19.9547 0.985906 19.9547C0.441405 19.9547 0 19.5133 0 18.9688Z" fill="currentColor"/>
</svg>
