<svg preserveAspectRatio="none" width="100%" height="100%" overflow="visible" style="display: block;" viewBox="0 0 20 18.9873" fill="none" xmlns="http://www.w3.org/2000/svg">
<path id="Vector" d="M9.11392 0.886076C9.11392 0.39671 9.51063 0 10 0C10.4894 0 10.8861 0.39671 10.8861 0.886076V2.15981L16.2213 3.04984C16.5008 3.09642 16.7412 3.27414 16.8681 3.52749L19.9061 9.60344C19.9676 9.72648 20 9.86244 20 10C20 11.0407 19.5868 12.039 18.8509 12.7749C18.115 13.5108 17.1167 13.9241 16.0759 13.9241C15.0352 13.9241 14.0369 13.5108 13.301 12.7749C12.5651 12.039 12.1519 11.0407 12.1519 10C12.1519 9.86244 12.1843 9.72648 12.2458 9.60344L14.7468 4.60047L10.8861 3.95669V17.2152H15.0633C15.5527 17.2152 15.9494 17.6119 15.9494 18.1013C15.9494 18.5906 15.5527 18.9873 15.0633 18.9873H4.93671C4.44734 18.9873 4.05063 18.5906 4.05063 18.1013C4.05063 17.6119 4.44734 17.2152 4.93671 17.2152H9.11392V3.95669L5.25218 4.60047L7.75415 9.60344C7.81567 9.72648 7.8481 9.86244 7.8481 10C7.8481 11.0407 7.43487 12.039 6.69897 12.7749C5.96307 13.5108 4.96477 13.9241 3.92405 13.9241C2.88333 13.9241 1.88503 13.5108 1.14913 12.7749C0.413228 12.039 0 11.0407 0 10C0 9.86244 0.0324295 9.72648 0.0939478 9.60344L3.13192 3.52749L3.18434 3.43651C3.31911 3.23199 3.53398 3.09062 3.77868 3.04984L9.11392 2.15981V0.886076ZM1.78105 10.1889C1.82523 10.6904 2.04331 11.1632 2.4021 11.522C2.80566 11.9255 3.35333 12.1519 3.92405 12.1519C4.49477 12.1519 5.04245 11.9255 5.446 11.522C5.80477 11.1632 6.02186 10.6903 6.06606 10.1889L3.92405 5.90487L1.78105 10.1889ZM13.933 10.1889C13.9771 10.6904 14.1952 11.1632 14.554 11.522C14.9576 11.9255 15.5052 12.1519 16.0759 12.1519C16.6467 12.1519 17.1943 11.9255 17.5979 11.522C17.9567 11.1632 18.1738 10.6903 18.218 10.1889L16.0759 5.90487L13.933 10.1889Z" fill="currentColor"/>
</svg>
