<svg preserveAspectRatio="none" width="100%" height="100%" overflow="visible" style="display: block;" viewBox="0 0 20 20" fill="none" xmlns="http://www.w3.org/2000/svg">
<path id="Vector" d="M14.1769 7.97451C14.1769 7.16011 14.0168 6.35357 13.7052 5.60115C13.3935 4.84864 12.9362 4.16468 12.3603 3.58873C11.7844 3.01278 11.1004 2.55552 10.3479 2.24382C9.59546 1.93221 8.78891 1.77211 7.97451 1.77211C7.16011 1.77211 6.35357 1.93221 5.60115 2.24382C4.84864 2.55552 4.16468 3.01278 3.58873 3.58873C3.01278 4.16467 2.55552 4.84864 2.24382 5.60115C1.93221 6.35357 1.77211 7.16011 1.77211 7.97451C1.77211 8.78891 1.93221 9.59546 2.24382 10.3479C2.55552 11.1004 3.01278 11.7844 3.58873 12.3603C4.16468 12.9362 4.84864 13.3935 5.60115 13.7052C6.35357 14.0168 7.16011 14.1769 7.97451 14.1769C8.78891 14.1769 9.59546 14.0168 10.3479 13.7052C11.1004 13.3935 11.7844 12.9362 12.3603 12.3603C12.9362 11.7844 13.3935 11.1004 13.7052 10.3479C14.0168 9.59546 14.1769 8.78891 14.1769 7.97451ZM15.949 7.97451C15.949 9.02174 15.7426 10.0588 15.3418 11.0263C15.0547 11.7194 14.67 12.3657 14.2036 12.9497L19.7405 18.4866C20.0865 18.8326 20.0865 19.3945 19.7405 19.7405C19.3945 20.0865 18.8326 20.0865 18.4866 19.7405L12.9497 14.2036C12.3657 14.67 11.7194 15.0547 11.0263 15.3418C10.0588 15.7426 9.02174 15.949 7.97451 15.949C6.92729 15.949 5.89027 15.7426 4.92276 15.3418C3.95528 14.9411 3.07627 14.3537 2.33579 13.6132C1.59531 12.8728 1.00794 11.9937 0.607186 11.0263C0.20643 10.0588 0 9.02174 0 7.97451C0 6.92729 0.20643 5.89027 0.607186 4.92276C1.00794 3.95528 1.59531 3.07627 2.33579 2.33579C3.07627 1.59531 3.95528 1.00794 4.92276 0.607186C5.89027 0.20643 6.92729 0 7.97451 0C9.02174 0 10.0588 0.20643 11.0263 0.607186C11.9937 1.00794 12.8728 1.59531 13.6132 2.33579C14.3537 3.07627 14.9411 3.95528 15.3418 4.92276C15.7426 5.89027 15.949 6.92729 15.949 7.97451Z" fill="currentColor"/>
</svg>
