<svg preserveAspectRatio="none" width="100%" height="100%" overflow="visible" style="display: block;" viewBox="0 0 12.382 20" fill="none" xmlns="http://www.w3.org/2000/svg">
<path id="Vector" d="M10.4842 13.0233C10.9181 12.5894 11.6227 12.5894 12.0566 13.0233C12.4905 13.4572 12.4905 14.1618 12.0566 14.5957L6.97722 19.6751C6.76885 19.8835 6.4857 20 6.19101 20C5.89633 20 5.61317 19.8835 5.4048 19.6751L0.325437 14.5957C-0.108479 14.1618 -0.108479 13.4572 0.325437 13.0233C0.759353 12.5894 1.46394 12.5894 1.89786 13.0233L6.19101 17.3165L10.4842 13.0233ZM6.19101 0C6.4857 8.01792e-08 6.76885 0.116527 6.97722 0.324901L12.0566 5.40427C12.4905 5.83818 12.4905 6.54277 12.0566 6.97669C11.6227 7.4106 10.9181 7.4106 10.4842 6.97669L6.19101 2.68353L1.89786 6.97669C1.46394 7.4106 0.759353 7.4106 0.325437 6.97669C-0.108479 6.54277 -0.108479 5.83818 0.325437 5.40427L5.4048 0.324901L5.48665 0.251736C5.68439 0.0896491 5.93309 0 6.19101 0Z" fill="currentColor"/>
</svg>
