<svg preserveAspectRatio="none" width="100%" height="100%" overflow="visible" style="display: block;" viewBox="0 0 20 18.9327" fill="none" xmlns="http://www.w3.org/2000/svg">
<path id="Vector" d="M1.26594 0.0164139C1.51683 -0.0213822 1.7738 0.00625683 2.0118 0.0976671C2.03712 0.107398 2.06243 0.118062 2.0868 0.12996L19.4771 8.62717C19.7972 8.78369 19.9998 9.1094 20 9.46574C20 9.82213 19.7971 10.1476 19.4771 10.3043L2.0868 18.8026C2.06244 18.8145 2.03711 18.8251 2.0118 18.8349C1.74008 18.9392 1.44355 18.9607 1.15969 18.8963C0.875866 18.8319 0.61802 18.6837 0.41799 18.4723L0.416948 18.4734C0.223364 18.269 0.0907464 18.0144 0.0325581 17.739C-0.0246475 17.4679 -0.00596849 17.187 0.0846434 16.9254H0.08256L2.61391 9.46574L0.08256 2.00712L0.0846434 2.00607C-0.00569836 1.74471 -0.0245686 1.4643 0.0325581 1.19354L0.089852 0.99041C0.160958 0.793439 0.271905 0.612263 0.416948 0.459139L0.41799 0.460181C0.618028 0.248774 0.875856 0.100666 1.15969 0.0362063L1.26594 0.0164139ZM2.12847 16.7046L15.0311 10.3991H4.26918L2.12847 16.7046ZM4.26814 8.53237H15.0311L2.12847 2.22692L4.26814 8.53237Z" fill="currentColor"/>
</svg>
