<svg preserveAspectRatio="none" width="100%" height="100%" overflow="visible" style="display: block;" viewBox="0 0 20 20" fill="none" xmlns="http://www.w3.org/2000/svg">
<path id="Vector" d="M0.259515 0.259515C0.605534 -0.0865048 1.1674 -0.0865048 1.51342 0.259515L19.7405 18.4866C20.0865 18.8326 20.0865 19.3945 19.7405 19.7405C19.3945 20.0865 18.8326 20.0865 18.4866 19.7405L17.474 18.7279C17.0291 18.8977 16.5558 18.9866 16.0757 18.986V18.987H3.92431C2.88363 18.987 1.88538 18.5737 1.14951 17.8379C0.413638 17.102 0.000427475 16.1038 0.000427475 15.0631V13.0378C0.000427475 11.9972 0.413637 10.9989 1.14951 10.263C1.24238 10.1702 1.33946 10.0824 1.44024 10C1.33946 9.91758 1.24238 9.82983 1.14951 9.73696C0.413637 9.00109 0.000427475 8.00283 0.000427475 6.96216V4.93693C0.000427475 3.91476 0.391892 2.9837 1.03183 2.28573L0.259515 1.51342C-0.0865048 1.1674 -0.0865048 0.605534 0.259515 0.259515ZM18.2275 15.0631V13.0378C18.2275 12.4672 18.0011 11.9195 17.5976 11.516C17.194 11.1124 16.6464 10.886 16.0757 10.886H14.0505C13.5611 10.886 13.1644 10.4893 13.1644 10C13.1644 9.51066 13.5611 9.11396 14.0505 9.11396H16.0757C16.6464 9.11396 17.194 8.88759 17.5976 8.48404C18.0011 8.0805 18.2275 7.53285 18.2275 6.96216V4.93693C18.2275 4.36623 18.0011 3.81858 17.5976 3.41504C17.194 3.01149 16.6464 2.78512 16.0757 2.78512H5.94954C5.46019 2.78512 5.0635 2.38843 5.0635 1.89908C5.0635 1.40974 5.46019 1.01304 5.94954 1.01304H16.0757C17.1164 1.01304 18.1146 1.42625 18.8505 2.16212C19.5864 2.89799 19.9996 3.89625 19.9996 4.93693V6.96216C19.9996 8.00283 19.5864 9.00109 18.8505 9.73696C18.7574 9.83001 18.6598 9.91744 18.5588 10C18.6598 10.0826 18.7574 10.17 18.8505 10.263C19.5864 10.9989 19.9996 11.9972 19.9996 13.0378V15.0631C19.9996 15.5524 19.6029 15.9491 19.1135 15.9491C18.6242 15.9491 18.2275 15.5524 18.2275 15.0631ZM4.05089 14.0603V14.0505C4.05089 13.5611 4.44758 13.1644 4.93693 13.1644C5.42627 13.1644 5.82296 13.5611 5.82296 14.0505V14.0603C5.82296 14.5497 5.42627 14.9464 4.93693 14.9464C4.44758 14.9464 4.05089 14.5497 4.05089 14.0603ZM1.7725 15.0631C1.7725 15.6338 1.99888 16.1814 2.40242 16.585C2.80596 16.9885 3.35362 17.2149 3.92431 17.2149H15.961L9.63214 10.886H3.92431C3.35362 10.886 2.80596 11.1124 2.40242 11.516C1.99888 11.9195 1.7725 12.4672 1.7725 13.0378V15.0631ZM1.7725 6.96216C1.7725 7.53285 1.99888 8.0805 2.40242 8.48404C2.80596 8.88759 3.35362 9.11396 3.92431 9.11396H7.86006L5.43631 6.69021C5.29399 6.78769 5.12246 6.84547 4.93693 6.84547C4.44758 6.84547 4.05089 6.44877 4.05089 5.95943V5.94954C4.05089 5.76652 4.10612 5.59629 4.2012 5.4551L2.28573 3.53964C1.96456 3.9159 1.7725 4.40459 1.7725 4.93693V6.96216Z" fill="currentColor"/>
</svg>
