<svg preserveAspectRatio="none" width="100%" height="100%" overflow="visible" style="display: block;" viewBox="0 0 18.1609 20" fill="none" xmlns="http://www.w3.org/2000/svg">
<path id="Vector" d="M0 6.52119C0 5.48875 0.561218 4.54168 1.46103 4.03736L7.66792 0.378053L7.68768 0.366379C8.12347 0.126102 8.61335 0 9.11099 0C9.60847 3.15226e-05 10.0977 0.12622 10.5334 0.366379C10.5402 0.370118 10.5474 0.37412 10.5541 0.378053L16.761 4.03736C16.8124 4.06767 16.8579 4.10474 16.9001 4.14422C17.2599 4.38606 17.5615 4.7065 17.7793 5.08351C18.0317 5.52072 18.1632 6.01729 18.1609 6.52209V13.2202C18.1608 14.2438 17.608 15.1831 16.7205 15.6906L16.7214 15.6915L10.5145 19.6175C10.5005 19.6263 10.486 19.6346 10.4714 19.6426C10.0451 19.8766 9.56681 20 9.08046 20C8.59411 20 8.11581 19.8766 7.68948 19.6426C7.67495 19.6346 7.66038 19.6263 7.64637 19.6175L1.43948 15.6915V15.6906C1.01122 15.4464 0.652712 15.0965 0.400503 14.6722C0.139515 14.2332 0.00102646 13.7318 0 13.2211V6.52119ZM11.0345 10C11.0345 9.48185 10.8288 8.98443 10.4625 8.618C10.096 8.25155 9.5987 8.04598 9.08046 8.04598C8.56222 8.04598 8.06491 8.25155 7.69846 8.618C7.33212 8.98443 7.12644 9.48185 7.12644 10C7.12654 10.518 7.33226 11.0148 7.69846 11.3811C8.06491 11.7476 8.56222 11.954 9.08046 11.954C9.5987 11.954 10.096 11.7476 10.4625 11.3811C10.8287 11.0148 11.0344 10.518 11.0345 10ZM12.6437 10C12.6436 10.9448 12.2682 11.8507 11.6002 12.5189C10.932 13.1871 10.0255 13.5632 9.08046 13.5632C8.13544 13.5632 7.22894 13.1871 6.5607 12.5189C5.89272 11.8507 5.51734 10.9448 5.51724 10C5.51724 9.05506 5.89259 8.14846 6.5607 7.48024C7.22894 6.81201 8.13544 6.43678 9.08046 6.43678C10.0255 6.43678 10.932 6.81201 11.6002 7.48024C12.2683 8.14846 12.6437 9.05506 12.6437 10ZM1.6092 13.2184L1.62087 13.3836C1.64328 13.5478 1.69823 13.7063 1.78341 13.8497C1.89699 14.0407 2.05983 14.1983 2.25485 14.305C2.26989 14.3132 2.28526 14.3218 2.29975 14.331L8.47073 18.2355C8.65804 18.3368 8.8674 18.3908 9.08046 18.3908C9.29326 18.3908 9.50216 18.3366 9.6893 18.2355L15.8612 14.331C15.8751 14.3222 15.8898 14.3138 15.9043 14.3059C16.3065 14.0846 16.5516 13.6677 16.5517 13.2202V6.5167C16.5531 6.29618 16.4959 6.07908 16.3856 5.88811C16.2753 5.69711 16.1158 5.53918 15.924 5.43014C15.8762 5.40293 15.8331 5.37011 15.7929 5.33495L9.75665 1.77532C9.55891 1.66634 9.33677 1.60923 9.11099 1.6092C8.88647 1.6092 8.66494 1.66486 8.46803 1.77263L2.2782 5.42385C2.27122 5.42796 2.26374 5.43162 2.25665 5.43552C1.85383 5.65701 1.6092 6.07386 1.6092 6.52119V13.2184Z" fill="currentColor"/>
</svg>
