<svg preserveAspectRatio="none" width="100%" height="100%" overflow="visible" style="display: block;" viewBox="0 0 20 17.9798" fill="none" xmlns="http://www.w3.org/2000/svg">
<path id="Vector" d="M10.6469 0.0790616C10.9634 -0.064564 11.3346 -0.00944015 11.5962 0.219487L19.6974 7.30802C19.8897 7.47627 20 7.71905 20 7.97455C20 8.23004 19.8897 8.47282 19.6974 8.64108L11.5962 15.7296C11.3346 15.9585 10.9634 16.0137 10.6469 15.87C10.3303 15.7264 10.1267 15.4108 10.1267 15.0631V11.9915C9.39804 12.1275 8.63064 12.4084 7.8512 12.7995C6.75172 13.3511 5.67942 14.0904 4.73118 14.8386C3.78568 15.5847 2.97972 16.3264 2.40822 16.8728C2.11913 17.1492 1.9 17.3652 1.73576 17.5245C1.66043 17.5975 1.58466 17.6703 1.52512 17.7223C1.50782 17.7374 1.4404 17.7974 1.357 17.8479C1.33203 17.8629 1.28449 17.8899 1.22152 17.9151C1.17667 17.933 1.02478 17.9924 0.822989 17.9774C0.550709 17.9571 0.23117 17.7974 0.077348 17.4533C-0.0323776 17.2074 0.00356101 16.9906 0.0140575 16.9321L0.0160354 16.9242C0.985317 11.7696 3.43397 5.64525 10.1267 4.20085V0.886015C10.1267 0.538343 10.3303 0.222725 10.6469 0.0790616ZM11.8988 4.9366C11.8988 5.37298 11.5813 5.74419 11.1502 5.81179C6.18999 6.58732 3.71097 10.272 2.43788 14.445C2.80322 14.1256 3.20343 13.7865 3.63348 13.4472C4.63724 12.6552 5.8128 11.839 7.05611 11.2152C8.29263 10.5948 9.65066 10.1376 11.0058 10.1264C11.242 10.1245 11.4691 10.2172 11.6368 10.3835C11.8045 10.5499 11.8988 10.7762 11.8988 11.0125V13.11L17.768 7.97455L11.8988 2.83813V4.9366Z" fill="currentColor"/>
</svg>
