<svg preserveAspectRatio="none" width="100%" height="100%" overflow="visible" style="display: block;" viewBox="0 0 20 20" fill="none" xmlns="http://www.w3.org/2000/svg">
<path id="Vector" d="M18.2278 16.0759C18.2278 15.5052 18.0015 14.9576 17.5979 14.554C17.1943 14.1504 16.6467 13.9241 16.0759 13.9241C15.5052 13.9241 14.9576 14.1504 14.554 14.554C14.3972 14.7108 14.2678 14.8899 14.1673 15.0831C14.1564 15.1108 14.1437 15.1381 14.1297 15.1652C14.1287 15.1672 14.1269 15.1691 14.1258 15.1711C13.9953 15.4522 13.9241 15.7601 13.9241 16.0759C13.9241 16.6467 14.1504 17.1943 14.554 17.5979C14.9576 18.0015 15.5052 18.2278 16.0759 18.2278C16.6467 18.2278 17.1943 18.0015 17.5979 17.5979C18.0015 17.1943 18.2278 16.6467 18.2278 16.0759ZM6.07595 10C6.07595 9.68399 6.00377 9.37637 5.87322 9.09513C5.87223 9.09325 5.87123 9.0911 5.87025 9.0892C5.85633 9.06215 5.84358 9.03484 5.83267 9.00712C5.73219 8.81394 5.60282 8.63486 5.446 8.47805C5.04245 8.07449 4.49477 7.8481 3.92405 7.8481C3.35333 7.8481 2.80566 8.07449 2.4021 8.47805C1.99854 8.88161 1.77215 9.42928 1.77215 10C1.77215 10.5707 1.99854 11.1184 2.4021 11.522C2.80566 11.9255 3.35333 12.1519 3.92405 12.1519C4.49477 12.1519 5.04245 11.9255 5.446 11.522C5.61249 11.3555 5.7467 11.1633 5.84949 10.9563C5.85624 10.9412 5.86257 10.9257 5.87025 10.9108C5.87136 10.9086 5.87209 10.906 5.87322 10.9039C6.00353 10.6229 6.07595 10.3157 6.07595 10ZM18.2278 3.92405C18.2278 3.35333 18.0015 2.80566 17.5979 2.4021C17.1943 1.99854 16.6467 1.77215 16.0759 1.77215C15.5052 1.77215 14.9576 1.99854 14.554 2.4021C14.1504 2.80566 13.9241 3.35333 13.9241 3.92405C13.9241 4.23962 13.9956 4.54701 14.1258 4.82793C14.127 4.8302 14.1286 4.83256 14.1297 4.83485C14.1374 4.84977 14.1438 4.86521 14.1505 4.88034C14.2533 5.08731 14.3875 5.27952 14.554 5.446C14.9576 5.84956 15.5052 6.07595 16.0759 6.07595C16.6467 6.07595 17.1943 5.84956 17.5979 5.446C18.0015 5.04245 18.2278 4.49477 18.2278 3.92405ZM20 3.92405C20 4.96477 19.5868 5.96307 18.8509 6.69897C18.115 7.43487 17.1167 7.8481 16.0759 7.8481C15.0352 7.8481 14.0369 7.43487 13.301 6.69897C13.205 6.6029 13.1149 6.50187 13.0301 6.39735L7.74624 9.11887C7.81237 9.40571 7.8481 9.70091 7.8481 10C7.8481 10.2988 7.81223 10.5936 7.74624 10.8801L13.0301 13.6017C13.1148 13.4974 13.2051 13.3969 13.301 13.301C14.0369 12.5651 15.0352 12.1519 16.0759 12.1519C17.1167 12.1519 18.115 12.5651 18.8509 13.301C19.5868 14.0369 20 15.0352 20 16.0759C20 17.1167 19.5868 18.115 18.8509 18.8509C18.115 19.5868 17.1167 20 16.0759 20C15.0352 20 14.0369 19.5868 13.301 18.8509C12.5651 18.115 12.1519 17.1167 12.1519 16.0759C12.1519 15.7769 12.1867 15.4816 12.2528 15.1948L6.96895 12.4733C6.88418 12.5776 6.79489 12.679 6.69897 12.7749C5.96307 13.5108 4.96477 13.9241 3.92405 13.9241C2.88333 13.9241 1.88503 13.5108 1.14913 12.7749C0.413228 12.039 0 11.0407 0 10C0 8.95928 0.413228 7.96098 1.14913 7.22508C1.88503 6.48918 2.88333 6.07595 3.92405 6.07595C4.96477 6.07595 5.96307 6.48918 6.69897 7.22508C6.79471 7.32082 6.88432 7.42158 6.96895 7.52571L12.2528 4.80419C12.1868 4.51772 12.1519 4.22274 12.1519 3.92405C12.1519 2.88333 12.5651 1.88503 13.301 1.14913C14.0369 0.413228 15.0352 0 16.0759 0C17.1167 0 18.115 0.413228 18.8509 1.14913C19.5868 1.88503 20 2.88333 20 3.92405Z" fill="currentColor"/>
</svg>
