<svg preserveAspectRatio="none" width="100%" height="100%" overflow="visible" style="display: block;" viewBox="0 0 19.9742 20" fill="none" xmlns="http://www.w3.org/2000/svg">
<path id="Vector" d="M9.39978 0.222449C9.73503 -0.0741498 10.2394 -0.0741498 10.5746 0.222449C12.7676 2.16246 15.6296 3.1728 18.5544 3.03896L18.7047 3.04489C19.0498 3.08788 19.3436 3.33135 19.4445 3.67386C19.9373 5.35035 20.0887 7.10911 19.8885 8.84504C19.6883 10.5808 19.1409 12.2586 18.2795 13.7789C17.418 15.2991 16.2598 16.6313 14.8736 17.6951C13.4873 18.7588 11.9011 19.5329 10.2097 19.9716C10.0638 20.0095 9.91059 20.0095 9.7647 19.9716C8.07325 19.5329 6.48716 18.7589 5.10085 17.6951C3.71452 16.6313 2.55645 15.2992 1.69493 13.7789C0.833485 12.2586 0.286116 10.5809 0.085925 8.84504C-0.11427 7.1091 0.0361377 5.35036 0.528971 3.67386L0.583363 3.53343C0.736454 3.22114 1.06323 3.02263 1.42001 3.03896C4.34486 3.17274 7.20689 2.16252 9.39978 0.222449ZM9.98622 2.03815C7.72448 3.81429 4.93825 4.7931 2.06183 4.82103C1.77351 6.07173 1.69882 7.364 1.84624 8.6423C2.01925 10.1422 2.49232 11.592 3.23669 12.9056C3.98109 14.2192 4.98195 15.3696 6.17979 16.2888C7.31647 17.161 8.60937 17.8048 9.98721 18.1925C11.3649 17.8048 12.658 17.161 13.7946 16.2888C14.9924 15.3696 15.9934 14.2192 16.7377 12.9056C17.4821 11.592 17.9552 10.1422 18.1282 8.6423C18.2756 7.36395 18.2 6.07177 17.9116 4.82103C15.035 4.79296 12.248 3.81466 9.98622 2.03815ZM10.1138 8.98744C10.1138 8.95387 10.1 8.92119 10.0762 8.89745C10.0526 8.874 10.0205 8.8609 9.98721 8.86086C9.95368 8.86086 9.92095 8.87376 9.89722 8.89745C9.87348 8.92119 9.86063 8.95387 9.86063 8.98744C9.86063 9.02102 9.87348 9.0537 9.89722 9.07744C9.92095 9.10112 9.95368 9.11403 9.98721 9.11403C10.0205 9.11398 10.0526 9.10088 10.0762 9.07744C10.1 9.0537 10.1138 9.02101 10.1138 8.98744ZM11.886 8.98744C11.886 9.49103 11.6853 9.97434 11.3292 10.3304C11.1938 10.4658 11.0396 10.5779 10.8733 10.6657V12.5318C10.8733 13.0211 10.4765 13.4178 9.98721 13.4179C9.49784 13.4179 9.10112 13.0212 9.10112 12.5318V10.6657C8.93459 10.5778 8.77983 10.466 8.64423 10.3304C8.28814 9.97434 8.08844 9.49103 8.08844 8.98744C8.08844 8.48386 8.28814 8.00055 8.64423 7.64446C9.00031 7.28842 9.48367 7.08867 9.98721 7.08867C10.4905 7.08872 10.9732 7.28867 11.3292 7.64446C11.6853 8.00055 11.886 8.48386 11.886 8.98744Z" fill="currentColor"/>
</svg>
