<svg preserveAspectRatio="none" width="100%" height="100%" overflow="visible" style="display: block;" viewBox="0 0 19.9868 20" fill="none" xmlns="http://www.w3.org/2000/svg">
<path id="Vector" d="M18.4743 14.4363C18.8202 14.0905 19.3812 14.0906 19.7272 14.4363C20.0733 14.7823 20.0733 15.3442 19.7272 15.6902L15.6766 19.7409C15.5105 19.9068 15.2853 19.9999 15.0506 20C14.8156 20 14.5897 19.907 14.4236 19.7409L12.3983 17.7156C12.0522 17.3695 12.0522 16.8076 12.3983 16.4616C12.7442 16.1158 13.3052 16.116 13.6512 16.4616L15.0496 17.86L18.4743 14.4363ZM9.39981 0.222348C9.73498 -0.0741819 10.2384 -0.0740504 10.5737 0.222348C12.7666 2.1625 15.6294 3.17267 18.5544 3.03883L18.7047 3.04476C19.0497 3.08778 19.3436 3.33124 19.4444 3.67372C20.1818 6.18256 20.1486 8.85564 19.3475 11.3449C19.1976 11.8107 18.6978 12.0664 18.232 11.9165C17.7662 11.7665 17.5105 11.2677 17.6604 10.8019C18.2842 8.86361 18.367 6.79705 17.9116 4.82088C15.035 4.79283 12.248 3.81451 9.98625 2.03803C7.72454 3.81416 4.93832 4.79294 2.06194 4.82088C1.45079 7.4719 1.81664 10.263 3.10922 12.674C4.50751 15.2819 6.87598 17.2349 9.70243 18.1111C10.1699 18.256 10.4318 18.7533 10.2869 19.2207C10.1419 19.6878 9.64551 19.9488 9.17829 19.8042C5.90714 18.7902 3.16599 16.5299 1.54769 13.5116C-0.0705841 10.4934 -0.436683 6.95942 0.529093 3.67372L0.583484 3.53329C0.73658 3.22103 1.06336 3.0225 1.42012 3.03883C4.34494 3.17259 7.20695 2.16241 9.39981 0.222348Z" fill="currentColor"/>
</svg>
