<svg preserveAspectRatio="none" width="100%" height="100%" overflow="visible" style="display: block;" viewBox="0 0 19.9742 20" fill="none" xmlns="http://www.w3.org/2000/svg">
<path id="Vector" d="M9.39978 0.222449C9.73503 -0.0741498 10.2394 -0.0741498 10.5746 0.222449C12.7676 2.16246 15.6296 3.1728 18.5544 3.03896L18.7047 3.04489C19.0498 3.08788 19.3436 3.33135 19.4445 3.67386C19.9373 5.35035 20.0887 7.10911 19.8885 8.84504C19.6883 10.5808 19.1409 12.2586 18.2795 13.7789C17.418 15.2991 16.2598 16.6313 14.8736 17.6951C13.4873 18.7588 11.9011 19.5329 10.2097 19.9716C10.0638 20.0095 9.91059 20.0095 9.7647 19.9716C8.07325 19.5329 6.48716 18.7589 5.10085 17.6951C3.71452 16.6313 2.55645 15.2992 1.69493 13.7789C0.833485 12.2586 0.286116 10.5809 0.085925 8.84504C-0.11427 7.1091 0.0361377 5.35036 0.528971 3.67386L0.583363 3.53343C0.736454 3.22114 1.06323 3.02263 1.42001 3.03896C4.34486 3.17274 7.20689 2.16252 9.39978 0.222449ZM9.98622 2.03815C7.72448 3.81429 4.93825 4.7931 2.06183 4.82103C1.77351 6.07173 1.69882 7.364 1.84624 8.6423C2.01925 10.1422 2.49232 11.592 3.23669 12.9056C3.98109 14.2192 4.98195 15.3696 6.17979 16.2888C7.31647 17.161 8.60937 17.8048 9.98721 18.1925C11.3649 17.8048 12.658 17.161 13.7946 16.2888C14.9924 15.3696 15.9934 14.2192 16.7377 12.9056C17.4821 11.592 17.9552 10.1422 18.1282 8.6423C18.2756 7.36395 18.2 6.07177 17.9116 4.82103C15.035 4.79296 12.248 3.81466 9.98622 2.03815Z" fill="currentColor"/>
</svg>
