<svg preserveAspectRatio="none" width="100%" height="100%" overflow="visible" style="display: block;" viewBox="0 0 17.9747 20" fill="none" xmlns="http://www.w3.org/2000/svg">
<path id="Vector" d="M4.05063 17.0886C4.05063 16.7865 3.93101 16.4963 3.71737 16.2826C3.50372 16.069 3.21354 15.9494 2.91139 15.9494C2.60925 15.9494 2.31907 16.069 2.10542 16.2826C1.89177 16.4963 1.77215 16.7865 1.77215 17.0886C1.77215 17.3908 1.89177 17.6809 2.10542 17.8946C2.31907 18.1082 2.60925 18.2278 2.91139 18.2278C3.21354 18.2278 3.50372 18.1082 3.71737 17.8946C3.93101 17.6809 4.05063 17.3908 4.05063 17.0886ZM15.1899 17.0886C15.1899 16.7865 15.0703 16.4963 14.8566 16.2826C14.643 16.069 14.3528 15.9494 14.0506 15.9494C13.7485 15.9494 13.4583 16.069 13.2447 16.2826C13.031 16.4963 12.9114 16.7865 12.9114 17.0886C12.9114 17.3908 13.031 17.6809 13.2447 17.8946C13.4583 18.1082 13.7485 18.2278 14.0506 18.2278C14.3528 18.2278 14.643 18.1082 14.8566 17.8946C15.0703 17.6809 15.1899 17.3908 15.1899 17.0886ZM3.79747 10.1266H15.3076L16.0759 4.73991L3.79747 3.86274V10.1266ZM16.962 17.0886C16.962 17.8608 16.6556 18.6016 16.1096 19.1475C15.5636 19.6935 14.8228 20 14.0506 20C13.2785 20 12.5377 19.6935 11.9917 19.1475C11.4457 18.6016 11.1392 17.8608 11.1392 17.0886C11.1392 16.6931 11.2208 16.3064 11.3726 15.9494H5.5894C5.74127 16.3064 5.82278 16.6931 5.82278 17.0886C5.82278 17.8608 5.51632 18.6016 4.97033 19.1475C4.42434 19.6935 3.68354 20 2.91139 20C2.13924 20 1.39844 19.6935 0.852453 19.1475C0.306461 18.6016 0 17.8608 0 17.0886C0 16.3165 0.306461 15.5757 0.852453 15.0297C1.18371 14.6984 1.58723 14.4567 2.02532 14.3167V1.77215H0.886076C0.39671 1.77215 0 1.37544 0 0.886076C0 0.39671 0.39671 0 0.886076 0H2.91139C3.40076 6.52416e-08 3.79747 0.39671 3.79747 0.886076V2.08564L17.1519 3.03995C17.3969 3.05749 17.6236 3.17623 17.7779 3.36729C17.9323 3.55865 18.0006 3.80626 17.9658 4.04964L16.9531 11.1383C16.8906 11.5746 16.5168 11.8987 16.0759 11.8987H3.79747V14.1772H14.0506C14.8228 14.1772 15.5636 14.4837 16.1096 15.0297C16.6556 15.5757 16.962 16.3165 16.962 17.0886Z" fill="currentColor"/>
</svg>
