<svg preserveAspectRatio="none" width="100%" height="100%" overflow="visible" style="display: block;" viewBox="0 0 17.3055 20" fill="none" xmlns="http://www.w3.org/2000/svg">
<path id="Vector" d="M10.8042 3.92405C10.8042 3.35333 10.5778 2.80566 10.1742 2.4021C9.77067 1.99863 9.22291 1.77215 8.65226 1.77215C8.08181 1.77223 7.53475 1.99882 7.1313 2.4021C6.72774 2.80566 6.50036 3.35333 6.50036 3.92405V5.06329H10.8042V3.92405ZM10.8042 8.98734V6.83544H6.50036V8.98734C6.50036 9.47671 6.10365 9.87342 5.61429 9.87342C5.12506 9.87326 4.72821 9.47661 4.72821 8.98734V6.83544H2.91156C2.74739 6.83544 2.58507 6.87074 2.43589 6.93928C2.28664 7.00786 2.1542 7.10834 2.04724 7.23299C1.94027 7.35765 1.86095 7.50424 1.81583 7.66218C1.77084 7.81992 1.76026 7.98562 1.78517 8.14775L3.05594 16.4033H3.05693C3.13509 16.911 3.39199 17.374 3.78181 17.7087C4.17188 18.0433 4.66914 18.2278 5.18312 18.2278H12.1224C12.6364 18.2279 13.1335 18.0442 13.5237 17.7097C13.9139 17.375 14.1714 16.9113 14.2496 16.4033L15.5203 8.14775L15.5322 8.02512C15.5376 7.90286 15.5234 7.78038 15.4897 7.66218C15.4446 7.50431 15.3662 7.35761 15.2593 7.23299C15.1523 7.10839 15.0198 7.00787 14.8706 6.93928C14.7214 6.87069 14.5582 6.83542 14.394 6.83544H12.5763V8.98734C12.5763 9.47671 12.1796 9.87342 11.6902 9.87342C11.201 9.87326 10.8042 9.47661 10.8042 8.98734ZM12.5763 5.06329H14.394C14.8137 5.06324 15.2289 5.15403 15.6103 5.32931C15.9917 5.50459 16.3309 5.76037 16.6042 6.07892C16.8774 6.39737 17.0783 6.77121 17.1936 7.17464C17.3089 7.57814 17.3354 8.00197 17.2717 8.41673V8.41772L16.001 16.6723C15.8585 17.5989 15.3894 18.4442 14.6778 19.0546C13.9663 19.6648 13.0597 20.0001 12.1224 20H5.18312C4.2458 19.9999 3.33909 19.664 2.62774 19.0536C1.91661 18.4433 1.447 17.5985 1.30456 16.6723L0.0337894 8.41772V8.41673C-0.0299177 8.002 -0.00335444 7.57811 0.111914 7.17464C0.227238 6.77108 0.428983 6.39744 0.702302 6.07892C0.975654 5.76036 1.31476 5.50459 1.69617 5.32931C2.07744 5.15414 2.49198 5.06329 2.91156 5.06329H4.72821V3.92405C4.72821 2.88333 5.14243 1.88503 5.87833 1.14913C6.61413 0.413514 7.61181 7.8754e-05 8.65226 0C9.69291 0 10.6913 0.413321 11.4272 1.14913C12.1631 1.88503 12.5763 2.88333 12.5763 3.92405V5.06329Z" fill="currentColor"/>
</svg>
