<svg preserveAspectRatio="none" width="100%" height="100%" overflow="visible" style="display: block;" viewBox="0 0 20 20" fill="none" xmlns="http://www.w3.org/2000/svg">
<path id="Vector" d="M5.95926 18.2278C6.44862 18.2278 6.84533 18.6246 6.84533 19.1139C6.84533 19.6033 6.44862 20 5.95926 20H5.94937C5.46 20 5.06329 19.6033 5.06329 19.1139C5.06329 18.6246 5.46 18.2278 5.94937 18.2278H5.95926ZM10.0099 18.2278C10.4993 18.2278 10.896 18.6246 10.896 19.1139C10.896 19.6033 10.4993 20 10.0099 20H10C9.51063 20 9.11392 19.6033 9.11392 19.1139C9.11392 18.6246 9.51063 18.2278 10 18.2278H10.0099ZM14.0605 18.2278C14.5499 18.2278 14.9466 18.6246 14.9466 19.1139C14.9466 19.6033 14.5499 20 14.0605 20H14.0506C13.5613 20 13.1646 19.6033 13.1646 19.1139C13.1646 18.6246 13.5613 18.2278 14.0506 18.2278H14.0605ZM18.2278 11.3805L15.449 8.60166H15.448C15.1206 8.29144 14.8129 8.18236 14.557 8.18236C14.3009 8.18236 13.9925 8.29106 13.665 8.60166L12.2666 10L12.6523 10.3857C12.9983 10.7317 12.9983 11.2936 12.6523 11.6396C12.3063 11.9857 11.7444 11.9857 11.3983 11.6396L7.34771 7.589H7.34672C7.01931 7.27878 6.71165 7.1697 6.4557 7.1697C6.1996 7.1697 5.89128 7.27841 5.56369 7.589L1.77215 11.3805V12.0253C1.77215 12.596 1.99854 13.1437 2.4021 13.5473C2.80566 13.9508 3.35333 14.1772 3.92405 14.1772H16.0759C16.6467 14.1772 17.1943 13.9508 17.5979 13.5473C18.0015 13.1437 18.2278 12.596 18.2278 12.0253V11.3805ZM13.0479 3.03797C13.5372 3.03797 13.9339 3.43468 13.9339 3.92405C13.9339 4.41342 13.5372 4.81013 13.0479 4.81013H13.038C12.5486 4.81013 12.1519 4.41342 12.1519 3.92405C12.1519 3.43468 12.5486 3.03797 13.038 3.03797H13.0479ZM18.2278 3.92405C18.2278 3.35333 18.0015 2.80566 17.5979 2.4021C17.1943 1.99854 16.6467 1.77215 16.0759 1.77215H3.92405C3.35333 1.77215 2.80566 1.99854 2.4021 2.4021C1.99854 2.80566 1.77215 3.35333 1.77215 3.92405V8.87263L4.30973 6.33505C4.31375 6.33103 4.31849 6.32712 4.32259 6.32318C4.91401 5.75421 5.64859 5.39755 6.4557 5.39755C7.2628 5.39755 7.99738 5.75421 8.58881 6.32318C8.5929 6.32712 8.59764 6.33103 8.60166 6.33505L11.0127 8.74604L12.411 7.34771C12.415 7.34369 12.4198 7.33978 12.4239 7.33584C13.0153 6.76687 13.7499 6.41021 14.557 6.41021C15.3641 6.41021 16.0986 6.76687 16.6901 7.33584C16.6942 7.33978 16.6989 7.34369 16.7029 7.34771L18.2278 8.87263V3.92405ZM20 12.0253C20 13.066 19.5868 14.0643 18.8509 14.8002C18.115 15.5361 17.1167 15.9494 16.0759 15.9494H3.92405C2.88333 15.9494 1.88503 15.5361 1.14913 14.8002C0.413228 14.0643 0 13.066 0 12.0253V3.92405C0 2.88333 0.413228 1.88503 1.14913 1.14913C1.88503 0.413228 2.88333 0 3.92405 0H16.0759C17.1167 0 18.115 0.413228 18.8509 1.14913C19.5868 1.88503 20 2.88333 20 3.92405V12.0253Z" fill="currentColor"/>
</svg>
