<svg preserveAspectRatio="none" width="100%" height="100%" overflow="visible" style="display: block;" viewBox="0 0 20 20" fill="none" xmlns="http://www.w3.org/2000/svg">
<path id="Vector" d="M4.05063 17.0886C4.05063 16.7865 3.93101 16.4963 3.71737 16.2826C3.50372 16.069 3.21354 15.9494 2.91139 15.9494C2.60925 15.9494 2.31907 16.069 2.10542 16.2826C1.89177 16.4963 1.77215 16.7865 1.77215 17.0886C1.77215 17.3908 1.89177 17.6809 2.10542 17.8946C2.31907 18.1082 2.60925 18.2278 2.91139 18.2278C3.21354 18.2278 3.50372 18.1082 3.71737 17.8946C3.93101 17.6809 4.05063 17.3908 4.05063 17.0886ZM18.2278 17.0886C18.2278 16.7865 18.1082 16.4963 17.8946 16.2826C17.6809 16.069 17.3908 15.9494 17.0886 15.9494C16.7865 15.9494 16.4963 16.069 16.2826 16.2826C16.069 16.4963 15.9494 16.7865 15.9494 17.0886C15.9494 17.3908 16.069 17.6809 16.2826 17.8946C16.4963 18.1082 16.7865 18.2278 17.0886 18.2278C17.3908 18.2278 17.6809 18.1082 17.8946 17.8946C18.1082 17.6809 18.2278 17.3908 18.2278 17.0886ZM12.1519 12.0253C12.1519 11.4546 11.9255 10.9069 11.522 10.5034C11.1184 10.0998 10.5707 9.87342 10 9.87342C9.42928 9.87342 8.8816 10.0998 8.47805 10.5034C8.07449 10.9069 7.8481 11.4546 7.8481 12.0253C7.8481 12.596 8.07449 13.1437 8.47805 13.5473C8.8816 13.9508 9.42928 14.1772 10 14.1772C10.5707 14.1772 11.1184 13.9508 11.522 13.5473C11.9255 13.1437 12.1519 12.596 12.1519 12.0253ZM11.1392 2.91139C11.1392 2.60925 11.0196 2.31907 10.806 2.10542C10.5923 1.89177 10.3021 1.77215 10 1.77215C9.69785 1.77215 9.40768 1.89177 9.19403 2.10542C8.98038 2.31907 8.86076 2.60925 8.86076 2.91139C8.86076 3.21354 8.98038 3.50372 9.19403 3.71737C9.40768 3.93101 9.69785 4.05063 10 4.05063C10.3021 4.05063 10.5923 3.93101 10.806 3.71737C11.0196 3.50372 11.1392 3.21354 11.1392 2.91139ZM12.9114 2.91139C12.9114 3.68354 12.6049 4.42434 12.0589 4.97033C11.7278 5.30152 11.3241 5.54229 10.8861 5.68236V8.20313C11.5955 8.36761 12.2517 8.72714 12.7749 9.2504C13.5108 9.9863 13.9241 10.9846 13.9241 12.0253C13.9241 12.5493 13.8184 13.0621 13.6205 13.5364L15.3402 14.7646C15.8418 14.3872 16.4536 14.1772 17.0886 14.1772C17.8608 14.1772 18.6016 14.4837 19.1475 15.0297C19.6935 15.5757 20 16.3165 20 17.0886C20 17.8608 19.6935 18.6016 19.1475 19.1475C18.6016 19.6935 17.8608 20 17.0886 20C16.3165 20 15.5757 19.6935 15.0297 19.1475C14.4837 18.6016 14.1772 17.8608 14.1772 17.0886C14.1772 16.7875 14.2244 16.4913 14.3137 16.2095L12.585 14.9753C11.8717 15.6004 10.9543 15.9494 10 15.9494C9.04541 15.9494 8.12739 15.6007 7.41396 14.9753L5.68532 16.2095C5.77469 16.4914 5.82278 16.7874 5.82278 17.0886C5.82278 17.8608 5.51632 18.6016 4.97033 19.1475C4.42434 19.6935 3.68354 20 2.91139 20C2.13924 20 1.39844 19.6935 0.852453 19.1475C0.306461 18.6016 0 17.8608 0 17.0886C0 16.3165 0.306461 15.5757 0.852453 15.0297C1.39844 14.4837 2.13924 14.1772 2.91139 14.1772C3.54617 14.1772 4.1573 14.3875 4.65882 14.7646L6.37856 13.5364C6.18069 13.0622 6.07595 12.5491 6.07595 12.0253C6.07595 10.9846 6.48918 9.9863 7.22508 9.2504C7.74834 8.72714 8.40447 8.36761 9.11392 8.20313V5.68236C8.67595 5.54229 8.27224 5.30152 7.94106 4.97033C7.39507 4.42434 7.08861 3.68354 7.08861 2.91139C7.08861 2.13924 7.39507 1.39844 7.94106 0.852453C8.48705 0.306461 9.22785 0 10 0C10.7721 0 11.5129 0.306461 12.0589 0.852453C12.6049 1.39844 12.9114 2.13924 12.9114 2.91139Z" fill="currentColor"/>
</svg>
