<svg preserveAspectRatio="none" width="100%" height="100%" overflow="visible" style="display: block;" viewBox="0 0 20 19.9995" fill="none" xmlns="http://www.w3.org/2000/svg">
<path id="Vector" d="M0.000475651 15.6334V9.99976C0.000475651 9.45527 0.441875 9.01387 0.986368 9.01387C1.53086 9.01387 1.97226 9.45527 1.97226 9.99976V15.6334C1.97226 16.2684 2.22415 16.8778 2.67317 17.3268C3.12219 17.7759 3.73156 18.0277 4.36657 18.0277H15.6339C16.2689 18.0277 16.8783 17.7759 17.3273 17.3268C17.7763 16.8778 18.0282 16.2684 18.0282 15.6334V4.36609C18.0282 3.73108 17.7763 3.12171 17.3273 2.67269C16.8783 2.22367 16.2689 1.97178 15.6339 1.97178H12.8171C12.2726 1.97178 11.8312 1.53039 11.8312 0.985892C11.8312 0.441399 12.2726 0 12.8171 0H15.6339C16.7919 2.84574e-07 17.9026 0.459778 18.7214 1.27858C19.5402 2.09738 20 3.20813 20 4.36609V15.6334C20 16.7914 19.5402 17.9021 18.7214 18.7209C17.9026 19.5397 16.7919 19.9995 15.6339 19.9995H4.36657C3.20861 19.9995 2.09786 19.5397 1.27905 18.7209C0.460253 17.9021 0.000475651 16.7914 0.000475651 15.6334ZM2.54223 1.41502C2.92724 1.03 3.55243 1.03 3.93744 1.41502C4.32246 1.80003 4.32246 2.42522 3.93744 2.81023L2.38158 4.36609L3.93744 5.92195C4.32246 6.30697 4.32246 6.93215 3.93744 7.31717C3.55243 7.70218 2.92724 7.70218 2.54223 7.31717L0.288761 5.0637C-0.0962537 4.67869 -0.0962537 4.0535 0.288761 3.66849L2.54223 1.41502ZM7.04916 1.41502C7.43418 1.03 8.05936 1.03 8.44438 1.41502L10.6978 3.66849C11.0829 4.0535 11.0829 4.67869 10.6978 5.0637L8.44438 7.31717C8.05936 7.70218 7.43418 7.70218 7.04916 7.31717C6.66415 6.93215 6.66415 6.30697 7.04916 5.92195L8.60502 4.36609L7.04916 2.81023C6.66415 2.42522 6.66415 1.80003 7.04916 1.41502Z" fill="currentColor"/>
</svg>
