<svg preserveAspectRatio="none" width="100%" height="100%" overflow="visible" style="display: block;" viewBox="0 0 20 18.9333" fill="none" xmlns="http://www.w3.org/2000/svg">
<path id="Vector" d="M16 18C16 17.6817 15.874 17.3761 15.649 17.151C15.4239 16.926 15.1183 16.8 14.8 16.8C14.2845 16.8 13.8667 16.3821 13.8667 15.8667C13.8667 15.3512 14.2845 14.9333 14.8 14.9333C15.1183 14.9333 15.4239 14.8073 15.649 14.5823C15.874 14.3572 16 14.0516 16 13.7333C16 13.2179 16.4179 12.8 16.9333 12.8C17.4488 12.8 17.8667 13.2179 17.8667 13.7333C17.8667 14.0516 17.9927 14.3572 18.2177 14.5823C18.4428 14.8073 18.7484 14.9333 19.0667 14.9333C19.5821 14.9333 20 15.3512 20 15.8667C20 16.3821 19.5821 16.8 19.0667 16.8C18.7484 16.8 18.4428 16.926 18.2177 17.151C17.9927 17.3761 17.8667 17.6817 17.8667 18C17.8667 18.5155 17.4488 18.9333 16.9333 18.9333C16.4179 18.9333 16 18.5155 16 18ZM6.4 15.8667C6.4 14.4168 5.82416 13.0262 4.79896 12.001C3.77376 10.9758 2.38318 10.4 0.933333 10.4C0.417868 10.4 0 9.98213 0 9.46667C0 8.9512 0.417868 8.53333 0.933333 8.53333C2.38318 8.53333 3.77376 7.95749 4.79896 6.93229C5.82416 5.90709 6.4 4.51652 6.4 3.06667C6.4 2.5512 6.81787 2.13333 7.33333 2.13333C7.8488 2.13333 8.26667 2.5512 8.26667 3.06667C8.26667 4.51652 8.84251 5.90709 9.86771 6.93229C10.8929 7.95749 12.2835 8.53333 13.7333 8.53333C14.2488 8.53333 14.6667 8.9512 14.6667 9.46667C14.6667 9.98213 14.2488 10.4 13.7333 10.4C12.2835 10.4 10.8929 10.9758 9.86771 12.001C8.84251 13.0262 8.26667 14.4168 8.26667 15.8667C8.26667 16.3821 7.8488 16.8 7.33333 16.8C6.81787 16.8 6.4 16.3821 6.4 15.8667ZM7.33333 6.64271C7.00675 7.22723 6.60062 7.77022 6.11875 8.25208C5.63688 8.73395 5.0939 9.14008 4.50938 9.46667C5.0939 9.79325 5.63688 10.1994 6.11875 10.6812C6.6004 11.1629 7.00682 11.7054 7.33333 12.2896C7.65984 11.7054 8.06627 11.1629 8.54792 10.6812C9.02957 10.1996 9.57203 9.79318 10.1563 9.46667C9.57203 9.14016 9.02957 8.73373 8.54792 8.25208C8.06605 7.77022 7.65992 7.22723 7.33333 6.64271ZM16 5.2C16 4.88174 15.874 4.57609 15.649 4.35104C15.4239 4.126 15.1183 4 14.8 4C14.2845 4 13.8667 3.58213 13.8667 3.06667C13.8667 2.5512 14.2845 2.13333 14.8 2.13333C15.1183 2.13333 15.4239 2.00734 15.649 1.78229C15.874 1.55725 16 1.25159 16 0.933333C16 0.417868 16.4179 0 16.9333 0C17.4488 0 17.8667 0.417868 17.8667 0.933333C17.8667 1.25159 17.9927 1.55725 18.2177 1.78229C18.4428 2.00734 18.7484 2.13333 19.0667 2.13333C19.5821 2.13333 20 2.5512 20 3.06667C20 3.58213 19.5821 4 19.0667 4C18.7484 4 18.4428 4.126 18.2177 4.35104C17.9927 4.57609 17.8667 4.88174 17.8667 5.2C17.8667 5.71547 17.4488 6.13333 16.9333 6.13333C16.4179 6.13333 16 5.71547 16 5.2Z" fill="currentColor"/>
</svg>
