<svg preserveAspectRatio="none" width="100%" height="100%" overflow="visible" style="display: block;" viewBox="0 0 20 20" fill="none" xmlns="http://www.w3.org/2000/svg">
<path id="Vector" d="M18.2278 2.91139C18.2278 2.60925 18.1082 2.31907 17.8946 2.10542C17.6809 1.89177 17.3908 1.77215 17.0886 1.77215H2.91139C2.60925 1.77215 2.31907 1.89177 2.10542 2.10542C1.89177 2.31907 1.77215 2.60925 1.77215 2.91139V17.0886C1.77215 17.3908 1.89177 17.6809 2.10542 17.8946C2.31907 18.1082 2.60925 18.2278 2.91139 18.2278H17.0886C17.3908 18.2278 17.6809 18.1082 17.8946 17.8946C18.1082 17.6809 18.2278 17.3908 18.2278 17.0886V2.91139ZM12.411 6.33505C12.757 5.98901 13.3189 5.98901 13.665 6.33505C14.011 6.68108 14.011 7.24297 13.665 7.589L7.589 13.665C7.24297 14.011 6.68108 14.011 6.33505 13.665C5.98901 13.3189 5.98901 12.757 6.33505 12.411L12.411 6.33505ZM20 17.0886C20 17.8608 19.6935 18.6016 19.1475 19.1475C18.6016 19.6935 17.8608 20 17.0886 20H2.91139C2.13924 20 1.39844 19.6935 0.852453 19.1475C0.306461 18.6016 0 17.8608 0 17.0886V2.91139C0 2.13924 0.30646 1.39844 0.852453 0.852453C1.39844 0.30646 2.13924 0 2.91139 0H17.0886C17.8608 0 18.6016 0.306461 19.1475 0.852453C19.6935 1.39844 20 2.13924 20 2.91139V17.0886Z" fill="currentColor"/>
</svg>
