<svg preserveAspectRatio="none" width="100%" height="100%" overflow="visible" style="display: block;" viewBox="0 0 20 20" fill="none" xmlns="http://www.w3.org/2000/svg">
<path id="Vector" d="M18.2278 10C18.2278 6.3481 17.7497 4.42095 16.6644 3.33564C15.579 2.25033 13.6519 1.77215 10 1.77215C6.3481 1.77215 4.42095 2.25033 3.33564 3.33564C2.25033 4.42095 1.77215 6.3481 1.77215 10C1.77215 13.6519 2.25033 15.579 3.33564 16.6644C4.42095 17.7497 6.3481 18.2278 10 18.2278C13.6519 18.2278 15.579 17.7497 16.6644 16.6644C17.7497 15.579 18.2278 13.6519 18.2278 10ZM9.11392 5.94937C9.11392 5.46 9.51063 5.06329 10 5.06329C10.4894 5.06329 10.8861 5.46 10.8861 5.94937V11.9106L13.4237 9.37302C13.7697 9.02699 14.3316 9.02699 14.6776 9.37302C15.0236 9.71906 15.0236 10.2809 14.6776 10.627L10.627 14.6776C10.2809 15.0236 9.71906 15.0236 9.37302 14.6776L5.32239 10.627C4.97636 10.2809 4.97636 9.71906 5.32239 9.37302C5.66842 9.02699 6.23031 9.02699 6.57635 9.37302L9.11392 11.9106V5.94937ZM20 10C20 13.6392 19.5662 16.2685 17.9173 17.9173C16.2685 19.5662 13.6392 20 10 20C6.36076 20 3.73154 19.5662 2.08267 17.9173C0.433807 16.2685 0 13.6392 0 10C0 6.36076 0.433807 3.73154 2.08267 2.08267C3.73154 0.433807 6.36076 0 10 0C13.6392 0 16.2685 0.433807 17.9173 2.08267C19.5662 3.73154 20 6.36076 20 10Z" fill="currentColor"/>
</svg>
