<svg preserveAspectRatio="none" width="100%" height="100%" overflow="visible" style="display: block;" viewBox="0 0 20 20" fill="none" xmlns="http://www.w3.org/2000/svg">
<path id="Vector" d="M18.2278 10C18.2278 6.3481 17.7497 4.42095 16.6644 3.33564C15.579 2.25033 13.6519 1.77215 10 1.77215C6.3481 1.77215 4.42095 2.25033 3.33564 3.33564C2.25033 4.42095 1.77215 6.3481 1.77215 10C1.77215 13.6519 2.25033 15.579 3.33564 16.6644C4.42095 17.7497 6.3481 18.2278 10 18.2278C13.6519 18.2278 15.579 17.7497 16.6644 16.6644C17.7497 15.579 18.2278 13.6519 18.2278 10ZM9.11392 13.038V10.8861H6.96203C6.47266 10.8861 6.07595 10.4894 6.07595 10C6.07595 9.51063 6.47266 9.11392 6.96203 9.11392H9.11392V6.96203C9.11392 6.47266 9.51063 6.07595 10 6.07595C10.4894 6.07595 10.8861 6.47266 10.8861 6.96203V9.11392H13.038C13.5273 9.11392 13.9241 9.51063 13.9241 10C13.9241 10.4894 13.5273 10.8861 13.038 10.8861H10.8861V13.038C10.8861 13.5273 10.4894 13.9241 10 13.9241C9.51063 13.9241 9.11392 13.5273 9.11392 13.038ZM20 10C20 13.6392 19.5662 16.2685 17.9173 17.9173C16.2685 19.5662 13.6392 20 10 20C6.36076 20 3.73154 19.5662 2.08267 17.9173C0.433807 16.2685 0 13.6392 0 10C0 6.36076 0.433807 3.73154 2.08267 2.08267C3.73154 0.433807 6.36076 0 10 0C13.6392 0 16.2685 0.433807 17.9173 2.08267C19.5662 3.73154 20 6.36076 20 10Z" fill="currentColor"/>
</svg>
