<svg preserveAspectRatio="none" width="100%" height="100%" overflow="visible" style="display: block;" viewBox="0 0 20 19.9991" fill="none" xmlns="http://www.w3.org/2000/svg">
<path id="Vector" d="M18.5728 13.6252C19.0597 13.3818 19.6518 13.5787 19.8955 14.0654C20.1389 14.5522 19.942 15.1443 19.4553 15.388L10.4412 19.895C10.1637 20.0338 9.83632 20.0338 9.55876 19.895L0.544674 15.388C0.0579747 15.1443 -0.138904 14.5522 0.104533 14.0654C0.348181 13.5787 0.940283 13.3818 1.42716 13.6252L10 17.9111L18.5728 13.6252ZM18.5728 9.11817C19.0597 8.87473 19.6518 9.07161 19.8955 9.55831C20.1389 10.0452 19.942 10.6373 19.4553 10.8809L10.4412 15.388C10.1637 15.5268 9.83632 15.5268 9.55876 15.388L0.544674 10.8809C0.0579747 10.6373 -0.138904 10.0452 0.104533 9.55831C0.348181 9.07161 0.940282 8.87473 1.42716 9.11817L10 13.404L18.5728 9.11817ZM9.55876 0.104086C9.83632 -0.0346953 10.1637 -0.0346953 10.4412 0.104086L19.4553 4.61113C19.7891 4.77821 20 5.11924 20 5.49251C20 5.86578 19.7891 6.20681 19.4553 6.37389L10.4412 10.8809C10.1637 11.0197 9.83632 11.0197 9.55876 10.8809L0.544674 6.37389C0.210917 6.20681 0 5.86578 0 5.49251C0 5.11924 0.210917 4.77821 0.544674 4.61113L9.55876 0.104086ZM3.18992 5.49251L10 8.897L16.8101 5.49251L10 2.08692L3.18992 5.49251Z" fill="currentColor"/>
</svg>
