<svg preserveAspectRatio="none" width="100%" height="100%" overflow="visible" style="display: block;" viewBox="0 0 20 19.0986" fill="none" xmlns="http://www.w3.org/2000/svg">
<path id="Vector" d="M10.0001 0C10.3065 0.000114226 10.5863 0.173992 10.7221 0.448669L13.3754 5.82551L19.3097 6.68598C19.6133 6.73001 19.8659 6.94275 19.9607 7.23446C20.0555 7.52627 19.9756 7.84676 19.7557 8.06076L15.4551 12.2462L16.4703 18.1563C16.5221 18.4587 16.3976 18.7646 16.1493 18.9448C15.9011 19.125 15.5719 19.1488 15.3005 19.006L10.0055 16.215L4.69877 19.006C4.42737 19.1487 4.09807 19.125 3.84998 18.9448C3.60189 18.7646 3.47804 18.4585 3.52989 18.1563L4.54322 12.2462L0.243542 8.06076C0.0237416 7.84676 -0.0553144 7.52624 0.0394383 7.23446C0.134241 6.94294 0.386159 6.7301 0.689514 6.68598L6.62292 5.82551L9.27717 0.448669L9.33472 0.350663C9.48344 0.133174 9.73179 0 10.0001 0ZM7.88081 6.91976C7.76337 7.15746 7.5363 7.32231 7.2739 7.36034L2.53814 8.04638L5.97105 11.3876C6.16106 11.5726 6.24776 11.8392 6.20302 12.1006L5.3929 16.8202L9.63143 14.5921L9.72135 14.5516C9.9357 14.4706 10.1767 14.4838 10.3822 14.5921L14.6055 16.8175L13.7962 12.1006C13.7515 11.8393 13.8383 11.5726 14.0282 11.3876L17.4602 8.04638L12.7254 7.36034C12.463 7.32226 12.2358 7.15748 12.1184 6.91976L9.99918 2.62638L7.88081 6.91976Z" fill="currentColor"/>
</svg>
