<svg preserveAspectRatio="none" width="100%" height="100%" overflow="visible" style="display: block;" viewBox="0 0 20 19.1032" fill="none" xmlns="http://www.w3.org/2000/svg">
<path id="Vector" d="M1.14987 1.15449C1.46438 0.840047 1.97445 0.840246 2.28908 1.15449L15.6907 14.5561C15.7018 14.5667 15.7126 14.5773 15.7231 14.5885L18.862 17.7274C19.1766 18.042 19.1766 18.5529 18.862 18.8675C18.5474 19.1817 18.0373 19.1819 17.7228 18.8675L16.3579 17.5026L16.4703 18.1563C16.5222 18.4587 16.3976 18.7646 16.1493 18.9448C15.9011 19.125 15.5719 19.1489 15.3005 19.006L10.0055 16.215L4.69877 19.006C4.42737 19.1487 4.09807 19.125 3.84998 18.9448C3.60189 18.7646 3.47804 18.4585 3.52989 18.1563L4.54322 12.2462L0.243542 8.06076C0.0237416 7.84676 -0.0553139 7.52624 0.0394376 7.23446C0.13424 6.94294 0.386158 6.7301 0.689514 6.68598L4.92625 6.07097L1.14987 2.2946C0.835255 1.97998 0.835255 1.46911 1.14987 1.15449ZM2.53814 8.04638L5.97105 11.3876C6.16106 11.5726 6.24776 11.8392 6.20302 12.1006L5.3929 16.8202L9.63143 14.5921L9.72135 14.5516C9.9357 14.4706 10.1767 14.4838 10.3822 14.5921L14.6055 16.8175L14.3834 15.5281L6.34868 7.49341L2.53814 8.04638ZM10.0001 0C10.3065 0.000114172 10.5863 0.173992 10.7221 0.448669L13.3754 5.82551L19.3097 6.68598C19.6133 6.73001 19.8659 6.94275 19.9607 7.23446C20.0555 7.52625 19.9755 7.84675 19.7557 8.06076L15.6853 12.0233C15.3665 12.3336 14.8565 12.3268 14.5461 12.008C14.236 11.6892 14.2427 11.1791 14.5614 10.8688L17.4602 8.04638L12.7254 7.36034C12.463 7.32226 12.2358 7.15748 12.1184 6.91976L9.99918 2.62638L8.89864 4.85804C8.70179 5.25691 8.21859 5.42062 7.81967 5.22399C7.42069 5.02708 7.25682 4.54401 7.45372 4.14502L9.27717 0.448669L9.33472 0.350663C9.48344 0.133174 9.73179 4.80121e-08 10.0001 0Z" fill="currentColor"/>
</svg>
