<svg preserveAspectRatio="none" width="100%" height="100%" overflow="visible" style="display: block;" viewBox="0 0 20 20" fill="none" xmlns="http://www.w3.org/2000/svg">
<path id="Vector" d="M9.11392 19.1139V18.1013C9.11392 17.6119 9.51063 17.2152 10 17.2152C10.4894 17.2152 10.8861 17.6119 10.8861 18.1013V19.1139C10.8861 19.6033 10.4894 20 10 20C9.51063 20 9.11392 19.6033 9.11392 19.1139ZM3.60166 15.1454C3.94772 14.7996 4.50869 14.7994 4.85463 15.1454C5.20056 15.4913 5.20036 16.0523 4.85463 16.3983L4.14557 17.1074C3.79954 17.4534 3.23864 17.4534 2.8926 17.1074C2.54657 16.7614 2.54657 16.2005 2.8926 15.8544L3.60166 15.1454ZM15.1454 15.1454C15.4913 14.7994 16.0523 14.7996 16.3983 15.1454L17.1074 15.8544C17.4534 16.2005 17.4534 16.7614 17.1074 17.1074C16.7614 17.4534 16.2005 17.4534 15.8544 17.1074L15.1454 16.3983C14.7996 16.0523 14.7994 15.4913 15.1454 15.1454ZM13.1646 10C13.1646 9.16071 12.8314 8.35553 12.2379 7.76206C11.6445 7.1686 10.8393 6.83544 10 6.83544C9.16071 6.83544 8.35553 7.1686 7.76206 7.76206C7.1686 8.35553 6.83544 9.16071 6.83544 10C6.83544 10.8393 7.1686 11.6445 7.76206 12.2379C8.35553 12.8314 9.16071 13.1646 10 13.1646C10.8393 13.1646 11.6445 12.8314 12.2379 12.2379C12.8314 11.6445 13.1646 10.8393 13.1646 10ZM1.89873 9.11392C2.3881 9.11392 2.78481 9.51063 2.78481 10C2.78481 10.4894 2.3881 10.8861 1.89873 10.8861H0.886076C0.39671 10.8861 0 10.4894 0 10C0 9.51063 0.39671 9.11392 0.886076 9.11392H1.89873ZM19.1139 9.11392C19.6033 9.11392 20 9.51063 20 10C20 10.4894 19.6033 10.8861 19.1139 10.8861H18.1013C17.6119 10.8861 17.2152 10.4894 17.2152 10C17.2152 9.51063 17.6119 9.11392 18.1013 9.11392H19.1139ZM2.8926 2.8926C3.23864 2.54657 3.79954 2.54657 4.14557 2.8926L4.85463 3.60166C5.20037 3.94772 5.20056 4.50869 4.85463 4.85463C4.50869 5.20056 3.94772 5.20037 3.60166 4.85463L2.8926 4.14557C2.54657 3.79954 2.54657 3.23864 2.8926 2.8926ZM15.8544 2.8926C16.2005 2.54657 16.7614 2.54657 17.1074 2.8926C17.4534 3.23864 17.4534 3.79954 17.1074 4.14557L16.3983 4.85463C16.0523 5.20036 15.4913 5.20056 15.1454 4.85463C14.7994 4.50869 14.7996 3.94772 15.1454 3.60166L15.8544 2.8926ZM9.11392 1.89873V0.886076C9.11392 0.39671 9.51063 0 10 0C10.4894 0 10.8861 0.39671 10.8861 0.886076V1.89873C10.8861 2.3881 10.4894 2.78481 10 2.78481C9.51063 2.78481 9.11392 2.3881 9.11392 1.89873ZM14.9367 10C14.9367 11.3093 14.4167 12.5651 13.4909 13.4909C12.5651 14.4167 11.3093 14.9367 10 14.9367C8.6907 14.9367 7.43491 14.4167 6.5091 13.4909C5.58329 12.5651 5.06329 11.3093 5.06329 10C5.06329 8.6907 5.58329 7.43491 6.5091 6.5091C7.43491 5.58329 8.6907 5.06329 10 5.06329C11.3093 5.06329 12.5651 5.58329 13.4909 6.5091C14.4167 7.43491 14.9367 8.6907 14.9367 10Z" fill="currentColor"/>
</svg>
