<svg preserveAspectRatio="none" width="100%" height="100%" overflow="visible" style="display: block;" viewBox="0 0 20 20" fill="none" xmlns="http://www.w3.org/2000/svg">
<path id="Vector" d="M15.4217 19.1566V17.1084H13.3735C12.9077 17.1084 12.5301 16.7308 12.5301 16.2651C12.5301 15.7993 12.9077 15.4217 13.3735 15.4217H15.4217V13.3735C15.4217 12.9077 15.7993 12.5301 16.2651 12.5301C16.7308 12.5301 17.1084 12.9077 17.1084 13.3735V15.4217H19.1566C19.6224 15.4217 20 15.7993 20 16.2651C20 16.7308 19.6224 17.1084 19.1566 17.1084H17.1084V19.1566C17.1084 19.6224 16.7308 20 16.2651 20C15.7993 20 15.4217 19.6224 15.4217 19.1566ZM17.3494 2.77108C17.3494 2.4835 17.2355 2.20731 17.0322 2.00395C16.8288 1.8006 16.5526 1.68675 16.2651 1.68675H8.43374V6.74699H17.3494V2.77108ZM1.68675 16.2651C1.68675 16.5526 1.8006 16.8288 2.00395 17.0322C2.20731 17.2355 2.4835 17.3494 2.77108 17.3494H6.74699V8.43374H1.68675V16.2651ZM1.68675 6.74699H6.74699V1.68675H2.77108C2.4835 1.68675 2.20731 1.8006 2.00395 2.00395C1.8006 2.20731 1.68675 2.4835 1.68675 2.77108V6.74699ZM19.0361 10C19.0361 10.4658 18.6586 10.8434 18.1928 10.8434C17.727 10.8434 17.3494 10.4658 17.3494 10V8.43374H8.43374V17.3494H10C10.4658 17.3494 10.8434 17.727 10.8434 18.1928C10.8434 18.6586 10.4658 19.0361 10 19.0361H2.77108C2.03615 19.0361 1.33105 18.7445 0.811371 18.2248C0.291692 17.7051 0 17 0 16.2651V2.77108C0 2.03615 0.291691 1.33105 0.811371 0.811371C1.33105 0.291691 2.03615 0 2.77108 0H16.2651C17 0 17.7051 0.291692 18.2248 0.811371C18.7445 1.33105 19.0361 2.03615 19.0361 2.77108V10Z" fill="currentColor"/>
</svg>
