<svg preserveAspectRatio="none" width="100%" height="100%" overflow="visible" style="display: block;" viewBox="0 0 20 20" fill="none" xmlns="http://www.w3.org/2000/svg">
<path id="Vector" d="M0 9.16049V3.92366C0 2.88304 0.413187 1.88485 1.14902 1.14902C1.88485 0.413187 2.88304 0 3.92366 0H9.16049C9.93242 0.000164869 10.6724 0.30748 11.2182 0.853357L11.2192 0.852368L19.026 8.66014L19.1397 8.7788C19.6922 9.38896 20 10.1846 20 11.0116C20 11.8935 19.6495 12.7393 19.026 13.363L13.363 19.026C12.7393 19.6495 11.8935 20 11.0116 20C10.1296 20 9.28389 19.6495 8.66014 19.026L0.852368 11.2192C0.306491 10.6734 0.000164869 9.93242 0 9.16049ZM5.56907 5.4425C5.56907 5.40893 5.55622 5.37625 5.53248 5.35252C5.50875 5.32878 5.47607 5.31593 5.4425 5.31593C5.40893 5.31593 5.37625 5.32878 5.35252 5.35252C5.32878 5.37625 5.31593 5.40893 5.31593 5.4425C5.31593 5.47607 5.32878 5.50875 5.35252 5.53248C5.37625 5.55622 5.40893 5.56907 5.4425 5.56907C5.47607 5.56907 5.50875 5.55622 5.53248 5.53248C5.55622 5.50875 5.56907 5.47607 5.56907 5.4425ZM7.34105 5.4425C7.34105 5.94603 7.14137 6.42928 6.78533 6.78533C6.42928 7.14137 5.94603 7.34105 5.4425 7.34105C4.93897 7.34105 4.45572 7.14137 4.09967 6.78533C3.74363 6.42928 3.54395 5.94603 3.54395 5.4425C3.54395 4.93897 3.74363 4.45572 4.09967 4.09967C4.45572 3.74363 4.93897 3.54395 5.4425 3.54395C5.94603 3.54395 6.42928 3.74363 6.78533 4.09967C7.14137 4.45572 7.34105 4.93897 7.34105 5.4425ZM1.77198 9.16049L1.77791 9.27321C1.80019 9.49664 1.88771 9.70868 2.03006 9.88233L2.1062 9.96539L9.91199 17.7722H9.91298C10.2045 18.0636 10.5994 18.228 11.0116 18.228C11.4237 18.228 11.8187 18.0636 12.1102 17.7722L17.7722 12.1102C18.0636 11.8187 18.228 11.4237 18.228 11.0116C18.228 10.5994 18.0636 10.2045 17.7722 9.91298V9.91199L9.96539 2.1062C9.77857 1.91932 9.53387 1.8039 9.27321 1.77791L9.16049 1.77198H3.92366C3.353 1.77198 2.80538 1.99834 2.40186 2.40186C1.99834 2.80538 1.77198 3.353 1.77198 3.92366V9.16049Z" fill="currentColor"/>
</svg>
