<svg preserveAspectRatio="none" width="100%" height="100%" overflow="visible" style="display: block;" viewBox="0 0 20 17.9747" fill="none" xmlns="http://www.w3.org/2000/svg">
<path id="Vector" d="M18.2278 2.91139C18.2278 2.60925 18.1082 2.31907 17.8946 2.10542C17.6809 1.89177 17.3908 1.77215 17.0886 1.77215H2.91139C2.60925 1.77215 2.31907 1.89177 2.10542 2.10542C1.89177 2.31907 1.77215 2.60925 1.77215 2.91139V15.0633C1.77215 15.3654 1.89177 15.6556 2.10542 15.8693C2.31907 16.0829 2.60925 16.2025 2.91139 16.2025H17.0886C17.3908 16.2025 17.6809 16.0829 17.8946 15.8693C18.1082 15.6556 18.2278 15.3654 18.2278 15.0633V2.91139ZM5.32239 5.32239C5.66842 4.97636 6.23031 4.97636 6.57635 5.32239L9.61432 8.36036C9.96035 8.7064 9.96035 9.26829 9.61432 9.61432L6.57635 12.6523C6.23031 12.9983 5.66842 12.9983 5.32239 12.6523C4.97636 12.3063 4.97636 11.7444 5.32239 11.3983L7.73339 8.98734L5.32239 6.57635C4.97636 6.23031 4.97636 5.66842 5.32239 5.32239ZM14.0506 11.1392C14.54 11.1392 14.9367 11.536 14.9367 12.0253C14.9367 12.5147 14.54 12.9114 14.0506 12.9114H11.0127C10.5233 12.9114 10.1266 12.5147 10.1266 12.0253C10.1266 11.536 10.5233 11.1392 11.0127 11.1392H14.0506ZM20 15.0633C20 15.8354 19.6935 16.5762 19.1475 17.1222C18.6016 17.6682 17.8608 17.9747 17.0886 17.9747H2.91139C2.13924 17.9747 1.39844 17.6682 0.852453 17.1222C0.306461 16.5762 0 15.8354 0 15.0633V2.91139C0 2.13924 0.30646 1.39844 0.852453 0.852453C1.39844 0.30646 2.13924 0 2.91139 0H17.0886C17.8608 0 18.6016 0.306461 19.1475 0.852453C19.6935 1.39844 20 2.13924 20 2.91139V15.0633Z" fill="currentColor"/>
</svg>
