<svg preserveAspectRatio="none" width="100%" height="100%" overflow="visible" style="display: block;" viewBox="0 0 20 18.9375" fill="none" xmlns="http://www.w3.org/2000/svg">
<path id="Vector" d="M12.8 3.06667C12.8 2.74841 12.674 2.44275 12.449 2.21771C12.2239 1.99266 11.9183 1.86667 11.6 1.86667C11.2817 1.86667 10.9761 1.99266 10.751 2.21771C10.526 2.44275 10.4 2.74841 10.4 3.06667V4.13333C10.4 5.51246 9.85227 6.83523 8.87708 7.81042C8.12488 8.56262 7.16546 9.05848 6.13333 9.24688V14.8C6.13333 15.4012 6.37179 15.978 6.79688 16.4031C7.22196 16.8282 7.79884 17.0667 8.4 17.0667H15.8667C15.8931 17.0667 15.9195 17.0676 15.9458 17.0698C16.0845 17.0816 16.2826 17.0351 16.5104 16.8073C16.7442 16.5735 16.9638 16.1855 17.0875 15.6677L18.1292 10.4573C18.1107 10.1668 17.9893 9.8914 17.7823 9.68438C17.5572 9.45933 17.2516 9.33333 16.9333 9.33333H13.7333C13.2179 9.33333 12.8 8.91547 12.8 8.4V3.06667ZM1.86667 16.9333C1.86667 16.9687 1.8802 17.0031 1.90521 17.0281C1.93021 17.0531 1.96464 17.0667 2 17.0667H4.13333C4.1687 17.0667 4.20312 17.0531 4.22813 17.0281C4.25313 17.0031 4.26667 16.9687 4.26667 16.9333V9.33333H2C1.96464 9.33333 1.93021 9.34687 1.90521 9.37188C1.8802 9.39688 1.86667 9.4313 1.86667 9.46667V16.9333ZM14.6667 7.46667H16.9333C17.7467 7.46667 18.527 7.78947 19.1021 8.36458C19.6772 8.9397 20 9.72 20 10.5333C20 10.5948 19.9943 10.6564 19.9823 10.7167L18.9156 16.05C18.9136 16.06 18.9107 16.0703 18.9083 16.0802C18.7245 16.8639 18.3648 17.5946 17.8313 18.1281C17.3039 18.6554 16.6103 18.9781 15.85 18.9333H8.4C7.45312 18.9333 6.54021 18.6079 5.80938 18.0198C5.73363 18.1367 5.6479 18.2479 5.54792 18.3479C5.17284 18.723 4.66376 18.9333 4.13333 18.9333H2C1.46957 18.9333 0.960491 18.723 0.585417 18.3479C0.210344 17.9728 0 17.4638 0 16.9333V9.46667C0 8.93623 0.210344 8.42716 0.585417 8.05208C0.960489 7.67701 1.46957 7.46667 2 7.46667H5.2C6.08406 7.46667 6.93217 7.11575 7.55729 6.49063C8.18241 5.8655 8.53333 5.01739 8.53333 4.13333V3.06667C8.53333 2.25334 8.85614 1.47303 9.43125 0.897917C10.0064 0.322805 10.7867 0 11.6 0C12.4133 0 13.1936 0.322805 13.7688 0.897917C14.3439 1.47303 14.6667 2.25334 14.6667 3.06667V7.46667Z" fill="currentColor"/>
</svg>
