<svg preserveAspectRatio="none" width="100%" height="100%" overflow="visible" style="display: block;" viewBox="0 0 20 18.9375" fill="none" xmlns="http://www.w3.org/2000/svg">
<path id="Vector" d="M8.53333 15.8708V14.8041C8.53333 13.9201 8.18239 13.0719 7.55729 12.4468C6.93217 11.8217 6.08406 11.4708 5.2 11.4708H2C1.46958 11.4708 0.960486 11.2604 0.585417 10.8854C0.210361 10.5103 1.91266e-05 10.0012 0 9.47079V2.00412C0 1.47371 0.210366 0.964608 0.585417 0.589539C0.960489 0.214466 1.46957 0.004122 2 0.004122H4.13333C4.66377 0.004122 5.17284 0.214466 5.54792 0.589539C5.6479 0.689528 5.73363 0.800801 5.80938 0.917664C6.54022 0.329584 7.45311 0.004122 8.4 0.004122H15.85C16.6103 -0.040606 17.3039 0.282014 17.8313 0.80933C18.3648 1.34287 18.7245 2.07358 18.9083 2.85725C18.9107 2.86716 18.9136 2.87747 18.9156 2.88746L19.9823 8.22079C19.9943 8.28106 20 8.34266 20 8.40412C20 9.21743 19.6772 9.99778 19.1021 10.5729C18.527 11.148 17.7466 11.4708 16.9333 11.4708H14.6667V15.8708C14.6666 16.6841 14.3438 17.4644 13.7688 18.0395C13.1936 18.6146 12.4133 18.9375 11.6 18.9375C10.7867 18.9375 10.0064 18.6146 9.43125 18.0395C8.85616 17.4644 8.53335 16.6841 8.53333 15.8708ZM10.4 15.8708C10.4 16.189 10.526 16.4947 10.751 16.7197C10.9761 16.9448 11.2818 17.0708 11.6 17.0708C11.9182 17.0708 12.2239 16.9448 12.449 16.7197C12.674 16.4947 12.8 16.189 12.8 15.8708V10.5375C12.8 10.022 13.2179 9.60412 13.7333 9.60412H16.9333C17.2516 9.60412 17.5573 9.4781 17.7823 9.25308C17.9895 9.04582 18.1109 8.76994 18.1292 8.47912L17.0844 3.25412H17.0833C16.959 2.74418 16.7418 2.36156 16.5104 2.13016C16.2826 1.90234 16.0845 1.85587 15.9458 1.86766C15.9195 1.8699 15.8931 1.87079 15.8667 1.87079H8.4C7.79884 1.87079 7.22196 2.10925 6.79688 2.53433C6.37181 2.95941 6.13333 3.53632 6.13333 4.13746V9.68954C7.16552 9.87791 8.12483 10.3748 8.87708 11.127C9.85225 12.1022 10.4 13.425 10.4 14.8041V15.8708ZM1.86667 9.47079C1.86669 9.5059 1.88052 9.5396 1.90521 9.56454C1.93021 9.58954 1.96464 9.60412 2 9.60412H4.26667V2.00412C4.26667 1.96878 4.25311 1.93433 4.22813 1.90933C4.20312 1.88433 4.1687 1.87079 4.13333 1.87079H2C1.96464 1.87079 1.93021 1.88433 1.90521 1.90933C1.88023 1.93433 1.86667 1.96878 1.86667 2.00412V9.47079Z" fill="currentColor"/>
</svg>
