<svg preserveAspectRatio="none" width="100%" height="100%" overflow="visible" style="display: block;" viewBox="0 0 20 12.6437" fill="none" xmlns="http://www.w3.org/2000/svg">
<path id="Vector" d="M18.3908 6.32184C18.3908 5.07197 17.8944 3.8732 17.0106 2.9894C16.1268 2.10561 14.928 1.6092 13.6782 1.6092H6.32184C5.07197 1.6092 3.8732 2.10561 2.9894 2.9894C2.10561 3.8732 1.6092 5.07197 1.6092 6.32184C1.6092 7.57171 2.10561 8.77048 2.9894 9.65427C3.8732 10.5381 5.07197 11.0345 6.32184 11.0345H13.6782C14.928 11.0345 16.1268 10.5381 17.0106 9.65427C17.8944 8.77048 18.3908 7.57171 18.3908 6.32184ZM7.35632 6.32184C7.35632 6.04748 7.2477 5.78398 7.0537 5.58998C6.8597 5.39597 6.5962 5.28736 6.32184 5.28736C6.04748 5.28736 5.78398 5.39597 5.58998 5.58998C5.39598 5.78398 5.28736 6.04748 5.28736 6.32184C5.28736 6.5962 5.39598 6.8597 5.58998 7.0537C5.78398 7.2477 6.04748 7.35632 6.32184 7.35632C6.5962 7.35632 6.8597 7.2477 7.0537 7.0537C7.2477 6.8597 7.35632 6.5962 7.35632 6.32184ZM8.96552 6.32184C8.96552 7.02299 8.68724 7.69567 8.19145 8.19145C7.69567 8.68724 7.02299 8.96552 6.32184 8.96552C5.62069 8.96552 4.94801 8.68724 4.45223 8.19145C3.95644 7.69567 3.67816 7.02299 3.67816 6.32184C3.67816 5.62069 3.95644 4.94801 4.45223 4.45223C4.94801 3.95644 5.62069 3.67816 6.32184 3.67816C7.02299 3.67816 7.69567 3.95644 8.19145 4.45223C8.68724 4.94801 8.96552 5.62069 8.96552 6.32184ZM20 6.32184C20 7.99849 19.3339 9.60645 18.1483 10.792C16.9628 11.9776 15.3548 12.6437 13.6782 12.6437H6.32184C4.64518 12.6437 3.03723 11.9776 1.85165 10.792C0.666077 9.60645 0 7.99849 0 6.32184C0 4.64518 0.666077 3.03723 1.85165 1.85165C3.03723 0.666078 4.64518 0 6.32184 0H13.6782C15.3548 0 16.9628 0.666078 18.1483 1.85165C19.3339 3.03723 20 4.64518 20 6.32184Z" fill="currentColor"/>
</svg>
