<svg preserveAspectRatio="none" width="100%" height="100%" overflow="visible" style="display: block;" viewBox="0 0 20 12.6437" fill="none" xmlns="http://www.w3.org/2000/svg">
<path id="Vector" d="M18.3908 6.32184C18.3908 5.07197 17.8944 3.8732 17.0106 2.9894C16.1268 2.10561 14.928 1.6092 13.6782 1.6092H6.32184C5.07197 1.6092 3.8732 2.10561 2.9894 2.9894C2.10561 3.8732 1.6092 5.07197 1.6092 6.32184C1.6092 7.57171 2.10561 8.77048 2.9894 9.65427C3.8732 10.5381 5.07197 11.0345 6.32184 11.0345H13.6782C14.928 11.0345 16.1268 10.5381 17.0106 9.65427C17.8944 8.77048 18.3908 7.57171 18.3908 6.32184ZM14.7126 6.32184C14.7126 6.04748 14.604 5.78398 14.41 5.58998C14.216 5.39597 13.9525 5.28736 13.6782 5.28736C13.4038 5.28736 13.1403 5.39597 12.9463 5.58998C12.7523 5.78398 12.6437 6.04748 12.6437 6.32184C12.6437 6.5962 12.7523 6.8597 12.9463 7.0537C13.1403 7.2477 13.4038 7.35632 13.6782 7.35632C13.9525 7.35632 14.216 7.2477 14.41 7.0537C14.604 6.8597 14.7126 6.5962 14.7126 6.32184ZM16.3218 6.32184C16.3218 7.02299 16.0436 7.69567 15.5478 8.19145C15.052 8.68724 14.3793 8.96552 13.6782 8.96552C12.977 8.96552 12.3043 8.68724 11.8085 8.19145C11.3128 7.69567 11.0345 7.02299 11.0345 6.32184C11.0345 5.62069 11.3128 4.94801 11.8085 4.45223C12.3043 3.95644 12.977 3.67816 13.6782 3.67816C14.3793 3.67816 15.052 3.95644 15.5478 4.45223C16.0436 4.94801 16.3218 5.62069 16.3218 6.32184ZM20 6.32184C20 7.99849 19.3339 9.60645 18.1483 10.792C16.9628 11.9776 15.3548 12.6437 13.6782 12.6437H6.32184C4.64518 12.6437 3.03723 11.9776 1.85165 10.792C0.666077 9.60645 0 7.99849 0 6.32184C0 4.64518 0.666077 3.03723 1.85165 1.85165C3.03723 0.666078 4.64518 0 6.32184 0H13.6782C15.3548 0 16.9628 0.666078 18.1483 1.85165C19.3339 3.03723 20 4.64518 20 6.32184Z" fill="currentColor"/>
</svg>
