<svg preserveAspectRatio="none" width="100%" height="100%" overflow="visible" style="display: block;" viewBox="0 0 20 20" fill="none" xmlns="http://www.w3.org/2000/svg">
<path id="Vector" d="M18.2463 16.9975C18.2463 16.6663 18.1145 16.348 17.8802 16.1138L11.8674 10.101C11.605 9.83828 11.5363 9.43882 11.6962 9.10371C12.1538 8.14544 12.3033 7.06861 12.1238 6.02194C11.9442 4.97522 11.4449 4.00922 10.694 3.25823C9.94301 2.50723 8.9771 2.00803 7.93031 1.82843C7.31802 1.72338 6.6955 1.73012 6.09241 1.84604L8.59775 4.35139C8.76219 4.51583 8.85513 4.73929 8.85513 4.97185V7.97826C8.85506 8.46243 8.46243 8.85506 7.97826 8.85513H4.97185C4.73929 8.85513 4.51583 8.76219 4.35139 8.59775L1.84604 6.09241C1.73012 6.6955 1.72338 7.31802 1.82843 7.93031C2.00803 8.9771 2.50723 9.94301 3.25823 10.694C4.00922 11.4449 4.97522 11.9442 6.02194 12.1238C7.06861 12.3033 8.14544 12.1538 9.10371 11.6962L9.23191 11.6472C9.53651 11.5567 9.87106 11.6378 10.101 11.8674L16.1138 17.8802C16.348 18.1145 16.6663 18.2463 16.9975 18.2463C17.3287 18.2462 17.646 18.1144 17.8802 17.8802C18.1144 17.646 18.2462 17.3287 18.2463 16.9975ZM20 16.9975C20 17.7938 19.6833 18.5571 19.1202 19.1202C18.5571 19.6833 17.7938 20 16.9975 20C16.2011 20 15.437 19.6833 14.8738 19.1202L9.27693 13.5233C8.14568 13.9412 6.92129 14.0572 5.72541 13.8521C4.32125 13.6112 3.02572 12.9413 2.01828 11.934C1.01083 10.9265 0.34008 9.63107 0.0991522 8.22684C-0.141693 6.82281 0.0587913 5.37851 0.672641 4.09302L0.72451 4.00005C0.856359 3.79276 1.07031 3.64883 1.31561 3.60663C1.59602 3.55852 1.88259 3.64927 2.08385 3.85032L5.33493 7.10139H7.10139V5.33493L3.85032 2.08385C3.64927 1.88259 3.55852 1.59602 3.60663 1.31561C3.65486 1.03521 3.83626 0.795268 4.09302 0.672641C5.37851 0.0587913 6.82281 -0.141693 8.22684 0.0991522C9.63107 0.34008 10.9265 1.01083 11.934 2.01828C12.9413 3.02572 13.6112 4.32125 13.8521 5.72541C14.0572 6.92129 13.9412 8.14568 13.5233 9.27693L19.1202 14.8738C19.6833 15.437 20 16.2011 20 16.9975Z" fill="currentColor"/>
</svg>
