<svg preserveAspectRatio="none" width="100%" height="100%" overflow="visible" style="display: block;" viewBox="0 0 20 19.9999" fill="none" xmlns="http://www.w3.org/2000/svg">
<path id="Vector" d="M18.0535 3.92418C18.0535 3.39956 17.8449 2.89686 17.474 2.5259C17.103 2.15494 16.6003 1.94642 16.0757 1.94642C15.5511 1.94642 15.0484 2.15494 14.6774 2.5259L13.7854 3.41787L16.582 6.21443L17.474 5.32246C17.8449 4.9515 18.0535 4.4488 18.0535 3.92418ZM1.7725 15.4308V18.2274H4.56906L15.3281 7.46833L12.5315 4.67177L1.7725 15.4308ZM11.2539 14.0503L12.5315 15.328L13.4235 14.436C13.7695 14.09 14.3314 14.09 14.6774 14.436C15.0234 14.782 15.0234 15.3439 14.6774 15.6899L13.7854 16.5819L15.0631 17.8595L17.8596 15.0629L14.0505 11.2538L11.2539 14.0503ZM2.14037 4.93679L3.418 6.21443L4.30997 5.32246C4.65599 4.97644 5.21786 4.97644 5.56388 5.32246C5.9099 5.66848 5.9099 6.23034 5.56388 6.57636L4.6719 7.46833L5.94954 8.74597L8.7461 5.94941L4.93693 2.14024L2.14037 4.93679ZM19.8255 3.92418C19.8255 4.91878 19.4312 5.87307 18.7279 6.57636L15.3044 9.99987L19.7405 14.436C20.0865 14.782 20.0865 15.3439 19.7405 15.6899L15.69 19.7404C15.344 20.0864 14.7821 20.0864 14.4361 19.7404L10 15.3042L5.56388 19.7404C5.39771 19.9065 5.17192 19.9994 4.93693 19.9994H0.886466C0.39712 19.9994 0.000427445 19.6027 0.000427445 19.1134V15.0629C0.000427445 14.828 0.0933501 14.6022 0.259514 14.436L4.69564 9.99987L0.259514 5.56375C-0.0865048 5.21773 -0.0865049 4.65586 0.259514 4.30984L4.30997 0.259383L4.37722 0.199061C4.72524 -0.0850582 5.23938 -0.06511 5.56388 0.259383L10 4.69551L13.4235 1.272C14.1268 0.568709 15.0811 0.174339 16.0757 0.174339C17.0703 0.174339 18.0246 0.56871 18.7279 1.272C19.4312 1.97529 19.8255 2.92958 19.8255 3.92418Z" fill="currentColor"/>
</svg>
