<svg preserveAspectRatio="none" width="100%" height="100%" overflow="visible" style="display: block;" viewBox="0 0 17.9747 20" fill="none" xmlns="http://www.w3.org/2000/svg">
<path id="Vector" d="M11.1392 1.89873C11.1392 1.86516 11.1264 1.83248 11.1027 1.80874C11.0789 1.785 11.0462 1.77215 11.0127 1.77215H6.96203C6.92845 1.77215 6.89577 1.785 6.87203 1.80874C6.84829 1.83248 6.83544 1.86516 6.83544 1.89873V4.05063H11.1392V1.89873ZM3.7945 17.0154C3.79652 17.0398 3.79747 17.0642 3.79747 17.0886C3.79747 17.3908 3.91709 17.6809 4.13074 17.8946C4.34438 18.1082 4.63456 18.2278 4.93671 18.2278H13.038C13.3401 18.2278 13.6303 18.1082 13.8439 17.8946C14.0576 17.6809 14.1772 17.3908 14.1772 17.0886C14.1772 17.0642 14.1782 17.0398 14.1802 17.0154L15.1127 5.82278H2.86195L3.7945 17.0154ZM6.07595 15.0633V8.98734C6.07595 8.49798 6.47266 8.10127 6.96203 8.10127C7.45139 8.10127 7.8481 8.49798 7.8481 8.98734V15.0633C7.8481 15.5527 7.45139 15.9494 6.96203 15.9494C6.47266 15.9494 6.07595 15.5527 6.07595 15.0633ZM10.1266 15.0633V8.98734C10.1266 8.49798 10.5233 8.10127 11.0127 8.10127C11.502 8.10127 11.8987 8.49798 11.8987 8.98734V15.0633C11.8987 15.5527 11.502 15.9494 11.0127 15.9494C10.5233 15.9494 10.1266 15.5527 10.1266 15.0633ZM12.9114 4.05063H17.0886C17.578 4.05063 17.9747 4.44734 17.9747 4.93671C17.9747 5.42607 17.578 5.82278 17.0886 5.82278H16.8918L15.9464 17.1618L15.9454 17.1608C15.9269 17.9068 15.6258 18.6186 15.0969 19.1475C14.5509 19.6935 13.8101 20 13.038 20H4.93671C4.16456 20 3.42376 19.6935 2.87777 19.1475C2.34883 18.6186 2.04678 17.9068 2.02828 17.1608V17.1618L1.08287 5.82278H0.886076C0.39671 5.82278 0 5.42608 0 4.93671C0 4.44734 0.39671 4.05063 0.886076 4.05063H5.06329V1.89873C5.06329 1.39516 5.26298 0.911857 5.61907 0.555775C5.97515 0.199694 6.45845 0 6.96203 0H11.0127C11.5162 2.55761e-07 11.9995 0.199694 12.3556 0.555775C12.7117 0.911857 12.9114 1.39516 12.9114 1.89873V4.05063Z" fill="currentColor"/>
</svg>
