<svg preserveAspectRatio="none" width="100%" height="100%" overflow="visible" style="display: block;" viewBox="0 0 20 11.8989" fill="none" xmlns="http://www.w3.org/2000/svg">
<path id="Vector" d="M0.25952 0.25952C0.605547 -0.0865067 1.16742 -0.0865067 1.51345 0.25952L6.9623 5.70837L10.3859 2.28479C10.7319 1.93877 11.2938 1.93877 11.6398 2.28479L18.2279 8.87286V3.92439C18.2279 3.43504 18.6246 3.03834 19.1139 3.03834C19.6033 3.03834 20 3.43504 20 3.92439V11.0129C20 11.5022 19.6033 11.8989 19.1139 11.8989H12.0255C11.5361 11.8989 11.1394 11.5022 11.1394 11.0129C11.1394 10.5235 11.5361 10.1268 12.0255 10.1268H16.974L11.0129 4.16569L7.58927 7.58927C7.24324 7.93529 6.68137 7.93529 6.33534 7.58927L0.25952 1.51345C-0.0865067 1.16742 -0.0865067 0.605547 0.25952 0.25952Z" fill="currentColor"/>
</svg>
