<svg preserveAspectRatio="none" width="100%" height="100%" overflow="visible" style="display: block;" viewBox="0 0 20 11.8989" fill="none" xmlns="http://www.w3.org/2000/svg">
<path id="Vector" d="M20 7.97451C20 8.46387 19.6033 8.86057 19.1139 8.86057C18.6246 8.86057 18.2279 8.46387 18.2279 7.97451V3.02604L11.6398 9.61411C11.2938 9.96014 10.7319 9.96014 10.3859 9.61411L6.9623 6.19053L1.51345 11.6394C1.16742 11.9854 0.605547 11.9854 0.25952 11.6394C-0.0865067 11.2934 -0.0865067 10.7315 0.25952 10.3855L6.33534 4.30964C6.68137 3.96361 7.24324 3.96361 7.58927 4.30964L11.0129 7.73322L16.974 1.77211H12.0255C11.5361 1.77211 11.1394 1.37541 11.1394 0.886057C11.1394 0.396701 11.5361 0 12.0255 0H19.1139C19.6033 0 20 0.396701 20 0.886057V7.97451Z" fill="currentColor"/>
</svg>
