<svg preserveAspectRatio="none" width="100%" height="100%" overflow="visible" style="display: block;" viewBox="0 0 20 15.9494" fill="none" xmlns="http://www.w3.org/2000/svg">
<path id="Vector" d="M4.93671 11.8987C4.63456 11.8987 4.34439 12.0184 4.13074 12.232C3.91709 12.4457 3.79747 12.7358 3.79747 13.038C3.79747 13.3401 3.91709 13.6303 4.13074 13.8439C4.34439 14.0576 4.63456 14.1772 4.93671 14.1772C5.23885 14.1772 5.52903 14.0576 5.74268 13.8439C5.95633 13.6303 6.07595 13.3401 6.07595 13.038C6.07595 12.7358 5.95633 12.4457 5.74268 12.232C5.52903 12.0184 5.23885 11.8987 4.93671 11.8987ZM15.0633 11.8987C14.7611 11.8987 14.471 12.0184 14.2573 12.232C14.0437 12.4457 13.9241 12.7358 13.9241 13.038C13.9241 13.3401 14.0437 13.6303 14.2573 13.8439C14.471 14.0576 14.7611 14.1772 15.0633 14.1772C15.3654 14.1772 15.6556 14.0576 15.8693 13.8439C16.0829 13.6303 16.2025 13.3401 16.2025 13.038C16.2025 12.7358 16.0829 12.4457 15.8693 12.232C15.6556 12.0184 15.3654 11.8987 15.0633 11.8987ZM11.8987 12.1519H12.2913C12.4314 11.7138 12.6731 11.3103 13.0044 10.979C13.5503 10.433 14.2911 10.1266 15.0633 10.1266C15.8354 10.1266 16.5762 10.433 17.1222 10.979C17.4535 11.3103 17.6952 11.7138 17.8352 12.1519H18.2278V7.8481H11.8987V12.1519ZM11.8987 6.07595H17.5494L15.5746 2.78481H11.8987V6.07595ZM20 13.038C20 13.5273 19.6033 13.9241 19.1139 13.9241H17.8352C17.6952 14.3621 17.4535 14.7657 17.1222 15.0969C16.5762 15.6429 15.8354 15.9494 15.0633 15.9494C14.2911 15.9494 13.5503 15.6429 13.0044 15.0969C12.6731 14.7657 12.4314 14.3621 12.2913 13.9241H7.70866C7.56861 14.3621 7.3269 14.7657 6.99565 15.0969C6.44966 15.6429 5.70886 15.9494 4.93671 15.9494C4.16456 15.9494 3.42376 15.6429 2.87777 15.0969C2.54651 14.7657 2.3048 14.3621 2.16475 13.9241H0.886076C0.39671 13.9241 0 13.5273 0 13.038V1.89873C0 1.39516 0.199694 0.911857 0.555775 0.555775C0.911857 0.199694 1.39516 0 1.89873 0H11.0127C11.502 0 11.8987 0.39671 11.8987 0.886076V1.01266H16.0759C16.3871 1.01266 16.6753 1.17604 16.8354 1.44284L19.8734 6.50613C19.956 6.64384 20 6.80143 20 6.96203V13.038ZM1.77215 12.1519H2.16475C2.3048 11.7138 2.54651 11.3103 2.87777 10.979C3.42376 10.433 4.16456 10.1266 4.93671 10.1266C5.70886 10.1266 6.44966 10.433 6.99565 10.979C7.3269 11.3103 7.56861 11.7138 7.70866 12.1519H10.1266V1.77215H1.89873C1.86516 1.77215 1.83248 1.785 1.80874 1.80874C1.785 1.83248 1.77215 1.86516 1.77215 1.89873V12.1519Z" fill="currentColor"/>
</svg>
