<svg preserveAspectRatio="none" width="100%" height="100%" overflow="visible" style="display: block;" viewBox="0 0 18.9333 20" fill="none" xmlns="http://www.w3.org/2000/svg">
<path id="Vector" d="M0 16.9333V14.8C0 14.2845 0.417868 13.8667 0.933333 13.8667C1.4488 13.8667 1.86667 14.2845 1.86667 14.8V16.9333C1.86667 17.2516 1.99266 17.5572 2.21771 17.7823C2.44275 18.0073 2.74841 18.1333 3.06667 18.1333H15.8667C16.1849 18.1333 16.4906 18.0073 16.7156 17.7823C16.9407 17.5572 17.0667 17.2516 17.0667 16.9333V14.8C17.0667 14.2845 17.4845 13.8667 18 13.8667C18.5155 13.8667 18.9333 14.2845 18.9333 14.8V16.9333C18.9333 17.7467 18.6105 18.527 18.0354 19.1021C17.4603 19.6772 16.68 20 15.8667 20H3.06667C2.25334 20 1.47303 19.6772 0.897917 19.1021C0.322805 18.527 0 17.7467 0 16.9333ZM8.53333 13.7333V3.1875L4.79375 6.92708C4.42926 7.29157 3.83741 7.29157 3.47292 6.92708C3.10843 6.56259 3.10843 5.97074 3.47292 5.60625L8.80625 0.272917L8.875 0.211458C9.0411 0.0753054 9.25001 0 9.46667 0C9.7142 1.34701e-07 9.95205 0.0978828 10.1271 0.272917L15.4604 5.60625C15.8249 5.97074 15.8249 6.56259 15.4604 6.92708C15.0959 7.29157 14.5041 7.29157 14.1396 6.92708L10.4 3.1875V13.7333C10.4 14.2488 9.98213 14.6667 9.46667 14.6667C8.9512 14.6667 8.53333 14.2488 8.53333 13.7333Z" fill="currentColor"/>
</svg>
