<svg preserveAspectRatio="none" width="100%" height="100%" overflow="visible" style="display: block;" viewBox="0 0 17.1084 20" fill="none" xmlns="http://www.w3.org/2000/svg">
<path id="Vector" d="M12.8916 11.0843C13.1152 11.0843 13.3302 11.1728 13.4883 11.3309C14.2837 12.1263 15.5098 12.5301 16.2651 12.5301C16.7308 12.5301 17.1084 12.9077 17.1084 13.3735C17.1084 15.4837 16.447 17.1074 15.6146 18.2172C15.201 18.7687 14.7409 19.1988 14.2931 19.4974C13.8694 19.7798 13.3716 20 12.8916 20C12.4115 20 11.9137 19.7798 11.49 19.4974C11.0422 19.1988 10.5821 18.7687 10.1685 18.2172C9.33611 17.1074 8.6747 15.4837 8.6747 13.3735C8.6747 12.9077 9.05229 12.5301 9.51807 12.5301C10.2733 12.5301 11.4995 12.1263 12.2948 11.3309C12.453 11.1728 12.6679 11.0843 12.8916 11.0843ZM0 18.1928V16.2651C0 15.0189 0.494935 13.8236 1.37613 12.9424C2.25732 12.0612 3.4526 11.5663 4.6988 11.5663H6.62651C7.09229 11.5663 7.46988 11.9439 7.46988 12.4096C7.46988 12.8754 7.09229 13.253 6.62651 13.253H4.6988C3.89995 13.253 3.13358 13.5701 2.56871 14.135C2.00384 14.6998 1.68675 15.4662 1.68675 16.2651V18.1928C1.68675 18.6586 1.30916 19.0361 0.843374 19.0361C0.377591 19.0361 0 18.6586 0 18.1928ZM12.8916 13.0328C12.1176 13.6046 11.2111 13.9675 10.3972 14.1246C10.5264 15.4879 10.9967 16.5089 11.5183 17.2044C11.8274 17.6166 12.1506 17.9096 12.4256 18.093C12.5631 18.1847 12.6804 18.2443 12.7701 18.2784C12.8647 18.3144 12.9034 18.3133 12.8916 18.3133C12.8797 18.3133 12.9184 18.3144 13.013 18.2784C13.1027 18.2443 13.22 18.1847 13.3575 18.093C13.6325 17.9096 13.9557 17.6166 14.2649 17.2044C14.7865 16.5089 15.2558 15.4878 15.385 14.1246C14.5713 13.9674 13.6652 13.6044 12.8916 13.0328ZM9.63855 4.6988C9.63855 3.89995 9.32146 3.13358 8.75659 2.56871C8.19172 2.00384 7.42535 1.68675 6.62651 1.68675C5.82766 1.68675 5.06129 2.00384 4.49642 2.56871C3.93155 3.13358 3.61446 3.89995 3.61446 4.6988C3.61446 5.49764 3.93155 6.26401 4.49642 6.82888C5.06129 7.39375 5.82766 7.71084 6.62651 7.71084C7.42535 7.71084 8.19172 7.39375 8.75659 6.82888C9.32146 6.26401 9.63855 5.49764 9.63855 4.6988ZM11.3253 4.6988C11.3253 5.94499 10.8304 7.14027 9.94917 8.02146C9.06798 8.90266 7.8727 9.39759 6.62651 9.39759C5.38031 9.39759 4.18504 8.90266 3.30384 8.02146C2.42265 7.14027 1.92771 5.94499 1.92771 4.6988C1.92771 3.4526 2.42265 2.25732 3.30384 1.37613C4.18504 0.494934 5.38031 0 6.62651 0C7.8727 1.21718e-07 9.06798 0.494934 9.94917 1.37613C10.8304 2.25732 11.3253 3.4526 11.3253 4.6988Z" fill="currentColor"/>
</svg>
