<svg preserveAspectRatio="none" width="100%" height="100%" overflow="visible" style="display: block;" viewBox="0 0 17.1095 20" fill="none" xmlns="http://www.w3.org/2000/svg">
<path id="Vector" d="M10.6919 11.5663C11.3126 11.5675 11.9121 11.7633 12.4135 12.116C12.9164 11.7646 13.5167 11.5709 14.1379 11.572C14.9207 11.5735 15.6723 11.8805 16.2322 12.4276C16.5101 12.699 16.7311 13.0239 16.8817 13.382C17.0321 13.7402 17.11 14.125 17.1095 14.5134C17.1088 14.902 17.0296 15.2871 16.8779 15.6448C16.7268 16.001 16.5057 16.3228 16.2284 16.5927L16.2294 16.5936L12.9999 19.7591C12.6717 20.0807 12.1464 20.0802 11.8186 19.7582L8.58626 16.5823C8.30864 16.3109 8.08805 15.9868 7.93772 15.6288C7.78732 15.2706 7.71012 14.8851 7.71088 14.4965C7.7117 14.1081 7.78975 13.7236 7.94149 13.366C8.09329 13.0083 8.31579 12.6849 8.59473 12.4144L8.81405 12.2214C9.34524 11.7982 10.0069 11.565 10.6919 11.5663ZM0 18.1929V16.2651C0 15.0189 0.494937 13.8237 1.37614 12.9425C2.25733 12.0613 3.45261 11.5663 4.69882 11.5663H5.18075C5.64653 11.5663 6.02412 11.9439 6.02412 12.4097C6.02412 12.8755 5.64653 13.2531 5.18075 13.2531H4.69882C3.89997 13.2531 3.1336 13.5702 2.56872 14.135C2.00385 14.6999 1.68675 15.4663 1.68675 16.2651V18.1929C1.68675 18.6586 1.30916 19.0362 0.843377 19.0362C0.377593 19.0362 0 18.6586 0 18.1929ZM10.6891 13.2531C10.3457 13.2524 10.015 13.3858 9.76849 13.6249C9.65135 13.7385 9.55836 13.8747 9.49458 14.0249C9.43081 14.1752 9.39795 14.337 9.39763 14.5003C9.39731 14.6635 9.42954 14.8251 9.4927 14.9756C9.54013 15.0886 9.60446 15.1936 9.68284 15.2872L9.76567 15.3766L9.76661 15.3785L12.4097 17.9745L15.0481 15.3888L15.0509 15.386C15.1681 15.2723 15.262 15.1363 15.3257 14.9859C15.3894 14.8357 15.4224 14.6738 15.4227 14.5106C15.4229 14.3475 15.3899 14.1856 15.3267 14.0353C15.2635 13.8849 15.1704 13.7483 15.0537 13.6343C14.8082 13.3942 14.4785 13.2594 14.135 13.2587C13.7931 13.2581 13.4634 13.3895 13.2173 13.6268L13.2182 13.6277L13.0027 13.8395C12.6741 14.1622 12.1474 14.1611 11.8195 13.8376L11.6068 13.6286C11.3613 13.3889 11.0322 13.2538 10.6891 13.2531ZM9.6386 4.69882C9.6386 3.89997 9.3215 3.1336 8.75663 2.56872C8.19176 2.00385 7.42539 1.68675 6.62654 1.68675C5.82769 1.68675 5.06132 2.00385 4.49644 2.56872C3.93157 3.1336 3.61447 3.89997 3.61447 4.69882C3.61447 5.49767 3.93157 6.26404 4.49644 6.82891C5.06132 7.39378 5.82769 7.71088 6.62654 7.71088C7.42539 7.71088 8.19176 7.39378 8.75663 6.82891C9.3215 6.26404 9.6386 5.49767 9.6386 4.69882ZM11.3254 4.69882C11.3254 5.94502 10.8304 7.1403 9.94922 8.0215C9.06802 8.9027 7.87274 9.39763 6.62654 9.39763C5.38033 9.39763 4.18505 8.9027 3.30386 8.0215C2.42266 7.1403 1.92772 5.94502 1.92772 4.69882C1.92772 3.45261 2.42266 2.25734 3.30386 1.37614C4.18505 0.494937 5.38033 0 6.62654 0C7.87274 0 9.06802 0.494937 9.94922 1.37614C10.8304 2.25734 11.3254 3.45261 11.3254 4.69882Z" fill="currentColor"/>
</svg>
