<svg preserveAspectRatio="none" width="100%" height="100%" overflow="visible" style="display: block;" viewBox="0 0 17.1084 20" fill="none" xmlns="http://www.w3.org/2000/svg">
<path id="Vector" d="M12.5301 19.1566V17.1084H10.4819C10.0161 17.1084 9.63855 16.7308 9.63855 16.2651C9.63855 15.7993 10.0161 15.4217 10.4819 15.4217H12.5301V13.3735C12.5301 12.9077 12.9077 12.5301 13.3735 12.5301C13.8393 12.5301 14.2169 12.9077 14.2169 13.3735V15.4217H16.2651C16.7308 15.4217 17.1084 15.7993 17.1084 16.2651C17.1084 16.7308 16.7308 17.1084 16.2651 17.1084H14.2169V19.1566C14.2169 19.6224 13.8393 20 13.3735 20C12.9077 20 12.5301 19.6224 12.5301 19.1566ZM0 18.1928V16.2651C0 15.0189 0.494935 13.8236 1.37613 12.9424C2.25732 12.0612 3.4526 11.5663 4.6988 11.5663H8.55422C9.02 11.5663 9.39759 11.9439 9.39759 12.4096C9.39759 12.8754 9.02 13.253 8.55422 13.253H4.6988C3.89995 13.253 3.13358 13.5701 2.56871 14.135C2.00384 14.6998 1.68675 15.4662 1.68675 16.2651V18.1928C1.68675 18.6586 1.30916 19.0361 0.843374 19.0361C0.377591 19.0361 0 18.6586 0 18.1928ZM9.63855 4.6988C9.63855 3.89995 9.32146 3.13358 8.75659 2.56871C8.19172 2.00384 7.42535 1.68675 6.62651 1.68675C5.82766 1.68675 5.06129 2.00384 4.49642 2.56871C3.93155 3.13358 3.61446 3.89995 3.61446 4.6988C3.61446 5.49764 3.93155 6.26401 4.49642 6.82888C5.06129 7.39375 5.82766 7.71084 6.62651 7.71084C7.42535 7.71084 8.19172 7.39375 8.75659 6.82888C9.32146 6.26401 9.63855 5.49764 9.63855 4.6988ZM11.3253 4.6988C11.3253 5.94499 10.8304 7.14027 9.94917 8.02146C9.06798 8.90266 7.8727 9.39759 6.62651 9.39759C5.38031 9.39759 4.18504 8.90266 3.30384 8.02146C2.42265 7.14027 1.92771 5.94499 1.92771 4.6988C1.92771 3.4526 2.42265 2.25732 3.30384 1.37613C4.18504 0.494934 5.38031 0 6.62651 0C7.8727 1.21718e-07 9.06798 0.494934 9.94917 1.37613C10.8304 2.25732 11.3253 3.4526 11.3253 4.6988Z" fill="currentColor"/>
</svg>
