<svg preserveAspectRatio="none" width="100%" height="100%" overflow="visible" style="display: block;" viewBox="0 0 20 20" fill="none" xmlns="http://www.w3.org/2000/svg">
<path id="Vector" d="M0 16.7606V14.507C0 13.9625 0.441409 13.5211 0.985916 13.5211C1.53042 13.5211 1.97183 13.9625 1.97183 14.507V16.7606C1.97183 17.0968 2.10493 17.4196 2.34265 17.6574C2.58037 17.8951 2.90325 18.0282 3.23944 18.0282H5.49296C6.03746 18.0282 6.47887 18.4696 6.47887 19.0141C6.47887 19.5586 6.03746 20 5.49296 20H3.23944C2.38028 20 1.55602 19.659 0.948504 19.0515C0.340991 18.444 0 17.6197 0 16.7606ZM18.0282 16.7606V14.507C18.0282 13.9625 18.4696 13.5211 19.0141 13.5211C19.5586 13.5211 20 13.9625 20 14.507V16.7606C20 17.6197 19.659 18.444 19.0515 19.0515C18.444 19.659 17.6197 20 16.7606 20H14.507C13.9625 20 13.5211 19.5586 13.5211 19.0141C13.5211 18.4696 13.9625 18.0282 14.507 18.0282H16.7606C17.0968 18.0282 17.4196 17.8951 17.6574 17.6574C17.8951 17.4196 18.0282 17.0968 18.0282 16.7606ZM13.5211 14.507C13.5211 14.1709 13.388 13.848 13.1503 13.6103C12.9126 13.3725 12.5897 13.2394 12.2535 13.2394H7.74648C7.41029 13.2394 7.08741 13.3725 6.84969 13.6103C6.61197 13.848 6.47887 14.1709 6.47887 14.507C6.47887 15.0515 6.03746 15.493 5.49296 15.493C4.94845 15.493 4.50704 15.0515 4.50704 14.507C4.50704 13.6479 4.84803 12.8236 5.45555 12.2161C6.06306 11.6086 6.88733 11.2676 7.74648 11.2676H12.2535C13.1127 11.2676 13.9369 11.6086 14.5445 12.2161C15.152 12.8236 15.493 13.6479 15.493 14.507C15.493 15.0515 15.0515 15.493 14.507 15.493C13.9625 15.493 13.5211 15.0515 13.5211 14.507ZM11.2676 6.61972C11.2676 6.28353 11.1345 5.96065 10.8968 5.72293C10.6591 5.48521 10.3362 5.35211 10 5.35211C9.66381 5.35211 9.34094 5.48521 9.10321 5.72293C8.86549 5.96065 8.73239 6.28353 8.73239 6.61972C8.73239 6.95591 8.86549 7.27878 9.10321 7.51651C9.34094 7.75423 9.66381 7.88732 10 7.88732C10.3362 7.88732 10.6591 7.75423 10.8968 7.51651C11.1345 7.27878 11.2676 6.95591 11.2676 6.61972ZM0 5.49296V3.23944C0 2.38028 0.340991 1.55602 0.948504 0.948504C1.55602 0.340991 2.38028 0 3.23944 0H5.49296C6.03746 1.45185e-07 6.47887 0.44141 6.47887 0.985916C6.47887 1.53042 6.03746 1.97183 5.49296 1.97183H3.23944C2.90325 1.97183 2.58037 2.10493 2.34265 2.34265C2.10493 2.58037 1.97183 2.90325 1.97183 3.23944V5.49296C1.97183 6.03746 1.53042 6.47887 0.985916 6.47887C0.441409 6.47887 0 6.03746 0 5.49296ZM18.0282 5.49296V3.23944C18.0282 2.90325 17.8951 2.58037 17.6574 2.34265C17.4196 2.10493 17.0968 1.97183 16.7606 1.97183H14.507C13.9625 1.97183 13.5211 1.53042 13.5211 0.985916C13.5211 0.441409 13.9625 0 14.507 0H16.7606C17.6197 2.84581e-07 18.444 0.340992 19.0515 0.948504C19.659 1.55602 20 2.38028 20 3.23944V5.49296C20 6.03746 19.5586 6.47887 19.0141 6.47887C18.4696 6.47887 18.0282 6.03746 18.0282 5.49296ZM13.2394 6.61972C13.2394 7.47887 12.8984 8.30314 12.2909 8.91065C11.6834 9.51816 10.8592 9.85916 10 9.85916C9.14085 9.85916 8.31658 9.51816 7.70907 8.91065C7.10156 8.30314 6.76056 7.47887 6.76056 6.61972C6.76056 5.76057 7.10156 4.9363 7.70907 4.32879C8.31658 3.72127 9.14085 3.38028 10 3.38028C10.8592 3.38028 11.6834 3.72127 12.2909 4.32879C12.8984 4.9363 13.2394 5.76057 13.2394 6.61972Z" fill="currentColor"/>
</svg>
