<svg preserveAspectRatio="none" width="100%" height="100%" overflow="visible" style="display: block;" viewBox="0 0 17.1131 20" fill="none" xmlns="http://www.w3.org/2000/svg">
<path id="Vector" d="M15.4264 14.4287C15.4264 14.2737 15.3963 14.12 15.337 13.9768C15.2776 13.8336 15.1906 13.7034 15.0809 13.5938C14.9713 13.4841 14.8411 13.3971 14.6979 13.3377C14.5547 13.2784 14.401 13.2483 14.246 13.2483C14.0911 13.2483 13.9374 13.2785 13.7942 13.3377C13.6511 13.397 13.5207 13.4842 13.4111 13.5938L13.4083 13.5966L10.3614 16.6162V18.3133H12.0585L15.0781 15.2664L15.0809 15.2636C15.1905 15.154 15.2777 15.0236 15.337 14.8805C15.3962 14.7373 15.4264 14.5836 15.4264 14.4287ZM0 18.1928V16.2651C0 15.0189 0.494935 13.8236 1.37613 12.9424C2.25732 12.0612 3.4526 11.5663 4.6988 11.5663H8.07229C8.53807 11.5663 8.91566 11.9439 8.91566 12.4096C8.91566 12.8754 8.53807 13.253 8.07229 13.253H4.6988C3.89995 13.253 3.13358 13.5701 2.56871 14.135C2.00384 14.6998 1.68675 15.4662 1.68675 16.2651V18.1928C1.68675 18.6586 1.30916 19.0361 0.843374 19.0361C0.377591 19.0361 0 18.6586 0 18.1928ZM9.63855 4.6988C9.63855 3.89995 9.32146 3.13358 8.75659 2.56871C8.19172 2.00384 7.42535 1.68675 6.62651 1.68675C5.82766 1.68675 5.06129 2.00384 4.49642 2.56871C3.93155 3.13358 3.61446 3.89995 3.61446 4.6988C3.61446 5.49764 3.93155 6.26401 4.49642 6.82888C5.06129 7.39375 5.82766 7.71084 6.62651 7.71084C7.42535 7.71084 8.19172 7.39375 8.75659 6.82888C9.32146 6.26401 9.63855 5.49764 9.63855 4.6988ZM17.1131 14.4287C17.1131 14.8052 17.0389 15.1783 16.8948 15.5262C16.7511 15.8729 16.5405 16.1876 16.2754 16.4533L13.0083 19.7506C12.8499 19.9102 12.6345 20 12.4096 20H9.51807C9.05229 20 8.6747 19.6224 8.6747 19.1566V16.2651C8.6747 16.0402 8.76453 15.8248 8.92413 15.6664L12.2204 12.3983C12.4862 12.1333 12.8018 11.9236 13.1485 11.7799C13.4964 11.6358 13.8695 11.5616 14.246 11.5616C14.6225 11.5616 14.9957 11.6359 15.3436 11.7799C15.6913 11.924 16.0074 12.135 16.2735 12.4012C16.5397 12.6673 16.7507 12.9834 16.8948 13.3311C17.0388 13.679 17.1131 14.0522 17.1131 14.4287ZM11.3253 4.6988C11.3253 5.94499 10.8304 7.14027 9.94917 8.02146C9.06798 8.90266 7.8727 9.39759 6.62651 9.39759C5.38031 9.39759 4.18504 8.90266 3.30384 8.02146C2.42265 7.14027 1.92771 5.94499 1.92771 4.6988C1.92771 3.4526 2.42265 2.25732 3.30384 1.37613C4.18504 0.494934 5.38031 0 6.62651 0C7.8727 0 9.06798 0.494934 9.94917 1.37613C10.8304 2.25732 11.3253 3.4526 11.3253 4.6988Z" fill="currentColor"/>
</svg>
