<svg preserveAspectRatio="none" width="100%" height="100%" overflow="visible" style="display: block;" viewBox="0 0 20 20" fill="none" xmlns="http://www.w3.org/2000/svg">
<path id="Vector" d="M12.1519 19.1139V17.0886C12.1519 16.2493 11.8187 15.4441 11.2253 14.8507C10.6318 14.2572 9.82663 13.9241 8.98734 13.9241H4.93671C4.09742 13.9241 3.29224 14.2572 2.69877 14.8507C2.1053 15.4441 1.77215 16.2493 1.77215 17.0886V19.1139C1.77215 19.6033 1.37544 20 0.886076 20C0.39671 20 0 19.6033 0 19.1139V17.0886C0 15.7793 0.519995 14.5235 1.44581 13.5977C2.37162 12.6719 3.62741 12.1519 4.93671 12.1519H8.98734C10.2966 12.1519 11.5524 12.6719 12.4782 13.5977C13.4041 14.5235 13.9241 15.7793 13.9241 17.0886V19.1139C13.9241 19.6033 13.5273 20 13.038 20C12.5486 20 12.1519 19.6033 12.1519 19.1139ZM18.2278 19.1139V17.0936C18.2238 16.3952 17.9886 15.718 17.5593 15.1671C17.13 14.6162 16.5307 14.2223 15.8544 14.0477C15.3808 13.9254 15.0955 13.4424 15.2176 12.9688C15.3399 12.4949 15.8236 12.2095 16.2975 12.3319C17.3525 12.6043 18.288 13.2179 18.9577 14.0773C19.6274 14.9368 19.9937 15.9941 20 17.0837V19.1139C20 19.6033 19.6033 20 19.1139 20C18.6246 20 18.2278 19.6033 18.2278 19.1139ZM10.1266 4.93671C10.1266 4.09742 9.79343 3.29224 9.19996 2.69877C8.60649 2.1053 7.80132 1.77215 6.96203 1.77215C6.12273 1.77215 5.31756 2.1053 4.72409 2.69877C4.13062 3.29224 3.79747 4.09742 3.79747 4.93671C3.79747 5.776 4.13062 6.58117 4.72409 7.17464C5.31756 7.76811 6.12273 8.10127 6.96203 8.10127C7.80132 8.10127 8.60649 7.76811 9.19996 7.17464C9.79343 6.58117 10.1266 5.776 10.1266 4.93671ZM16.2104 4.94165C16.2104 4.23906 15.9767 3.55641 15.5459 3.00138C15.1151 2.44637 14.5117 2.0503 13.8311 1.87599C13.3571 1.75462 13.0709 1.2721 13.1922 0.798062C13.3136 0.324073 13.7962 0.0380021 14.2702 0.159217C15.3319 0.431074 16.2731 1.04881 16.9452 1.91456C17.6173 2.78044 17.9826 3.84554 17.9826 4.94165C17.9826 6.03781 17.6173 7.10284 16.9452 7.96875C16.2731 8.83457 15.332 9.45222 14.2702 9.72409C13.7962 9.84534 13.3136 9.55925 13.1922 9.08525C13.0711 8.61128 13.3571 8.12867 13.8311 8.00732C14.5117 7.833 15.1151 7.43692 15.5459 6.88192C15.9766 6.32689 16.2104 5.64422 16.2104 4.94165ZM11.8987 4.93671C11.8987 6.24601 11.3787 7.5018 10.4529 8.42761C9.52711 9.35342 8.27132 9.87342 6.96203 9.87342C5.65273 9.87342 4.39694 9.35342 3.47112 8.42761C2.54531 7.5018 2.02532 6.24601 2.02532 4.93671C2.02532 3.62741 2.54531 2.37162 3.47112 1.44581C4.39694 0.519994 5.65273 0 6.96203 0C8.27132 0 9.52711 0.519994 10.4529 1.44581C11.3787 2.37162 11.8987 3.62741 11.8987 4.93671Z" fill="currentColor"/>
</svg>
