<svg preserveAspectRatio="none" width="100%" height="100%" overflow="visible" style="display: block;" viewBox="0 0 13.9241 20" fill="none" xmlns="http://www.w3.org/2000/svg">
<path id="Vector" d="M12.1519 19.1139V17.0886C12.1519 16.2493 11.8187 15.4441 11.2253 14.8507C10.6318 14.2572 9.82663 13.9241 8.98734 13.9241H4.93671C4.09742 13.9241 3.29224 14.2572 2.69877 14.8507C2.1053 15.4441 1.77215 16.2493 1.77215 17.0886V19.1139C1.77215 19.6033 1.37544 20 0.886076 20C0.39671 20 0 19.6033 0 19.1139V17.0886C0 15.7793 0.519995 14.5235 1.44581 13.5977C2.37162 12.6719 3.62741 12.1519 4.93671 12.1519H8.98734C10.2966 12.1519 11.5524 12.6719 12.4782 13.5977C13.4041 14.5235 13.9241 15.7793 13.9241 17.0886V19.1139C13.9241 19.6033 13.5273 20 13.038 20C12.5486 20 12.1519 19.6033 12.1519 19.1139ZM10.1266 4.93671C10.1266 4.09742 9.79343 3.29224 9.19996 2.69877C8.60649 2.1053 7.80132 1.77215 6.96203 1.77215C6.12273 1.77215 5.31756 2.1053 4.72409 2.69877C4.13062 3.29224 3.79747 4.09742 3.79747 4.93671C3.79747 5.776 4.13062 6.58117 4.72409 7.17464C5.31756 7.76811 6.12273 8.10127 6.96203 8.10127C7.80132 8.10127 8.60649 7.76811 9.19996 7.17464C9.79343 6.58117 10.1266 5.776 10.1266 4.93671ZM11.8987 4.93671C11.8987 6.24601 11.3787 7.5018 10.4529 8.42761C9.52711 9.35342 8.27132 9.87342 6.96203 9.87342C5.65273 9.87342 4.39694 9.35342 3.47112 8.42761C2.54531 7.5018 2.02532 6.24601 2.02532 4.93671C2.02532 3.62741 2.54531 2.37162 3.47112 1.44581C4.39694 0.519994 5.65273 0 6.96203 0C8.27132 0 9.52711 0.519994 10.4529 1.44581C11.3787 2.37162 11.8987 3.62741 11.8987 4.93671Z" fill="currentColor"/>
</svg>
