<svg preserveAspectRatio="none" width="100%" height="100%" overflow="visible" style="display: block;" viewBox="0 0 20 20" fill="none" xmlns="http://www.w3.org/2000/svg">
<path id="Vector" d="M13.1646 19.1139V18.1013C13.1646 17.7991 13.0449 17.5089 12.8313 17.2953C12.6176 17.0816 12.3275 16.962 12.0253 16.962H7.97468C7.67254 16.962 7.38236 17.0816 7.16871 17.2953C6.95506 17.5089 6.83544 17.7991 6.83544 18.1013V19.1139C6.83544 19.6033 6.43873 20 5.94937 20C5.46 20 5.06329 19.6033 5.06329 19.1139V18.1013C5.06329 17.3291 5.36975 16.5883 5.91574 16.0423C6.46174 15.4963 7.20253 15.1899 7.97468 15.1899H12.0253C12.7975 15.1899 13.5383 15.4963 14.0843 16.0423C14.6302 16.5883 14.9367 17.3291 14.9367 18.1013V19.1139C14.9367 19.6033 14.54 20 14.0506 20C13.5613 20 13.1646 19.6033 13.1646 19.1139ZM11.1392 11.0127C11.1392 10.7105 11.0196 10.4203 10.806 10.2067C10.5923 9.99304 10.3021 9.87342 10 9.87342C9.69786 9.87342 9.40768 9.99304 9.19403 10.2067C8.98038 10.4203 8.86076 10.7105 8.86076 11.0127C8.86076 11.3148 8.98038 11.605 9.19403 11.8186C9.40768 12.0323 9.69786 12.1519 10 12.1519C10.3021 12.1519 10.5923 12.0323 10.806 11.8186C11.0196 11.605 11.1392 11.3148 11.1392 11.0127ZM0 11.0127V10C0 9.22785 0.306461 8.48705 0.852453 7.94106C1.39844 7.39507 2.13924 7.08861 2.91139 7.08861H4.93671C5.42608 7.08861 5.82278 7.48532 5.82278 7.97468C5.82278 8.46405 5.42608 8.86076 4.93671 8.86076H2.91139C2.60925 8.86076 2.31907 8.98038 2.10542 9.19403C1.89177 9.40768 1.77215 9.69785 1.77215 10V11.0127C1.77215 11.502 1.37544 11.8987 0.886076 11.8987C0.39671 11.8987 0 11.502 0 11.0127ZM18.2278 11.0127V10C18.2278 9.69786 18.1082 9.40768 17.8946 9.19403C17.6809 8.98038 17.3908 8.86076 17.0886 8.86076H15.0633C14.5739 8.86076 14.1772 8.46405 14.1772 7.97468C14.1772 7.48532 14.5739 7.08861 15.0633 7.08861H17.0886C17.8608 7.08861 18.6016 7.39507 19.1475 7.94106C19.6935 8.48705 20 9.22785 20 10V11.0127C20 11.502 19.6033 11.8987 19.1139 11.8987C18.6246 11.8987 18.2278 11.502 18.2278 11.0127ZM6.07595 2.91139C6.07595 2.60925 5.95633 2.31907 5.74268 2.10542C5.52903 1.89177 5.23885 1.77215 4.93671 1.77215C4.63456 1.77215 4.34438 1.89177 4.13074 2.10542C3.91709 2.31907 3.79747 2.60925 3.79747 2.91139C3.79747 3.21354 3.91709 3.50372 4.13074 3.71737C4.34438 3.93101 4.63456 4.05063 4.93671 4.05063C5.23885 4.05063 5.52903 3.93101 5.74268 3.71737C5.95633 3.50372 6.07595 3.21354 6.07595 2.91139ZM16.2025 2.91139C16.2025 2.60925 16.0829 2.31907 15.8693 2.10542C15.6556 1.89177 15.3654 1.77215 15.0633 1.77215C14.7611 1.77215 14.471 1.89177 14.2573 2.10542C14.0437 2.31907 13.9241 2.60925 13.9241 2.91139C13.9241 3.21354 14.0437 3.50372 14.2573 3.71737C14.471 3.93101 14.7611 4.05063 15.0633 4.05063C15.3654 4.05063 15.6556 3.93101 15.8693 3.71737C16.0829 3.50372 16.2025 3.21354 16.2025 2.91139ZM12.9114 11.0127C12.9114 11.7848 12.6049 12.5256 12.0589 13.0716C11.5129 13.6176 10.7721 13.9241 10 13.9241C9.22785 13.9241 8.48705 13.6176 7.94106 13.0716C7.39507 12.5256 7.08861 11.7848 7.08861 11.0127C7.08861 10.2405 7.39507 9.49971 7.94106 8.95372C8.48705 8.40773 9.22785 8.10127 10 8.10127C10.7721 8.10127 11.5129 8.40773 12.0589 8.95372C12.6049 9.49971 12.9114 10.2405 12.9114 11.0127ZM7.8481 2.91139C7.8481 3.68354 7.54164 4.42434 6.99565 4.97033C6.44966 5.51632 5.70886 5.82278 4.93671 5.82278C4.16456 5.82278 3.42376 5.51632 2.87777 4.97033C2.33178 4.42434 2.02532 3.68354 2.02532 2.91139C2.02532 2.13924 2.33178 1.39844 2.87777 0.852453C3.42376 0.30646 4.16456 0 4.93671 0C5.70886 0 6.44966 0.306461 6.99565 0.852453C7.54164 1.39844 7.8481 2.13924 7.8481 2.91139ZM17.9747 2.91139C17.9747 3.68354 17.6682 4.42434 17.1222 4.97033C16.5762 5.51632 15.8354 5.82278 15.0633 5.82278C14.2911 5.82278 13.5503 5.51632 13.0044 4.97033C12.4584 4.42434 12.1519 3.68354 12.1519 2.91139C12.1519 2.13924 12.4584 1.39844 13.0044 0.852453C13.5503 0.306461 14.2911 0 15.0633 0C15.8354 0 16.5762 0.306461 17.1222 0.852453C17.6682 1.39844 17.9747 2.13924 17.9747 2.91139Z" fill="currentColor"/>
</svg>
