<svg preserveAspectRatio="none" width="100%" height="100%" overflow="visible" style="display: block;" viewBox="0 0 20 20" fill="none" xmlns="http://www.w3.org/2000/svg">
<path id="Vector" d="M18.2278 10C18.2278 8.91952 18.0153 7.8495 17.6019 6.85127C17.1884 5.85302 16.5819 4.94619 15.8178 4.18216C15.0538 3.41813 14.147 2.81163 13.1487 2.39814C12.1505 1.98467 11.0805 1.77215 10 1.77215C8.91952 1.77215 7.8495 1.98467 6.85127 2.39814C5.85302 2.81163 4.94619 3.41813 4.18216 4.18216C3.41813 4.94619 2.81163 5.85302 2.39814 6.85127C1.98467 7.8495 1.77215 8.91952 1.77215 10C1.77215 11.0805 1.98467 12.1505 2.39814 13.1487C2.74395 13.9836 3.22626 14.7532 3.8212 15.4302C4.14038 14.934 4.54829 14.4961 5.02769 14.1396C5.87954 13.5063 6.91319 13.1643 7.97468 13.1646H12.0253L12.2241 13.1685C13.2167 13.2082 14.1761 13.5465 14.9753 14.1416C15.4533 14.4976 15.8593 14.9352 16.1778 15.4302C16.7729 14.7531 17.256 13.9838 17.6019 13.1487C18.0153 12.1505 18.2278 11.0805 18.2278 10ZM7.72053 14.9466C7.13041 14.9939 6.5637 15.2065 6.08584 15.5617C5.69617 15.8514 5.38217 16.2263 5.16218 16.6535C5.68507 17.0337 6.25122 17.3533 6.85127 17.6019C7.8495 18.0153 8.91952 18.2278 10 18.2278C11.0805 18.2278 12.1505 18.0153 13.1487 17.6019C13.749 17.3532 14.3148 17.0328 14.8378 16.6525C14.6182 16.2264 14.3057 15.852 13.9171 15.5627C13.3706 15.1557 12.7067 14.9365 12.0253 14.9367H7.97468L7.72053 14.9466ZM12.1519 7.97468C12.1519 7.40396 11.9255 6.85629 11.522 6.45273C11.1184 6.04917 10.5707 5.82278 10 5.82278C9.42928 5.82278 8.88161 6.04917 8.47805 6.45273C8.07449 6.85629 7.8481 7.40396 7.8481 7.97468C7.8481 8.5454 8.07449 9.09308 8.47805 9.49664C8.8816 9.9002 9.42928 10.1266 10 10.1266C10.5707 10.1266 11.1184 9.9002 11.522 9.49664C11.9255 9.09308 12.1519 8.5454 12.1519 7.97468ZM20 10C20 11.3132 19.7411 12.6139 19.2385 13.8271C18.736 15.0403 17.9993 16.1423 17.0708 17.0708C16.9027 17.2389 16.7268 17.3981 16.5477 17.5534C16.5089 17.594 16.4656 17.6302 16.4191 17.6632C15.6407 18.3152 14.7684 18.8486 13.8271 19.2385C12.6139 19.7411 11.3132 20 10 20C8.68678 20 7.38612 19.7411 6.17286 19.2385C4.95975 18.736 3.85769 17.9993 2.92919 17.0708C2.0007 16.1423 1.26402 15.0403 0.761472 13.8271C0.258924 12.6139 0 11.3132 0 10C0 8.68678 0.258924 7.38612 0.761472 6.17286C1.26402 4.95975 2.0007 3.85769 2.92919 2.92919C3.85769 2.0007 4.95975 1.26402 6.17286 0.761472C7.38612 0.258924 8.68678 0 10 0C11.3132 0 12.6139 0.258924 13.8271 0.761472C15.0403 1.26402 16.1423 2.0007 17.0708 2.92919C17.9993 3.85769 18.736 4.95975 19.2385 6.17286C19.7411 7.38612 20 8.68678 20 10ZM13.9241 7.97468C13.9241 9.01541 13.5108 10.0137 12.7749 10.7496C12.039 11.4855 11.0407 11.8987 10 11.8987C8.95928 11.8987 7.96098 11.4855 7.22508 10.7496C6.48918 10.0137 6.07595 9.01541 6.07595 7.97468C6.07595 6.93396 6.48918 5.93567 7.22508 5.19976C7.96098 4.46386 8.95928 4.05063 10 4.05063C11.0407 4.05063 12.039 4.46386 12.7749 5.19976C13.5108 5.93567 13.9241 6.93396 13.9241 7.97468Z" fill="currentColor"/>
</svg>
