<svg preserveAspectRatio="none" width="100%" height="100%" overflow="visible" style="display: block;" viewBox="0 0 17.1085 20" fill="none" xmlns="http://www.w3.org/2000/svg">
<path id="Vector" d="M14.4575 15.3009C14.4575 14.7577 14.2421 14.2364 13.858 13.8523C13.4739 13.4682 12.9526 13.2527 12.4094 13.2527C11.8662 13.2527 11.3449 13.4682 10.9608 13.8523C10.5767 14.2364 10.3612 14.7577 10.3612 15.3009C10.3612 15.8441 10.5767 16.3654 10.9608 16.7495C11.3449 17.1336 11.8662 17.349 12.4094 17.349C12.9526 17.349 13.4739 17.1336 13.858 16.7495C14.2421 16.3654 14.4575 15.8441 14.4575 15.3009ZM0 18.1924V16.2647C0 15.0186 0.494925 13.8233 1.3761 12.9421C2.25728 12.061 3.45253 11.566 4.6987 11.566H6.14445C6.61023 11.566 6.98781 11.9436 6.98781 12.4094C6.98781 12.8752 6.61023 13.2527 6.14445 13.2527H4.6987C3.89987 13.2527 3.13352 13.5698 2.56866 14.1347C2.0038 14.6995 1.68671 15.4659 1.68671 16.2647V18.1924C1.68671 18.6582 1.30913 19.0358 0.843356 19.0358C0.377584 19.0358 0 18.6582 0 18.1924ZM9.63836 4.6987C9.63836 3.89987 9.32127 3.13352 8.75641 2.56866C8.19155 2.0038 7.4252 1.68671 6.62637 1.68671C5.82754 1.68671 5.06119 2.0038 4.49633 2.56866C3.93147 3.13352 3.61438 3.89987 3.61438 4.6987C3.61438 5.49753 3.93147 6.26388 4.49633 6.82874C5.06119 7.3936 5.82754 7.71069 6.62637 7.71069C7.4252 7.71069 8.19155 7.3936 8.75641 6.82874C9.32127 6.26388 9.63836 5.49753 9.63836 4.6987ZM16.1443 15.3009C16.1443 16.0051 15.9433 16.6875 15.5767 17.2756L16.8615 18.5595C17.1908 18.8888 17.1908 19.4236 16.8615 19.753C16.5321 20.0823 15.9973 20.0823 15.668 19.753L14.3841 18.4682C13.796 18.8348 13.1136 19.0358 12.4094 19.0358C11.4188 19.0358 10.4687 18.6425 9.76825 17.942C9.06783 17.2416 8.67452 16.2914 8.67452 15.3009C8.67452 14.3103 9.06783 13.3602 9.76825 12.6598C10.4687 11.9593 11.4188 11.566 12.4094 11.566C13.3999 11.566 14.3501 11.9593 15.0505 12.6598C15.7509 13.3602 16.1443 14.3103 16.1443 15.3009ZM11.3251 4.6987C11.3251 5.94487 10.8301 7.14012 9.94897 8.0213C9.06779 8.90247 7.87254 9.3974 6.62637 9.3974C5.3802 9.3974 4.18495 8.90247 3.30377 8.0213C2.4226 7.14012 1.92767 5.94487 1.92767 4.6987C1.92767 3.45253 2.4226 2.25728 3.30377 1.3761C4.18495 0.494924 5.3802 0 6.62637 0C7.87254 1.21716e-07 9.06779 0.494924 9.94897 1.3761C10.8301 2.25728 11.3251 3.45253 11.3251 4.6987Z" fill="currentColor"/>
</svg>
