<svg preserveAspectRatio="none" width="100%" height="100%" overflow="visible" style="display: block;" viewBox="0 0 20 13.9241" fill="none" xmlns="http://www.w3.org/2000/svg">
<path id="Vector" d="M18.2239 3.50574C18.2212 3.49544 18.2172 3.48543 18.212 3.47607C18.2015 3.45724 18.1859 3.44093 18.1675 3.42959C18.1493 3.41845 18.1285 3.41279 18.1072 3.41179C18.0857 3.41082 18.0642 3.41505 18.0449 3.42464L13.9241 5.48358V8.43948L18.0449 10.4994C18.0642 10.509 18.0857 10.5132 18.1072 10.5123C18.1285 10.5113 18.1494 10.5056 18.1675 10.4945C18.1859 10.4831 18.2015 10.4668 18.212 10.448C18.2172 10.4386 18.2212 10.4286 18.2239 10.4183L18.2278 10.3867V3.53738L18.2239 3.50574ZM12.1519 2.91139C12.1519 2.60925 12.0323 2.31907 11.8186 2.10542C11.605 1.89177 11.3148 1.77215 11.0127 1.77215H2.91139C2.60925 1.77215 2.31907 1.89177 2.10542 2.10542C1.89177 2.31907 1.77215 2.60925 1.77215 2.91139V11.0127C1.77215 11.3148 1.89177 11.605 2.10542 11.8186C2.31907 12.0323 2.60925 12.1519 2.91139 12.1519H11.0127C11.3148 12.1519 11.605 12.0323 11.8186 11.8186C12.0323 11.605 12.1519 11.3148 12.1519 11.0127V2.91139ZM13.9241 3.50277L17.2528 1.8394C17.542 1.69489 17.8633 1.62614 18.1863 1.64063C18.5095 1.65518 18.8239 1.75246 19.0991 1.92247C19.3743 2.09252 19.602 2.33021 19.7597 2.61274C19.9172 2.89509 19.9998 3.21309 20 3.53639V10.3877C19.9998 10.711 19.9172 11.029 19.7597 11.3113C19.602 11.5938 19.3743 11.8315 19.0991 12.0016C18.8239 12.1716 18.5095 12.2689 18.1863 12.2834C17.8633 12.2979 17.542 12.2292 17.2528 12.0847L13.9241 10.4203V11.0127C13.9241 11.7848 13.6176 12.5256 13.0716 13.0716C12.5256 13.6176 11.7848 13.9241 11.0127 13.9241H2.91139C2.13924 13.9241 1.39844 13.6176 0.852453 13.0716C0.306461 12.5256 0 11.7848 0 11.0127V2.91139C0 2.13924 0.30646 1.39844 0.852453 0.852453C1.39844 0.30646 2.13924 0 2.91139 0H11.0127C11.7848 0 12.5256 0.306461 13.0716 0.852453C13.6176 1.39844 13.9241 2.13924 13.9241 2.91139V3.50277Z" fill="currentColor"/>
</svg>
