<svg preserveAspectRatio="none" width="100%" height="100%" overflow="visible" style="display: block;" viewBox="0 0 20 19.9999" fill="none" xmlns="http://www.w3.org/2000/svg">
<path id="Vector" d="M15.516 0.199062C15.864 -0.0850582 16.3781 -0.06511 16.7026 0.259383L19.7405 3.29723C20.0865 3.64325 20.0865 4.20511 19.7405 4.55113L4.55126 19.7404C4.20524 20.0864 3.64338 20.0864 3.29736 19.7404L0.259515 16.7025C-0.0865048 16.3565 -0.0865048 15.7946 0.259515 15.4486L15.4487 0.259383L15.516 0.199062ZM2.14037 16.0756L3.92431 17.8595L14.8218 6.96202L13.0378 5.17808L2.14037 16.0756ZM16.2023 15.0629C16.2023 14.7608 16.0827 14.4706 15.869 14.257C15.6554 14.0434 15.3652 13.9238 15.0631 13.9238C14.5737 13.9238 14.177 13.5271 14.177 13.0377C14.177 12.5484 14.5737 12.1517 15.0631 12.1517C15.3652 12.1517 15.6554 12.0321 15.869 11.8184C16.0827 11.6048 16.2023 11.3146 16.2023 11.0125C16.2023 10.5231 16.599 10.1264 17.0883 10.1264C17.5777 10.1264 17.9743 10.5231 17.9743 11.0125C17.9743 11.3146 18.094 11.6048 18.3076 11.8184C18.5212 12.0321 18.8114 12.1517 19.1135 12.1517C19.6029 12.1517 19.9996 12.5484 19.9996 13.0377C19.9996 13.5271 19.6029 13.9238 19.1135 13.9238C18.8114 13.9238 18.5212 14.0434 18.3076 14.257C18.094 14.4706 17.9743 14.7608 17.9743 15.0629C17.9743 15.5523 17.5777 15.949 17.0883 15.949C16.599 15.949 16.2023 15.5523 16.2023 15.0629ZM6.07612 4.93679C6.07612 4.63466 5.9565 4.3445 5.74286 4.13086C5.52922 3.91722 5.23906 3.7976 4.93693 3.7976C4.44758 3.7976 4.05089 3.40091 4.05089 2.91156C4.05089 2.42222 4.44758 2.02553 4.93693 2.02553C5.23906 2.02553 5.52922 1.90591 5.74286 1.69227C5.9565 1.47863 6.07612 1.18847 6.07612 0.886334C6.07612 0.396989 6.47281 0.000296336 6.96216 0.000296336C7.4515 0.000296336 7.84819 0.396989 7.84819 0.886334C7.84819 1.18847 7.96781 1.47863 8.18145 1.69227C8.39509 1.90591 8.68525 2.02553 8.98739 2.02553C9.47673 2.02553 9.87342 2.42222 9.87342 2.91156C9.87342 3.40091 9.47673 3.7976 8.98739 3.7976C8.68525 3.7976 8.39509 3.91722 8.18145 4.13086C7.96781 4.3445 7.84819 4.63466 7.84819 4.93679C7.84819 5.42614 7.4515 5.82283 6.96216 5.82283C6.47281 5.82283 6.07612 5.42614 6.07612 4.93679ZM14.2917 3.92418L16.0757 5.70812L17.8596 3.92418L16.0757 2.14024L14.2917 3.92418Z" fill="currentColor"/>
</svg>
