<svg preserveAspectRatio="none" width="100%" height="100%" overflow="visible" style="display: block;" viewBox="0 0 20 20" fill="none" xmlns="http://www.w3.org/2000/svg">
<path id="Vector" d="M5.99684 10C5.99684 9.27829 6.04311 8.55999 6.12836 7.8481H2.06092C1.87231 8.54385 1.77215 9.26658 1.77215 10C1.77215 10.7286 1.87113 11.4517 2.06092 12.1519H6.12836C6.04311 11.44 5.99684 10.7217 5.99684 10ZM8.24763 13.9241C8.62011 15.4286 9.2072 16.8778 9.99407 18.2269C9.99604 18.2269 9.99802 18.2278 10 18.2278C10.0016 18.2278 10.0033 18.2269 10.0049 18.2269C10.7919 16.8777 11.3799 15.4288 11.7524 13.9241H8.24763ZM2.76899 13.9241C3.14593 14.6187 3.62122 15.2569 4.18216 15.8178C4.94619 16.5819 5.85302 17.1884 6.85127 17.6019C7.17002 17.7339 7.49695 17.8424 7.82832 17.9331C7.20482 16.6544 6.73742 15.3083 6.42998 13.9241H2.76899ZM13.57 13.9241C13.2626 15.3084 12.7943 16.6543 12.1707 17.9331C12.5024 17.8424 12.8297 17.734 13.1487 17.6019C14.147 17.1884 15.0538 16.5819 15.8178 15.8178C16.3788 15.2569 16.8541 14.6187 17.231 13.9241H13.57ZM12.1707 2.06586C12.7945 3.34495 13.2625 4.6913 13.57 6.07595H17.231C16.8567 5.38612 16.3829 4.74717 15.8178 4.18216C14.7981 3.16241 13.5378 2.43993 12.1707 2.06586ZM9.99407 1.77215C9.20698 3.12137 8.62018 4.5711 8.24763 6.07595H11.7524C11.3798 4.57094 10.7922 3.1215 10.0049 1.77215H9.99407ZM7.82832 2.06586C6.46158 2.44 5.20168 3.16264 4.18216 4.18216C3.61715 4.74717 3.14331 5.38612 2.76899 6.07595H6.42998C6.73748 4.69144 7.20463 3.34483 7.82832 2.06586ZM7.76899 10C7.76899 10.7223 7.81884 11.441 7.91337 12.1519H12.0866C12.1812 11.441 12.231 10.7223 12.231 10C12.231 9.2777 12.1812 8.55905 12.0866 7.8481H7.91337C7.81884 8.55905 7.76899 9.2777 7.76899 10ZM14.0032 10C14.0032 10.7217 13.9569 11.44 13.8716 12.1519H17.9391C18.1289 11.4517 18.2278 10.7286 18.2278 10C18.2278 9.26658 18.1277 8.54385 17.9391 7.8481H13.8716C13.9569 8.55999 14.0032 9.27829 14.0032 10ZM20 10C20 11.3132 19.7411 12.6139 19.2385 13.8271C18.736 15.0403 17.9993 16.1423 17.0708 17.0708C16.1423 17.9993 15.0403 18.736 13.8271 19.2385C12.8396 19.6476 11.7937 19.8914 10.7308 19.9693C10.6176 19.999 10.4992 20.0068 10.3817 19.9901C10.2546 19.995 10.1274 20 10 20C9.87225 20 9.74472 19.995 9.61729 19.9901C9.49979 20.0066 9.3814 19.9992 9.2682 19.9693C8.20561 19.8913 7.16011 19.6475 6.17286 19.2385C4.95975 18.736 3.85769 17.9993 2.92919 17.0708C2.0007 16.1423 1.26402 15.0403 0.761472 13.8271C0.258924 12.6139 0 11.3132 0 10C6.03591e-08 7.34784 1.05383 4.80456 2.92919 2.92919C4.63173 1.22666 6.88492 0.204173 9.27017 0.0296677C9.38244 0.000390757 9.49984 -0.00634301 9.6163 0.00988924C9.74393 0.00499137 9.87179 0 10 0C10.1279 0 10.2554 0.00501654 10.3827 0.00988924C10.4992 -0.00647456 10.6165 0.000510768 10.7288 0.0296677C13.1145 0.203963 15.368 1.22642 17.0708 2.92919C18.9462 4.80456 20 7.34784 20 10Z" fill="currentColor"/>
</svg>
