<svg preserveAspectRatio="none" width="100%" height="100%" overflow="visible" style="display: block;" viewBox="0 0 20 20" fill="none" xmlns="http://www.w3.org/2000/svg">
<path id="Vector" d="M16.3852 12.4094C16.3852 11.3549 15.9665 10.3435 15.2209 9.59788C14.4753 8.85227 13.4638 8.43356 12.4094 8.43356C11.3549 8.43356 10.3435 8.85227 9.59788 9.59788C8.85227 10.3435 8.43356 11.3549 8.43356 12.4094C8.43356 13.4638 8.85227 14.4753 9.59788 15.2209C10.3435 15.9665 11.3549 16.3852 12.4094 16.3852C13.4638 16.3852 14.4753 15.9665 15.2209 15.2209C15.9665 14.4753 16.3852 13.4638 16.3852 12.4094ZM0 13.3732V12.4094C0 11.9436 0.377584 11.566 0.843356 11.566C1.30913 11.566 1.68671 11.9436 1.68671 12.4094V13.3732C1.68671 13.6608 1.80056 13.937 2.00391 14.1403C2.20726 14.3437 2.48345 14.4575 2.77103 14.4575H3.73486C4.20064 14.4575 4.57822 14.8351 4.57822 15.3009C4.57822 15.7667 4.20064 16.1443 3.73486 16.1443H2.77103C2.03611 16.1443 1.33102 15.8526 0.811354 15.3329C0.291686 14.8132 0 14.1081 0 13.3732ZM14.3371 11.566C14.8028 11.566 15.1804 11.9436 15.1804 12.4094C15.1804 12.8752 14.8028 13.2527 14.3371 13.2527H10.4817C10.0159 13.2527 9.63836 12.8752 9.63836 12.4094C9.63836 11.9436 10.0159 11.566 10.4817 11.566H14.3371ZM0 8.55404V7.59021C0 7.12443 0.377584 6.74685 0.843356 6.74685C1.30913 6.74685 1.68671 7.12443 1.68671 7.59021V8.55404C1.68671 9.01982 1.30913 9.3974 0.843356 9.3974C0.377584 9.3974 0 9.01982 0 8.55404ZM0 3.73486V2.77103C0 2.03611 0.291685 1.33102 0.811354 0.811354C1.33102 0.291685 2.03611 0 2.77103 0H3.73486C4.20064 0 4.57822 0.377584 4.57822 0.843356C4.57822 1.30913 4.20064 1.68671 3.73486 1.68671H2.77103C2.48345 1.68671 2.20726 1.80056 2.00391 2.00391C1.80056 2.20726 1.68671 2.48345 1.68671 2.77103V3.73486C1.68671 4.20064 1.30913 4.57822 0.843356 4.57822C0.377584 4.57822 0 4.20064 0 3.73486ZM14.4575 3.73486V2.77103C14.4575 2.48345 14.3437 2.20726 14.1403 2.00391C13.937 1.80056 13.6608 1.68671 13.3732 1.68671H12.4094C11.9436 1.68671 11.566 1.30913 11.566 0.843356C11.566 0.377584 11.9436 0 12.4094 0H13.3732C14.1081 0 14.8132 0.291686 15.3329 0.811354C15.8526 1.33102 16.1443 2.03611 16.1443 2.77103V3.73486C16.1443 4.20064 15.7667 4.57822 15.3009 4.57822C14.8351 4.57822 14.4575 4.20064 14.4575 3.73486ZM8.55404 0C9.01982 0 9.3974 0.377584 9.3974 0.843356C9.3974 1.30913 9.01982 1.68671 8.55404 1.68671H7.59021C7.12443 1.68671 6.74685 1.30913 6.74685 0.843356C6.74685 0.377584 7.12443 0 7.59021 0H8.55404ZM18.0719 12.4094C18.0719 13.6269 17.6793 14.8037 16.965 15.7715L19.753 18.5595C20.0823 18.8888 20.0823 19.4236 19.753 19.753C19.4236 20.0823 18.8888 20.0823 18.5595 19.753L15.7715 16.965C14.8037 17.6793 13.6269 18.0719 12.4094 18.0719C10.9076 18.0719 9.46726 17.4754 8.40533 16.4134C7.34339 15.3515 6.74685 13.9112 6.74685 12.4094C6.74685 10.9076 7.34339 9.46726 8.40533 8.40533C9.46726 7.34339 10.9076 6.74685 12.4094 6.74685C13.9112 6.74685 15.3515 7.34339 16.4134 8.40533C17.4754 9.46726 18.0719 10.9076 18.0719 12.4094Z" fill="currentColor"/>
</svg>
